<?xml version="1.0" encoding="UTF-8"?><svg xmlns="http://www.w3.org/2000/svg" viewBox="0 0 886.68 828.95"><defs><style>.d{fill:#efefef;}.e,.f{fill:#98c1d9;}.g{fill:#3d5a80;}.f{stroke:#efefef;stroke-miterlimit:10;stroke-width:.5px;}.h{opacity:.25;}</style></defs><g id="a"/><g id="b"><g id="c"><path class="e" d="M369.03,719.97c10.31,6.13,20.73,12.06,31.26,17.8,13.57,7.4,25.69-13.32,12.11-20.72-10.53-5.74-20.95-11.67-31.26-17.8-13.31-7.91-25.4,12.83-12.11,20.72h0Z"/><path class="e" d="M480.05,721.31c-1.15,5.5,.18,10.32,4.75,13.85,3.19,2.46,7.1,3.11,11.05,3.24,7.47,.25,14.29-3.47,18-9.98,3.37-5.9,4.96-14.11,1.27-20.19-3.26-5.36-9.13-7.54-14.49-10.15-5.64-2.74-13.23-1.72-16.42,4.31-2.85,5.38-1.72,13.49,4.31,16.42,1.87,.91,3.75,1.81,5.62,2.73,.68,.33,1.58,1.02,2.3,1.16,.57,.35,.52,.28-.14-.18-2.2-1.52-3.17-3.93-2.92-7.23-.3,.58-.38,1.36-.61,1.99,.89-2.38-1.63,1.4,.94-1.19,1.12-1.13,1.46-1.17,2.75-1.66l-1.17-.05c1.15,.24,1.15,.17,0-.21l5.3,3.09-.58-.6,3.09,11.68,.13-.64c1.28-6.13-1.79-13.26-8.38-14.76-6.01-1.37-13.39,1.81-14.76,8.38h0Z"/><path class="e" d="M283.18,660.8c3.7,2.97,7.24,4.97,11.53,6.9,2.93,1.32,5.22,2.28,7.14,4.58,3.84,4.58,7.13,12.29,12.3,17.12,11.27,10.55,28.28-6.39,16.97-16.97-4.61-4.31-7.54-11.83-12.3-17.12-2.6-2.89-5.81-5.3-9.27-7.07-2.89-1.48-7.15-2.6-9.4-4.41-5.05-4.05-12.03-4.94-16.97,0-4.2,4.2-5.08,12.9,0,16.97h0Z"/><path class="e" d="M293.35,675.33c1.75,1.49,3.41,3.08,4.95,4.8,.32,.36,.64,.73,.95,1.1,1.18,1.4,.27,.42-.29-.45,.66,1.01,1.42,1.96,2.08,2.97,3.45,5.24,10.77,7.95,16.42,4.31,5.22-3.37,8-10.81,4.31-16.42-3.22-4.89-6.99-9.46-11.45-13.27-2.46-2.1-5.16-3.51-8.49-3.51-2.94,0-6.46,1.31-8.49,3.51-4.11,4.48-5.1,12.62,0,16.97h0Z"/><path class="e" d="M249.59,589.94c4.07,9.6,7.47,19.62,9.39,29.88,1.19,6.37,8.89,10,14.76,8.38,6.69-1.84,9.58-8.37,8.38-14.76-2.31-12.37-6.91-24.07-11.81-35.61-2.53-5.97-11.33-7.28-16.42-4.31-6.18,3.61-6.85,10.43-4.31,16.42h0Z"/><path class="e" d="M266.23,510.13c2.02,10.33,6.93,19.42,13.62,27.44,4.16,4.98,12.68,4.29,16.97,0,4.93-4.93,4.17-11.98,0-16.97s-6.21-10.46-7.45-16.85-8.85-10-14.76-8.38c-6.65,1.83-9.63,8.38-8.38,14.76h0Z"/><path class="e" d="M634.25,409.33l-35.8,21.84c-13.16,8.03-1.12,28.8,12.11,20.72l35.8-21.84c13.16-8.03,1.12-28.8-12.11-20.72h0Z"/><path class="e" d="M684.23,484.57c-6.81,3.69-13.07,8.63-18.17,14.46-4.13,4.72-4.99,12.39,0,16.97,4.53,4.16,12.56,5.05,16.97,0,2.13-2.43,4.43-4.58,6.86-6.69-.89,.77-.71,.51,.11-.07,.58-.41,1.16-.82,1.75-1.21,1.48-.99,3.02-1.88,4.58-2.72,5.53-2.99,7.74-11.09,4.31-16.42-3.62-5.61-10.51-7.51-16.42-4.31h0Z"/><path class="e" d="M630.64,603.52c4.76,6.35,7.51,12.79,8.79,20.62,1.04,6.4,8.99,9.97,14.76,8.38,6.8-1.87,9.43-8.34,8.38-14.76-1.55-9.5-5.44-18.66-11.21-26.36-3.88-5.18-10.37-7.84-16.42-4.31-5.1,2.98-8.22,11.2-4.31,16.42h0Z"/><path class="e" d="M493.51,586.18l15.84,8.72c4.22,2.32,9.12,4.41,12.87,7.48,4.26,3.48,7.5,8.68,10.89,12.97,3.91,4.96,7.82,9.92,11.73,14.88,7.01,8.89,13.8,17.89,19.37,27.77s10.45,20.94,15.15,31.65c2.6,5.94,11.29,7.31,16.42,4.31,6.12-3.58,6.92-10.46,4.31-16.42-4.95-11.27-9.9-22.58-16.07-33.26-6.38-11.05-14.33-21.03-22.21-31.03-3.91-4.96-7.82-9.92-11.73-14.88s-7.33-10.02-12.07-13.94c-9.51-7.87-21.61-13.05-32.38-18.97-13.54-7.45-25.66,13.27-12.11,20.72h0Z"/><path class="e" d="M682.56,440.92c-12.47-29.84-31.76-54.88-56.86-74.98-30.01-24.03-65.52-34.31-103.69-34.79-26.92-.35-53.8,1.98-80.38,6.51-22.2,3.78-44.26,8.36-64.92,17.67-46.85,21.11-85.36,52.6-116.2,93.3-23.15,30.56-36.47,65-36.23,103.41,.18,29.83,4.11,59.32,18.17,86.52,5.4,10.45,9.78,21.49,15.99,31.42,8.45,13.49,20.07,24.42,32.41,34.51,3.54,1.93,7.25,4.06,9.63,7.37,13.56,9.53,28.29,16.95,43.56,23.34,45.14,18.88,91.99,27.55,140.9,21.29,36.39-4.66,70.61-16.6,103.29-33.02,39.48-19.84,71.25-47.91,93.82-85.93,.58-.98,2.17-1.65,3.41-1.93,2.66-.6,5.42-.99,6.05-4.19,.45-2.27,.4-4.62,.71-6.92,.69-5.06,.87-10.3,2.33-15.14,6.06-20,9.73-40.4,10.11-61.24,.69-37.31-7.78-72.87-22.11-107.19Zm-420.37,66.43c7.07,.52,14.12,1.75,21.06,3.23,1.51,.32,2.56,2.74,3.83,4.19-1.61,1-3.11,2.36-4.87,2.91-2.11,.66-4.44,.65-7.49,1.02-3.99-.67-8.78-1.13-13.34-2.41-1.76-.5-2.99-2.88-4.46-4.41,1.76-1.6,3.63-4.66,5.27-4.54Zm21.11,92.04c-10.29,2.63-20.58,5.24-30.89,7.81-1.01,.25-2.33,.54-3.13,.12-1.86-.97-4.24-2.05-4.94-3.7-.44-1.04,1.42-4.16,2.86-4.67,7.72-2.77,15.58-5.17,23.48-7.38,3.56-1,7.32-1.27,10.99-1.87,2.97-.04,5.54,.6,6.18,3.85,.67,3.43-1.55,5.08-4.56,5.85Zm35.38,73.16c-3.81,6.8-10.16,10.97-16.77,14.74-.54,.31-1.28,.29-2.68,.58-1.04-.81-2.9-1.65-3.65-3.06-.56-1.05-.2-3.45,.67-4.21,5.44-4.78,11.01-9.46,16.86-13.73,1.31-.96,3.93-.15,5.95-.16-.08,1.97,.49,4.3-.37,5.84Zm30.35-242.52c-6.24-5.07-12.15-10.55-17.96-16.11-.65-.62-.34-3.33,.46-4.06,1.13-1.04,3.94-2.08,4.64-1.49,5.95,5.03,11.61,10.41,17.28,15.77,.6,.57,.7,1.67,.91,2.23-.05,3.01-3.27,5.33-5.32,3.66Zm189.59-51.67c2.29-6.67,5.01-13.22,7.99-19.63,.47-1.02,3.45-1.9,4.57-1.38,1.69,.79,2.76,2.88,3.8,4.07-2.02,8.13-4.53,14.89-9.69,20.28-1.1,1.15-3.21,1.35-4.85,1.99-.66-1.8-2.3-3.93-1.81-5.34Zm-91.35,16.53c.4-.11,.81-.21,1.21-.32,.97,3.23,2.34,6.42,2.79,9.72,.39,2.81-.15,5.78-.55,8.63-.13,.92-1.14,1.72-1.75,2.57-1.05-.86-3.02-1.75-2.99-2.57,.2-6.02,.81-12.03,1.28-18.04Zm-42.12,306.62c-3.36,7.31-6.77,14.6-10.55,21.7-.91,1.72-3.28,2.68-4.98,3.99-1.03-2.01-2.06-4.01-2.86-5.56,1.98-9.39,4.76-17.62,10.08-24.76,1.73-2.31,4.4-3.01,7.15-1.59,2.96,1.52,2.13,4.09,1.15,6.22Zm102.55,29.59c-2.28-.62-4.66-1.03-6.81-1.95-.93-.4-1.54-1.78-2.05-2.83-4.46-9.11-6.84-18.78-7.77-27.82,.02-3.66-.34-6.51,3.38-7.14,3.77-.63,5.2,1.61,6.08,4.74,2.68,9.63,5.57,19.21,8.05,28.89,.47,1.84-.55,4.06-.88,6.11Zm51.9-105.12c-1.58,1.48-4.82,2.11-7.12,1.73-4.56-.76-8.93-2.57-13.43-3.75-3.34-.87-6.78-1.37-10.14-2.18-.92-.22-1.71-.96-2.56-1.46,.54-.85,.9-1.9,1.64-2.51,7.57-6.23,7.82-6.9,.82-13.56-13.17-12.53-26.61-24.78-39.9-37.17-2.71-2.53-5.15-3.02-8.8-1.14-6.41,3.31-13.6,3.74-20.69,2.93-6.74-.77-15.7-10.16-16.78-16.98-1.16-7.26,4-17,11.55-20.63,3.78-1.82,4.39-3.95,3.74-7.83-3.98-23.72-7.66-47.5-11.57-71.23-.21-1.28-1.37-2.94-2.51-3.41-2.29-.94-4.86-1.47-7.34-1.62-3.77-.23-5.58-2.14-5.97-5.63-1.11-9.8,.37-19.41,2.31-29.22-.36,4.31,1.63,6.53,5.31,7.07,.13-1.58,.32-3.08,.37-4.59,.14-4.36,1.58-9.34-.07-12.89-1.5-3.22,.63-8.51-4.71-9.92-.43-.11-.72-1.08-.92-1.7-2.66-8.29-5.34-16.57-7.89-24.89-.41-1.35-.68-3.1-.14-4.28,.66-1.45,2.08-3.22,3.45-3.5,1.4-.28,3.72,.65,4.58,1.82,1.28,1.73,1.64,4.13,2.38,6.24,3.21,9.16,6.41,18.32,9.56,27.32-3.3-.39-3.79,2.23-3.63,5.7,.2,4.22-.12,8.47,.14,12.69,.14,2.23,1.05,4.42,1.73,7.07,1.36-.3,3.05-.66,4.75-1.03,.06,.17,.12,.34,.18,.5l-3.55,1.77c.11,.3,.22,.6,.34,.89,1.85-.77,3.7-1.53,5.5-2.28,1.32,5.45,.75,6.05-6.09,6.47-.35,1.15-.68,2.26-1.01,3.34,7.21,3.14,12.9-.46,13.29-8.35,.15-3.01,.02-6.04,.02-9.06,.32-.12,.64-.23,.96-.35,2.54,4.65,5.24,9.23,7.59,13.98,6.05,12.26,6.88,8.92-2.2,19.83-4.4,5.28-5.67,10.02-4.56,16.44,3.46,20.05,6.61,40.16,9.72,60.27,.58,3.74,2.17,5.47,6.09,5.54,2.48,.04,5.02,.72,7.39,1.51,11.76,3.94,16.4,14.96,11.1,26.12-1,2.11-1.97,4.22-2.79,5.96,16.73,9.59,28.64,23.88,42.18,36.28,2.82,2.58,5.04,5.81,7.62,8.83,3.65-3.14,6.15-5.5,8.87-7.58,2.96-2.26,5.24-1.6,6.37,1.97,.87,2.75,1.03,5.71,1.74,8.52,.96,3.83,2.33,7.56,3.14,11.42,.45,2.17,1.05,5.47-.07,6.51Zm31.25,64.92c-1.24-.78-3.71-1.64-5.11-3.35-3.64-4.48-6.94-9.27-10.08-14.11-.74-1.13-.78-3.12-.38-4.49,1.35-4.61,4.09-5.36,7.48-1.95,5.44,5.46,10.32,11.4,12.72,18.88,.98,3.05-.63,5.07-4.63,5.03Zm31.53-261.14c-.61-1-2.22-2.45-2.03-3.61,.34-2.08,1.26-4.64,2.83-5.85,5.12-3.93,10.54-7.51,16.09-10.82,1.04-.62,4.06,.11,4.64,1.1,.88,1.49,1.26,4.88,.39,5.52-6.35,4.68-13.05,8.89-19.66,13.22-.31,.2-.77,.16-2.26,.44Zm28.38,183.64c-.41,.18-.83,.36-1.24,.53-.66-1.22-1.5-2.39-1.92-3.69-.3-.96,.12-2.12-.07-3.13-1.4-7.34-4.59-8.2-11.53-6.47,.45-3.29,2.39-4.52,5.23-3.61,2.76,.88,5.36,2.32,7.9,3.73,.76,.42,1.51,1.56,1.56,2.41,.18,3.4,.07,6.81,.07,10.22Zm32.15-108.29c-8.4,1.95-16.84,3.69-25.27,5.51l-.16-.66c-1.2-.05-2.66,.3-3.53-.25-1.72-1.1-3.98-2.51-4.35-4.16-.27-1.19,1.95-4,3.44-4.32,9.34-2,18.77-3.58,28.2-5.11,2.23-.36,4.72-.21,5.25,2.87,.52,3.01-.46,5.4-3.58,6.13Z"/><path class="e" d="M642.01,298.13c-21.06-10.55-43.79-15.47-66.33-20.84-21.1-5.03-42.37-9.34-63.56-13.97-.48-.11-.95-.28-2.22-.66,.84-3.19,1.28-6.53,2.57-9.5,7-16.15,19.3-25.59,36.69-28.48,15.22-2.53,30.2-1.36,44.43,4.39,15.28,6.16,30.08,13.4,42.73,24.36,5.33,4.61,8.27,10.24,10.16,16.99,2.34,8.32,2.58,16.05-2.19,23.54-.66,1.04-1.03,2.27-1.56,3.4-.1,.21-.33,.36-.72,.78Z"/><path class="e" d="M374.2,293.77c-11.11,4.49-20.15,10.98-28.92,17.73-26.97,20.78-53.72,41.85-80.66,62.67-6.31,4.87-13.1,9.12-19.57,13.78-2.56,1.85-4.45,.77-5.61-1.31-2.05-3.68-3.89-7.51-5.41-11.44-7.76-20.05-2.01-37.93,9.2-54.79,9.02-13.57,21.87-23.04,34.82-32.47,15.84-11.53,33.79-16.78,52.91-18.84,7.25-.78,13.97,1.01,19.6,5.69,6.12,5.08,11.9,10.58,17.97,15.73,1.63,1.39,3.77,2.18,5.67,3.25Z"/><path class="e" d="M285.06,508.92c-2.69,3.44-5.74,6.59-9.21,9.25l4.41,3.39c.83-5.04,2.03-9.97,3.61-14.83,1.05-3.24-3.85-5.28-5.48-2.31l-4.42,8.02c-1.87,3.38,3.31,6.41,5.18,3.03l4.42-8.02-5.48-2.31c-1.57,4.86-2.77,9.79-3.61,14.83-.37,2.21,2.08,5.17,4.41,3.39,3.91-3,7.38-6.3,10.42-10.19,2.35-3.01-1.87-7.28-4.24-4.24h0Z"/><path class="e" d="M267.44,491.25c-5.11,4.22-7.68,10.53-10.57,16.31l-9.22,18.43c-2.9,5.79-1.54,13,4.31,16.42s13.14,1.31,16.42-4.31c4.1-7.02,7.19-14.62,9.02-22.53l-23.14-6.38c-.86,5.22-.85,9.27-.02,14.49,1.02,6.41,9.01,9.96,14.76,8.38,6.82-1.87,9.4-8.34,8.38-14.76,0-.05,.01-1.65,.02-1.73,1.05-6.39-1.67-12.92-8.38-14.76-6.06-1.67-13.29,2.04-14.76,8.38s-3.47,11.44-6.6,16.8l20.72,12.11,8.34-16.67c2.16-4.31,3.94-10.11,7.69-13.2,5-4.13,4.28-12.69,0-16.97-4.95-4.95-11.96-4.14-16.97,0h0Z"/><path class="e" d="M259.91,595.31c7.93,6.88,15.32,14.46,21.56,22.92,3.84,5.21,10.4,7.83,16.42,4.31,5.13-3,8.18-11.17,4.31-16.42-7.5-10.15-15.77-19.5-25.31-27.77-4.89-4.24-12.16-4.81-16.97,0-4.34,4.34-4.92,12.71,0,16.97h0Z"/><path class="e" d="M474.99,675.39c2.47,10.12,6.65,19.84,12.33,28.57,3.53,5.43,10.63,7.69,16.42,4.31,5.4-3.16,7.86-10.96,4.31-16.42-4.68-7.18-7.88-14.51-9.91-22.84-3.67-15-26.82-8.65-23.14,6.38h0Z"/><path class="e" d="M556.93,668.29c3.95,12.27,11.26,21.91,21.5,29.6,5.19,3.89,13.41,.83,16.42-4.31,3.59-6.14,.89-12.51-4.31-16.42-4.63-3.47-8.67-9.66-10.47-15.26-1.99-6.17-8.32-10.15-14.76-8.38-6.06,1.66-10.38,8.57-8.38,14.76h0Z"/><path class="e" d="M478.5,709.39c2.06,1.69-.69-1.59,.63,.46,1.51,2.35-.49-1.96,.33,.79s1.65,5.13,2.76,7.63c2.59,5.82,6.92,9.66,12.89,11.79s13.4-2.39,14.76-8.38c1.53-6.74-2.04-12.5-8.38-14.76,1.06,.38,1.57,1.09,2.45,1.52,.53,.71,.48,.57-.15-.43l-.45-.91c.7,1.51,.33,.61,0-.44-.25-.8-.48-1.6-.74-2.39-1.47-4.37-3.49-8.84-7.14-11.84-4.84-3.99-12.3-5.09-16.97,0-4.05,4.41-5.17,12.71,0,16.97h0Z"/><path class="e" d="M620.19,603.86c.86,.55,.95,.65,1.31,2.02-.3-1.1-.12,2.05,0,.89-.17,1.79-.6,3.55-.59,5.36,.04,7.27,3.9,12.87,8.42,18.18,4.2,4.94,12.65,4.32,16.97,0,4.89-4.89,4.21-12.02,0-16.97-.55-.65-1.67-3.31-1.45-1.64-.22-1.66,.58-3.67,.61-5.37,.03-2.03-.24-4.13-.68-6.11-1.61-7.28-6.31-13.1-12.48-17.08-5.45-3.51-13.25-1.11-16.42,4.31-3.4,5.81-1.16,12.9,4.31,16.42h0Z"/><path class="e" d="M638.67,517.82c10.78,.81,21.55,.74,32.32-.21,6.46-.56,12-5.11,12-12,0-6.05-5.51-12.57-12-12-10.77,.94-21.54,1.01-32.32,.21-6.47-.48-12,5.86-12,12,0,6.9,5.51,11.52,12,12h0Z"/><path class="e" d="M534.71,361.49c-1.29-2.91,0-1.91-1-.37-.68,1.04-.94,2.65-1.41,3.81-1.12,2.75-2.37,5.44-3.66,8.12-2.94,6.11-6.24,12.04-9.79,17.81-8.11,13.19,12.64,25.26,20.72,12.11,4.85-7.89,9.16-16.05,12.87-24.54,4.33-9.91,7.66-18.52,2.99-29.06-2.62-5.93-11.27-7.32-16.42-4.31-6.11,3.57-6.94,10.47-4.31,16.42h0Z"/><path class="e" d="M632.43,396.29c-16.86,9.9-32.78,21.19-47.89,33.59-5.01,4.12-4.27,12.7,0,16.97,4.96,4.96,11.95,4.13,16.97,0,13.52-11.1,27.95-20.99,43.04-29.84,13.31-7.81,1.25-28.57-12.11-20.72h0Z"/><path class="e" d="M411.33,365.91c4.44,8.79,8.86,17.56,11.33,27.14s1.74,19.86,2.86,29.78c2.46,21.78,8.89,42.9,10.85,64.75,.96,10.75,1.18,21.57,.66,32.35-.26,5.39-.71,10.77-1.34,16.13-.28,2.4-.64,4.79-1.03,7.18-.2,1.25-.38,2.52-.64,3.75-.12,.58-.23,3.15-.45,2.11-.53-2.57,13.41-2.06,12.19,1.97,.54-1.79-.13-4.98-.14-6.89-.02-5.64,.1-11.28,0-16.92-.19-11.06-1.32-22.06-2.66-33.03-1.5-12.23-3.26-24.43-4.22-36.72-.49-6.25-.76-12.52-.68-18.78,.06-5.1-.32-11.46,1.44-16.18l-3.09,5.3,.82-.93-5.3,3.09c-1.86,.73-3.99-.95-.54,.47,1.24,.51,.24-.01,1.97,1.05,1.54,.94,2.84,1.99,4.02,3.46,2.39,2.94,3.48,6.75,4.41,10.45,2.89,11.4,4.99,23,7.81,34.41,5.78,23.37,12.68,46.45,20.59,69.19l5.51-13.55c.72-.51,5.29,.52,5.34,.48,.53-.5-.13,.06,.08-1.11,.38-2.11-1.37-6.26-2.12-8.3-2.65-7.19-7.21-12-14.41-14.71s-15.11,4.38-15.19,11.57l-.24,22.49c-.04,3.59-.07,7.17-.12,10.76-.01,.83-.54,4.52-.13,4.93-3.54-3.51,8.6-3.47,6.86-4.08l5.3,3.09c1.65,3.05,1.95,5.96,.91,8.73l-.27,.39c.69,.15,2.81-.76,3.41-.82,2.21-.24,4.7,.24,6.87,.81,6.53,1.73,12.27,5.65,17.92,9.22,9.69,6.13,23.64-6.55,16.42-16.42-10.27-14.03-22.53-29.7-24.33-47.62l-22.36,6.06c6.62,9.01,11.38,18.64,14.38,29.4,1.6,5.73,3.18,11.41,5.8,16.78s7.01,9.29,10.46,14.07c5.83,8.07,7.8,17.47,16.17,23.76,2.53,1.9,5.28,3.17,8.27,4.2,1.1,.38,2.26,.78,3.41,1.01s.96,.72,.88,.16c.14,.91-2.17-2.8-1.43-2.85-.52,.04-3.88,3.72-4.72,4.33-11.28,8.23-4.36,23.97,9.25,21.93,9.03-1.35,16.89-7.18,22-14.59,2.39-3.46,4.18-7.5,5.09-11.61,.52-2.35,.85-4.86,.84-7.27,0-.92-.07-1.84-.21-2.75-.38-4.84-.72-4.25-1.03,1.75l-4.31,4.31,.93-.49-6.06,1.64c-10.03-.22-5.55-5.39-5.16-1,.09,1.06,.6,2.45,.68,3.48,.25,3.09-.82,5.7-1.4,8.69-1.67,8.68,.68,17.33,8.66,22.04,13.33,7.87,25.42-12.87,12.11-20.72,3.66,2.16,1.77,5.84,2.86,2.86,.88-2.43,1.2-5.26,1.49-7.79,.5-4.46,.2-8.9-.82-13.29-2.24-9.65-10.1-21-21.6-17.83-5.21,1.43-8.9,5.72-10.12,10.84-.38,1.44-.51,2.9-.39,4.36,.5,3.4,.6,4.25,.32,2.54,.08,2.3,.15,2.09-.24,3.6-1.23,4.74-4.74,7.31-10.01,8.1l9.25,21.93c6.33-4.62,12.42-9.48,15.13-17.13,2.5-7.08,1.55-15.29-3.41-21.07-2.63-3.07-5.78-4.98-9.54-6.41-1.33-.5-2.66-.88-4.02-1.29-.24-.07-3.15-1.28-2.29-.78,1.34,.79-1.25-1.13-1.44-1.35,.95,1.11-.53-.82-.76-1.21-1.4-2.3-2.55-4.73-3.74-7.14-2.82-5.75-6.35-10.53-10.57-15.37-3.68-4.22-5.07-9.16-6.53-14.46-3.72-13.48-9.14-26.19-17.45-37.5-3.2-4.35-8.03-7.03-13.55-5.51-4.73,1.3-9.33,6.4-8.81,11.57,2.31,22.92,14.31,41.57,27.61,59.74l16.42-16.42c-11.04-6.98-23.26-13.86-36.8-13.23-7.22,.33-14.81,2.36-20.22,7.39s-7.83,12.76-4.96,19.59c3.13,7.46,11.55,11.1,19.28,8.92s12.08-8.78,13.21-16.2c.98-6.47,.58-13.2,.65-19.73l.23-21.51-15.19,11.57c-1.06-.21-1.84-.74-2.33-1.57,.71,1.29,.86,1.55,.44,.78,.43,1.52,.75,3.03,1.1,4.57,1.07,4.75,2.61,9.4,5.84,13.14,5.9,6.84,16.75,9.86,24.57,4.3,4.14-2.94,7.35-8.28,5.51-13.55-6.22-17.89-11.83-35.98-16.74-54.28-2.41-8.99-4.67-18.02-6.76-27.09s-3.28-17.69-6.01-26.17-7.38-16.14-14.61-21.68c-7.07-5.42-17.99-10.38-26.54-5.38-9.13,5.34-8.37,19.58-8.59,28.79s.34,18.19,1.24,27.24c1.83,18.56,5.07,36.97,6.04,55.61,.47,9.09,.16,18.19,.28,27.29s2.44,19.8,12.49,22.98c10.64,3.38,19.33-4.48,22.4-14.09,2.73-8.57,3.17-18.5,3.93-27.42,1.63-19.16,.72-38.32-2.08-57.33s-8.75-38.61-9.64-58.42c-.46-10.27-1.02-20.38-4.14-30.26s-7.86-19.38-12.54-28.66c-2.92-5.78-11.07-7.43-16.42-4.31-5.88,3.44-7.24,10.61-4.31,16.42h0Z"/><g class="h"><path class="g" d="M575.07,263.37c9.16,6.21,19.13,11.93,27.68,18.97-3.44-2.84,.92,.97,2,2.03,.98,.96,1.84,2.01,2.8,2.98,1.88,1.9-1.5-2.73-.28-.26,2.39,4.83,5.04,9.4,7.15,14.4,1.9,4.49,8.1,8.43,12.55,9.65,5.03,1.38,11.72,.76,16.18-2.12,10.57-6.81,12.13-17.86,7.53-28.73-4.89-11.58-11.22-21.98-21.19-29.92-10.58-8.42-22.05-15.69-33.23-23.26-9.12-6.18-23.68-2.04-28.73,7.53-5.61,10.63-2.2,22.14,7.53,28.73h0Z"/></g><g class="h"><path class="g" d="M263.73,285.43c-30.02,25.26-42.44,68.06-32.93,105.74,2.69,10.65,15.2,18.11,25.83,14.67s17.55-14.42,14.67-25.83c-.48-1.91-.84-3.85-1.28-5.77-.38-2.34-.35-1.94,.08,1.21-.12-.98-.22-1.95-.31-2.93-.3-3.43-.38-6.87-.25-10.31,.04-1.08-.29-5.1,.43-5.88-.46,3.14-.51,3.54-.16,1.19,.16-.97,.33-1.94,.52-2.91,.66-3.38,1.53-6.73,2.59-10.01,.5-1.54,.96-4.31,2-5.56-1.09,2.51-1.31,3.05-.67,1.62,.3-.68,.61-1.35,.93-2.01,1.7-3.55,3.65-6.98,5.82-10.26,.69-1.03,1.52-2.85,2.54-3.62-1.8,2.29-1.98,2.55-.55,.77,.63-.76,1.27-1.5,1.92-2.23,2.63-2.94,5.48-5.64,8.5-8.18,8.44-7.1,7.87-22.48,0-29.7-8.98-8.24-20.7-7.57-29.7,0h0Z"/></g><g class="h"><path class="g" d="M543.57,377.19c7.46,4.17,14.57,8.85,21.37,14.02l-6.68-5.16c13.1,10.13,24.7,21.93,34.86,34.99l-5.16-6.68c11.71,15.28,21.29,31.99,28.88,49.68l-3.33-7.88c8.76,20.77,14.62,42.52,17.73,64.84l-1.18-8.77c2.76,20.97,3.05,42.13,.31,63.11l1.18-8.77c-2.37,17.01-6.71,33.62-13.39,49.45l3.33-7.88c-5.65,13.06-12.8,25.34-21.44,36.65l5.16-6.68c-8.08,10.39-17.28,19.77-27.62,27.91l6.68-5.16c-9.6,7.4-19.98,13.58-31.13,18.35-7.06,3.02-13.23,12.7-15.17,19.72-2.18,7.9-1.19,18.42,3.33,25.43s11.31,13.25,19.72,15.17l8.77,1.18c5.96-.02,11.51-1.52,16.66-4.51,59.83-25.59,99.68-88.22,108.62-151.2s-4.27-135.89-41.33-191.68c-19.78-29.78-45.53-55.59-76.86-73.11-15.07-8.43-36.72-4.12-45.15,11.84s-4.25,36.15,11.84,45.15h0Z"/></g><path class="e" d="M324.22,411.76c-.1,15.89,7.86,29.64,20.72,38.6,7.47,5.2,20.44,.18,22.03-8.96,1.88-10.83-2.6-18.3-10.02-25.79-5.52-5.58-11.61-10.48-17.91-15.13-8.44-6.23-19.04,.83-22.03,8.96-5.07,13.8,5.34,25.84,16.83,31.7,7.21,3.68,16.27,1.89,20.52-5.38,3.92-6.69,1.86-16.83-5.38-20.52-1-.49-1.98-1.01-2.95-1.55-1.52-1.03-1.86-1.19-1.03-.49,.3,.53,.51,1.1,.63,1.7-.59,4.21-.49,5.05,.3,2.51l-22.03,8.96c2.1,1.55,5.39,4.3,8.16,6.87,1.46,1.36,2.89,2.74,4.28,4.17,.8,.81,1.58,1.64,2.35,2.48-1.3-1.81-1.52-3.98-.65-6.48l22.03-8.96c.99,.89,.81,.75-.53-.43-.74-.68-1.44-1.39-2.11-2.15,.74,1.1,.61,.91-.39-.56-.55-.84-1.05-1.71-1.52-2.61-1.09-1.97-1.34-4.04-1.32-6.95,.05-7.85-6.93-15.36-15-15s-14.95,6.59-15,15h0Z"/><path class="e" d="M325.13,415.09c2.51,6.35,5.3,12.51,8.84,18.36,4.06,6.71,13.64,9.82,20.52,5.38s9.73-13.34,5.38-20.52c-1.33-2.2-2.6-4.43-3.75-6.73-.49-.98-.97-1.98-1.43-2.98-.31-.67-.6-1.34-.89-2.01,.8,1.89,.88,2.07,.26,.53-1.49-3.76-3.28-6.85-6.89-8.96-3.22-1.88-7.95-2.68-11.56-1.51-7.05,2.28-13.57,10.64-10.48,18.45h0Z"/><path class="e" d="M404.13,272.19c2.25,3.28,4.31,6.3,6.76,9.87-5.69,2.25-10.75,4.57-16.02,6.21-3.41,1.06-4.62-2.4-5.82-4.61-.42-.77,.83-3.21,1.94-3.92,4.14-2.67,8.53-4.95,13.14-7.55Z"/><path class="e" d="M494.73,252.8c-1.6,7.23-3.07,13.86-4.81,21.72-9.3-1.63-17.98-2.56-26.04-4.76-5.21-1.42-2.21-7.99-.79-12.57,.5-1.6,5-4.3,7.17-4.43,8.08-.46,15.95-.05,24.46,.04Z"/><path class="f" d="M646.48,659.79c2.36-2.83,4.18-5.01,6.17-7.39,4.37,5.44,8.37,10.51,12.46,15.5,7.79,9.51,17.61,16.7,27.56,23.77,6,4.26,20.04,12.16,19.32,20.46-.21,2.46-1.55,4.69-3.15,6.57-3.33,3.92-8.06,6.74-13.17,7.32-5.11,.58-10.54-1.24-13.94-5.11-2.92-3.33-4.15-7.81-4.65-12.2-1.09-9.61,.32-17.31-6.96-24.19-8.28-7.83-15.87-16.33-23.65-24.72Z"/><path class="e" d="M361.32,734.66c1.08,2.25,.51,5.13,1.58,7.46,2.06,4.48,5.3,4.38,4.12,10.89-2.01,11.03-7.39,21.24-9.04,32.33-.49,3.26-.66,6.62-1.9,9.66-1.98,4.83-6.47,8.22-11.29,10s-10.02,2.17-15.13,2.55c-10.39,.76-19.35-24.67-9.6-29.81,3.56-1.88,5.8-.72,8.65-4.47,2.51-3.29,3.8-8.49,5.43-12.3,3.78-8.81,7.52-17.64,11.15-26.51,1.27-3.1,1.63-5.3,4.88-5.65,1.89-.2,9.95,3.85,10.89,5.35,.1,.16,.19,.33,.27,.49Z"/><path class="e" d="M463.57,537.28c.03-6.19,5.48-12.04,11.3-12.13,4.65-.07,7.87,3.58,7.9,8.94,.03,6.19-4.74,12.32-9.83,12.05-5.43-.28-9.94-2.17-9.36-8.87Z"/><path class="d" d="M886.68,357.14c-5.09,1.74-10.23,3.33-15.25,5.23-17.99,6.83-35.81,14.09-53.92,20.58-23.65,8.48-47.5,16.39-71.28,24.5-2.1,.72-4.3,1.46-6.48,1.53-1.72,.06-3.84-.41-5.15-1.45-4.08-3.25-3.67-6.49,.92-8.86,1.65-.85,3.45-1.66,5.25-1.88,2.79-.35,3.11-1.82,2.22-3.89-2.52-5.81-5.2-11.56-7.76-17.35-1.58-3.58-3.04-7.2-4.55-10.81,.4-.29,.81-.58,1.21-.87,1.18,1.08,2.7,1.96,3.49,3.28,4.35,7.23,8.68,14.48,12.69,21.9,2.48,4.58,2.2,4.67,7.1,3.04,34.53-11.51,69.06-22.99,103.58-34.52,2.99-1,5.51-1.19,8.05,1.3,.82,.81,3.04,.56,4.51,.27,5.15-1.02,10.25-2.26,15.36-3.42v1.41Z"/><path class="d" d="M317.75,357.47c-5.2,4.02-10.41,8.19-15.77,12.15-13.13,9.7-26.35,19.29-39.51,28.94-2.1,1.54-3.88,1.54-6.39,.29-5.01-2.5-7.99-6.51-9.98-11.39-7.03-17.3-8.52-34.64,.46-51.77,3.64-6.94,7.65-13.69,11.63-20.77,0-.01-.26-.4-.62-.65-3.28-2.29-3.32-3.56-.03-5.97,2.75-2.01,5.56-3.93,8.34-5.9,1.71-1.22,2.21-2.54,1.53-4.81-.62-2.06-.13-4.46-.13-7.08,.2,.19,.06-.07-.13-.1-5.7-1.05-8.46-3.52-8.5-7.65-.04-4.26,4.03-9.03,8.57-10.03,5.38-1.19,9.34,1.74,10.7,7.4,.67,2.82,2.11,5.45,3.35,8.53,7.92-5.1,13-11.4,16.95-18.72,6.2-11.48,9.94-23.53,9.17-36.79-.37-6.33,.21-12.74-.45-19.03-.76-7.22,2.64-11.9,7.96-15.7,8.25-5.88,17.61-9.65,27.35-11.82,22-4.9,44.03-9.95,66.28-13.41,26.46-4.12,53.14-6.89,79.79-9.69,8.82-.93,17.85-.64,26.73,0,6.46,.46,11.05,5.26,14.65,10.16,3.79,5.17,6.68,11.03,9.76,16.7,4.6,8.49,9.47,16.71,16.08,23.9,7.69,8.36,16.54,10.57,27.09,6.84,3.35-1.18,6.69-1.65,9.73,.7,1.07,.83,2.44,1.98,2.61,3.14,.62,4.13,3.6,5.42,6.87,6.7,3.71,1.46,7.45,2.91,10.98,4.74,3.84,1.99,3.97,3.24,1.23,7.18,.97,.71,1.96,1.43,2.94,2.16,6.59,4.88,13.54,9.37,19.69,14.75,8.51,7.44,11.19,17.63,11.24,28.6,.04,7.75-1.97,15.1-4.7,22.28-1.29,3.39-6.01,4.61-9.32,3.22-9.19-3.85-18.42-7.66-27.86-10.8-8.34-2.77-17.01-4.55-25.48-6.93-2.26-.63-3.34,0-3.84,2.12-.72,3.09-1.37,6.19-2.18,9.25-.79,3.01,.58,4.22,3.33,4.96,16.9,4.56,32.91,11.38,47.38,21.18,20.51,13.9,37.72,31.31,52.56,51.19,9.17,12.27,16.25,25.48,21.61,39.79,7.14,19.04,15.23,37.85,17.46,58.24,1.77,16.1,1.93,32.38,3.3,48.53,1.67,19.71-1.68,38.54-8.08,57.1-8.6,24.94-21.87,46.97-39.79,66.26-1.28,1.38-2.59,2.73-3.87,4.1-.15,.17-.23,.4-.67,1.2,3,3.13,6.09,6.45,9.28,9.68,5.03,5.08,10.09,10.12,15.22,15.09,.67,.65,1.86,.97,2.85,1.04,7.99,.62,13.85,4.43,15.36,10.1,1.79,6.76-1.21,14.59-7.35,18.88-5.34,3.72-11.41,4.91-17.78,4.43-4.45-.34-9.37-4.61-9.55-9.46-.27-7.21-4.1-11.75-9.05-16.17-6.11-5.46-11.85-11.35-17.67-16.99-9.47,7.24-18.49,14.57-27.96,21.28-12.35,8.75-24.77,17.47-37.68,25.34-12.05,7.34-25.92,10.31-39.45,13.74-34.81,8.83-69.96,15.93-106.05,15.91-14.41,0-28.85-1.52-43.21-3.03-5.63-.59-11.06-3.07-16.59-4.66-1.69-.49-3.41-.91-5.13-1.28-2.69-.58-3.99,.07-5.5,3.01-5.47,10.64-11.5,21.02-17.73,31.24-2.13,3.5-3.54,6.77-2.79,10.82,.15,.8,.12,1.64,.19,2.46,.87,10.45-.19,11.72-10.55,12.16-3.99,.17-8,.24-11.99,.09-8.84-.32-15.66-6.38-16.17-14.17-.53-8.1,5.63-15.79,13.9-17.57,1.05-.23,2.41-1.06,2.79-1.97,5.37-12.78,10.59-25.62,15.84-38.45,.13-.31,.16-.67,.31-1.35-1.22-.32-2.39-.75-3.6-.91-7.15-.95-13.01-4.38-18.35-9.08-4.32-3.81-8.57-7.85-13.45-10.82-26.03-15.88-40.16-40.94-51.82-67.59-6.48-14.8-12.62-30.07-16.22-45.75-6.51-28.33-7.93-57.22-2.83-86.13,1.53-8.68,2.84-17.4,4.47-26.05,2.36-12.5,8.11-23.7,13.65-34.99,15.6-31.79,38.37-57.78,64.98-80.69,5.35-4.6,5.43-5.96-.38-11.44Zm-2,332.75c-1.25,1.38-2.49,2.77-4.32,4.79,1.57-.46,2.29-.67,3.6-1.05,0,2.15-.16,4.05,.08,5.89,.09,.66,1.15,1.2,1.76,1.79,.37-.55,.99-1.08,1.05-1.66,.17-1.66,.15-3.35,.13-5.03-.03-1.77,.55-3.9-2.23-4.24,1.03-.96,2.06-1.91,3.2-2.97,.15,.06,.53,.14,.81,.34,12.93,9.33,27.04,16.53,41.68,22.7,41.98,17.69,85.54,25.82,131.02,19.95,33.84-4.37,65.65-15.55,96.05-30.94,36.71-18.59,66.25-44.9,87.24-80.52,.54-.92,2.02-1.55,3.17-1.81,2.48-.56,5.04-.93,5.63-3.93,.42-2.12,.37-4.33,.66-6.48,.65-4.75,.81-9.65,2.17-14.19,5.63-18.74,9.04-37.86,9.4-57.39,.64-34.97-7.23-68.29-20.56-100.44-11.59-27.96-29.53-51.43-52.87-70.27-27.9-22.52-60.93-32.15-96.41-32.6-25.03-.32-50.03,1.86-74.74,6.1-20.64,3.54-41.15,7.83-60.37,16.56-43.56,19.78-79.38,49.29-108.05,87.43-21.53,28.64-33.91,60.91-33.69,96.9,.17,27.95,3.82,55.59,16.89,81.07,5.02,9.79,9.09,20.14,14.87,29.45,7.96,12.81,18.95,23.16,30.59,32.71,1.01,.82,2.28,1.32,3.43,1.97l-.91,1.6c-1.3,.22-2.66,.29-3.9,.72-.76,.26-1.47,.98-1.94,1.68-.21,.31,.2,1.52,.41,1.54,.74,.09,1.96,.09,2.21-.34,2-3.41,2.92-1.28,3.93,.66Zm127.38-414c1.45,4.72,3.12,8.84,3.92,13.11,.88,4.71,.95,9.57,1.38,14.36,.15,1.68,.1,3.37,2.74,2.9,6.23-1.11,12.49-2.05,18.82-3.07,.34-5.93,1.28-11.36,5.98-15.4,2.56,3.64,2.72,6.4,1.07,14.18,4.03,0,8.12-.21,12.18,.04,12.2,.74,24.39,1.65,36.58,2.52,4.63,.33,4.62,.37,3.6,4.83-.03,.13,.23,.32,.38,.52,.31-.1,.65-.17,.97-.3,1.09-.45,2.17-.92,3.26-1.38-.49,1.22-.9,2.48-1.5,3.65-.63,1.21-1.44,2.32-2.17,3.48,.28,.18,.57,.35,.85,.53,.63-.85,1.26-1.69,2.24-3.02,.55,1.69,.92,2.8,1.41,4.3,4.09-3.44,1.19-7.65,1.7-11.54,7.63,.88,15.03,1.73,22.15,2.55,.48-5.63,.92-10.73,1.38-16.1-9.3-2.42-18.4-4.67-27.43-7.19-7.57-2.11-15.13-4.31-22.53-6.93-4.54-1.61-5.76-4.17-4.88-8.88,.62-3.32,1.52-6.68,2.89-9.76,9.09-20.43,26.16-28.81,47.28-30.9,1.4-.14,2.83-.02,5.03-.02-17.03-14.59-19.6-18.01-29.36-38.02-1.85-3.79-3.9-7.5-6.05-11.14-2.8-4.72-6.98-7.82-12.47-8.23-7.35-.55-14.79-1.11-22.12-.62-11.01,.75-21.93,2.67-32.94,3.63-38.01,3.32-75.43,10.18-112.61,18.53-8.67,1.95-16.64,5.63-24.24,10.23-4.62,2.8-6.85,6.44-6.05,11.96,.56,3.83,.62,7.73,1,11.59,1.01,10.29,.43,20.4-2.8,30.32-2.32,7.11-7.12,13.65-4.92,21.81,.36-.11,1.04-.27,1.68-.51,12.97-4.92,26.45-6.39,40.19-5.88,2.2,.08,4.53,.32,6.53,1.14,12.97,5.33,21.74,15.33,28.88,26.91,1.94,3.14,.36,8.98-2.17,10.63-9.84,6.41-19.76,12.7-29.42,19.37-6.86,4.74-13.38,9.97-19.94,15.13-.87,.69-1.81,2.48-1.49,3.27,.83,2.08,2.34,3.9,3.63,5.89,17.44-10.43,32.86-23.37,52.1-29.54,18.95-6.08,37.89-12.16,56.03-17.98-1.88-9.67-3.74-19.24-5.59-28.78l-9.54-.86c-.04-.5-.08-1-.11-1.5,1.28-.65,2.51-1.52,3.86-1.9,2.6-.73,5.3-1.05,7.9-1.77,2.82-.77,6.24-.35,7.88-3.77,.2-.42,1.49-.8,1.87-.56,1.16,.75,3.14,2.18,2.96,2.67-.53,1.43-1.71,3.06-3.06,3.65-2.39,1.05-5.08,1.4-6.9,1.85Zm-59.42,26.03c-1.79-1-3.8-1.75-5.34-3.06-5.71-4.85-11.15-10.03-16.92-14.81-5.3-4.41-11.64-6.09-18.46-5.36-18,1.94-34.91,6.89-49.82,17.74-12.2,8.88-24.3,17.8-32.79,30.58-10.55,15.88-15.97,32.71-8.66,51.59,1.43,3.7,3.16,7.31,5.1,10.77,1.1,1.96,2.87,2.97,5.28,1.24,6.1-4.39,12.49-8.39,18.43-12.98,25.37-19.6,50.56-39.45,75.96-59.02,8.26-6.36,16.77-12.47,27.23-16.7Zm252.2,4.11c.37-.39,.58-.54,.68-.74,.5-1.06,.85-2.22,1.47-3.2,4.49-7.06,4.26-14.34,2.06-22.17-1.79-6.35-4.55-11.65-9.57-16-11.91-10.32-25.85-17.13-40.24-22.94-13.41-5.41-27.51-6.51-41.84-4.13-16.37,2.72-27.95,11.61-34.55,26.82-1.21,2.8-1.63,5.94-2.42,8.94,1.2,.36,1.64,.52,2.09,.62,19.96,4.36,39.99,8.42,59.86,13.16,21.22,5.06,42.63,9.68,62.46,19.62Zm-273.38,434.94c-2.69-1.37-4.72-2.49-6.83-3.47-6.37-2.98-6.2-2.88-8.87,3.51-4.84,11.58-9.88,23.09-14.95,34.58-1.38,3.13-3.53,5.38-7.41,5.59-4.6,.25-6.99,2.52-7.5,6.43-.44,3.36,1.99,7.19,6.24,7.74,5.23,.68,10.61,.16,16.37,.16-.47-3.43-.59-6.39-1.34-9.18-.91-3.4,.08-5.94,1.9-8.81,7.51-11.9,14.74-23.97,22.41-36.54Zm293.61-70.45c8.39,7.88,16.38,15.68,24.72,23.07,2.9,2.57,3.99,5,3.23,8.76-1.72,8.48,1.79,9.11,9.11,7.75,.9-.17,1.77-.63,2.59-1.07,7.41-3.98,7.82-9.97,.74-14.25-9.35-5.65-18.94-10.94-26.54-19.02-3.04-3.23-6.02-6.51-9.26-10.04-1.48,1.54-2.84,2.96-4.59,4.79Z"/><path class="d" d="M140.27,240.49c1.02-7.7,1.98-15,2.94-22.29,3.63-27.54,4.76-55.26,5.83-82.98,.48-12.44,1.57-24.86,2.8-37.25,.2-2.04,2.23-4.28,4-5.69,2.57-2.04,5.6-1.92,7.82,.86,5.87,7.33,12.12,14.41,17.32,22.2,11.35,16.99,22.14,34.35,33.16,51.57,1.25,1.95,2.47,3.92,4.07,6.46,2.05-2.91,3.95-5.26,5.47-7.83,8.59-14.44,16.94-29.01,22.81-44.86,2.6-7.02,9.25-8.16,14.37-2.52,2.77,3.05,6.22,5.87,5.59,10.83-.1,.78,.92,2.42,1.48,2.45,4.11,.18,5.1,3.67,6.99,6.19,1.54,2.05,3.01,4.16,4.88,6.76,3.84-3.47,7.55-6.65,11.07-10.02,8.92-8.53,17.69-17.21,26.65-25.7,2.63-2.49,5.62-4.63,8.55-6.77,2.13-1.56,4.12-1.2,6.44,.3,5.68,3.67,7.42,9.04,7.61,15.32,.3,9.87-1.33,19.43-4.51,28.74-.26,.77-.6,1.54-1.02,2.24-1.29,2.21-2.82,4.24-5.79,3.66-2.62-.52-5.15-4.09-5.14-6.85,.01-6.66,0-13.32,0-19.98l-1.29-.38c-2.83,2.35-5.65,4.71-8.48,7.05-10.6,8.76-21.09,17.65-31.84,26.22-5.52,4.4-7.91,4.2-12.55-1.15-3.82-4.4-6.98-9.4-10.29-14.23-1.64-2.4-2.96-5.03-4.77-8.14-1.94,3.62-3.61,6.66-5.2,9.73-7.17,13.79-15.02,27.13-25.18,39-2.56,2.99-5.33,4.9-9.44,3.98-.67-.15-1.53-.28-2.09,0-3.79,1.94-4.88-.7-6.47-3.32-12.14-19.98-24.41-39.87-36.63-59.8-2.02-3.29-3.99-6.6-6.69-9.84-.07,1.43-.16,2.86-.21,4.29-.74,20.91-.87,41.86-2.41,62.71-1.41,19.2-4.28,38.29-6.62,57.41-.87,7.11-2.08,14.18-3.16,21.26-.16,1.04-.47,2.06-.71,3.09-.67,2.9-2.49,4.65-5.45,4.49-2.97-.16-5.09-2.34-5.03-5.03,.11-5-3.03-6.19-6.72-7.96-18.31-8.81-36.44-17.99-54.68-26.95-5.64-2.77-11.42-5.23-17.63-7.16,.41,.76,.81,1.53,1.22,2.29,12.48,23.29,24.98,46.57,37.43,69.87,.82,1.54,1.51,3.25-.75,4.44-.4,.21-.7,.97-.71,1.48-.1,3.99-.16,7.98-.11,11.96,0,.73,.58,1.45,1.03,2.5-1.22,.6-2.59,1.28-4.68,2.31,0-6.05,.05-11.07-.03-16.08-.03-1.8,.91-4.28-2.51-4.26-3.14,.02-2.31,2.27-2.44,4.01-.08,1.11-.11,2.23-.21,4.14-4.3-8.53-8.15-16.34-12.15-24.07-10.29-19.92-19.67-40.38-33.71-58.12-3.21-4.06-6.66-7.93-9.75-12.07-1.91-2.55-4.8-5.43-2.53-8.81,2.25-3.34,5.9-1.49,8.76-.59,25.44,8.07,50.43,17.29,74.31,29.34,7.02,3.54,14.3,6.57,21.49,9.76,1.57,.69,3.28,1.07,5.5,1.77Z"/><path class="d" d="M101.64,335.42c-.79-1.53-1.51-2.86-2.17-4.23-1.09-2.27-2.7-4.27,.81-6.43,1.3-.8,1.24-4.04,1.51-6.21,.2-1.61,.36-3.46-.22-4.89-1.69-4.17,.52-7.93,1.4-12.15,1.69,4.24,3.75,8.37,4.99,12.74,2.59,9.14,4.75,18.39,7.08,27.6,.67,2.66-.31,4.4-2.72,5.75-24.79,13.88-47.1,31.36-69.87,48.17-3.85,2.84-7.69,5.7-11.53,8.55l.18,1.01c8.03,.41,16.08,1.3,24.1,1.14,22.21-.46,44.41-1.4,66.61-2.05,7.28-.21,14.59-.44,21.86-.06,6.77,.36,14.03-2.41,20.49,2.52-.32-.57-.64-1.14-1.3-2.31,1.99,.94,3.57,1.68,5.37,2.53,1.38-3.63,4.25-2.21,6.79-1.44,3.62,1.1,5.4,4.06,6.35,7.44,.92,3.25-1.53,5.26-3.47,7.24-.68,.69-2.11,.91-3.19,.91-36.21-.03-72.42,.14-108.62-.31-14.67-.18-29.32-1.75-43.99-2.64-4.92-.3-9.85-.39-14.77-.63-.81-.04-1.62-.27-2.41-.48-5.6-1.5-6.55-4.21-2.12-7.85,9.53-7.83,19.26-15.42,29.17-22.76,21.72-16.08,43.6-31.94,65.41-47.89,1.41-1.03,2.77-2.13,4.27-3.28Z"/><path class="d" d="M672.58,352.58c1.91,1.65,3.89,3.21,5.71,4.95,11.29,10.89,20.19,23.48,26.73,37.75,10.18,22.23,19.02,44.99,26.32,68.33,8.22,26.27,10.06,53.16,7.63,80.5-1.28,14.39-1,29.09-5.59,42.88-4.65,13.99-10.56,27.58-16.41,41.13-2.63,6.1-7.45,10.82-13.03,14.53-1.55,1.03-3.39,1.6-5.1,2.38-.2-.29-.39-.57-.59-.86,2.81-4.53,5.63-9.04,8.41-13.58,10.84-17.68,19.15-36.48,22.19-57.06,1.96-13.21,2.03-26.68,3.18-40.02,3.01-35.17-6.18-68.05-19.12-100.11-6.5-16.09-13.57-31.99-21.29-47.52-3.66-7.36-9.46-13.65-14.31-20.41-1.77-2.47-3.84-4.78-5.31-7.42-.75-1.35-.5-3.26-.7-4.92l1.29-.55Z"/><path class="d" d="M194.28,507.17c-1.47,.56-2.91,1.2-4.41,1.65-5.73,1.7-11.57,3.13-17.21,5.09-3.14,1.1-5.96,3.11-8.96,4.62-1.55,.78-3.13,1.7-4.8,2.01-32.99,6.19-65.96,12.51-99.02,18.31-11.31,1.98-22.86,2.63-34.3,3.86-1.28,.14-2.58,.19-3.87,.19-2.29,0-4.64-.04-5.11-3.06-.44-2.84,.77-5.02,3.41-5.83,3.57-1.1,7.26-2.12,10.96-2.47,39.95-3.74,79-12.84,118.45-19.52,13.88-2.35,27.9-3.94,41.85-5.85,.89-.12,1.82-.02,2.73-.02l.26,1Z"/><path class="d" d="M215.17,595.32c4.04,.49,5.59,2.83,6.14,6.83,3.88,28.01,14.91,53.44,28.47,77.94,7.82,14.13,19.52,24.47,32.15,34.07,6.34,4.82,12.14,10.36,18.07,15.7,1.86,1.67,3.77,4.05,1.56,6.38-2.08,2.2-4.89,1.31-7.01-.52-12.51-10.84-25.25-21.44-37.35-32.72-11.58-10.8-17.81-25.2-24.4-39.25-9.49-20.23-15.78-41.42-19.11-63.51-.29-1.92-.78-3.85,1.53-4.95l-.07,.04Z"/><path class="d" d="M217.42,579.93c-2.4,.78-4.44,1.44-7,2.27-.56-6.17-1.33-12.43-1.68-18.72-1.83-33.14,3.8-65.08,16.02-95.87,5.2-13.09,10.58-26.12,16.23-39.03,1.61-3.69,4.31-6.95,6.76-10.22,.6-.81,2.17-.89,3.29-1.3,.12,1.21,.66,2.57,.28,3.6-1.21,3.3-2.89,6.42-4.17,9.7-7.81,20.01-16.72,39.68-23.01,60.16-7.26,23.64-10.69,48.17-8.42,73.13,.5,5.48,1.13,10.96,1.68,16.28Z"/><path class="d" d="M599.58,727.82c-1.76,1.06-3.49,2.17-5.29,3.16-39.12,21.63-81,34.76-125.26,40.35-11.17,1.41-22.43,2.16-33.66,3.03-3.93,.3-4.64-.62-3.94-4.45,.16-.84,1.49-2.07,2.32-2.11,53.26-2.31,103.57-16.83,152.61-36.66,3.05-1.23,5.98-2.73,9.04-3.94,1.16-.46,2.51-.45,3.77-.65,.14,.42,.28,.85,.42,1.27Z"/><path class="d" d="M204.53,665.39c-2.84-7.39-5.73-14.77-8.52-22.18-8.69-23.1-12.77-47.13-14.17-71.65-.64-11.24-.95-22.54-.57-33.78,.11-3.33,2.96-6.63,4.78-9.81,.35-.61,1.79-.6,2.73-.88,.24,.85,.8,1.74,.69,2.54-4.53,32.08,2.34,63.43,6.09,94.96,1.5,12.62,3.92,25.07,9.07,36.83,.49,1.13,.65,2.41,.96,3.62-.35,.12-.7,.24-1.05,.35Z"/><path class="d" d="M852.27,582.66c-.83,4.5-.87,4.67-5.4,3.73-18.72-3.87-37.42-7.83-56.1-11.85-2.26-.49-4.46-1.45-6.56-2.47-2.39-1.16-3.23-3.31-2.74-5.9,.51-2.7,2.41-4.17,4.92-4.26,2.41-.09,4.92,.28,7.27,.89,16.8,4.34,33.52,9.02,50.38,13.08,6.29,1.52,10.56,5.61,15.27,9.31,.57,.45,.76,1.38,1.23,2.29-1.07,.36-1.91,.74-2.78,.91-2.71,.51-4-.46-3.69-3.41,.25-2.44,.12-2.45-1.96-2.04-.38-.7-.82-2.01-1.15-1.98-1.28,.11-2.71,.38-3.72,1.1-.63,.45-.68,1.8-.83,2.77-.02,.12,1.33,.64,1.4,.55,.56-.84,.97-1.78,1.43-2.7h3.03Z"/><path class="d" d="M145.22,761.21c.92-1.46,1.64-3.1,2.79-4.35,10.38-11.35,20.83-22.63,31.26-33.93,4.14-4.49,8.49-8.8,12.39-13.48,4.74-5.68,10.38-10.15,16.69-13.89,.5-.3,1.02-.59,1.55-.83,2.5-1.15,4.23-.05,5.78,1.88,1.69,2.1-.03,3.25-1.2,4.42-16.31,16.4-32.22,33.23-51.14,46.8-4.36,3.13-8.12,7.1-12.21,10.62-1.53,1.32-3.22,2.46-4.84,3.68l-1.07-.92Z"/><path class="d" d="M666.79,314.83c0-3.12-.12-6.24,.02-9.35,.86-18.65-5.57-35.24-14.58-51.03-3.96-6.94-9.82-12.26-16.48-16.61-1.72-1.12-3.92-1.49-5.72-2.52-1.09-.62-1.84-1.84-2.74-2.78,1.07-.93,2.15-2.63,3.21-2.62,2.39,.01,4.95,.46,7.12,1.45,12.99,5.93,20.99,16.56,26.76,29.15,3.37,7.35,5.06,15.09,4.93,23.22-.13,8.22-.04,16.44-.19,24.65-.04,2.23-.61,4.44-.93,6.66l-1.4-.23Z"/><path class="d" d="M223.09,385.26c-.34-.55-.82-1.06-1.02-1.66-5.93-17.91-6.97-36.17-3.22-54.61,1.73-8.48,5.12-16.45,11.09-22.89,2.23-2.41,5.28-4.24,8.26-5.72,1.06-.53,3.02,.75,4.57,1.21-.72,1.4-1.09,3.33-2.23,4.11-5.92,4.04-9.52,9.69-11.82,16.24-3.34,9.49-5.21,19.3-5.19,29.38,.02,9.87,.4,19.73,.58,29.6,.03,1.42-.18,2.84-.29,4.27l-.73,.07Z"/><path class="d" d="M205.3,397.27c-.61-2.4-1.42-4.77-1.81-7.21-4.66-28.8-2.26-56.91,8.8-84.04,1.74-4.27,4.43-8.29,7.3-11.93,2.8-3.55,6.97-3.68,10.12-1.18-.07,.22-.1,.58-.22,.62-7.92,2.36-10.61,9.2-12.27,15.95-3.98,16.16-7.25,32.49-10.64,48.79-2.29,11.02-2.74,22.11-.23,33.2,.31,1.36,.25,2.8,.3,4.21,.02,.44-.14,.89-.21,1.34l-1.13,.25Z"/><path class="d" d="M146.17,544.86c.15,1.44,.45,2.89,.42,4.32-.17,8.34-.29,16.68-.67,25.02-.72,15.91,.64,31.69,2.33,47.48,.24,2.22,.52,4.48,.29,6.67-.16,1.53-1.16,2.97-1.78,4.46-.98-1.4-2.56-2.7-2.82-4.22-.92-5.32-1.45-10.7-2-16.08-1.58-15.54-3.55-31.09-1.7-46.74,.67-5.7,1.62-11.38,2.65-17.03,.27-1.49,1.35-2.84,2.06-4.26,.41,.13,.81,.26,1.22,.39Z"/><path class="d" d="M763.04,505.92c2.82-25.83-.97-51.03-7.15-76.01-.59-2.39-1.17-4.83-1.28-7.26-.05-1.1,1.05-2.25,1.63-3.38,1.21,.65,2.98,.99,3.52,2,1.14,2.14,1.81,4.58,2.36,6.97,3.88,16.71,8.35,33.4,6.59,50.77-.92,9.12-2.93,18.13-4.45,27.19l-1.22-.28Z"/><path class="d" d="M317.7,828.32c-1.09,.22-2.2,.68-3.27,.62-24.35-1.25-41.2-24.31-38.87-45.29,.01-.12,.02-.24,.05-.35,.61-2.5,.93-5.64,4.23-5.4,.88,.06,2.19,3.52,2.14,5.38-.47,17.68,8.95,29.56,22.66,38.81,2.83,1.91,6.39,2.76,9.63,4.03,1.13,.44,2.32,.72,3.49,1.07l-.06,1.12Z"/><path class="d" d="M590.78,218.14c-3.21-.68-5.44-.92-7.52-1.64-3.37-1.17-4.5-3.92-4.23-7.29,.25-3.12,1.76-5.18,4.96-6.02,1.29-.34,2.44-1.29,3.61-2.04,4.12-2.62,10.4-1.83,13.16,1.68,3.15,4.01,3.19,9.22-.74,11.88-2.85,1.93-6.61,2.51-9.25,3.44Z"/><path class="d" d="M153.01,502.61c-.25-.6-.68-1.19-.72-1.8-.86-13.83-2.35-27.71,1.53-41.35,1.34-4.73,2.9-9.42,4.77-13.96,.51-1.24,2.51-1.88,3.83-2.79,.49,1.62,1.65,3.39,1.35,4.85-2.17,10.57-4.87,21.03-6.92,31.62-1.11,5.74-1.24,11.68-1.9,17.52-.23,2-.7,3.98-1.07,5.97-.29-.02-.58-.04-.87-.06Z"/><path class="d" d="M755.29,730.75c.29-.81,.45-1.69,.88-2.42,8.42-14.37,10.67-30.1,10.44-46.42-.02-1.22,.69-2.45,1.06-3.68,1.36,.5,3.4,.62,3.93,1.58,1.19,2.16,2.21,4.71,2.26,7.13,.31,13.61-4.19,25.82-11.54,37.07-1.73,2.65-3.75,5.1-5.64,7.64-.46-.3-.93-.6-1.39-.9Z"/><path class="d" d="M185.55,712.99c-.98-.88-2.03-1.69-2.93-2.65-9.43-10.19-17.08-21.45-21.14-34.92-.97-3.23-2.64-6.25-3.8-9.43-.44-1.21-.37-2.62-.53-3.93,1.81,.19,4.25-.27,5.27,.73,1.57,1.53,2.2,4.04,3.15,6.17,4.69,10.48,9.28,21.01,14.08,31.44,1.26,2.75,3.16,5.2,4.7,7.83,.78,1.33,1.41,2.74,2.1,4.12-.3,.21-.6,.43-.9,.64Z"/><path class="d" d="M755.62,613.94c0-1.2-.23-2.46,.04-3.6,3.54-14.93,7.14-29.84,10.74-44.76,.19-.79,.37-1.66,.82-2.31,.85-1.22,1.9-2.31,2.86-3.45,.75,1.55,2.39,3.27,2.11,4.61-1.61,7.79-3.37,15.57-5.64,23.19-2.34,7.85-5.3,15.51-8.08,23.22-.43,1.2-1.31,2.24-1.97,3.36l-.88-.26Z"/><path class="d" d="M428.23,768.55c-.84,2.38-4.63,5.4-6.94,4.74-5.74-1.62-11.37-3.61-17.04-5.46-.32-.11-.72-.29-.88-.56-.86-1.46-2.68-3.39-2.27-4.37,1.11-2.65,3.19-1.41,5.26-.45,3.38,1.57,6.92,2.89,10.52,3.88,3.63,1,7.41,1.48,11.34,2.23Z"/><path class="d" d="M852.27,582.66h-3.03c-.46,.92-.87,1.86-1.43,2.7-.06,.1-1.41-.43-1.4-.55,.15-.97,.2-2.32,.83-2.77,1.01-.72,2.44-.99,3.72-1.1,.32-.03,.76,1.28,1.15,1.98l.16-.27Z"/><path class="d" d="M495.2,540.89c14.76,8.53,25.26,21.23,37.2,32.25,2.49,2.3,4.45,5.17,6.72,7.85,3.22-2.79,5.43-4.89,7.82-6.73,2.61-2.01,4.63-1.42,5.62,1.75,.77,2.45,.91,5.08,1.53,7.58,.85,3.4,2.06,6.72,2.77,10.15,.4,1.93,.93,4.86-.06,5.79-1.39,1.31-4.26,1.88-6.28,1.54-4.02-.68-7.88-2.28-11.85-3.33-2.95-.78-5.98-1.22-8.95-1.93-.81-.2-1.51-.85-2.25-1.3,.47-.75,.8-1.69,1.45-2.23,6.68-5.54,6.9-6.13,.72-12.06-11.61-11.14-23.47-22.02-35.2-33.04-2.39-2.25-4.54-2.69-7.76-1.01-5.65,2.94-11.99,3.33-18.25,2.6-5.95-.69-13.85-9.03-14.8-15.1-1.02-6.45,3.52-15.11,10.19-18.34,3.34-1.61,3.88-3.51,3.3-6.96-3.51-21.09-6.76-42.22-10.21-63.32-.19-1.13-1.21-2.62-2.22-3.03-2.02-.83-4.29-1.31-6.48-1.44-3.32-.2-4.92-1.9-5.27-5-.98-8.71,.33-17.26,2.04-25.98-.32,3.84,1.44,5.8,4.68,6.28,.12-1.41,.28-2.74,.33-4.08,.12-3.87,1.4-8.3-.06-11.46-1.32-2.86,.56-7.56-4.15-8.82-.38-.1-.63-.96-.81-1.52-2.35-7.37-4.71-14.73-6.96-22.12-.36-1.2-.6-2.76-.13-3.8,.58-1.29,1.84-2.86,3.05-3.11,1.23-.25,3.28,.58,4.04,1.61,1.13,1.53,1.45,3.67,2.1,5.55,2.83,8.14,5.65,16.28,8.43,24.29-2.91-.35-3.35,1.98-3.2,5.07,.18,3.75-.11,7.53,.13,11.28,.12,1.99,.93,3.93,1.52,6.28,1.2-.26,2.69-.59,4.19-.92l.16,.45-3.13,1.58,.3,.79c1.63-.68,3.26-1.36,4.85-2.03,1.16,4.85,.66,5.38-5.37,5.75-.31,1.02-.6,2.01-.89,2.97,6.36,2.79,11.38-.41,11.72-7.42,.13-2.68,.02-5.37,.02-8.05l.85-.31c2.24,4.14,4.62,8.2,6.69,12.42,5.34,10.9,6.07,7.93-1.94,17.63-3.88,4.7-5,8.91-4.02,14.62,3.06,17.82,5.83,35.7,8.58,53.57,.51,3.32,1.91,4.86,5.37,4.92,2.18,.04,4.43,.64,6.52,1.34,10.38,3.5,14.46,13.3,9.79,23.22-.88,1.87-1.74,3.75-2.46,5.3Zm-27.34-9.33c-.54,6.31,3.71,8.09,8.82,8.35,4.79,.25,9.28-5.52,9.25-11.35-.02-5.05-3.06-8.49-7.44-8.42-5.48,.08-10.61,5.59-10.64,11.42Z"/><path class="d" d="M311.65,567.26c2.62-.04,4.89,.54,5.45,3.42,.59,3.05-1.37,4.52-4.02,5.2-9.07,2.34-18.15,4.66-27.24,6.94-.89,.22-2.05,.48-2.76,.11-1.64-.86-3.74-1.82-4.36-3.29-.39-.92,1.25-3.69,2.52-4.15,6.81-2.46,13.74-4.6,20.71-6.56,3.14-.89,6.46-1.13,9.69-1.66Z"/><path class="d" d="M496.34,663.98c.01-3.26-.3-5.79,2.98-6.35,3.33-.56,4.59,1.43,5.36,4.21,2.37,8.56,4.91,17.08,7.1,25.68,.42,1.64-.48,3.61-.77,5.43-2.01-.55-4.11-.91-6-1.73-.82-.35-1.36-1.58-1.81-2.52-3.93-8.1-6.03-16.7-6.85-24.73Z"/><path class="d" d="M643.13,496.39c-1.05-.05-2.35,.27-3.11-.22-1.52-.98-3.51-2.23-3.84-3.7-.23-1.06,1.72-3.56,3.03-3.84,8.24-1.78,16.56-3.18,24.88-4.54,1.96-.32,4.16-.19,4.63,2.55,.46,2.67-.4,4.8-3.16,5.44-7.41,1.73-14.85,3.28-22.29,4.9l-.14-.59Z"/><path class="d" d="M404.34,684.54c1.75-8.35,4.2-15.66,8.89-22.01,1.52-2.06,3.88-2.67,6.31-1.41,2.61,1.35,1.88,3.64,1.02,5.53-2.96,6.5-5.98,12.98-9.3,19.29-.81,1.53-2.89,2.38-4.39,3.54-.91-1.78-1.82-3.57-2.52-4.95Z"/><path class="d" d="M584.36,657.23c-1.09-.69-3.27-1.45-4.5-2.98-3.21-3.99-6.12-8.24-8.9-12.55-.65-1.01-.69-2.77-.34-4,1.19-4.1,3.61-4.76,6.6-1.73,4.8,4.86,9.11,10.13,11.22,16.78,.86,2.71-.55,4.5-4.09,4.47Z"/><path class="d" d="M327.12,654.54c-.91-.72-2.56-1.46-3.22-2.72-.49-.93-.18-3.07,.59-3.75,4.8-4.25,9.71-8.41,14.87-12.2,1.16-.85,3.47-.14,5.24-.14-.07,1.75,.43,3.82-.33,5.19-3.36,6.04-8.96,9.75-14.79,13.1-.48,.28-1.13,.26-2.37,.51Z"/><path class="d" d="M305.51,504.17c-3.52-.59-7.75-1-11.77-2.15-1.56-.44-2.64-2.56-3.93-3.92,1.55-1.42,3.21-4.14,4.65-4.03,6.24,.46,12.45,1.56,18.58,2.87,1.33,.29,2.26,2.43,3.37,3.72-1.42,.89-2.75,2.1-4.3,2.59-1.86,.59-3.91,.57-6.6,.91Z"/><path class="d" d="M612.17,425.1c-.54-.89-1.96-2.18-1.79-3.21,.3-1.85,1.11-4.12,2.5-5.2,4.51-3.5,9.3-6.68,14.19-9.62,.92-.55,3.58,.1,4.1,.98,.78,1.32,1.11,4.34,.35,4.91-5.6,4.16-11.51,7.9-17.34,11.75-.27,.18-.68,.14-2,.39Z"/><path class="d" d="M552.71,364.35c-1.79,7.23-4,13.23-8.55,18.03-.97,1.02-2.83,1.2-4.28,1.77-.58-1.6-2.03-3.49-1.6-4.75,2.02-5.93,4.42-11.75,7.04-17.45,.42-.91,3.04-1.69,4.03-1.23,1.49,.7,2.44,2.56,3.35,3.62Z"/><path class="d" d="M375.75,422.08c-.04,2.68-2.88,4.74-4.7,3.26-5.51-4.5-10.72-9.38-15.84-14.32-.57-.55-.3-2.96,.4-3.61,1-.92,3.48-1.85,4.09-1.32,5.25,4.47,10.24,9.25,15.24,14.01,.53,.51,.61,1.49,.8,1.98Z"/><path class="d" d="M458.78,393.82c.86,2.88,2.06,5.7,2.46,8.64,.34,2.5-.13,5.13-.49,7.68-.11,.82-1.01,1.53-1.54,2.29-.92-.76-2.66-1.55-2.64-2.29,.18-5.35,.71-10.69,1.13-16.04,.36-.09,.71-.19,1.07-.28Z"/><path class="d" d="M624.19,577.01c.4-2.93,2.11-4.02,4.61-3.21,2.43,.78,4.72,2.06,6.97,3.32,.67,.37,1.34,1.39,1.38,2.14,.16,3.02,.06,6.06,.06,9.09-.36,.16-.73,.32-1.09,.47-.58-1.09-1.32-2.12-1.69-3.28-.27-.85,.11-1.88-.06-2.79-1.24-6.52-4.05-7.29-10.17-5.75Z"/><path class="d" d="M414.55,264.06c-6.91,4.95-2.6,10.9-2.48,16.97,2.11-.41,3.91-1.08,5.68-1.01,1.46,.05,2.88,.97,4.32,1.5-.67,1.21-1.03,3.02-2.05,3.54-8.14,4.14-16.34,8.17-24.68,11.87-1.3,.58-3.95-.12-5.05-1.18-3.76-3.66-7.17-7.69-10.59-11.69-1.96-2.3-.51-4.4,1.24-5.78,3.94-3.11,7.88-6.38,12.29-8.68,5.15-2.69,10.76-4.5,16.25-6.49,1.26-.46,2.83-.07,4.26-.07,.27,.35,.53,.69,.8,1.04Zm-10.66,8.6c-4.34,2.45-8.48,4.59-12.37,7.11-1.04,.67-2.23,2.97-1.83,3.7,1.14,2.08,2.28,5.34,5.48,4.34,4.96-1.55,9.72-3.73,15.08-5.85-2.3-3.36-4.24-6.2-6.36-9.29Z"/><path class="d" d="M463.64,270.32c4.38-.67,8.68-1.39,12.99-1.96,1.97-.26,4.02-.04,5.97-.41,1.2-.23,3.21-1.16,3.21-1.77,0-1.67-.41-3.86-1.53-4.88-1.57-1.42-3.87-2.29-5.99-2.74-.88-.18-2.44,1.13-3.11,2.15-.94,1.44-1.34,3.23-1.97,4.87l-1.19-.22c-.09-1.19-.41-2.41-.22-3.55,.53-3.22-1-4.81-3.91-5.59-1.81-.49-3.71-.9-5.32-1.8-1.13-.63-1.84-2.01-2.73-3.06,1.15-.97,2.22-2.66,3.45-2.79,3.72-.38,7.51-.31,11.26-.12,5.51,.28,11.04,.6,16.49,1.37,1.47,.21,3.53,1.84,3.93,3.22,2.23,7.65-.5,14.54-4.04,21.19-.22,.42-.92,.79-1.43,.82-8.77,.67-17.31-.32-25.52-3.6-.06-.02-.06-.19-.33-1.15Z"/><path class="d" d="M351.98,257.03c9.35,.75,16.66,3.63,22.95,8.98,.87,.74,1.81,1.7,2.12,2.74,.31,1.06-.12,2.33-.23,3.51-.94-.45-1.9-.86-2.82-1.35-1.42-.77-2.71-1.99-4.21-2.34-9.3-2.2-18.66-3.79-28.24-1.58-2.73,.63-6.17,1.37-7.15-2.29-1.02-3.82,2.57-4.67,5.18-5.32,4.42-1.11,8.97-1.72,12.4-2.35Z"/><path class="d" d="M540.98,219.47c-10.6,6.2-20.55,12.02-30.51,17.84l-.8-.56c.55-1.09,.84-2.49,1.7-3.22,5.64-4.74,11.23-9.59,17.21-13.88,3.61-2.59,7.88-2.07,12.4-.18Z"/><path class="d" d="M434.27,235.43c-.57,.36-1.11,.85-1.73,1.07-7.39,2.62-14.79,5.22-22.22,7.76-1.32,.45-2.75,.8-4.12,.79-1.17-.01-2.33-.61-3.49-.95,.69-1.12,1.11-2.75,2.11-3.27,3.1-1.59,6.31-3.21,9.67-3.99,5.35-1.25,10.84-1.89,16.29-2.67,1.12-.16,2.3,.14,3.46,.23,.01,.34,.02,.69,.03,1.03Z"/><path class="d" d="M423.49,311.41c-5.76-5.36-9.41-11.55-11.58-18.6-.66-2.13,1.05-3.33,3.14-2.45,.63,.27,1.25,.72,1.67,1.26,4.23,5.39,6.44,11.63,7.53,18.31,.04,.26-.29,.59-.76,1.47Z"/><path class="d" d="M411.71,308.86c-2.65-3.31-5.33-6.59-7.9-9.95-.27-.36-.08-1.45,.28-1.8,.35-.34,1.46-.44,1.79-.15,3.4,3.04,5.99,6.61,7.25,10.94l-1.42,.96Z"/><path class="d" d="M846.29,582.52c3.04,.52,6.02,1.41,8.85,2.64"/><path class="d" d="M299.05,694.05c10.32,1.75,15.46,13.76,24.78,18.02,6.91,3.16,12.76-6.24,6.06-10.36-7.18-4.41-12.67-10.39-16.62-17.82l-6.78,8.81c7.14,2.71,11.35,10.95,17.24,15.54,4.82,3.75,13.81-1.19,9.42-7.27-6.44-8.92-14.32-16.28-23.84-21.83-6.21-3.62-11.42,4.37-7.27,9.42,6.51,7.94,13.46,15.87,23.13,19.96,4.76,2.01,10.03-1.28,8.81-6.78-3-13.52-16.22-15.63-25.62-23.09-5.99-4.75-14.53,3.68-8.49,8.49,4.11,3.26,8.54,5.51,13.13,7.98,4.22,2.27,8.3,4.86,9.4,9.82l8.81-6.78c-8.8-3.72-14.78-10.86-20.7-18.08l-7.27,9.42c7.68,4.48,14.32,10.3,19.54,17.52l9.42-7.27c-7.94-6.18-12.74-14.91-22.54-18.63-5.2-1.98-9.03,4.58-6.78,8.81,4.89,9.19,12.07,16.68,20.93,22.12l6.06-10.36c-10.55-4.82-15.36-17.14-27.65-19.23-7.55-1.28-10.8,10.28-3.19,11.57h0Z"/><path class="d" d="M624.16,585.53c2.83,2.21,5.52,4.56,8.09,7.06s5.98,2.12,8.49,0c3.42-2.89,2.85-7.96,.51-11.29s-5.59-5.92-8.6-8.43c-2.26-1.88-6.33-2.73-8.49,0-2.92,3.71-3.33,8.11-.67,12.16,1.17,1.77,2.64,3.07,4.42,4.21,.67,.43,1.37,.8,2.05,1.21,.25,.15,1.49,1.23,.87,.43,1.96,2.57,5.17,3.93,8.21,2.15,2.54-1.48,4.13-5.61,2.15-8.21-1.72-2.26-3.61-3.81-6.06-5.24-.39-.23-.79-.45-1.17-.7-.45-.29,.02,.26-.5-.41,.4,.52-.02-.01-.09-.26,.35,1.31,.8,1.21-.73,3.15h-8.49c1.71,1.42,3.37,2.89,4.97,4.44,.78,.76,1.66,1.52,2.35,2.37-.36-.52-.36-.48,.02,.12-.7-1.31-.45-2.7,.75-4.18h8.49c-2.57-2.5-5.26-4.85-8.09-7.06-2.55-1.99-6-2.49-8.49,0-2.07,2.07-2.57,6.48,0,8.49h0Z"/><path class="d" d="M538.19,308.99c-3.56-1.16-7.4-1.49-11.11-.94,2.8,1.15,5.7,2.07,8.66,2.75l-8.39,1.77c-.7,.15-1.62,.66-1.33,1.32,4.78,.77,9.62,1.14,14.47,1.1-3.63,.02-7.25,.9-10.48,2.55,4.43-.69,8.84-1.48,13.23-2.35"/><path class="d" d="M446.6,385.75c1.82,9.6,1.01,19.5-.41,29.17-.13,.91-.27,1.87,.06,2.74,.3,.8,.97,1.41,1.65,1.94,2.51,1.97,5.5,3.31,8.63,3.89,1.86,.34,4.43-.09,4.64-1.97"/><path class="d" d="M446.23,394.86c3.09,3.37,5.86,6.93,8.25,10.83,1.24,2.02,5.56,8.12,4.25,10.41,.66-.65,.49-.83-.53-.54-1.77-.05-1.68-.01,.26,.13-.6-1.53-1.35-2.92-1.8-4.53-1.2-4.25-1.04-8.48,.09-12.71l-11.79-1.6c-.5,7.17-.16,15.05-2.37,21.94l11.57,3.19c2.03-8.85,3.48-17.79,4.46-26.81h-12c.91,8.76,2.33,17.35,5.76,25.52,2.47,5.88,11.69,5.71,11.79-1.6s-1.61-13.65-5-19.84c-3.19-5.82-13.42-1.85-10.97,4.62s5.24,12.9,8.34,19.15c2.25,4.54,9.93,3.51,10.97-1.43,1.2-5.73,.54-10.82-2.11-16.05s-11.4-2.8-11.18,3.03c.17,4.55,1.62,7.95,4.5,11.43,4.27,5.18,10.81-.67,10.03-5.84-.47-3.12-1.53-5.92-3.03-8.69-3.67-6.8-14.03-.75-10.36,6.06,1.02,1.89,1.5,3.7,1.82,5.82l10.03-5.84c-.74-.85-1.07-1.83-.98-2.95l-11.18,3.03c1.15,2.26,1.42,4.32,.9,6.8l10.97-1.43c-2.63-5.32-5.01-10.73-7.13-16.29l-10.97,4.62c2.4,4.38,3.43,8.8,3.37,13.78l11.79-1.6c-3-7.15-4.53-14.63-5.33-22.33s-11.16-7.7-12,0-2.24,15.82-4.03,23.62,9.21,10.55,11.57,3.19c2.53-7.9,2.22-16.92,2.8-25.13,.48-6.83-10.07-8.03-11.79-1.6-3.22,12.08,.45,39.04,19.01,31.18,17.26-7.31-2.59-32.54-9.48-40.07-5.22-5.71-13.69,2.79-8.49,8.49h0Z"/><path class="d" d="M639.22,102.21c9.79-2.96,19.05-5.52,28.15-8.55,24.17-8.06,48.27-16.34,72.42-24.48,3.33-1.12,6.74-2.06,10.17-2.85,5.55-1.27,9.24,2.25,7.66,7.63-5.85,19.82-11.86,39.59-17.92,59.34-2.69,8.75-5.65,17.41-8.72,26.82,2.75,.31,5.45,.73,8.18,.92,21.46,1.49,42.93,2.82,64.37,4.45,6.31,.48,12.56,1.7,18.82,2.66,1.26,.19,2.52,.63,3.67,1.2,6.64,3.27,7.34,9.33,1.25,13.95-9.83,7.45-20.06,14.37-29.9,21.82-13.02,9.85-25.83,19.98-38.73,29.98-.37,.29-.81,.5-1.39,.84,.73,.88,1.06,1.5,1.58,1.86,11.36,7.94,22.78,15.8,34.07,23.84,1.18,.84,2.17,2.67,2.29,4.11,.32,3.8,.11,7.64-.61,11.99-.68-1.29-1.61-2.52-1.98-3.9-.39-1.44-.03-3.07-.35-4.54-.92-4.18-1.09-3.89-4.83-5.24-2.11-.76-3.73-2.59-5.83-.04-.7,.85-1.99,1.21-3.01,1.8,.05,.38,.11,.75,.16,1.13-.8-1.1-1.61-2.21-2.41-3.31l.89,.18c.15-1.78,.59-3.59,.39-5.32-.28-2.34-3.5-2.39-4.27-.13-.33,.98-.64,1.96-1.06,3.24-.91-.56-1.7-.96-2.39-1.49-6.22-4.83-12.48-9.61-18.59-14.56-2.08-1.68-4.01-3.66-5.58-5.82-2.41-3.32-2.24-5.65,.8-8.38,6.38-5.73,13-11.19,19.48-16.81,12.24-10.64,24.44-21.34,36.69-31.97,1.13-.98,2.52-1.65,3.79-2.47l-.87-1.61c-2.83-.35-5.65-.82-8.5-1.03-16.76-1.24-33.53-2.3-50.28-3.68-6.07-.5-12.13-1.51-18.11-2.7-9.97-1.98-12.42-7.88-9.14-17.34,8.04-23.18,15.45-46.57,23.1-69.89,.14-.42,.1-.91,.2-1.96-1.65,.44-3.07,.73-4.41,1.2-20.72,7.25-41.32,14.89-62.2,21.65-12.02,3.89-24.5,6.39-36.78,9.46-1.47,.37-3.03,.39-4.55,.46-4.68,.22-7.29-1.87-7.21-6.52,.16-9.28,.14-18.61,1.2-27.8,2.04-17.74,4.77-35.39,7.2-53.09,.15-1.12,.16-2.26,.29-4.36-3.27,3.16-6.09,5.59-8.56,8.33-13.69,15.18-27.33,30.39-40.91,45.67-4.05,4.56-7.8,9.38-11.74,14.03-6.03,7.12-12.38,8.01-19.44,1.74-7.89-7.01-15.52-14.4-22.57-22.24-7.77-8.63-14.76-17.97-22.09-27-.78-.97-1.57-1.93-3.14-2.6,1.02,4.96,1.85,9.98,3.11,14.88,3.87,15.13,7.93,30.21,11.83,45.32,.64,2.49,1.19,5.09,1.17,7.63-.01,1.5-.85,3.45-1.99,4.39-5.3,4.35-9.18,3.65-11.3-2.86-3.01-9.24-5.39-18.72-7.34-28.24-3.63-17.72-6.77-35.53-10.05-53.32-.31-1.71-.37-3.53-.17-5.25,.58-4.89,2.66-6.09,7.23-4.27,5.23,2.08,9.6,5.3,13.18,9.71,7.69,9.5,15.39,19,23.33,28.29,4.57,5.36,9.54,10.39,14.48,15.41,2.05,2.08,4.4,3.91,6.79,5.59,5.05,3.55,5.96,3.2,10.18-1.22,15.99-16.75,32.05-33.42,48.16-50.05,7.69-7.94,15.54-15.71,23.34-23.54,.99-1,1.96-2.27,3.19-2.72,1.49-.54,3.47-.84,4.83-.27,.88,.37,1.56,2.54,1.42,3.8-1.31,12.03-2.93,24.02-4.23,36.05-2.04,18.81-3.92,37.63-5.82,56.46-.16,1.61-.02,3.26-.02,5.6Z"/><path class="d" d="M799.12,286.5c1.12-1.41,1.93-2.42,2.26-2.83,2.17,1.39,3.68,2.35,5.19,3.32l.99-.72v-15.6c3.06-.09,4.05,1.07,3.97,3.55-.1,3.29-.12,6.58,.07,9.86,.05,.79,.98,2.02,1.68,2.15,.78,.15,2.02-.49,2.6-1.17,1.28-1.51,.75-8.8-.58-10.65,2.29-.35,3.37,.1,3.36,2.91,0,2.9,.96,5.8,1.53,8.8,5.4-1.23,1.36-5.81,3.82-7.7,2.12,1.73,3.73,6.63,2.74,8.9-.38,.88-1.24,1.88-2.1,2.16-5.91,1.91-11.78,4.21-17.85,5.33-22.22,4.1-44.66,6.1-67.29,5.35-1.91-.06-4.37-.79-5.54-2.12-2.63-2.99-.64-7.01,4-7.9,5.86-1.13,11.8-1.95,17.75-2.54,6.27-.62,12.58-.72,18.87-1.21,4-.31,7.98-.93,11.97-1.33,.63-.06,1.3,.3,1.95,.49,1.44,.41,2.95,1.59,3.98-.73,.19-.42,1.36-.8,1.86-.61,1.68,.64,3.26,1.55,4.76,2.29Z"/><path class="d" d="M770.59,261.36c8.04,3.85,15.36,9.53,23.1,13.99,8.32,4.79,16.81,9.3,25.29,13.81l3.03-11.18c-8.45-.21-16.36,2.46-24.51,4.25s-17.1,2.69-25.79,2.74c-7.72,.05-7.74,12.05,0,12,8.48-.05,16.92-.84,25.25-2.41,8.34-1.57,16.48-4.79,25.05-4.58,5.86,.15,8.29-8.38,3.03-11.18-8.48-4.51-16.96-9.02-25.29-13.81-7.74-4.45-15.06-10.14-23.1-13.99-6.93-3.32-13.03,7.03-6.06,10.36h0Z"/><path class="d" d="M771.02,260.21c2.39,4.63,6.23,7.83,10.49,10.7,2.01,1.35,4.13,2.56,6.1,3.97,.6,.43,5.33,5.28,5.45,5.24-7.38,2.2-4.24,13.79,3.19,11.57,10.88-3.24,9.76-15.57,3.13-22.49-5.35-5.59-14.36-7.98-18-15.04s-13.9-.8-10.36,6.06h0Z"/><path class="d" d="M84.21,298.02c3.03,6.74,5.71,13.62,8.01,20.63,2,6.08,5.35,13.67,4.6,20.16-.88,7.66,11.12,7.59,12,0s-2.68-16.19-5.03-23.35c-2.63-8-5.76-15.82-9.22-23.5-3.17-7.03-13.51-.94-10.36,6.06h0Z"/><path class="d" d="M87.01,294.83c3.81,4.89,5.52,10.8,7.11,16.69s3.31,12.34,4.96,18.5c2,7.45,13.58,4.29,11.57-3.19-3.73-13.92-6.12-28.87-15.16-40.48-4.74-6.09-13.18,2.46-8.49,8.49h0Z"/><path class="d" d="M550.6,313.05c-10.43-2-21.24-.3-31.54-2.84l-1.6,11.79,15.74-1.31c4.35-.36,9.46-.77,11.08-5.65,3.54-10.64-14.34-10.17-20.24-10.49v12c5.04-.2,10.04-.07,15.07,.37,7.69,.68,7.64-11.32,0-12-5.03-.45-10.03-.57-15.07-.37-7.74,.3-7.71,11.58,0,12,2.27,.12,4.54,.27,6.81,.54,1.08,.11,2.16,.26,3.24,.45,2.45,.65,2.56,.45,.33-.58l-1.54-5.84-.15,.73,2.76-3.59c-1.77,1.23-6.6,.79-8.75,.97l-9.26,.77c-6.39,.53-8.56,10.06-1.6,11.79,10.4,2.57,21.1,.84,31.54,2.84,7.55,1.45,10.78-10.12,3.19-11.57h0Z"/><path class="e" d="M376.79,706.77c9.07,5.51,18.62,10,28.52,13.8,6.05,2.33,13.16-2.57,14.76-8.38,1.86-6.77-2.31-12.43-8.38-14.76-7.95-3.06-15.51-6.96-22.78-11.38-13.24-8.04-25.31,12.71-12.11,20.72h0Z"/></g></g></svg>