<?xml version="1.0" encoding="UTF-8"?><svg xmlns="http://www.w3.org/2000/svg" viewBox="0 0 155.56 152.21"><defs><style>.d{fill:#ee6c4d;}.e{fill:#efefef;}.f{fill:none;stroke:#efefef;stroke-miterlimit:10;stroke-width:5px;}</style></defs><g id="a"/><g id="b"><g id="c"><g><g><path class="d" d="M155.56,77.42c0,8.2-1.68,15.88-4.08,23.28-2.49,7.67-4.71,15.59-9.36,21.98-4.69,6.45-10.61,12.32-17.05,17.01-6.38,4.65-13.92,8.04-21.59,10.53-7.4,2.4-15.45,1.96-23.65,1.96s-15.85-.81-23.25-3.22c-7.67-2.49-14.31-6.41-20.7-11.06-6.45-4.69-12.59-9.56-17.28-16-4.65-6.38-7.62-13.63-10.11-21.3-2.4-7.4-4.41-14.98-4.41-23.18s.8-16.17,3.2-23.57,5.77-15.19,10.41-21.57c4.69-6.45,10.44-12.45,16.88-17.14,6.38-4.65,14.53-6.17,22.2-8.66,7.4-2.4,14.85-6.48,23.05-6.48s15.76,3.73,23.16,6.13c7.67,2.49,15.2,5.05,21.58,9.7,6.45,4.69,13.1,9.7,17.79,16.15,4.65,6.38,6.7,14.46,9.19,22.13,2.4,7.4,4.01,15.11,4.01,23.31Z"/><circle class="f" cx="74.14" cy="75.63" r="71.64"/></g><path class="e" d="M65.2,53.78c4.51,4.31,8.93,8.71,13.24,13.21,1.94,2.03,3.86,4.08,5.76,6.14,1.05,1.15,2.1,2.3,3.14,3.46l1.25,1.4c1.83,2.4,1.82,1.77-.01-1.9l1.64-6.06c-1.17,2.68-8.63,7.14-11.67,9.54l-13.95,11.03c-5.09,4.02-4.21,12.76,0,16.97,5.03,5.03,11.87,4.03,16.97,0l18.6-14.7c6.95-5.49,14.48-11.24,11.98-21.38-1.8-7.3-9.18-13.46-14.16-18.76-5.12-5.46-10.41-10.75-15.82-15.93-11.16-10.68-28.16,6.27-16.97,16.97h0Z"/><path class="e" d="M50.6,88.46l37.29-2.27c6.47-.39,12-5.23,12-12,0-6.19-5.5-12.4-12-12l-37.29,2.27c-6.47,.39-12,5.23-12,12,0,6.19,5.5,12.4,12,12h0Z"/></g></g></g></svg>