<svg xmlns="http://www.w3.org/2000/svg" viewBox="0 0 1858.37 702.75"><defs><style>.cls-1{fill:#98c1d9;}</style></defs><g id="Layer_2" data-name="Layer 2"><g id="full"><path class="cls-1" d="M1857.66,665.28c2.85-45.61-3.73-91.25-4.33-136.94-.61-47.06,5.13-94.06,3.69-141.1-1.47-48-19.37-93.72-13.35-140.74a238.81,238.81,0,0,0-1.88-72.49c-1.48-8.18-2.32-18.83-6.18-26.28-3.73-7.18-10.85-11.47-13.81-19.55-1.46-4-2.17-8.28-4.35-11.91-4.68-7.82-16.32-10.35-23.83-5.18-4,2.73-6.56,7-8.56,11.43-3.07,6.73-5,14.7-1.83,21.39,3.56,7.6,13.3,13.75,10.7,21.73-1.71,5.25-7.92,7.28-13.3,8.56-2.84.68-6.17,1.25-8.39-.64a14.53,14.53,0,0,1-2.56-3.73c-5.24-8.51-18.64-8.16-26.43-1.89s-11.37,16.26-14.59,25.72c-11.85,0-20.47-12.3-21.8-24.08s2.36-23.47,4-35.21c2.12-15.11-14-15.32-24.78-11.89-4.89,1.57-9.3,5.87-9.29,11a21.6,21.6,0,0,0,1.62,6.71,58.1,58.1,0,0,1,2.89,21.78,10.57,10.57,0,0,1-1.53,5.68c-1.39,1.94-3.8,2.82-6.08,3.53a110.3,110.3,0,0,1-13.17,3.19,10.29,10.29,0,0,1-5.37,0,7.77,7.77,0,0,1-3.52-3c-3.92-5.78-2.72-13.57-.49-20.2s5.34-13.26,4.8-20.23a19.75,19.75,0,0,0-31.45-14.34c-7.87,5.83-12.39,13.5-12.13,23.54.24,9.58,6.13,14,10.89,21.83,1.17,1.95,2.32,4.09,2.16,6.35-.28,3.82-4,6.33-7.4,8.09a135.2,135.2,0,0,1-28.16,10.82c-1.66.44-3.46.83-5,.21-2.1-.83-3.18-3.13-3.89-5.27a44.57,44.57,0,0,1,.41-28.79c1.21-3.35,2.83-6.57,3.48-10.07s.14-7.46-2.38-10c-2.34-2.34-5.88-2.92-9.17-3.19-9.69-.79-20.86-.4-27.27-7.7-5.27-6-5.08-15-3.76-22.85s3.48-16,1.16-23.68c-3.36-11.12-17.08-17.79-27.9-13.57-9,3.53-13.32-5.84-14.63-14-1.24-7.74,2.24-15.33,4.36-22.88s2.41-16.84-3.52-22c-5.76-5-14.55-3.63-21.81-1.27a23.89,23.89,0,0,0-6.9,3.16c-3.26,2.38-5.28,6.11-6.66,9.9-2.93,8.1-3.23,17.54,1.1,25,3.12,5.35,8.65,10.12,8,16.28s-7.14,9.87-13,12.14a177.87,177.87,0,0,1-22.64,7.11,4.75,4.75,0,0,1-3.2,0,4.46,4.46,0,0,1-1.48-1.42,26.45,26.45,0,0,1-4.94-18.09c.55-5.47,2.81-10.61,4.13-16,1.48-6,2.17-13.67-.39-19.47s-10.43-5.27-16.46-4.73c-5.18.46-10.43,2.38-13.89,6.27-2.41,2.71-3.79,6.17-5.12,9.54-2.54,6.45-5,14.12-1.22,19.93s13.2,8,14.48,14.92c.59,3.23-.89,6.48-2.72,9.21-1.23,1.82-2.93,3.69-5.13,3.74-1.71,0-3.21-1-4.71-1.87-7.41-4.11-17.31-2.24-23.51,3.53s-8.82,14.78-7.88,23.2a33.28,33.28,0,0,0,5.11,14.29c2.22,3.41,5.08,6.45,6.61,10.22s1.29,8.72-2,11.17a12.86,12.86,0,0,1-2.9,1.5c-5.49,2.28-11,5.31-16.57,7.22-6.63,2.27-12.24,2.8-17.43,8.23a26.68,26.68,0,0,0-7.23,20.05,8.63,8.63,0,0,0,.81,3.44,11.66,11.66,0,0,0,3.61,3.55,48.69,48.69,0,0,1,9.25,9.17c3.1,4,5.58,9.66,3,14-1.19,2-3.23,3.27-5.19,4.48l-21.66,13.45c-1.7,1.06-3.55,2.16-5.55,2.05-2.28-.13-4.14-1.78-6.18-2.8-6.86-3.46-15.21.32-21,5.3-4.24,3.62-8,8-9.78,13.3s-1.34,11.52,2.12,15.89c4.41,5.56,13.36,8.25,14,15.33.15,1.74-.45,3.72-2,4.53-2,1.07-4.48-.34-6.25-1.81a49.87,49.87,0,0,1-16.85-28c-1.37-6.66-1.39-13.65-3.84-20-1.6-4.14-4.25-11.78-7.78-14.28-4.45-3.14-13.69-3.09-18,.07-1.89,1.39-3.27,3.36-5.09,4.81s-4.49,2.34-6.49,1.13-2.43-3.59-2.61-5.78a40.5,40.5,0,0,1,2.69-18.16c1.8-4.54,4.47-8.92,4.59-13.79.28-11.26-16.7-15.14-25.54-13.76a28,28,0,0,0-20,14.15c-1.63,3-2.7,6.5-2.08,9.87,1.89,10.19,17.19,13.5,18.89,23.72,1.15,6.94-4.72,12.95-10.5,17-1.93,1.35-4.14,2.68-6.49,2.41-3.44-.4-5.48-3.92-8.21-6.05-5.14-4-13.74-2.22-16.84,3.52-1,1.82-1.45,3.87-2.35,5.72a13.87,13.87,0,0,1-16.45,6.82c-5.21-1.81-8.86-6.73-10.55-12s-1.72-10.86-1.74-16.37c0-5.24,2-15.37,0-20.12-1.78-4.19-9.7-5.8-14.24-6.12-5.24-.37-11,1.53-13.73,6a21.74,21.74,0,0,0-2.38,7.31c-1.07,5.31-2.14,10.71-1.69,16.11s2.63,10.9,7,14.16c1.54,1.16,3.33,2,4.62,3.46,3.72,4.12,1.5,11.2-3,14.43s-10.39,3.68-15.93,4a11.17,11.17,0,0,1-5-.46c-4.52-1.91-5-8.79-9.35-11a9.27,9.27,0,0,0-5.37-.59,21.66,21.66,0,0,0-16,11.19c-2.15,4.08-2.93,8.77-5,12.89s-6.18,7.86-10.75,7.22c-4-.57-6.83-4.25-9.07-7.67-4.77-7.25-9.42-15.28-9-23.94.3-6.06,3.08-11.69,4.48-17.6s1-13-3.62-16.87c-2.87-2.39-6.77-3.06-10.49-3.37-4.33-.36-8.81-.35-12.89,1.14s-7.74,4.71-8.79,8.93c-.83,3.35,0,6.87.89,10.22q1.38,5.32,2.75,10.67c.77,3,1.49,6.41-.18,9s-5.42,3.46-8.66,3.91L965,254.1c-2.44-9,.82-18.4,2.93-27.48,2.08-8.9,7.16-26.53-4.43-30.75a19.06,19.06,0,0,0-10.72-.24,32.4,32.4,0,0,0-24,25.42,18,18,0,0,0,.14,7.8c.94,3.35,3.21,6.13,5.13,9,3.47,5.26,5.81,12.39,2.4,17.7s-10.91,6.13-16.82,8.68c-2.69,1.16-5.24,2.8-8.14,3.23-7.81,1.14-14.15-7.3-14.47-15.19s3.29-15.31,5.61-22.86a22.53,22.53,0,0,0,1.25-9.67c-.46-3.24-2.35-6.45-5.39-7.68-2.66-1.08-5.65-.52-8.5-.26a38,38,0,0,1-24-6,13.46,13.46,0,0,1-3.6-3.16,12.84,12.84,0,0,1-2.1-6.1c-1-7.88,1.22-15.76,2.56-23.59s1.65-16.43-2.63-23.12a19.41,19.41,0,0,0-17.6-8.68c-5.85.5-11.21,3.68-17,4.3a28.12,28.12,0,0,1-4.41-21.24c1.65-8.2,7.15-14.24,6.73-23.28-.28-6-3.19-12.22-8.48-15.16a20.93,20.93,0,0,0-10.15-2.2,31,31,0,0,0-18.89,6c-5.32,4.1-9,10.59-8.86,17.32.11,8.65,5.95,16,9.26,24,1.11,2.7,1.94,5.81.79,8.5-1,2.28-3.16,3.77-5.23,5.12q-8.55,5.61-17.11,11.19a13.34,13.34,0,0,1-4.85,2.29c-4.72.81-8.77-3.55-10.64-8-5.07-11.94-1.43-25.55-1.19-38.52.06-3.19-.16-6.59-2.05-9.16-3.26-4.44-9.75-4.48-15.24-4.09-3.31.24-6.71.5-9.68,2-5.76,2.85-8.51,9.44-10.34,15.6-1.26,4.25-2.31,8.75-1.37,13.08,2.13,9.77,13.89,16.75,12.31,26.62-.47,3-2.94,6-5.9,5.53a9,9,0,0,1-3.51-1.86c-4.21-3-9.85-4.82-14.49-2.58-3.52,1.7-5.62,5.34-7.52,8.76l-9,16.28c-11.73-7.16-14.21-23.14-13.08-36.83.46-5.55,1.25-11.41-1.13-16.44-3.44-7.3-13-10.29-20.73-8.16s-13.89,8.28-18.17,15.12c-2.31,3.69-4.26,8-3.55,12.27.92,5.55,5.86,9.36,10,13.16s8.11,9.29,6.3,14.62c-2.22,6.53-10.76,7.49-17.47,9.06-7.56,1.77-18.61,7-22.47,14.24-4.07,7.64-.53,23.39-.23,32.19.15,4.48.3,9-.76,13.39-.75,3.13-2.11,6.08-2.88,9.2-2,8,.08,16.64,3.93,24,2.55,4.83,6,10,4.66,15.29-1.59,6.36-9,9.07-15.49,10.21A115.82,115.82,0,0,1,563,304.11a12.67,12.67,0,0,1-4.64-1.1,10.88,10.88,0,0,1-3.8-3.74c-9.52-14.1-4.41-32.86-3.89-49.86a17.88,17.88,0,0,0-1.1-7.94c-2.54-5.58-9.9-7.57-15.83-6s-10.73,5.82-15.25,10c-5.12,4.68-10.55,10.21-10.7,17.14-.21,10.43,11.71,18.4,10.85,28.81-.78,9.39-11.47,14.57-20.84,15.62s-19.51.05-27.55,5c-8.73,5.35-12.38,17.64-8,26.89,2.59,5.45,7.58,10,7.92,16.06.5,8.85-8.92,14.58-17,18.24-2.41,1.09-5,2.2-7.6,1.94-2.26-.23-4.28-1.45-6.41-2.25C429,369.11,417.1,376.23,413,386.26s-1.76,21.71,3.21,31.33c1.15,2.23,2.46,4.46,2.82,7,.63,4.33-1.79,8.61-5,11.57s-7.21,4.93-10.91,7.27a60.29,60.29,0,0,0-18.79,18.89c11.65,7.08,16.28,22.38,21.06,35.15,1.88,5,3.68,11,.72,15.45-7.5,11.35-30.33-4.18-37.54,7.36a63.94,63.94,0,0,0-1.54,32.6c1.16,5.4,3,10.93,1.86,16.33-2.32,10.68-14.73,15.24-25.31,18-3.42.89-7.45,1.66-10.16-.61-1.54-1.29-2.26-3.28-3.06-5.13-7-16.3-23.86-26.59-31.52-42.59-3.72-7.77-5.06-16.48-8.44-24.41s-9.73-15.53-18.29-16.51-17.61,8.38-13.71,16.06c-5.86,1.23-11.08-4.57-12.35-10.42s0-11.94-.54-17.9c-.89-10-7.83-19.84-17.66-22s-21.24,5.6-21.1,15.66c.11,7.68,6,13.86,9.42,20.74s2.57,17.72-4.94,19.32c-2.64.56-5.38-.27-8.07-.08-6.17.42-10.59,5.81-14.92,10.23-2.13,2.17-4.82,4.35-7.85,4-5-.58-6.59-7.37-5.09-12.18s4.74-9.21,4.72-14.24a6.38,6.38,0,0,0-2.26-5.26,8.76,8.76,0,0,0-4.83-1.12l-16.86-.58c-4.35,11.17-8.71,23.66-4.27,34.8,1.4,3.51,3.62,6.69,4.53,10.36,2.53,10.32-8.93,21.18-19.1,18.09-6.18-1.88-10.78-7.56-17.11-8.87-8.84-1.82-17.36,6.22-19.1,15.07s1.54,17.91,5.5,26c2.68,5.5,5.77,11.68,3.7,17.44-2.85,7.9-13.46,9.58-21.67,7.83s-16.46-5.59-24.66-3.79a19.18,19.18,0,0,0-14.6,18.57c.36,16.28,21.29,29.06,16.3,44.55-9.67,8.41-25.3,8.94-35.52,1.21l10.77-3.24C27.72,675.26.7,689.3,0,702.75H1848.24C1852,690.4,1856.87,678,1857.66,665.28Z"/></g></g></svg>