<svg xmlns="http://www.w3.org/2000/svg" viewBox="0 0 532.51 113.16"><defs><style>.cls-1{fill:#ee6c4d;}.cls-2{fill:none;stroke:#fff;stroke-miterlimit:10;stroke-width:5px;}.cls-3{fill:#efefef;}</style></defs><g id="Layer_2" data-name="Layer 2"><g id="_2colored_crowd_copy_5" data-name="2colored crowd copy 5"><path class="cls-1" d="M483.48,105.57c-215.4,0-215.4,7.59-430.8,7.59C25.51,113.16,0,88.73,0,61.56H0C0,34.39,25.51,4.93,52.68,4.93c215.4,0,215.4-.1,430.8-.1,27.17,0,49,29.56,49,56.73h0C532.51,88.73,510.65,105.57,483.48,105.57Z"/><rect class="cls-2" x="5.24" y="2.5" width="507.68" height="98.39" rx="49.2"/><path class="cls-3" d="M81.75,38.41h11c7.72,0,13,4.49,13,11.64s-5.28,11.64-13,11.64h-11Zm10.75,18c4,0,6.61-2.36,6.61-6.38s-2.66-6.39-6.61-6.39H88.34V56.43Z"/><path class="cls-3" d="M107.79,52.64c0-5.42,4.29-9.27,10.18-9.27s10.17,3.85,10.17,9.27S123.92,62,118,62,107.79,58.1,107.79,52.64Zm14,0c0-2.72-1.63-4.25-3.79-4.25s-3.79,1.53-3.79,4.25S115.84,57,118,57,121.76,55.4,121.76,52.64Z"/><path class="cls-3" d="M140.05,38.31c0-1.89,1.53-3.36,3.86-3.36s3.85,1.37,3.85,3.26-1.53,3.46-3.85,3.46S140.05,40.21,140.05,38.31Zm.7,5.35h6.32v18h-6.32Z"/><path class="cls-3" d="M163.59,61a8.44,8.44,0,0,1-4.39,1c-4.62,0-7.31-2.26-7.31-6.89V49.05h-2.63V44.33h2.63V39.64h6.32v4.69h4.12v4.72h-4.12v6a1.83,1.83,0,0,0,1.89,2.06,3.42,3.42,0,0,0,1.93-.57Z"/><path class="cls-3" d="M175,38.31c0-1.89,1.53-3.36,3.86-3.36s3.85,1.37,3.85,3.26-1.53,3.46-3.85,3.46S175,40.21,175,38.31Zm.7,5.35H182v18H175.7Z"/><path class="cls-3" d="M205.29,51.38V61.69H199V52.41c0-2.59-1.13-3.69-3-3.69-2,0-3.59,1.26-3.59,4.26v8.71H186.1v-18h6v2a7.73,7.73,0,0,1,5.72-2.26C202.07,43.37,205.29,45.79,205.29,51.38Z"/><path class="cls-3" d="M231.36,61A8.44,8.44,0,0,1,227,62c-4.62,0-7.31-2.26-7.31-6.89V49.05H217V44.33h2.63V39.64H226v4.69h4.12v4.72H226v6a1.83,1.83,0,0,0,1.89,2.06,3.42,3.42,0,0,0,1.93-.57Z"/><path class="cls-3" d="M253,51.38V61.69h-6.32V52.41c0-2.59-1.13-3.69-3-3.69-2,0-3.59,1.26-3.59,4.26v8.71h-6.32V37h6.32v8.32a7.8,7.8,0,0,1,5.42-2C249.75,43.37,253,45.79,253,51.38Z"/><path class="cls-3" d="M275.53,54.27H262.42c.53,1.83,2.1,2.9,4.43,2.9A5.74,5.74,0,0,0,271,55.6l3.33,3.46C272.6,61,270.07,62,266.65,62c-6.42,0-10.58-4-10.58-9.35s4.22-9.27,9.91-9.27c5.32,0,9.64,3.39,9.64,9.34C275.62,53.18,275.56,53.77,275.53,54.27ZM262.32,51h7.39a3.75,3.75,0,0,0-7.39,0Z"/><path class="cls-3" d="M319,51.38V61.69h-6.32V52.41c0-2.59-1.06-3.69-2.73-3.69-1.83,0-3.16,1.23-3.16,4v8.95h-6.31V52.41c0-2.59-1-3.69-2.73-3.69-1.86,0-3.19,1.23-3.19,4v8.95h-6.32v-18h6v1.9a7.17,7.17,0,0,1,5.38-2.19,6.59,6.59,0,0,1,5.82,2.82,7.83,7.83,0,0,1,6.26-2.82C315.9,43.37,319,45.79,319,51.38Z"/><path class="cls-3" d="M322.11,52.64c0-5.42,4.29-9.27,10.18-9.27s10.18,3.85,10.18,9.27S338.24,62,332.29,62,322.11,58.1,322.11,52.64Zm14,0c0-2.72-1.63-4.25-3.79-4.25s-3.79,1.53-3.79,4.25S330.16,57,332.29,57,336.08,55.4,336.08,52.64Z"/><path class="cls-3" d="M357.46,43.37v5.68A12.76,12.76,0,0,0,356,49c-2.56,0-4.32,1.3-4.32,4.46v8.28h-6.32v-18h6v2.17C352.71,44.2,354.8,43.37,357.46,43.37Z"/><path class="cls-3" d="M379.24,51.38V61.69h-6.31V52.41c0-2.59-1.13-3.69-3-3.69-2,0-3.6,1.26-3.6,4.26v8.71h-6.31v-18h6v2a7.71,7.71,0,0,1,5.72-2.26C376,43.37,379.24,45.79,379.24,51.38Z"/><path class="cls-3" d="M382.5,38.31c0-1.89,1.53-3.36,3.86-3.36s3.86,1.37,3.86,3.26-1.53,3.46-3.86,3.46S382.5,40.21,382.5,38.31Zm.7,5.35h6.32v18H383.2Z"/><path class="cls-3" d="M412.8,51.38V61.69h-6.32V52.41c0-2.59-1.13-3.69-3-3.69-2,0-3.59,1.26-3.59,4.26v8.71h-6.32v-18h6v2a7.73,7.73,0,0,1,5.72-2.26C409.57,43.37,412.8,45.79,412.8,51.38Z"/><path class="cls-3" d="M436.41,43.66V58.4c0,6.81-3.86,10-10.58,10a15.83,15.83,0,0,1-8.94-2.36l2.29-4.42a10.5,10.5,0,0,0,6.09,1.92c3.39,0,4.82-1.53,4.82-4.35v-.6a6.73,6.73,0,0,1-5.35,2.13,8.7,8.7,0,1,1,0-17.39,6.53,6.53,0,0,1,5.65,2.49v-2.2Zm-6.25,8.39a4,4,0,0,0-7.88,0,3.95,3.95,0,0,0,7.88,0Z"/></g></g></svg>