<svg xmlns="http://www.w3.org/2000/svg" viewBox="0 0 532.51 113.16"><defs><style>.cls-1{fill:#ee6c4d;}.cls-2{fill:none;stroke:#fff;stroke-miterlimit:10;stroke-width:5px;}.cls-3{fill:#efefef;}</style></defs><g id="Layer_2" data-name="Layer 2"><g id="_2colored_crowd_copy_5" data-name="2colored crowd copy 5"><path class="cls-1" d="M483.48,105.57c-215.4,0-215.4,7.59-430.8,7.59C25.51,113.16,0,88.73,0,61.56H0C0,34.39,25.51,4.93,52.68,4.93c215.4,0,215.4-.1,430.8-.1,27.17,0,49,29.56,49,56.73h0C532.51,88.73,510.65,105.57,483.48,105.57Z"/><rect class="cls-2" x="5.24" y="2.5" width="507.68" height="98.39" rx="49.2"/><path class="cls-3" d="M141.83,40.61h11c7.71,0,13,4.48,13,11.63s-5.29,11.64-13,11.64h-11Zm10.74,18c4,0,6.62-2.36,6.62-6.39s-2.66-6.38-6.62-6.38h-4.16V58.63Z"/><path class="cls-3" d="M167.87,54.84c0-5.42,4.29-9.28,10.17-9.28s10.18,3.86,10.18,9.28S184,64.18,178,64.18,167.87,60.29,167.87,54.84Zm14,0c0-2.73-1.63-4.26-3.79-4.26s-3.79,1.53-3.79,4.26,1.66,4.32,3.79,4.32S181.83,57.6,181.83,54.84Z"/><path class="cls-3" d="M230.68,45.86l-6.42,18h-6.11l-3.4-9.81-3.52,9.81h-6.12l-6.42-18h6l3.69,10.91,3.82-10.91h5.39l3.73,11,3.82-11Z"/><path class="cls-3" d="M231,54.84c0-5.42,4.29-9.28,10.18-9.28s10.17,3.86,10.17,9.28-4.22,9.34-10.17,9.34S231,60.29,231,54.84Zm14,0c0-2.73-1.63-4.26-3.79-4.26s-3.79,1.53-3.79,4.26,1.66,4.32,3.79,4.32S245,57.6,245,54.84Z"/><path class="cls-3" d="M266.33,45.56v5.69a10.76,10.76,0,0,0-1.43-.1c-2.56,0-4.32,1.29-4.32,4.45v8.28h-6.32v-18h6V48C261.58,46.39,263.67,45.56,266.33,45.56Z"/><path class="cls-3" d="M277.11,57.57l-1.87,1.89v4.42h-6.32V39.21h6.32V52.15l6.45-6.29h7.49l-7.49,7.71,8.12,10.31h-7.65Z"/><path class="cls-3" d="M320.6,53.57V63.88h-6.32V54.61c0-2.6-1.13-3.7-3-3.7-2,0-3.59,1.27-3.59,4.26v8.71h-6.32v-18h6v2a7.73,7.73,0,0,1,5.72-2.26C317.38,45.56,320.6,48,320.6,53.57Z"/><path class="cls-3" d="M323.69,54.84c0-5.42,4.29-9.28,10.18-9.28s10.18,3.86,10.18,9.28-4.23,9.34-10.18,9.34S323.69,60.29,323.69,54.84Zm14,0c0-2.73-1.63-4.26-3.79-4.26s-3.79,1.53-3.79,4.26,1.66,4.32,3.79,4.32S337.66,57.6,337.66,54.84Z"/><path class="cls-3" d="M376.34,45.86l-6.42,18H363.8l-3.39-9.81-3.53,9.81h-6.12l-6.42-18h6L354,56.77l3.83-10.91h5.38l3.73,11,3.82-11Z"/></g></g></svg>