<?xml version="1.0" encoding="UTF-8"?><svg xmlns="http://www.w3.org/2000/svg" viewBox="0 0 734.35 907.68"><defs><style>.d{fill:none;stroke:#efefef;stroke-miterlimit:10;stroke-width:3px;}.e{fill:#efefef;}.f{fill:#98c1d9;}.g{fill:#3d5a80;}</style></defs><g id="a"/><g id="b"><g id="c"><path class="e" d="M323.59,495.51c2.25,0,2.25,.22,4.5,.22s2.25-.21,4.5-.21c.53,0,.83,.73,.44,1.07-2.07,1.81-2.23,1.63-4.29,3.44-2.44,2.14-2.35,2.24-4.79,4.38-.22,.19-.49,.18-.71,0-2.44-2.14-2.48-2.09-4.92-4.23-2.07-1.81-1.95-1.95-4.01-3.76-.4-.35-.26-.72,.27-.72,2.25,0,2.25,.04,4.5,.03s2.25-.21,4.5-.21Z"/><path class="f" d="M266.45,732.76c-3.77-37.3-4.94-74.83-4.91-112.32,.02-21.05,.42-42.09,.82-63.13l1.1-58.16c.66-35.04,1.33-70.13,4.71-105.01,.4-4.12,2.73-9.62,6.7-8.45,1.98,.58,3.04,2.71,3.67,4.68,3.59,11.25,.7,24.44,6.94,34.46,7.62,12.24,24.56,13.66,38.97,13.71,10.44,.03,21.88-.31,29.79-7.13,11.52-9.93,10.19-28.66,19.54-40.65,1.28-1.64,2.9-3.22,4.95-3.57,5.56-.95,8.12,6.66,8.26,12.3,.46,18.1-.68,36.26,1.12,54.28,1.65,16.51,5.75,32.67,8.14,49.09,5.63,38.72,1.96,79.69,17.84,115.45,4.9,11.03,11.53,21.2,18.13,31.31l18.76,28.74c16.6,25.43,33.47,51.46,40.97,80.89,.27,1.07,.53,2.26,.04,3.26-.63,1.29-2.21,1.75-3.62,2.04-13.09,2.7-26.54,2.96-39.9,3.21l-82,1.55c-23.57,.45-47.19,.9-70.74-.66-7.22-.48-17.62,.68-22.58-5.58-5.74-7.25-5.84-21.53-6.72-30.26Z"/><path class="e" d="M271.05,514.11c-11.83,3.09-22.86,8.6-34.45,12.43-11.69,3.87-23.68,6.7-35.84,8.62-1.9,.3-1.09,3.19,.8,2.89,12.16-1.92,24.15-4.75,35.84-8.62,11.59-3.84,22.62-9.34,34.45-12.43,1.87-.49,1.08-3.38-.8-2.89h0Z"/><path class="e" d="M269.63,506.68l-66.32,2.47c-1.92,.07-1.93,3.07,0,3l66.32-2.47c1.92-.07,1.93-3.07,0-3h0Z"/><path class="e" d="M271.2,500.44c-17.51-9.39-35.51-17.82-53.93-25.27-1.79-.72-2.57,2.18-.8,2.89,18.18,7.36,35.93,15.7,53.21,24.97,1.7,.91,3.22-1.68,1.51-2.59h0Z"/><path class="e" d="M378.33,500.8c11.8-3.21,22.77-8.83,34.32-12.79,11.65-3.99,23.61-6.95,35.75-8.99,1.9-.32,1.09-3.21-.8-2.89-12.14,2.04-24.1,5-35.75,8.99-11.55,3.96-22.52,9.58-34.32,12.79-1.86,.51-1.07,3.4,.8,2.89h0Z"/><path class="e" d="M380.08,507.71l66.32-2.47c1.92-.07,1.93-3.07,0-3l-66.32,2.47c-1.92,.07-1.93,3.07,0,3h0Z"/><path class="e" d="M380.02,516.01c17.47,9.48,35.42,17.98,53.81,25.53,1.78,.73,2.56-2.17,.8-2.89-18.14-7.45-35.85-15.88-53.09-25.23-1.7-.92-3.21,1.67-1.51,2.59h0Z"/><path class="e" d="M270.62,386.45l-.09,.18c-.13,.28-.27,.56-.36,.85-.07,.22-.12,.45-.17,.68-.19,.76-.5,1.48-.75,2.22-.84,2.21-1.47,4.5-1.97,6.8-1.01,4.64-1.35,9.39-1.51,14.13-.31,8.82,.15,17.66-1.48,26.37-1.74,9.35-4.93,18.31-5.85,27.83-.93,9.61-.52,19.29-.4,28.93,.12,9.78-.2,19.57-.39,29.36-.78,41.25-2.29,82.62,.42,123.83,2.71,41.17,11.65,81.5,19.42,121.93,.73,3.78-5.06,5.38-5.79,1.6-8.88-46.18-18.53-91.97-20.46-139.09-1.7-41.57-.06-83.27,.72-124.85,.36-19.14-1.49-38.35,3.17-57.13,2.42-9.77,4.33-18.88,4.46-29,.12-9.1,.07-18.33,2.29-27.22,1.3-5.18,4.55-16.16,11.18-16.82,3.14-.31,4.37,2.28,5.44,4.78,1.72,4,3.22,8.09,4.51,12.25,2.89,9.26,4.85,18.77,6.75,28.27,.81,4.06,1.2,8.68,2.95,12.48,2.15,4.68,7.29,2.54,11.39,2.23,10.43-.78,21.01-1.08,31.48-.91,5.29,.09,10.6,.48,15.9,.26,4.69-.2,8.23-1.04,9.12-6.22,1.73-10.05,3.5-19.83,6.29-29.68,2.04-7.2,3.28-15.91,9.76-20.54,1-.71,2.86-.47,3.64,.47,9.39,11.34,5.99,25,7.21,38.48,.66,7.29,3.77,14.06,5,21.24,1.22,7.09,.67,14.48,.46,21.63-1.63,56.02-.3,113.61,19.1,166.87,9.05,24.86,22.79,46.97,37.79,68.61,14.57,21.02,29.62,41.87,39.97,65.39,1.54,3.5-3.63,6.55-5.18,3.03-11.51-26.16-28.82-48.95-44.82-72.44-14.36-21.09-26.71-43.03-35.05-67.23-8.54-24.78-13.32-50.72-15.86-76.76-2.8-28.74-2.86-57.64-1.98-86.47,.23-7.42,.93-15.32-.53-22.65-1.14-5.75-3.35-11.23-4.36-17.01-2.17-12.5,2.83-27.78-6-38.43l3.64,.47c-4.41,3.15-5.36,11.2-6.74,16.04-1.48,5.18-2.89,10.39-4.04,15.66-1.15,5.27-1.47,10.72-2.66,15.96-.78,3.47-2.65,6.22-5.85,7.84-7.62,3.87-18.51,1.52-26.67,1.47-11.2-.06-22.71-.03-33.83,1.44-6.68,.88-11.04-1.45-13.3-7.94-2.87-8.24-3.65-17.44-5.62-25.94-1.09-4.71-2.3-9.4-3.74-14.02-.72-2.3-1.49-4.59-2.34-6.85-.42-1.13-.86-2.26-1.32-3.37-.13-.31-.27-.6-.57-.75-.31-.15-.67-.16-1.01-.09-.43,.08-.63,.28-.82,.66s-.38,.78-.56,1.18Z"/><path class="e" d="M293.13,492.72c8.09,.4,14.32-2.25,14.41-11.3,.07-7.4-4.18-16.24-12.39-16.89-7.67-.6-15.61,5.66-16.44,13.33-.96,8.93,6.33,14.28,14.42,14.86,2.89,.21,2.88-4.29,0-4.5-5.4-.39-10.4-3.65-10-9.68,.36-5.44,6.94-10.39,12.29-9.42s7.43,6.84,7.59,11.5c.24,6.76-4.22,7.87-9.88,7.59-2.89-.14-2.89,4.36,0,4.5Z"/><path class="e" d="M357.11,494.8c9.89-1.62,13.04-11.47,11.67-20.27-1.17-7.49-10.44-8.97-16.95-9.03-8.38-.07-13.08,6.3-13.24,14.34-.19,9.89,8.66,15.25,17.91,15.03,2.89-.07,2.9-4.57,0-4.5-6.55,.15-13.46-3.33-13.41-10.53,.04-6.28,3.61-10.23,9.86-9.79,4.82,.34,10.51,1.25,11.57,6.76,1.2,6.22-2.15,12.59-8.62,13.65-2.85,.47-1.64,4.8,1.2,4.34Z"/><path class="g" d="M287.75,481.06c.01,.46,.08,.92,.3,1.32,.19,.33,.48,.6,.76,.86,.74,.67,1.5,1.36,2.43,1.74,.73,.29,1.53,.37,2.31,.45,1.48,.15,3.1,.26,4.32-.59,1.5-1.04,1.81-3.11,1.76-4.94-.03-1.32-.23-2.75-1.18-3.68-1-.98-2.49-1.1-3.81-1.25-.96-.11-1.99-.35-2.92,0-2.33,.89-4.07,3.63-3.97,6.08Z"/><path class="g" d="M353.18,476.4c-.51,0-1.02,.06-1.47,.27-.37,.18-.67,.46-.97,.74-.77,.72-1.55,1.47-1.98,2.39-.34,.72-.45,1.52-.55,2.3-.2,1.47-.36,3.09,.55,4.33,1.12,1.52,3.42,1.88,5.44,1.88,1.47,0,3.06-.16,4.11-1.09,1.11-.98,1.27-2.46,1.47-3.78,.15-.96,.43-1.98,.06-2.92-.93-2.35-3.93-4.16-6.66-4.13Z"/><path class="e" d="M600.23,649.65c1.14-38.46,.92-76.98,1.23-115.46,.32-39.52,.52-79.04,2.39-118.52,1.73-36.53,1.23-73.17-1.51-109.63-1.37-18.22-2.96-36.59-5.85-54.65-1.1-6.86-3.12-14.34-8.06-19.51-3.69-3.86-8.61-5.46-13.75-6.3-16.03-2.61-32.05-1.41-48.13,.18-18.18,1.79-36.01,3.08-54.29,2.51-37.56-1.16-75.04-2.56-112.63-2.39-37.3,.16-74.59,1.17-111.88,2.35-18.46,.58-36.93,1.2-55.39,1.8-8.58,.28-17.23,.26-25.8,.91-7.25,.55-14.16,2.32-19.7,7.26-10.56,9.41-11.94,25.85-12.69,39.03-1.02,17.92-1.41,35.89-1.99,53.82-1.22,37.15-2.13,74.32-2.54,111.49-.8,73.54,.41,147.15,5.33,220.55,1.25,18.61,2.73,37.21,4.48,55.79,1.37,14.49,1.3,32.24,10.41,44.43,9.56,12.79,26.16,11.01,40.35,11.17,18.59,.21,37.17,.38,55.76,.51,74.68,.52,149.36,.38,224.03-.43,18.59-.2,37.17-.44,55.76-.73,9.29-.14,18.59-.29,27.88-.46,7.74-.14,15.7-.03,22.94-3.16,12.19-5.26,18.28-18.25,21.24-30.48,3.46-14.34,2.98-28.92,2.79-43.54-.2-15.51-.29-31.03-.39-46.54-.05-7.72-12.05-7.74-12,0,.1,15.25,.18,30.5,.38,45.75,.18,14.03,.93,28.12-2.52,41.86-1.44,5.74-3.49,11.71-7.23,16.4-4.21,5.29-10.05,7.14-16.62,7.49-17.41,.94-34.96,.65-52.39,.9-71.35,1-142.71,1.39-214.07,1.18-35.85-.11-71.69-.37-107.53-.78-6.95-.08-14.86,.79-21.61-1.28s-9.63-8.21-11.35-14.53c-4.27-15.73-4.37-33.09-5.72-49.26-5.86-70.3-8.07-140.87-8.12-211.41-.03-35.53,.49-71.06,1.36-106.58,.86-34.8,1.13-69.83,3.54-104.56,.86-12.44,2.66-29.2,17.57-31.61,7.36-1.19,15.16-.76,22.59-1l26.44-.86c35.91-1.17,71.82-2.38,107.74-3.03,35.96-.65,71.93-.73,107.88,.37,17.88,.54,35.75,1.48,53.64,1.84,17.45,.35,34.72-1.98,52.07-3.5,8.26-.72,16.57-1.31,24.87-1.02,5.7,.2,12.23,.31,17.65,2.3s6.7,8.64,7.67,13.54c1.62,8.22,2.31,16.69,3.21,25.01,3.8,35.02,5.5,70.27,5.14,105.49-.22,21.82-1.69,43.58-2.21,65.39-.47,19.81-.69,39.63-.89,59.45-.41,41.34-.5,82.68-1.1,124.01-.09,6.14-.19,12.29-.37,18.43-.23,7.72,11.77,7.72,12,0h0Z"/><path class="e" d="M321.76,510.14c.26,1.88,1.51,3.36,3.1,4.34,1.83,1.13,3.19,1.02,4.86-.29,.76-.6-.31-1.65-1.06-1.06-1.35,1.07-2.64,.5-3.83-.51-.9-.77-1.45-1.7-1.62-2.87-.13-.95-1.58-.55-1.45,.4h0Z"/><path class="e" d="M321.69,509.96c-.11,1.23,.99,2.26-.16,3.3s-3.09,.85-3.92-.5c-.5-.82-1.8-.07-1.3,.76,1.09,1.78,3.26,2.4,5.15,1.53,.83-.38,1.59-1.02,1.95-1.88,.51-1.21-.35-2.03-.24-3.2,.09-.96-1.41-.95-1.5,0h0Z"/><path class="e" d="M318.86,505.39c1.46-.18,3.41-.6,4.82,.02l1.51-5.59c-2.15-.16-5.08-.9-7.07,.18-2.39,1.31-2.63,4.45-.66,6.21,1.41,1.26,3.34,2.75,5.3,2.68,2.89-.11,3.4-3.03,4.02-5.25,1.05-3.72-4.74-5.31-5.79-1.6l-.4,1.42c-.06,.22-.56,1.35-.2,.76l1.08-1.08-.23,.15,1.51-.41c.74,.32,.88,.35,.4,.09-.23-.16-.47-.32-.7-.48s-.46-.33-.69-.49c-.42-.34-.45-.34-.09,.01l.41,1.51-.02,.25-.77,1.32c-.99,.25-1.23,.38-.71,.38,.23,.01,.46,.03,.69,.05,.41,.03,.81,.06,1.22,.09l2.68,.2c2.87,.21,4.23-4.39,1.51-5.59-2.58-1.13-5.1-1.18-7.85-.84-1.61,.19-3,1.24-3,3s1.38,3.2,3,3h0Z"/><path class="e" d="M321.49,507.86c-.08,.71-.06,1.4,.03,2.12,.11,.9,.57,2.08,.24,2.95-.7,1.88-3.71,.89-4.75-.12-.69-.67-1.76,.39-1.06,1.06,1.58,1.53,4.21,2.16,6.18,.95,2.36-1.45,.62-4.78,.87-6.96,.11-.96-1.39-.95-1.5,0h0Z"/><path class="e" d="M326.26,502.58c.63,2.04-1.84,3.96-3.3,4.89-.81,.52-.06,1.82,.76,1.3,2.06-1.32,4.85-3.81,3.99-6.58-.29-.92-1.73-.53-1.45,.4h0Z"/><path class="e" d="M321.82,507.92c-.06,1.17-.07,2.32,.1,3.48,.14,.95,1.59,.55,1.45-.4-.15-1.02-.1-2.06-.05-3.08,.05-.96-1.45-.96-1.5,0h0Z"/><g><path class="e" d="M13.25,818.19l-.69-224.44c-.23-74.43-1.22-148.9-.5-223.33,.15-15.98-.66-32.05,.2-48.01,.96-17.85,1.05-35.68,1.17-53.55,.26-37.28,.33-74.56-.38-111.84-.36-18.63-.35-37.22,.07-55.85,.21-9.14,.44-18.27,.57-27.41,.12-8.23-.18-16.66,1.44-24.77C22.42,12.55,67.09,15.2,95.62,14.88c37.59-.43,75.19-.59,112.78-.47,37.45,.11,74.97,1.44,112.4,.74,37.38-.7,74.61-2.44,112.02-1.91,36.83,.52,73.64,1.58,110.47,1.89s75.32-.12,112.89-2.72c7.43-.51,14.17-.24,21.51,1.02,6.18,1.06,12.5,1.86,18.08,4.9,11.26,6.14,17.5,18.29,21.11,30.13,5.15,16.92,4.69,34.83,4.39,52.32-.32,18.8-.89,37.59-1.45,56.38-1.11,37.29-2.19,74.6-1.19,111.91,.86,31.93,3.85,63.55,2.98,95.53-.48,17.5-1.76,34.97-2.59,52.45-.83,17.45-.21,34.71,.24,52.15,.93,35.67-.5,71.29,1,106.96,1.53,36.44,2.74,72.97,1.82,109.45-.45,17.96-2.4,35.81-3.06,53.75-.28,7.72,11.72,7.71,12,0,.69-18.92,2.72-37.73,3.12-56.67s.12-37.7-.22-56.54c-.68-36.83-2.92-73.52-2.43-110.37,.48-35.47-1.99-70.88-.1-106.32,1.73-32.33,3.69-64.7,1.44-97.06-2.61-37.52-2.97-75.02-2.17-112.62,.8-37.62,2.85-75.27,2.74-112.91-.08-27.7-4.68-65.44-32.74-79.51-6.08-3.05-12.44-4.23-19.08-5.38-7.13-1.24-14.22-2.36-21.47-1.85-18.78,1.31-37.58,2.2-56.4,2.65-76.01,1.81-152.04-3.64-228.02-1.44-18.96,.55-37.9,1.53-56.86,1.84-18.85,.31-37.7-.23-56.55-.42-38.59-.39-77.18-.48-115.77-.3-18.96,.09-37.93,.26-56.89,.49-17.26,.21-35.49-.38-51.94,5.69-13.74,5.08-25.85,14.35-31.46,28.22C-.1,52.5,1.79,70.96,1.43,87.46c-.83,38.06-.05,76.03,.14,114.09,.09,18.81,.04,37.61-.07,56.42s.22,38.18-.8,57.2c-.85,15.87-.47,31.67-.58,47.56C0,381.66-.03,400.58,.03,419.5c.12,38.07,.23,76.14,.35,114.21,.23,76.29,.47,152.58,.7,228.87l.17,55.61c.02,7.72,12.02,7.74,12,0h0Z"/><path class="e" d="M54.05,901.89c-.28-8.79-.82-17.59-.44-26.39,.4-9.42,.68-18.48,0-27.91s-1.38-17.98-.6-26.95c.77-8.88,2.19-17.46,1.33-26.4-.87-9-1.83-17.48-.96-26.53,.87-9,1.02-17.99,.95-27.03-.14-18.23-1.22-36.47-.77-54.7,.22-8.69,1.01-17.38,.86-26.08-.16-8.95-1.27-17.86-1.56-26.81-.31-9.44,.54-18.79,1.09-28.2s.09-18.18-.64-27.33c-2.53-31.64,3.68-63.08,1.1-94.74-1.79-21.95-.14-43.58,1.1-65.53,.45-7.98-1.28-15.82-1.44-23.78s.58-15.03,1-22.57-.24-15.36-.22-23.05,.15-15.4,.2-23.1c.11-17.19,2.52-34.15,2.01-51.38-.55-18.44-2.58-36.81-3.16-55.25-.57-18.26,1.28-36.39,1.9-54.62,.3-8.75-.28-17.29-.94-26-.6-7.92-.98-16.32,2.38-23.74,3.57-7.88,9.44-9.46,17.55-9.97,9.12-.58,18.26-.96,27.39-1.29,18.6-.67,37.21-.99,55.82-1.28,37.44-.58,74.88-1.01,112.32-1.33,75.28-.63,150.56-.8,225.84-.97,37.31-.08,74.64-.28,111.92,1.57,9.23,.46,18.44,1.05,27.65,1.79,8.11,.66,18.26,.28,25.36,4.85,10.57,6.81,11.17,22.41,11.49,33.65,2.15,75.38,2.19,150.88,1.16,226.27-.42,30.3,.62,60.47,1.19,90.76,.27,14.1,0,28.2-.02,42.3-.03,15.52,.62,31.05,.05,46.56-.29,7.87-1.05,15.69-1.86,23.52s-.41,15.04-.14,22.56c.47,12.74-.49,25.28-1.18,37.98-.78,14.14-.32,28.16-.36,42.3-.04,16.31-.66,32.62-.5,48.93,.18,17.89-.44,35.89,.26,53.75,.3,7.7,12.3,7.74,12,0-.73-18.76-.18-37.7-.28-56.48-.09-16.58,.56-33.16,.52-49.75-.04-14.18-.26-28.18,.56-42.35,.77-13.19,1.23-26.09,.8-39.31-.51-15.59,2.03-30.96,2.32-46.54,.3-15.84-.27-31.68-.17-47.52,.19-29.65-.87-59.21-1.4-88.84-.64-35.86,.67-71.79,.75-107.67,.08-38.62-.21-77.25-.87-115.87-.29-17.13,.4-34.7-1.56-51.74-1.49-12.98-5.7-27.02-18.03-33.65-7.42-3.99-15.96-4.5-24.18-5.23-9.53-.85-19.07-1.51-28.63-2.03-19.11-1.05-38.25-1.53-57.39-1.73-76.52-.83-153.09,.04-229.61,.48-76.2,.44-152.58,.16-228.74,3.18-9.05,.36-18.23,.47-27.24,1.48-7.68,.86-14.63,3.25-19.49,9.55-10.39,13.47-7.9,30.35-6.85,46.11,1.22,18.55-1.55,37.19-1.92,55.73s1.52,37.52,2.64,56.26c.56,9.34,.92,18.7,.71,28.06s-1.47,18.01-1.87,27.05c-.68,15.25-.52,30.63-.07,45.88,.24,8.02-.77,15.94-1.05,23.94s.66,16.41,1.29,24.72c.89,11.82-1.13,24.13-1.5,35.98-.33,10.24-.99,20.34-.12,30.57,1.44,16.91,1.89,33.52,.4,50.45-1.34,15.24-2.31,30.89-1.28,46.17,.64,9.45,1.6,18.81,1.21,28.3s-1.41,18.17-1.38,27.29c.03,9.31,1.06,18.57,1.53,27.86s-.33,17.99-.65,26.98c-.64,18.53,.49,37.06,.67,55.59,.09,9.39,.06,18.77-.85,28.13s-.13,17.44,.79,26.46c.95,9.28-.43,18.11-1.23,27.34-.81,9.3,0,18.64,.67,27.92,.63,8.78,.42,17.24-.02,26.01-.46,9.1,.11,18.22,.4,27.32,.24,7.7,12.24,7.74,12,0h0Z"/><path class="e" d="M439.45,61.21q-35.67,0-71.35-.01c-35.67,0-35.67-1.94-71.35-1.94-2.89,0-5.19-.89-5.19-3.78h0c0-2.89,2.3-6.42,5.19-6.42,35.67,0,35.67,1.51,71.35,1.51s35.67-1.01,71.35-1.01c2.89,0,5.35,3.03,5.35,5.93h0c0,2.89-2.45,5.74-5.35,5.74Z"/></g><path class="e" d="M189.74,824.36c0-2.44-.51-4.71-1.12-6.99-.62-2.33-.72-4.91-1.9-6.96-1.2-2.07-3.25-3.58-4.96-5.25-1.7-1.67-3.28-3.62-5.37-4.78-2.07-1.14-4.48-1.75-6.82-2.33-2.28-.57-4.68-.69-7.11-.69s-4.79,.16-7,.78c-2.29,.64-4.39,1.76-6.4,2.96-2.01,1.21-4.2,2.32-5.88,3.99-1.67,1.67-2.85,3.85-4.14,5.86-1.29,2-2.21,4.17-2.94,6.44-.71,2.23-1.22,4.52-1.22,6.96s-.11,4.93,.53,7.22c.65,2.33,2.26,4.29,3.47,6.34,1.23,2.09,2.81,3.79,4.5,5.46,1.69,1.67,3.18,3.6,5.28,4.78,2.06,1.16,4.24,2.4,6.58,3.01,2.28,.59,4.78,.59,7.21,.59s4.92-.04,7.18-.69c2.31-.66,4.28-2.23,6.31-3.44,2.06-1.22,3.69-2.89,5.39-4.55,1.7-1.66,3.14-3.41,4.37-5.44,1.22-2.02,2.96-3.85,3.61-6.15,.63-2.24,.42-4.69,.42-7.13Zm-17.67,1.24c-1.75,2.58-3.51,5.15-5.33,7.67-.9,1.24-1.81,2.49-2.76,3.69-.67,.84-1.31,1.87-2.51,1.68-.71-.11-1.26-.61-1.61-1.24-.4-.71-.95-1.33-1.46-1.97-1.18-1.5-2.35-3.01-3.54-4.51-2.57-3.25-4.63-6.74-5-11.05-.11-1.3,.03-2.65,.55-3.84,.69-1.57,2.73-2.73,4.33-2.87,1.24-.1,2.54,.35,3.4,1.3,.39,.43,.69,.95,.98,1.46,.31,.55,.62,1.09,.93,1.64,.2,.36,.41,.72,.71,.99,1.31,1.17,1.8-.77,2.36-1.64,.84-1.3,1.94-2.4,3.29-3.07,3.05-1.52,7.4-.09,8.33,3.33,.81,2.96-.98,5.94-2.68,8.44Z"/><path class="d" d="M263.82,842.56c-.13-1.55-.19-4.32,.65-5.75,1.96-3.31,3.89-6.89,3.89-10.75,0-3.47-1.39-6.71-2.98-9.68-1.56-2.93-3.84-5.43-6.49-7.63-2.53-2.1-5.38-3.81-8.65-4.89-3.05-1.01-6.35-2.01-9.86-2.01s-6.83,1.14-9.99,2.05c-3.38,.97-6.22,2.59-8.79,4.69-2.7,2.2-5.37,4.45-6.93,7.49-1.58,3.08-2.82,6.52-2.82,10s1.28,6.88,2.9,9.91c1.59,2.98,3.68,5.94,6.38,8.12,2.57,2.08,5.95,3.13,9.29,4.19,3.13,.99,6.46,1.18,9.97,1.18,2.75,0,5.33-.27,7.89-.88,2.15-.51,4.39-.72,6.37-1.43,.84-.3,1.74-.36,2.6-.17,1.05,.23,2.1,.47,3.14,.73,1.25,.31,5.76,3.99,7.04,4.08,.23,.02,.34-.15,.25-.36-.87-1.93-3.69-6.93-3.85-8.87Z"/></g></g></svg>