<?xml version="1.0" encoding="UTF-8"?><svg xmlns="http://www.w3.org/2000/svg" viewBox="0 0 734.35 904.57"><defs><style>.d{fill:none;stroke:#efefef;stroke-miterlimit:10;stroke-width:3px;}.e{fill:#efefef;}.f{fill:#98c1d9;}.g{fill:#0a0a3f;}.h{fill:#3d5a80;}</style></defs><g id="a"/><g id="b"><g id="c"><path class="g" d="M287.75,477.95c.01,.46,.08,.92,.3,1.32,.19,.33,.48,.6,.76,.86,.74,.67,1.5,1.36,2.43,1.74,.73,.29,1.53,.37,2.31,.45,1.48,.15,3.1,.26,4.32-.59,1.5-1.04,1.81-3.11,1.76-4.94-.03-1.32-.23-2.75-1.18-3.68-1-.98-2.49-1.1-3.81-1.25-.96-.11-1.99-.35-2.92,0-2.33,.89-4.07,3.63-3.97,6.08Z"/><path class="g" d="M353.18,473.29c-.51,0-1.02,.06-1.47,.27-.37,.18-.67,.46-.97,.74-.77,.72-1.55,1.47-1.98,2.39-.34,.72-.45,1.52-.55,2.3-.2,1.47-.36,3.09,.55,4.33,1.12,1.52,3.42,1.88,5.44,1.88,1.47,0,3.06-.16,4.11-1.09,1.11-.98,1.27-2.46,1.47-3.78,.15-.96,.43-1.98,.06-2.92-.93-2.35-3.93-4.16-6.66-4.13Z"/><path class="e" d="M12.88,140.07c-3.42-3.83-7.83-3.08-11.75-.24,.11,19.53,.35,39.07,.45,58.63,.09,18.81,.04,37.61-.07,56.42-.11,19.04,.22,38.18-.8,57.2-.85,15.87-.47,31.67-.58,47.56C0,378.55-.03,397.47,.03,416.4c.12,38.07,.23,76.14,.35,114.21l.7,228.87c.06,18.54,.11,37.08,.17,55.61,.02,7.72,12.02,7.74,12,0-.23-74.81-.46-149.63-.69-224.44-.23-74.43-1.22-148.9-.5-223.33,.15-15.98-.66-32.05,.2-48.01,.96-17.85,1.05-35.68,1.17-53.55,.26-37.28,.33-74.56-.38-111.84-.09-4.62-.14-9.23-.18-13.85Z"/><path class="e" d="M731.5,497.44c.48-37.83-1.99-75.58-.1-113.37,1.73-34.48,3.69-69,1.44-103.51-2.61-40.01-2.97-80-2.17-120.09,.58-29.1,1.81-58.21,2.41-87.33-4.31-.77-8.84-.13-12.23,2.64-.3,13.08-.67,26.17-1.03,39.25-1.11,39.76-2.19,79.56-1.19,119.34,.86,34.05,3.85,67.77,2.98,101.88-.48,18.66-1.76,37.29-2.59,55.94-.83,18.6-.21,37.01,.24,55.61,.93,38.03-.5,76.03,1,114.06,1.53,38.86,2.74,77.81,1.82,116.71-.45,19.15-2.4,38.18-3.06,57.31-.28,8.24,11.72,8.22,12,0,.69-20.17,2.72-40.23,3.12-60.43,.4-20.1,.12-40.2-.22-60.3-.68-39.28-2.92-78.4-2.43-117.7Z"/><path class="e" d="M57.05,188.28c-.55-20.83-2.58-41.57-3.16-62.4-.57-20.63,1.28-41.09,1.9-61.68,.2-6.66,0-13.21-.35-19.78-.1-1.89-1.62-3.27-3.28-2.96-2.23,.43-4.46,1.07-6.49,1.75-1.25,.42-2.07,1.78-1.98,3.25v.03c1.23,20.95-1.55,42-1.92,62.94-.37,21.23,1.52,42.37,2.64,63.53,.56,10.55,.92,21.12,.71,31.69-.21,10.23-1.47,20.34-1.87,30.55-.68,17.22-.52,34.6-.07,51.82,.24,9.06-.77,18-1.05,27.04-.29,9.44,.66,18.53,1.29,27.91,.89,13.35-1.13,27.25-1.5,40.64-.33,11.56-.99,22.97-.12,34.52,1.44,19.1,1.89,37.86,.4,56.98-1.34,17.21-2.31,34.89-1.28,52.14,.64,10.68,1.6,21.24,1.21,31.96-.37,10.28-1.41,20.52-1.38,30.82,.03,10.52,1.06,20.97,1.53,31.46,.45,10.17-.33,20.31-.65,30.47-.64,20.93,.49,41.86,.67,62.78,.09,10.61,.06,21.2-.85,31.77-.88,10.22-.13,19.7,.79,29.88,.95,10.49-.43,20.46-1.23,30.87-.8,10.5,0,21.05,.67,31.53,.63,9.91,.42,19.47-.02,29.37-.46,10.28,.11,20.58,.4,30.86,.24,8.7,12.24,8.74,12,0-.28-9.93-.82-19.87-.44-29.8,.41-10.64,.68-20.87,0-31.52-.65-10.11-1.38-20.31-.6-30.44,.77-10.03,2.19-19.71,1.33-29.81-.87-10.16-1.83-19.74-.96-29.96,.87-10.17,1.02-20.32,.95-30.53-.14-20.59-1.22-41.18-.77-61.78,.22-9.82,1.01-19.62,.86-29.45-.16-10.11-1.27-20.17-1.56-30.27-.31-10.66,.54-21.22,1.09-31.85,.53-10.36,.09-20.53-.64-30.86-2.53-35.74,3.68-71.24,1.1-107-1.79-24.79-.14-49.22,1.1-74,.45-9.01-1.28-17.86-1.44-26.85-.15-8.55,.58-16.97,1-25.49,.43-8.69-.24-17.35-.22-26.04,.02-8.7,.15-17.39,.2-26.09,.11-19.41,2.52-38.57,2.01-58.02Z"/><path class="e" d="M686.94,480.72c.19-30.68-.87-61.27-1.4-91.94-.64-37.11,.67-74.29,.75-111.41,.08-39.97-.21-79.94-.87-119.9-.2-11.96,.05-24.12-.37-36.19-4.14-.07-8.73,2.2-12.2,5.39,1.86,74.27,1.87,148.64,.88,222.91-.42,31.35,.62,62.58,1.19,93.92,.27,14.59,0,29.18-.02,43.77-.03,16.06,.62,32.13,.05,48.18-.29,8.15-1.05,16.23-1.86,24.34-.77,7.76-.41,15.57-.14,23.34,.47,13.18-.49,26.16-1.18,39.31-.78,14.63-.32,29.14-.36,43.78-.04,16.88-.66,33.75-.5,50.63,.18,18.51-.44,37.13,.26,55.63,.3,7.96,12.3,8,12,0-.73-19.41-.18-39.01-.28-58.44-.09-17.16,.56-34.32,.52-51.48-.04-14.68-.26-29.16,.56-43.82,.77-13.65,1.23-26.99,.8-40.68-.51-16.13,2.03-32.04,2.32-48.16,.3-16.39-.27-32.78-.17-49.18Z"/><path class="e" d="M189.74,821.26c0-2.44-.51-4.71-1.12-6.99-.62-2.33-.72-4.91-1.9-6.96-1.2-2.07-3.25-3.58-4.96-5.25-1.7-1.67-3.28-3.62-5.37-4.78-2.07-1.14-4.48-1.75-6.82-2.33-2.28-.57-4.68-.69-7.11-.69s-4.79,.16-7,.78c-2.29,.64-4.39,1.76-6.4,2.96-2.01,1.21-4.2,2.32-5.88,3.99-1.67,1.67-2.85,3.85-4.14,5.86-1.29,2-2.21,4.17-2.94,6.44-.71,2.23-1.22,4.52-1.22,6.96s-.11,4.93,.53,7.22c.65,2.33,2.26,4.29,3.47,6.34,1.23,2.09,2.81,3.79,4.5,5.46,1.69,1.67,3.18,3.6,5.28,4.78,2.06,1.16,4.24,2.4,6.58,3.01,2.28,.59,4.78,.59,7.21,.59s4.92-.04,7.18-.69c2.31-.66,4.28-2.23,6.31-3.44,2.06-1.22,3.69-2.89,5.39-4.55,1.7-1.66,3.14-3.41,4.37-5.44,1.22-2.02,2.96-3.85,3.61-6.15,.63-2.24,.42-4.69,.42-7.13Zm-17.67,1.24c-1.75,2.58-3.51,5.15-5.33,7.67-.9,1.24-1.81,2.49-2.76,3.69-.67,.84-1.31,1.87-2.51,1.68-.71-.11-1.26-.61-1.61-1.24-.4-.71-.95-1.33-1.46-1.97-1.18-1.5-2.35-3.01-3.54-4.51-2.57-3.25-4.63-6.74-5-11.05-.11-1.3,.03-2.65,.55-3.84,.69-1.57,2.73-2.73,4.33-2.87,1.24-.1,2.54,.35,3.4,1.3,.39,.43,.69,.95,.98,1.46,.31,.55,.62,1.09,.93,1.64,.2,.36,.41,.72,.71,.99,1.31,1.17,1.8-.77,2.36-1.64,.84-1.3,1.94-2.4,3.29-3.07,3.05-1.52,7.4-.09,8.33,3.33,.81,2.96-.98,5.94-2.68,8.44Z"/><path class="d" d="M263.82,839.45c-.13-1.55-.19-4.32,.65-5.75,1.96-3.31,3.89-6.89,3.89-10.75,0-3.47-1.39-6.71-2.98-9.68-1.56-2.93-3.84-5.43-6.49-7.63-2.53-2.1-5.38-3.81-8.65-4.89-3.05-1.01-6.35-2.01-9.86-2.01s-6.83,1.14-9.99,2.05c-3.38,.97-6.22,2.59-8.79,4.69-2.7,2.2-5.37,4.45-6.93,7.49-1.58,3.08-2.82,6.52-2.82,10s1.28,6.88,2.9,9.91c1.59,2.98,3.68,5.94,6.38,8.12,2.57,2.08,5.95,3.13,9.29,4.19,3.13,.99,6.46,1.18,9.97,1.18,2.75,0,5.33-.27,7.89-.88,2.15-.51,4.39-.72,6.37-1.43,.84-.3,1.74-.36,2.6-.17,1.05,.23,2.1,.47,3.14,.73,1.25,.31,5.76,3.99,7.04,4.08,.23,.02,.34-.15,.25-.36-.87-1.93-3.69-6.93-3.85-8.87Z"/><path class="f" d="M477.26,31.74c-2.58-.49-5.17-.91-7.78-1.24-35.43-4.49-71.43-5.04-107.1-4.83-17.84,.11-35.52,.71-53.27,2.48-8.25,.82-16.5,1.89-24.79,2.15-2.5,.08-5.28,.05-7.98,.34,.71,11.44,1.61,22.86,2.76,34.26,.88,8.74,.98,23.02,6.72,30.27,4.96,6.26,15.35,5.1,22.58,5.58,23.54,1.56,47.16,1.11,70.74,.66,27.33-.52,54.67-1.03,82-1.55,13.36-.25,26.81-.51,39.9-3.21,1.41-.29,2.99-.75,3.62-2.04,.49-1,.23-2.18-.04-3.26-5.42-21.3-15.76-40.81-27.35-59.6Z"/><path class="e" d="M275.99,25.64c-1.9,.18-3.78,.66-5.57,1.45,3.94,25.47,9.05,50.77,13.94,76.18,.73,3.79,6.51,2.18,5.79-1.6-4.86-25.3-10.19-50.57-14.15-76.03Z"/><path class="e" d="M502.47,94.81c-10.35-23.52-25.4-44.37-39.97-65.39-6.67-9.63-13.09-19.35-18.96-29.36-2.32-.16-4.61,0-6.6,.59,4.81,8.42,10.02,16.65,15.53,24.74,15.99,23.49,33.31,46.28,44.82,72.44,1.55,3.53,6.72,.48,5.18-3.03Z"/><path class="e" d="M613.19,20.5c-.33,0-.66,0-1,0-4,.2-7.65,1.65-10.97,3.72,.01,1.1,.02,2.2,.03,3.3,.18,14.03,.93,28.12-2.52,41.86-1.44,5.74-3.49,11.71-7.23,16.4-4.21,5.29-10.05,7.14-16.62,7.49-17.41,.94-34.96,.65-52.39,.9-71.35,1-142.71,1.39-214.07,1.18-35.85-.11-71.69-.37-107.53-.78-6.95-.08-14.86,.79-21.61-1.28-6.71-2.06-9.63-8.21-11.35-14.53-3.61-13.3-4.24-27.75-5.16-41.68-4.01-1.99-8.29-3.5-12.24-4,.51,5.98,1.04,11.95,1.6,17.92,1.37,14.49,1.3,32.24,10.41,44.43,9.56,12.79,26.16,11.01,40.35,11.17,18.59,.21,37.17,.38,55.76,.51,74.68,.52,149.36,.38,224.03-.43,18.59-.2,37.17-.44,55.76-.73,9.29-.14,18.59-.29,27.88-.46,7.74-.14,15.7-.03,22.94-3.16,12.19-5.26,18.28-18.25,21.24-30.48,3.46-14.34,2.98-28.92,2.79-43.54-.03-2.6-.05-5.21-.08-7.81Z"/><path class="e" d="M202.39,156.49c0-2.44-.51-4.71-1.12-6.99-.62-2.33-.72-4.91-1.9-6.96-1.2-2.07-3.25-3.58-4.96-5.25-1.7-1.67-3.28-3.62-5.37-4.78-2.07-1.14-4.48-1.75-6.82-2.33-2.28-.57-4.68-.69-7.11-.69s-4.79,.16-7,.78c-2.29,.64-4.39,1.76-6.4,2.96-2.01,1.21-4.2,2.32-5.88,3.99-1.67,1.67-2.85,3.85-4.14,5.86-1.29,2-2.21,4.17-2.94,6.44-.71,2.23-1.22,4.52-1.22,6.96s-.11,4.93,.53,7.22c.65,2.33,2.26,4.29,3.47,6.34,1.23,2.09,2.81,3.79,4.5,5.46,1.69,1.67,3.18,3.6,5.28,4.78,2.06,1.16,4.24,2.4,6.58,3.01,2.28,.59,4.78,.59,7.21,.59s4.92-.04,7.18-.69c2.31-.66,4.28-2.23,6.31-3.44,2.06-1.22,3.69-2.89,5.39-4.55,1.7-1.66,3.14-3.41,4.37-5.44,1.22-2.02,2.96-3.85,3.61-6.15,.63-2.24,.42-4.69,.42-7.13Zm-17.67,1.24c-1.75,2.58-3.51,5.15-5.33,7.67-.9,1.24-1.81,2.49-2.76,3.69-.67,.84-1.31,1.87-2.51,1.68-.71-.11-1.26-.61-1.61-1.24-.4-.71-.95-1.33-1.46-1.97-1.18-1.5-2.35-3.01-3.54-4.51-2.57-3.25-4.63-6.74-5-11.05-.11-1.3,.03-2.65,.55-3.84,.69-1.57,2.73-2.73,4.33-2.87,1.24-.1,2.54,.35,3.4,1.3,.39,.43,.69,.95,.98,1.46,.31,.55,.62,1.09,.93,1.64,.2,.36,.41,.72,.71,.99,1.31,1.17,1.8-.77,2.36-1.64,.84-1.3,1.94-2.4,3.29-3.07,3.05-1.52,7.4-.09,8.33,3.33,.81,2.96-.98,5.94-2.68,8.44Z"/><path class="d" d="M276.47,174.69c-.13-1.55-.19-4.32,.65-5.75,1.96-3.31,3.89-6.89,3.89-10.75,0-3.47-1.39-6.71-2.98-9.68-1.56-2.93-3.84-5.43-6.49-7.63-2.53-2.1-5.38-3.81-8.65-4.89-3.05-1.01-6.35-2.01-9.86-2.01s-6.83,1.14-9.99,2.05c-3.38,.97-6.22,2.59-8.79,4.69-2.7,2.2-5.37,4.45-6.93,7.49-1.58,3.08-2.82,6.52-2.82,10s1.28,6.88,2.9,9.91c1.59,2.98,3.68,5.94,6.38,8.12,2.57,2.08,5.95,3.13,9.29,4.19,3.13,.99,6.46,1.18,9.97,1.18,2.75,0,5.33-.27,7.89-.88,2.15-.51,4.39-.72,6.37-1.43,.84-.3,1.74-.36,2.6-.17,1.05,.23,2.1,.47,3.14,.73,1.25,.31,5.76,3.99,7.04,4.08,.23,.02,.34-.15,.25-.36-.87-1.93-3.69-6.93-3.85-8.87Z"/><path class="f" d="M245.98,660.19c-.88-10.8-2.76-21.62-1.73-32.4,.79-8.29,3.27-16.31,4.97-24.45,5.25-25.07,3.15-51.03,.77-76.53-.5-5.37-.97-11.02,1.23-15.94,1.51-3.37,4.14-6.09,6.17-9.17,4.91-7.45,6.12-16.65,7.6-25.45,.95-5.62,2.9-12.21,8.36-13.85,5.8-1.75,11.17,3.27,16.62,5.93,7.3,3.56,15.83,2.93,23.95,2.85,24.81-.26,49.65,5.44,71.86,16.49,12.77,6.35,25.68,14.69,39.92,13.77,4.89-.32,9.72-1.74,14.61-1.46,4.9,.28,10.2,2.93,11.36,7.7,.92,3.76-1.01,7.65-3.47,10.64-5.98,7.25-15.49,11.77-19.06,20.46-1.63,3.96-1.8,8.35-1.95,12.64-2.38,68.24-4.75,136.89,4.69,204.51,.38,2.74,.69,5.84-1.07,7.98-1.79,2.18-4.98,2.44-7.8,2.52-39.1,1.17-78.24,1.19-117.35,.07-9.73-.28-19.46-.63-29.19-1.05-6.79-.29-16.44,.99-22.6-2.56-10.67-6.16-8.12-29.15-8.15-39.17-.06-21.17,1.97-42.36,.25-63.51Z"/><path class="e" d="M249.89,762.05c-2.22-6.42-2.04-12.32-2.85-18.93s-1.84-12.48-2.25-18.93c-.87-13.73-2.04-27.44-2.76-41.19s-2.25-26.72-1.39-39.92,5.06-25.33,8.46-37.74c1.52-5.57,3.14-11.16,3.12-16.98-.02-6.51-1.61-12.91-2.12-19.39-1-12.85-1.28-27.15,1.26-39.83s8.84-24.19,14.87-35.07c2.66-4.8,6.15-9.53,7.13-15.03,.53-3,.29-5.89-.15-8.88-.17-1.19-.41-2.38-.59-3.57-.25-1.17-.37-2.34-.38-3.53-.49,.54-.35,.8,.42,.76,4.94,.97,9.09,5.99,13.1,8.74,5.3,3.63,9.65,3.57,15.82,3.23,13.05-.72,26.62-.63,39.51,1.68s23.26,7.05,34.03,13.49c9.62,5.75,19.32,11.91,30.36,14.53,12.07,2.87,24.57,1.28,36.82,1.76,2.35,.09,.11,.45-.79,.82-.73,.3-1.51,.93-2.22,1.32-2.11,1.16-4.34,2.09-6.54,3.08-4.17,1.9-8.3,3.94-11.39,7.43-7.89,8.92-4.85,24.49-4.4,35.32,.56,13.76-.08,26.82-2.6,40.37-5.17,27.78-3.56,55.8-2.1,83.88,1.47,28.16,3.65,56.28,5.75,84.4,.43,5.74,9.43,5.79,9,0-1.97-26.34-4-52.68-5.47-79.05-1.48-26.77-4.25-54.85,.48-81.39,2.41-13.56,4.53-26.62,4.2-40.45-.17-7.12-.64-14.22-.75-21.34-.1-6.11-.93-13.41,4.49-17.52,6.4-4.86,22.31-6.96,22.56-17.2,.3-11.84-19.11-8.76-26.01-8.68-13.66,.14-25.05-2.45-36.96-9.19-11.1-6.28-21.56-13.41-33.84-17.3s-25.81-5.11-38.86-5.23c-6.65-.06-13.4,.79-20.01,.6-6.02-.18-10.15-5.55-14.9-8.72-3.58-2.39-9.16-5.09-13.58-3.48-4.98,1.81-5.42,7.11-4.79,11.65,.45,3.29,1.5,6.74,1.09,10.08-.37,3.03-2.06,5.6-3.55,8.18-3.59,6.22-6.95,12.55-9.98,19.07-5.59,12.05-9.29,23.54-10.02,36.87s-.07,27.3,1.61,41.11c1.85,15.24-5.45,30.08-8.67,44.77s-2.35,30.02-1.58,45.4c.81,16.17,1.99,32.3,3.08,48.45,.47,7.08,.83,14.02,2.09,21,1.4,7.77,.93,15.27,3.57,22.91,1.88,5.44,10.58,3.1,8.68-2.39h0Z"/><path class="e" d="M392.91,596.56c25.68-4.07,51.27-8.68,76.75-13.84,1.89-.38,1.09-3.28-.8-2.89-25.48,5.16-51.07,9.77-76.75,13.84-1.9,.3-1.09,3.19,.8,2.89h0Z"/><path class="e" d="M392.46,606.17c23.77,2.65,47.64,4.13,71.55,4.45,1.93,.03,1.93-2.97,0-3-23.91-.32-47.78-1.8-71.55-4.45-1.92-.21-1.9,2.79,0,3h0Z"/><path class="e" d="M396.38,617.67c24.37,8.62,48.27,18.44,71.66,29.45,1.74,.82,3.26-1.77,1.51-2.59-23.62-11.11-47.77-21.04-72.38-29.75-1.82-.65-2.61,2.25-.8,2.89h0Z"/><path class="e" d="M600.23,646.54c1.14-38.46,.92-76.98,1.23-115.46s.52-79.04,2.39-118.52c1.73-36.53,1.23-73.17-1.51-109.63-1.37-18.22-2.96-36.59-5.85-54.65-1.1-6.86-3.12-14.34-8.06-19.51-3.69-3.86-8.61-5.46-13.75-6.3-16.03-2.61-32.05-1.41-48.13,.18-18.18,1.79-36.01,3.08-54.29,2.51-37.56-1.16-75.04-2.56-112.63-2.39s-74.59,1.17-111.88,2.35c-18.46,.58-36.93,1.2-55.39,1.8-8.58,.28-17.23,.26-25.8,.91-7.25,.55-14.16,2.32-19.7,7.26-10.56,9.41-11.94,25.85-12.69,39.03-1.02,17.92-1.41,35.89-1.99,53.82-1.22,37.15-2.13,74.32-2.54,111.49-.8,73.54,.41,147.15,5.33,220.55,1.25,18.61,2.73,37.21,4.48,55.79,1.37,14.49,1.3,32.24,10.41,44.43,9.56,12.79,26.16,11.01,40.35,11.17,18.59,.21,37.17,.38,55.76,.51,74.68,.52,149.36,.38,224.03-.43,18.59-.2,37.17-.44,55.76-.73,9.29-.14,18.59-.29,27.88-.46,7.74-.14,15.7-.03,22.94-3.16,12.19-5.26,18.28-18.25,21.24-30.48,3.46-14.34,2.98-28.92,2.79-43.54-.2-15.51-.29-31.03-.39-46.54-.05-7.72-12.05-7.74-12,0,.1,15.25,.18,30.5,.38,45.75,.18,14.03,.93,28.12-2.52,41.86-1.44,5.74-3.49,11.71-7.23,16.4-4.21,5.29-10.05,7.14-16.62,7.49-17.41,.94-34.96,.65-52.39,.9-71.35,1-142.71,1.39-214.07,1.18-35.85-.11-71.69-.37-107.53-.78-6.95-.08-14.86,.79-21.61-1.28s-9.63-8.21-11.35-14.53c-4.27-15.73-4.37-33.09-5.72-49.26-5.86-70.3-8.07-140.87-8.12-211.41-.03-35.53,.49-71.06,1.36-106.58s1.13-69.83,3.54-104.56c.86-12.44,2.66-29.2,17.57-31.61,7.36-1.19,15.16-.76,22.59-1l26.44-.86c35.91-1.17,71.82-2.38,107.74-3.03,35.96-.65,71.93-.73,107.88,.37,17.88,.54,35.75,1.48,53.64,1.84s34.72-1.98,52.07-3.5c8.26-.72,16.57-1.31,24.87-1.02,5.7,.2,12.23,.31,17.65,2.3s6.7,8.64,7.67,13.54c1.62,8.22,2.31,16.69,3.21,25.01,3.8,35.02,5.5,70.27,5.14,105.49-.22,21.82-1.69,43.58-2.21,65.39-.47,19.81-.69,39.63-.89,59.45-.41,41.34-.5,82.68-1.1,124.01-.09,6.14-.19,12.29-.37,18.43-.23,7.72,11.77,7.72,12,0h0Z"/><path class="e" d="M278.71,567.29c-15.53-10.27-31.81-19.27-48.77-26.94-1.75-.79-3.27,1.8-1.51,2.59,16.96,7.67,33.24,16.67,48.77,26.94,1.61,1.07,3.12-1.53,1.51-2.59h0Z"/><path class="e" d="M266.34,578.02c-22.13-.54-44.25,0-66.33,1.63-1.91,.14-1.93,3.14,0,3,22.08-1.62,44.2-2.17,66.33-1.63,1.93,.05,1.93-2.95,0-3h0Z"/><path class="e" d="M264.59,590.97c-20.53,1.94-40.79,5.76-60.61,11.46-1.85,.53-1.06,3.43,.8,2.89,19.57-5.63,39.54-9.44,59.82-11.35,1.91-.18,1.92-3.18,0-3h0Z"/><path class="e" d="M264.14,517.82c-1.3,6.04-2.48,14.64,.99,20.19,2.77,4.43,8.51,6.66,13.44,7.48,12.19,2.04,21.81-4.12,26.29-15.3,2.48-6.18,3.48-11.54-.36-17.43-1.54-2.35-3.51-4.55-5.42-6.59-2.22-2.37-4.49-2.98-7.47-4.06-11.63-4.2-24.06,4.58-27.46,15.7-1.13,3.7,4.66,5.28,5.79,1.6,2.7-8.81,11.61-14.11,20.37-11.32,3.88,1.24,6.77,4.31,9.02,7.71,3.03,4.58,1.55,8.6-.43,13.22-3.29,7.68-9.8,11.7-18.19,10.75-3.4-.38-8.34-1.72-10.39-4.79-2.52-3.77-1.26-11.46-.38-15.57,.81-3.77-4.97-5.37-5.79-1.6Z"/><path class="e" d="M364.9,546.68c-1.3,6.04-2.48,14.64,.99,20.19,2.77,4.43,8.51,6.66,13.44,7.48,12.19,2.04,21.81-4.12,26.29-15.3,2.48-6.18,3.48-11.54-.36-17.43-1.54-2.35-3.51-4.55-5.42-6.59-2.22-2.37-4.49-2.98-7.47-4.06-11.63-4.2-24.06,4.58-27.46,15.7-1.13,3.7,4.66,5.28,5.79,1.6,2.7-8.81,11.61-14.11,20.37-11.32,3.88,1.24,6.77,4.31,9.02,7.71,3.03,4.58,1.55,8.6-.43,13.22-3.29,7.68-9.8,11.7-18.19,10.75-3.4-.38-8.34-1.72-10.39-4.79-2.52-3.77-1.26-11.46-.38-15.57,.81-3.77-4.97-5.37-5.79-1.6Z"/><path class="h" d="M284.13,518.23c-3.57-.42-6.86,.81-8.01,4.47-1,3.18-.83,7.22,2.16,9.2,2.77,1.83,7.52,3.18,10.57,1.27,2.53-1.59,3.3-4.84,3.2-7.65-.25-7.1-9.99-8.43-13.21-2.53s3.99,14.11,8.84,8.01c2.38-2.99,3.04-6.49,.62-9.69-1.95-2.57-5.32-4.55-8.61-3.62s-4.77,4.43-4.5,7.63c.3,3.6,2.39,6.37,5.9,7.36,3.28,.92,7.19,.91,9.51-1.94,2.04-2.49,2.38-6.25,1.28-9.21-2.58-6.96-11.55-7.45-15.36-1.37-1.96,3.12-2.54,7.66-.47,10.85s5.91,4.6,9.51,4.15c7.3-.91,11.47-10.36,5.27-15.47-2.96-2.44-7.23,1.78-4.24,4.24,1.75,1.44,1.6,4.01-.58,5-2.49,1.13-5.56-.39-5.23-3.28,.24-2.09,2.24-5.17,4.58-3.36,1.08,.83,1.53,2.81,.91,4.06s-1.95,.94-3.19,.63-2.54-1.5-1.91-2.94c.49-1.15,1.9,.03,2.37,.93s-.02,.89-.08,1.7c-.84,.73-.77,.95,.2,.66,.81,.13,.97-.02,.49-.45,.24-.8-.36-1.3,.86-1.61s1.07-.11,1.04,.89c-.05,1.44,0,2.07-1.55,1.82-1.44-.24-2.81-.42-2.88-1.96-.09-2,.72-1.97,2.49-1.76,3.83,.45,3.8-5.55,0-6h0Z"/><path class="h" d="M388.17,548.38c-2.71-2.34-6.31-1.94-8.57,.82-1.87,2.28-3.33,6.83-2.03,9.64,1.38,2.99,6.18,2.8,8.91,2.28,3.38-.64,6.56-3.26,6.72-6.9,.3-6.96-10.03-11.67-15.58-8.04-2.89,1.89-3.66,5.85-2.64,8.97,1.08,3.32,4,5.71,7.37,6.48s7.22,.23,9.71-2.22,2.9-6.21,.97-9.11c-3.62-5.44-13.69-8.49-17-1.22-1.27,2.78-1.47,7.02-.21,9.83,1.37,3.05,4.46,4.46,7.64,4.78,3.7,.38,6.56-1.26,7.14-5.06,.47-3.1,1.02-7.34-1.46-9.72-2.85-2.74-8.25-2.13-10.25,1.32-2.13,3.67,.69,7.72,4.52,8.46s7.45-3.13,5.29-6.73-7.27-1.76-7.48,2.16,5.79,3.85,6,0l-3.12-1.53c.06,.42,.26,.63,.6,.64,.01-.11,.22,1.57,.21,1.66-.02,.73-.19,3.04-.18,3.04,.05-.03-1.99-.37-2.47-.61-1.22-.61-1.17-1.67-1.18-2.95-.02-2.63,.66-4.42,3.56-3.19,1.49,.64,5.44,2.89,2.53,4.39-1.91,.99-5.19,.21-6.24-1.71-.47-.87-.71-2.38,.39-2.83,.93-.38,2.78,.32,3.65,.66,.96,.37,2.51,1.16,2.17,2.41-.31,1.15-2.25,1.2-3.18,1.21-1.13,.02-1.96-.81-1.28,.69,.77,1.7,.54-.14,.71-.86,.11-.49,.25-1.04,.47-1.49,.53-1.09,.72-.53,.1-1.07,2.91,2.51,7.17-1.71,4.24-4.24h0Z"/><path class="e" d="M332.19,571.36c-.73-.44-1.49-.79-2.26-1.1-2.09-.87-2.64-1.06-5.21-1.16-1.6-.09-3.21,.03-4.81,.35-1.78,.35-2.35,2.55-2.08,4.07,.08,1.47,.2,1.31,.35,1.91,.82,3.37,1.95,6.61,5.29,8.19,4.04,1.9,8.07-.49,10.92-3.34,3.41-3.42,1.48-6.71-2.18-8.91Z"/><path class="e" d="M318.43,593.27c3.11-1.84,6.93-1.13,9.28,1.59,1.26,1.47,3.38-.66,2.12-2.12-3.2-3.71-8.71-4.54-12.91-2.06-1.66,.98-.15,3.58,1.51,2.59h0Z"/><path class="e" d="M325.01,591.02c-.1-2.26,.18-4.41,.86-6.57,.58-1.85-2.32-2.64-2.89-.8-.75,2.39-1.07,4.86-.96,7.37,.08,1.92,3.08,1.93,3,0h0Z"/></g></g></svg>