<?xml version="1.0" encoding="UTF-8"?><svg xmlns="http://www.w3.org/2000/svg" viewBox="0 0 734.35 907.68"><defs><style>.d{fill:none;stroke:#efefef;stroke-miterlimit:10;stroke-width:3px;}.e{fill:#efefef;}.f{fill:#98c1d9;}.g{fill:#3d5a80;}</style></defs><g id="a"/><g id="b"><g id="c"><path class="f" d="M567.28,702.5c-4.51-9.41-9.32-18.67-14.23-27.89-.16-.3-.33-.59-.48-.89-.04-.09-.08-.17-.13-.26-8.99-16.83-18.35-33.48-27.02-50.45-6.91-13.52-13.69-27.15-19.61-41.14-.46-1.09-.92-2.18-1.37-3.27-.9-2.18-1.92-4.31-3.07-6.37-11.93-21.5-23.07-43.39-33.02-65.84-17.26-38.93-31.03-79.64-54.28-115.54-2.23-3.44-4.71-6.98-8.47-8.78-6.77-3.25-15.12,.41-20.27,5.74-5.15,5.34-9.87,11.16-13.23,17.76-10.53,20.66-45.44,43.06-60.81,.04-2.88-8.07-9.06-14.58-15.15-20.64-1.72-1.71-4.28-3.33-6.49-2.26-1.2,.58-1.89,1.81-2.47,2.97-9.99,20.23-7.44,43.81-6.57,66.21,3.26,84.2-20.49,168.12-13.44,252.1,60.99,5.25,121.28-2.57,182.48-.75,39.71,1.18,79.83,6.59,118.99,.98-.53-.41-.99-.98-1.35-1.74Z"/><path class="f" d="M577.88,702.66c1.01-.3,1.95-.82,2.15-1.77,.1-.49,0-1.03,0-1.53-.04-.06-.08-.12-.12-.18-.05,1.42-.86,2.66-2.02,3.49Z"/><path class="e" d="M316.11,505.48c-11.83,3.09-22.86,8.6-34.45,12.43-11.69,3.87-23.68,6.7-35.84,8.62-1.9,.3-1.09,3.19,.8,2.89,12.16-1.92,24.15-4.75,35.84-8.62,11.59-3.84,22.62-9.34,34.45-12.43,1.87-.49,1.08-3.38-.8-2.89h0Z"/><path class="e" d="M314.68,498.05l-66.32,2.47c-1.92,.07-1.93,3.07,0,3l66.32-2.47c1.92-.07,1.93-3.07,0-3h0Z"/><path class="e" d="M316.26,491.81c-17.51-9.39-35.51-17.82-53.93-25.27-1.79-.72-2.57,2.18-.8,2.89,18.18,7.36,35.93,15.7,53.21,24.97,1.7,.91,3.22-1.68,1.51-2.59h0Z"/><path class="e" d="M377.71,493.91c11.8-3.21,22.77-8.83,34.32-12.79s23.61-6.95,35.75-8.99c1.9-.32,1.09-3.21-.8-2.89-12.14,2.04-24.1,5-35.75,8.99s-22.52,9.58-34.32,12.79c-1.86,.51-1.07,3.4,.8,2.89h0Z"/><path class="e" d="M379.46,500.82l66.32-2.47c1.92-.07,1.93-3.07,0-3l-66.32,2.47c-1.92,.07-1.93,3.07,0,3h0Z"/><path class="e" d="M379.4,509.12c17.47,9.48,35.42,17.98,53.81,25.53,1.78,.73,2.56-2.17,.8-2.89-18.14-7.45-35.85-15.88-53.09-25.23-1.7-.92-3.21,1.67-1.51,2.59h0Z"/><path class="e" d="M321.52,485.58c7.07,.35,12.52-2.07,12.6-9.95,.06-6.48-3.7-14.17-10.88-14.71-6.71-.51-13.63,4.97-14.33,11.68-.82,7.79,5.54,12.48,12.61,12.99,2.89,.21,2.88-4.29,0-4.5-4.41-.32-8.52-2.96-8.18-7.91,.31-4.42,5.72-8.49,10.08-7.69s6.03,5.67,6.17,9.46c.21,5.58-3.42,6.36-8.08,6.13-2.89-.14-2.89,4.36,0,4.5Z"/><path class="e" d="M376.08,487.34c8.03-1.31,11.07-9.03,10.33-16.34-.32-3.13-1.17-5.8-4.27-7.1s-6.83-2.01-10.09-2.15c-7.22-.3-11.66,4.72-12.1,11.74-.57,9.05,7.02,14.03,15.54,13.92,2.89-.04,2.9-4.54,0-4.5-6.22,.08-11.73-3.26-10.96-9.9,.6-5.22,3.83-7.22,8.75-6.64,4.14,.49,8.07,1.31,8.76,6.03,.73,4.96-2.08,9.76-7.15,10.59-2.85,.47-1.64,4.8,1.2,4.34Z"/><path class="g" d="M316.94,475.32c.01,.39,.07,.78,.26,1.12,.16,.28,.41,.51,.65,.73,.63,.57,1.28,1.16,2.07,1.48,.62,.25,1.3,.32,1.97,.39,1.26,.13,2.64,.22,3.67-.5,1.27-.89,1.54-2.65,1.5-4.2-.03-1.12-.2-2.35-1-3.13-.85-.83-2.12-.93-3.24-1.06-.82-.1-1.69-.3-2.49,0-1.98,.75-3.46,3.09-3.38,5.18Z"/><path class="g" d="M372.64,471.35c-.43,0-.87,.05-1.25,.23-.32,.15-.57,.39-.82,.63-.65,.62-1.32,1.25-1.69,2.03-.29,.62-.38,1.29-.47,1.96-.17,1.25-.31,2.63,.47,3.69,.95,1.3,2.91,1.6,4.63,1.6,1.25,0,2.61-.14,3.5-.92,.95-.83,1.08-2.1,1.26-3.22,.12-.82,.37-1.68,.05-2.48-.79-2-3.35-3.54-5.67-3.51Z"/><path class="e" d="M350.12,488.91c-.65-.17-1.31-.27-1.97-.34-1.79-.2-2.24-.22-4.23,.27-1.24,.28-2.44,.74-3.59,1.33-1.28,.66-1.23,2.46-.69,3.56,.38,1.11,.44,.96,.69,1.38,1.37,2.39,2.96,4.61,5.85,5.07,3.5,.56,6.05-2.17,7.58-4.97,1.84-3.37-.36-5.45-3.64-6.31Z"/><path class="e" d="M351.79,503.45c-3.01,2.17-7.23,2.31-10.13-.17-1.46-1.25-3.59,.86-2.12,2.12,3.86,3.3,9.61,3.63,13.77,.64,1.55-1.12,.06-3.72-1.51-2.59h0Z"/><path class="e" d="M348.52,504.34c-.34-2.07-.31-4.17,.08-6.23,.35-1.89-2.54-2.7-2.89-.8-.49,2.62-.51,5.19-.08,7.83,.31,1.9,3.2,1.09,2.89-.8h0Z"/><path class="e" d="M600.29,585.53c1.14-38.46,.92-76.98,1.23-115.46s.52-79.04,2.39-118.52c1.73-36.53,1.23-73.17-1.51-109.63-1.37-18.22-2.96-36.59-5.85-54.65-1.1-6.86-3.12-14.34-8.06-19.51-3.69-3.86-8.61-5.46-13.75-6.3-16.03-2.61-32.05-1.41-48.13,.18-18.18,1.79-36.01,3.08-54.29,2.51-37.56-1.16-75.04-2.56-112.63-2.39s-74.59,1.17-111.88,2.35c-18.46,.58-36.93,1.2-55.39,1.8-8.58,.28-17.23,.26-25.8,.91-7.25,.55-14.16,2.32-19.7,7.26-10.56,9.41-11.94,25.85-12.69,39.03-1.02,17.92-1.41,35.89-1.99,53.82-1.22,37.15-2.13,74.32-2.54,111.49-.8,73.54,.41,147.15,5.33,220.55,1.25,18.61,2.73,37.21,4.48,55.79,1.37,14.49,1.3,32.24,10.41,44.43,9.56,12.79,26.16,11.01,40.35,11.17,18.59,.21,37.17,.38,55.76,.51,74.68,.52,149.36,.38,224.03-.43,18.59-.2,37.17-.44,55.76-.73,9.29-.14,18.59-.29,27.88-.46,7.74-.14,15.7-.03,22.94-3.16,12.19-5.26,18.28-18.25,21.24-30.48,3.46-14.34,2.98-28.92,2.79-43.54-.2-15.51-.29-31.03-.39-46.54-.05-7.72-12.05-7.74-12,0,.1,15.25,.18,30.5,.38,45.75,.18,14.03,.93,28.12-2.52,41.86-1.44,5.74-3.49,11.71-7.23,16.4-4.21,5.29-10.05,7.14-16.62,7.49-17.41,.94-34.96,.65-52.39,.9-71.35,1-142.71,1.39-214.07,1.18-35.85-.11-71.69-.37-107.53-.78-6.95-.08-14.86,.79-21.61-1.28s-9.63-8.21-11.35-14.53c-4.27-15.73-4.37-33.09-5.72-49.26-5.86-70.3-8.07-140.87-8.12-211.41-.03-35.53,.49-71.06,1.36-106.58,.86-34.8,1.13-69.83,3.54-104.56,.86-12.44,2.66-29.2,17.57-31.61,7.36-1.19,15.16-.76,22.59-1l26.44-.86c35.91-1.17,71.82-2.38,107.74-3.03,35.96-.65,71.93-.73,107.88,.37,17.88,.54,35.75,1.48,53.64,1.84,17.45,.35,34.72-1.98,52.07-3.5,8.26-.72,16.57-1.31,24.87-1.02,5.7,.2,12.23,.31,17.65,2.3s6.7,8.64,7.67,13.54c1.62,8.22,2.31,16.69,3.21,25.01,3.8,35.02,5.5,70.27,5.14,105.49-.22,21.82-1.69,43.58-2.21,65.39-.47,19.81-.69,39.63-.89,59.45-.41,41.34-.5,82.68-1.1,124.01-.09,6.14-.19,12.29-.37,18.43-.23,7.72,11.77,7.72,12,0h0Z"/><path class="e" d="M721.1,89.49l.69,224.44c.23,74.43,1.22,148.9,.5,223.33-.15,15.98,.66,32.05-.2,48.01-.96,17.85-1.05,35.68-1.17,53.55-.26,37.28-.33,74.56,.38,111.84,.36,18.63,.35,37.22-.07,55.85-.21,9.14-.44,18.27-.57,27.41-.12,8.23,.18,16.66-1.44,24.77-7.29,36.45-51.96,33.79-80.49,34.12-37.59,.43-75.19,.59-112.78,.47s-74.97-1.44-112.4-.74c-37.38,.7-74.61,2.44-112.02,1.91-36.83-.52-73.64-1.58-110.47-1.89-37.64-.33-75.32,.12-112.89,2.72-7.43,.51-14.17,.24-21.51-1.02-6.18-1.06-12.5-1.86-18.08-4.9-11.26-6.14-17.5-18.29-21.11-30.13-5.15-16.92-4.69-34.83-4.39-52.32,.32-18.8,.89-37.59,1.45-56.38,1.11-37.29,2.19-74.6,1.19-111.91-.86-31.93-3.85-63.55-2.98-95.53,.48-17.5,1.76-34.97,2.59-52.45,.83-17.45,.21-34.71-.24-52.15-.93-35.67,.5-71.29-1-106.96-1.53-36.44-2.74-72.97-1.82-109.45,.45-17.96,2.4-35.81,3.06-53.75,.28-7.72-11.72-7.71-12,0-.69,18.92-2.72,37.73-3.12,56.67-.4,18.85-.12,37.7,.22,56.54,.68,36.83,2.92,73.52,2.43,110.37-.48,35.47,1.99,70.88,.1,106.32-1.73,32.33-3.69,64.7-1.44,97.06,2.61,37.52,2.97,75.02,2.17,112.62-.8,37.62-2.85,75.27-2.74,112.91,.08,27.7,4.68,65.44,32.74,79.51,6.08,3.05,12.44,4.23,19.08,5.38,7.13,1.24,14.22,2.36,21.47,1.85,18.78-1.31,37.58-2.2,56.4-2.65,76.01-1.81,152.04,3.64,228.02,1.44,18.96-.55,37.9-1.53,56.86-1.84,18.85-.31,37.7,.23,56.55,.42,38.59,.39,77.18,.48,115.77,.3,18.96-.09,37.93-.26,56.89-.49,17.26-.21,35.49,.38,51.94-5.69,13.74-5.08,25.85-14.35,31.46-28.22,6.33-15.64,4.43-34.1,4.79-50.61,.83-38.06,.05-76.03-.14-114.09-.09-18.81-.04-37.61,.07-56.42,.11-19.04-.22-38.18,.8-57.2,.85-15.87,.47-31.67,.58-47.56,.13-18.93,.16-37.84,.1-56.77-.12-38.07-.23-76.14-.35-114.21-.23-76.29-.47-152.58-.7-228.87l-.17-55.61c-.02-7.72-12.02-7.74-12,0h0Z"/><path class="e" d="M680.3,5.79c.28,9.27,.83,18.55,.43,27.82-.4,9.2-.72,18.09-.09,27.3s1.39,17.73,.91,26.58-2.27,17.49-1.84,26.33,2.26,17.47,1.73,26.34c-.56,9.38-1.43,18.62-1.43,28.03,0,18.65,1,37.28,.89,55.92-.06,9.66-.81,19.29-.96,28.95s.85,18.39,1.34,27.58c.99,18.83-2.05,37.53-.74,56.35,1.15,16.4,1.27,32.47,.38,48.9-.9,16.54-2.4,32.82-1.45,49.41,.66,11.44,1.9,22.66,1.43,34.13-.51,12.19-.84,24.35-1.71,36.52-1.05,14.56,1.68,28.96,.8,43.59-.95,15.78-.49,31.5-.63,47.32-.07,8.11,.06,16.23-.46,24.32-.61,9.52-1.67,18.93-1.73,28.49-.11,18.82,1.73,37.56,2.76,56.33,1.06,19.3,.22,38.35-.85,57.63-.51,9.15-1.01,18.35-.45,27.5,.51,8.28,1.73,16.58,1.06,24.89-.59,7.25-3.21,17.27-10.81,20.05-3.57,1.3-7.52,1.34-11.27,1.57-5.22,.31-10.43,.58-15.65,.82-18.92,.85-37.86,1.27-56.79,1.59-39.05,.67-78.11,1.15-117.16,1.49-77.6,.69-155.2,.87-232.81,1.05-38.62,.09-77.28,.26-115.84-2.03-9.55-.57-19.1-1.28-28.62-2.19-7.79-.74-16.28-1.54-21.51-8.11-8.5-10.71-7.37-27.37-7.65-40.18-1.67-77.3-1.97-154.63-.9-231.94,.43-31.05-.86-62-1.32-93.04-.21-14.39,.08-28.78,.08-43.16,0-16.11-.66-32.25,.04-48.35,.36-8.39,1.45-16.7,2.02-25.06,.53-7.66,.06-15.36-.19-23.02-.44-13.17,.71-26.24,1.37-39.39,.72-14.31,.2-28.55,.25-42.87,.06-16.86,.66-33.72,.49-50.58-.19-18.47,.45-37.04-.25-55.49-.29-7.7-12.29-7.74-12,0,.73,19.35,.16,38.85,.27,58.22,.1,17.13-.53,34.25-.52,51.37,.01,14.59,.32,29.01-.47,43.59-.73,13.42-1.44,26.6-.98,40.04,.56,16.32-1.78,32.33-2.19,48.62s.21,32.83,.13,49.24c-.15,30.47,.69,60.86,1.31,91.32,.74,36.59-.55,73.24-.66,109.84-.12,39.34,.12,78.68,.72,118.02,.29,18.91,.11,37.95,1.2,56.83,.75,13,3.05,28.12,13.42,37.2,6.24,5.46,13.9,7.38,21.95,8.34,9.64,1.15,19.36,1.81,29.05,2.43,19.76,1.28,39.56,1.89,59.35,2.17,79.15,1.11,158.39,.03,237.54-.46,39.46-.24,78.91-.58,118.36-1.09,39.38-.51,78.82-.72,118.16-2.7,8.35-.42,17.78,0,25.7-3.07s12.31-9.55,15.22-17.04c6.25-16.1,1.37-34.04,1.7-50.75,.38-19.6,2.55-39.1,2.08-58.73-.46-19.47-2.53-38.85-3.17-58.31-.6-18.16,1.81-36.02,1.95-54.13,.06-7.84,.15-15.68,.2-23.52,.06-8.24-.64-16.47-.26-24.71s1.26-16.79,1.04-25.25c-.22-8.02-1.86-15.92-1.43-23.96,.66-12.17,1.33-24.29,1.83-36.47,.45-11.01,.04-21.62-.79-32.61-1.3-16.97-.45-33.56,.7-50.5,1.13-16.45,1.58-32.91,.3-49.35-1.5-19.23,1.28-38.18,.55-57.38-.35-9.16-1.44-18.3-1.53-27.46-.1-9.66,.78-19.31,.93-28.97,.31-19.29-.78-38.58-.84-57.87-.03-9.44,.58-18.72,1.3-28.12s-1.01-18.08-1.55-27.24,1.31-18.13,1.8-27.24-.37-18.39-.98-27.53-.24-17.48,.15-26.35-.15-18.55-.43-27.82c-.23-7.7-12.23-7.74-12,0h0Z"/><path class="e" d="M189.8,760.24c0-2.44-.51-4.71-1.12-6.99-.62-2.33-.72-4.91-1.9-6.96-1.2-2.07-3.25-3.58-4.96-5.25-1.7-1.67-3.28-3.62-5.37-4.78-2.07-1.14-4.48-1.75-6.82-2.33-2.28-.57-4.68-.69-7.11-.69s-4.79,.16-7,.78c-2.29,.64-4.39,1.76-6.4,2.96-2.01,1.21-4.2,2.32-5.88,3.99-1.67,1.67-2.85,3.85-4.14,5.86-1.29,2-2.21,4.17-2.94,6.44-.71,2.23-1.22,4.52-1.22,6.96s-.11,4.93,.53,7.22c.65,2.33,2.26,4.29,3.47,6.34,1.23,2.09,2.81,3.79,4.5,5.46,1.69,1.67,3.18,3.6,5.28,4.78,2.06,1.16,4.24,2.4,6.58,3.01,2.28,.59,4.78,.59,7.21,.59s4.92-.04,7.18-.69c2.31-.66,4.28-2.23,6.31-3.44,2.06-1.22,3.69-2.89,5.39-4.55,1.7-1.66,3.14-3.41,4.37-5.44,1.22-2.02,2.96-3.85,3.61-6.15,.63-2.24,.42-4.69,.42-7.13Zm-17.67,1.24c-1.75,2.58-3.51,5.15-5.33,7.67-.9,1.24-1.81,2.49-2.76,3.69-.67,.84-1.31,1.87-2.51,1.68-.71-.11-1.26-.61-1.61-1.24-.4-.71-.95-1.33-1.46-1.97-1.18-1.5-2.35-3.01-3.54-4.51-2.57-3.25-4.63-6.74-5-11.05-.11-1.3,.03-2.65,.55-3.84,.69-1.57,2.73-2.73,4.33-2.87,1.24-.1,2.54,.35,3.4,1.3,.39,.43,.69,.95,.98,1.46,.31,.55,.62,1.09,.93,1.64,.2,.36,.41,.72,.71,.99,1.31,1.17,1.8-.77,2.36-1.64,.84-1.3,1.94-2.4,3.29-3.07,3.05-1.52,7.4-.09,8.33,3.33,.81,2.96-.98,5.94-2.68,8.44Z"/><path class="d" d="M263.88,778.44c-.13-1.55-.19-4.32,.65-5.75,1.96-3.31,3.89-6.89,3.89-10.75,0-3.47-1.39-6.71-2.98-9.68-1.56-2.93-3.84-5.43-6.49-7.63-2.53-2.1-5.38-3.81-8.65-4.89-3.05-1.01-6.35-2.01-9.86-2.01s-6.83,1.14-9.99,2.05c-3.38,.97-6.22,2.59-8.79,4.69-2.7,2.2-5.37,4.45-6.93,7.49-1.58,3.08-2.82,6.52-2.82,10s1.28,6.88,2.9,9.91c1.59,2.98,3.68,5.94,6.38,8.12,2.57,2.08,5.95,3.13,9.29,4.19,3.13,.99,6.46,1.18,9.97,1.18,2.75,0,5.33-.27,7.89-.88,2.15-.51,4.39-.72,6.37-1.43,.84-.3,1.74-.36,2.6-.17,1.05,.23,2.1,.47,3.14,.73,1.25,.31,5.76,3.99,7.04,4.08,.23,.02,.34-.15,.25-.36-.87-1.93-3.69-6.93-3.85-8.87Z"/><path class="e" d="M260.03,702.89c-3.1-26.22-2.52-52.87-1.27-79.2,1.51-31.82,4.48-63.56,8.12-95.21,3.43-29.83,7.51-59.58,12.16-89.25,1.9-12.12,3.67-24.31,6.04-36.34,.47-2.4,1.36-8.51,4.53-8.92s7.22,7.43,8.66,9.54c5.95,8.7,11.81,17.47,17.83,26.13,3.94,5.67,7.53,6.51,13.98,4.3,4.3-1.47,9.09-2.74,13.68-2.22,3.37,.38,6.6,1.7,9.99,2.06,8.15,.88,12.22-5.27,16.15-11.54,5.04-8.04,9.78-16.42,14.06-24.89,.92-1.83,1.66-4.64,3.03-6.16,1.18-1.3-.07-1.46,1.93-.34,.7,.39,1.83,2.02,2.24,2.49,3.2,3.71,6.11,7.67,8.86,11.73,5.45,8.05,10.19,16.55,14.61,25.19,3.5,6.83,6.81,13.76,10.1,20.69,20.09,42.37,39.46,85.08,59.31,127.56,18.74,40.11,36.88,80.93,58.61,119.54,1.42,2.53,2.88,5.05,4.41,7.52,3.04,4.92,10.83,.4,7.77-4.54-8.9-14.39-16.31-29.78-23.81-44.93-11.19-22.61-21.99-45.41-32.71-68.24-21.17-45.09-41.78-90.43-63-135.49-10.48-22.24-20.85-44.98-36.65-64.04-2.61-3.15-5.56-6.83-9.91-7.38-3.71-.47-6.87,1.53-8.86,4.55-2.49,3.77-4.14,8.24-6.27,12.22-2.48,4.62-5.18,9.12-7.79,13.67-2.21,3.85-4.35,7.84-7.17,11.29-1.34,1.65-1.72,2.13-3.71,2.23s-4.39-.91-6.4-1.37c-3.74-.85-7.24-1-11.07-.56-2.16,.25-4.32,.63-6.43,1.19-1.99,.53-4.33,1.99-6.39,2.09-1.47,.08,.66,.59,.15,.22-.32-.23-.75-1.02-.96-1.4-1.13-2.03-2.68-3.94-3.98-5.85-3.14-4.6-6.28-9.19-9.42-13.79-4.34-6.35-9.19-17.25-17.14-19.87-15.77-5.19-17.57,18.39-19.23,28.24-4.8,28.47-8.99,57.04-12.68,85.67-4.2,32.57-7.75,65.24-10.09,98-2.09,29.27-3.49,58.79-1.79,88.12,.33,5.77,.82,11.53,1.5,17.27s9.68,5.75,9,0h0Z"/></g></g></svg>