<?xml version="1.0" encoding="UTF-8"?><svg xmlns="http://www.w3.org/2000/svg" viewBox="0 0 369.03 271.75"><defs><style>.d{fill:#efefef;}.e{fill:#98c1d9;}.f{fill:#3d5a80;}.g{opacity:.25;}</style></defs><g id="a"/><g id="b"><g id="c"><path class="e" d="M358.78,113.53c-.56-8.37-2.07-17.32-7.97-23.28-5.09-5.15-12.48-7.08-19.3-9.5-11.69-4.16-22.65-10.35-32.25-18.21-2.65-2.17-9.06-7.78-12.39-8.55-7.65-1.77-10.41,8.49-17.12,12.57-7.72,4.69-17.05,5.69-26.04,6.57-51.13,5.04-103.15,10.04-153.55,.02-14.61-2.9-28.96-7.04-43.66-9.51-6.86-1.15-14.28-.81-20.99-2.43-5.34-1.29-10.4-3.96-15,.99-3.77,4.05-4.44,10.01-4.88,15.53-3.18,40.47-3.5,81.73,6.6,121.05,3.03,11.79,7.23,23.75,15.66,32.54,9.61,10.02,23.43,14.62,36.77,18.48,27.65,8,55.77,14.37,84.16,19.07,13.18,2.18,26.64,4,39.85,2.06,15.7-2.3,30.11-9.76,44.18-17.09,7.49-3.9,15.03-7.85,21.53-13.24,6.62-5.5,11.96-12.34,18.1-18.37,13.24-13,29.86-21.89,45.23-32.3,15.37-10.41,30.19-23.22,36.9-40.52,4.39-11.31,4.97-23.76,4.15-35.87Zm-32.14,45.8c-4.61,5.8-10.69,10.29-17.33,13.5-4.79,2.32-10.81,5.13-16.24,3.48-13.24-4.03-6.28-26.21-3.62-35.11,4.19-14.07,10.14-28.51,18.8-40.46,.33-.45,.7-.81,1.11-1.08,.34-1.7,1.62-3.16,3.88-3.11,14.99,.35,21.78,13.25,23.16,26.65,1.31,12.74-1.71,26.01-9.75,36.12Z"/><path class="d" d="M109.49,149.98c-6-7.01-13.66-12.31-22.23-15.69-1.75-.69-3.84,.7-4.32,2.38-.56,1.95,.62,3.63,2.38,4.32,7.46,2.94,13.92,7.73,19.11,13.79,1.23,1.43,3.62,1.37,4.94,.12,1.43-1.36,1.35-3.5,.12-4.94h0Z"/><path class="d" d="M213.42,146.92c-3.4-.31-6.83-.36-10.23-.17-3.91,.23-7.97,.68-11.67,2.04-3.8,1.4-6.77,3.54-8.32,7.38-1.82,4.52-1.86,9.85-.33,14.45,3.59,10.81,14.68,15.81,25.4,16.47,5.61,.34,11.22-1.05,15.61-4.64,3.61-2.96,6.16-7.45,6.92-12.05,1.95-11.7-6.98-22.3-18.64-23.24-1.88-.15-3.49,1.71-3.49,3.49,0,2.02,1.6,3.34,3.49,3.49,6.65,.54,12.3,6.82,11.97,13.52-.15,3.1-1.65,6.44-3.99,8.77-2.62,2.6-6.47,3.75-10.36,3.73-4.18-.02-8.65-1-12.39-2.9-3.41-1.73-6.19-4.36-7.51-7.7-1.36-3.43-1.51-6.91-.39-10.35,.22-.68,.42-.96,.68-1.57,.2-.46-.4,.34,.12-.17,.24-.24,.49-.47,.73-.71,.28-.26-.16,.12-.19,.14,.15-.1,.29-.21,.45-.31,.24-.15,.48-.3,.72-.43,.3-.17,.61-.31,.91-.46,.35-.18-.09,.03-.14,.05,.24-.1,.48-.19,.73-.28,1.64-.59,3.34-.98,5.06-1.27,1.09-.18,.91-.16,2.09-.27,.96-.1,1.91-.17,2.87-.22,3.29-.17,6.6-.12,9.88,.18,1.88,.17,3.49-1.73,3.49-3.49,0-2.03-1.61-3.32-3.49-3.49h0Z"/><path class="f" d="M203.91,170.41c2.74,0,5.36-2.41,5.24-5.24-.13-2.84-2.3-5.24-5.24-5.24-2.74,0-5.36,2.41-5.24,5.24s2.3,5.24,5.24,5.24h0Z"/><path class="d" d="M70.17,150.23c-7.84,2.26-12.42,10.67-11.38,18.55,1.13,8.51,8.25,14.95,16.15,17.45,4.42,1.4,9.57,1.72,13.97,.06,3.84-1.45,6.94-4,9.32-7.32,4.53-6.3,5.17-15.19,.94-21.8-4.85-7.58-14.35-11.63-23.1-9.47-7.81,1.93-13.35,6.46-13.07,8.27,2.36,15.24-.69,2.06,14.93-1.53,4.93-1.14,10.5,.76,14.12,4.81,3.44,3.85,3.88,9.37,1.56,13.9-1.2,2.35-2.78,4.2-4.84,5.49-1.28,.8-1.88,1.07-3.36,1.44-1.69,.42-3.52,.44-5.25,.21-5.77-.75-11.71-4.48-13.78-9.78-2.07-5.29,.7-12.56,6-14.08,4.31-1.24,2.13-7.44-2.21-6.19h0Z"/><path class="f" d="M81.27,171.1c2.74,0,5.36-2.41,5.24-5.24-.13-2.84-2.3-5.24-5.24-5.24-2.74,0-5.36,2.41-5.24,5.24s2.3,5.24,5.24,5.24h0Z"/><path class="d" d="M171.05,148.79c6-7.01,13.66-12.31,22.23-15.69,1.75-.69,3.84,.7,4.32,2.38,.56,1.95-.62,3.63-2.38,4.32-7.46,2.94-13.92,7.73-19.11,13.79-1.23,1.43-3.62,1.37-4.94,.12-1.43-1.36-1.35-3.5-.12-4.94h0Z"/><path class="d" d="M125.62,194.61c6.34,11.81,21.27,14.01,31.11,5.13,2.87-2.59-1.38-6.83-4.24-4.24-7.09,6.4-17.24,4.37-21.69-3.91-1.83-3.4-7.01-.38-5.18,3.03h0Z"/><path class="e" d="M35.94,34.51c25.99-6.78,52.94-8.85,79.72-10.89,51.72-3.95,104.96-7.73,154.4,7.94,4.24,1.34,8.74,3.06,11.18,6.78,3.2,4.9,1.54,11.78-2.33,16.16-3.87,4.38-9.45,6.81-14.91,8.92-41.43,16.05-86.85,21.66-130.94,16.16-26.71-3.33-53.16-10.66-80.05-9.51-7.05,.3-14.25,1.18-21.07-.63-7.28-1.93-19.97-10.61-18.94-19.59,1.04-9.1,15.72-13.47,22.94-15.35Z"/><g class="g"><path class="f" d="M23.05,61.61c7.87-3.08,15.92-5.62,24.13-7.62,3.8-.92,7.64-1.74,11.48-2.45,2.08-.39,4.16-.75,6.24-1.08,.93-.15,7.19-1.01,4.19-.64,16.61-2.07,33.34-2.77,50.07-3.11,34.56-.7,69.59-2.4,104.11-.25,4.51,.28,9,.71,13.5,1.17,.5,.05,3.54,.42,.57,.03,1.19,.15,2.37,.34,3.55,.53,2.36,.37,4.72,.79,7.06,1.25,9.4,1.86,18.58,4.53,27.48,8.09,8.76,3.51,20.15-3.83,22.14-12.57,2.37-10.41-3.19-18.38-12.57-22.14-32.96-13.22-69.39-13.39-104.37-12.95s-71.61-.51-107.03,3.42c-20.54,2.28-40.82,6.05-60.13,13.61C4.74,30.31-2.3,39.11,.91,49.04c2.75,8.49,12.75,16.25,22.14,12.57h0Z"/></g><g><path class="d" d="M364.25,98.15c-2.99-7.2-7.21-14.12-13.31-19.12-3.34-2.73-6.83-4.82-10.89-6.31-3.91-1.43-8.17-1.86-12.31-1.92-3.9-.06-7.8,.23-11.7,.07-.73-.03-1.46-.09-2.19-.16-.08-.02-.94-.13-1.08-.16-.35-.07-.7-.14-1.05-.23-.52-.13-1.04-.27-1.55-.44,.01,0-.47-.18-.77-.29-.29-.15-.74-.36-.73-.35-.49-.26-.93-.59-1.41-.86-.05-.03-.09-.05-.13-.07-.02-.02-.04-.04-.07-.07-.22-.2-.45-.39-.66-.6-.42-.39-1.3-1.05-1.49-1.61l.43,.56c-.17-.23-.34-.47-.5-.71s-.32-.49-.47-.73c-.46-.75-.84-1.54-1.23-2.33-.02-.04-.03-.06-.05-.09,0-.03-.02-.05-.03-.08-.1-.28-.21-.56-.32-.85-.26-.72-.49-1.45-.71-2.18-.49-1.66-.89-3.34-1.26-5.02-1.52-6.9-2.67-13.95-6.17-20.2-3.63-6.47-9.49-11.52-15.99-14.97-13.88-7.37-30.25-9.31-45.55-11.74C196.65,1.91,159.71-1.18,122.84,.42c-18.52,.8-37,2.79-55.24,6.11-8.84,1.61-17.62,3.55-26.31,5.84-4.3,1.14-8.58,2.36-12.83,3.67-4.14,1.28-8.3,2.56-11.9,5.05-6.98,4.81-12.22,11.85-14.75,19.94-.18,.59-.38,2.2-.36,2.82C-.23,78.55-1.4,112.43,3.52,146.95c2.37,16.65,6.32,33.11,12.56,48.75,3.2,8.01,6.74,16.1,11.37,23.41,4.9,7.74,11.45,13.6,19.77,17.45,8.37,3.87,17.3,6.64,26.11,9.28,8.96,2.68,18.03,5,27.18,6.94,18.5,3.93,37.35,6.39,56.25,7.32,18.67,.92,38.43,1.33,56.51-4.09,16.29-4.88,30.64-14.23,44.6-23.68,6.89-4.67,13.77-9.38,20.92-13.65,6.39-3.81,12.97-7.28,19.56-10.74,12.93-6.78,26.02-13.49,37.64-22.41,12.88-9.89,23.32-22.24,28.82-37.69,5.57-15.65,5.86-34.25-.56-49.7ZM15.32,40.43c.43-.8,.89-1.57,1.39-2.33,.25-.38,.51-.76,.77-1.13,.07-.11,.15-.21,.23-.31,.05-.06,.15-.19,.32-.39,1.17-1.29,2.32-2.56,3.65-3.69,.14-.12,.53-.43,.62-.5,.16-.12,.32-.23,.48-.35,.87-.6,1.78-1.15,2.73-1.64,0,0,.26-.13,.52-.26,.23-.09,.87-.36,.88-.36,.98-.35,1.98-.65,2.97-.96,2.07-.65,4.15-1.28,6.24-1.89,4.37-1.28,8.77-2.47,13.19-3.56,8.51-2.11,17.1-3.89,25.74-5.36,2.03-.34,4.06-.67,6.09-.98,1.07-.16,2.14-.32,3.21-.48,.64-.09,1.29-.18,1.93-.27,.25-.04,.38-.05,.45-.06,.08-.01,.23-.03,.49-.06,4.3-.56,8.6-1.06,12.91-1.48,35.36-3.47,71.07-2.25,106.32,1.97,2.17,.26,4.34,.53,6.51,.81,.43,.06,.87,.11,1.3,.17,.21,.03,.35,.05,.47,.06,.12,.02,.27,.04,.49,.07,1.19,.16,2.38,.33,3.57,.5,4.43,.63,8.85,1.31,13.27,2.02,7.91,1.29,15.87,2.55,23.67,4.38,3.36,.79,6.7,1.7,9.96,2.85,.79,.28,1.57,.57,2.35,.87,.31,.12,.62,.25,.93,.37-1.41-.56,.13,.06,.35,.16,1.49,.67,2.95,1.4,4.36,2.21,1.39,.8,2.72,1.67,4.02,2.62l.06,.05c.29,.26,.61,.5,.9,.76,.71,.62,1.39,1.27,2.04,1.95,1.7,1.78,2.9,4.29,1.86,6.73-.47,.39-.72,1.07-1.06,1.57-.43,.62-.86,1.25-1.27,1.89,.88-1.39,.13-.18-.15,.16-.3,.36-.6,.71-.9,1.06-.65,.75-1.33,1.47-2.03,2.18-1.31,1.31-2.69,2.55-4.13,3.72-.1,.08-.17,.14-.23,.18-.35,.26-.71,.53-1.06,.78-.81,.58-1.64,1.15-2.49,1.69-3.2,2.06-6.58,3.78-10.05,5.32l-.08,.04s-.09,.04-.15,.06c-.45,.18-.89,.36-1.34,.54-.96,.38-1.94,.74-2.91,1.08-1.83,.65-3.68,1.23-5.55,1.78-3.8,1.1-7.65,2-11.53,2.75-1.93,.37-3.86,.7-5.8,1-1.15,.18-2.31,.34-3.46,.5-.26,.03-.91,.12-1.14,.15-.72,.09-1.45,.18-2.18,.27-10.25,1.21-20.57,1.8-30.89,2.08-20.93,.55-41.95,.24-62.87-.44-10.43-.34-20.85-.9-31.24-1.87-2.66-.25-5.33-.52-7.98-.83-1.19-.14-2.38-.28-3.57-.43-.64-.08-1.28-.16-1.92-.25l-.14-.02c-.25-.03-.87-.12-.97-.13-4.8-.67-9.58-1.45-14.34-2.35-9.41-1.79-18.72-4.07-27.85-6.97-4.59-1.46-9.14-3.07-13.61-4.86-.55-.22-1.1-.44-1.65-.66-.23-.1-.47-.19-.7-.29-.07-.03-.25-.1-.41-.17-.26-.11-.79-.34-.92-.39-.62-.27-1.24-.54-1.86-.82-1.69-.76-3.35-1.65-5.06-2.36-1.36-.56-2.54-.99-3.39-2.33-1.08-1.69-1.27-4.35-.34-6.09Zm340.82,91.18c.04-.24,.07-.46,0,0h0Zm.16-1.49c-.05,.56-.12,1.11-.19,1.67,0,.06-.02,.13-.03,.21-.19,1.17-.38,2.33-.62,3.49-.79,3.87-1.96,7.61-3.36,11.3-.05,.14-.09,.25-.13,.34-.01,.03-.02,.05-.04,.09-.2,.45-.4,.9-.6,1.35-.41,.89-.84,1.78-1.29,2.65-.92,1.79-1.93,3.53-3.02,5.22-.89,1.38-1.82,2.74-2.8,4.06-.12,.16-1.18,1.5-.29,.39-.21,.27-.43,.54-.64,.8-.65,.8-1.31,1.58-1.99,2.35-2.26,2.56-4.68,4.97-7.23,7.24-1.28,1.14-2.59,2.24-3.92,3.31-.33,.27-.67,.53-1.01,.8l-.04,.03-.14,.11c-.76,.57-1.52,1.14-2.29,1.69-5.75,4.16-11.84,7.82-18.03,11.28-12.78,7.14-26.06,13.37-38.54,21.05-13.7,8.42-26.46,18.32-40.56,26.11-3.52,1.95-7.13,3.69-10.8,5.34-.06,.03-.1,.05-.14,.06-.08,.03-.17,.07-.28,.11-.46,.18-.91,.37-1.36,.55-.82,.32-1.65,.63-2.48,.93-2.04,.73-4.1,1.39-6.18,1.97-9.05,2.5-16.86,3.18-26.4,3.46-8.93,.26-17.88,.1-26.79-.39-4.67-.25-9.34-.6-13.99-1.04-2.11-.2-4.21-.42-6.31-.66-1.11-.13-2.21-.26-3.32-.39-.55-.07-1.11-.14-1.66-.21,.02,0-.86-.11-1.16-.15-17.93-2.44-35.68-6.32-53-11.57-4.37-1.32-8.71-2.73-13.03-4.23-1.92-.67-3.83-1.34-5.72-2.07-.37-.14-.74-.29-1.11-.43-.04-.01-.73-.31-1-.41-.81-.35-1.62-.72-2.42-1.11-1.77-.86-3.49-1.81-5.14-2.88-.41-.27-.82-.54-1.22-.82-.12-.08-.48-.36-.64-.47-.84-.67-1.64-1.39-2.41-2.15-.63-.63-1.23-1.28-1.81-1.95-.25-.29-.5-.6-.75-.9-.11-.15-.4-.53-.49-.64-1.22-1.69-2.33-3.46-3.36-5.26-2.01-3.49-3.8-7.11-5.5-10.76-.43-.92-.84-1.84-1.25-2.76-.25-.55-.49-1.11-.73-1.67-.02-.05-.08-.18-.13-.31-.84-2.01-1.64-4.03-2.4-6.07-2.85-7.63-5.18-15.44-7.06-23.36-.96-4.02-1.8-8.07-2.53-12.13-.36-1.99-.7-3.98-1.01-5.98-.14-.9-.28-1.8-.41-2.7-.07-.5-.15-1-.22-1.51,0-.03-.1-.74-.14-1.04-1.05-8.21-1.78-16.46-2.22-24.73-.79-14.85-.72-29.73-.28-44.6,.08-2.77-.55-6.55,1.77-8.6,1.08-.95,2.51-1.34,3.92-1.38,1.65-.05,2.79,.57,4.27,1.19,3.26,1.37,6.56,2.65,9.89,3.84,6.66,2.39,13.45,4.44,20.3,6.18,2.74,.7,5.5,1.34,8.26,1.94,20.68,4.49,41.85,6.49,62.97,7.41,21.3,.92,42.71,1.16,64.03,.84,10.6-.16,21.2-.6,31.75-1.64,9.44-.93,18.92-2.18,28.14-4.47,6.13-1.52,12.15-3.51,17.9-6.14,2.83-1.29,5.58-2.75,8.23-4.37,1.92-1.18,3.68-2.71,5.64-3.78s4.19-1.38,6.36-1.36c.88,0,1.76,.07,2.6,.35,1.3,.44,1.78,1.1,2.13,2.32,.46,1.61,1.26,3.21,2.04,4.68,1.91,3.63,4.57,6.85,7.96,9.19,6.95,4.81,15.69,4.38,23.74,4.24,1.91-.03,3.81-.04,5.72,.08,.47,.03,.94,.07,1.41,.12,.15,.01,.48,.07,.69,.11,.83,.16,1.64,.32,2.46,.55,.81,.23,1.59,.53,2.38,.79h.02s.07,.04,.11,.06c.3,.15,.6,.29,.89,.44,.74,.38,1.46,.79,2.16,1.23,.42,.27,.84,.54,1.24,.83,.13,.09,.49,.38,.68,.53,1.18,1,2.31,2.03,3.36,3.17,.58,.63,1.12,1.28,1.67,1.94l.02,.03-.04-.06,.05,.07c.1,.13,.27,.37,.29,.4,.19,.26,.38,.52,.57,.79,.99,1.43,1.88,2.91,2.7,4.44,.41,.77,.8,1.55,1.17,2.34,.17,.36,.32,.72,.48,1.07,.11,.27,.22,.54,.32,.82,1.32,3.45,2.26,7.03,2.9,10.66,.09,.48,.17,.97,.24,1.46,.02,.13,.06,.45,.09,.67,.1,.89,.2,1.78,.26,2.67,.15,1.96,.21,3.93,.19,5.9-.02,1.97-.13,3.93-.33,5.89Z"/><path class="d" d="M347.34,93.42c-.1-.13-.19-.27-.29-.4h0c.25,.34,.32,.43,.3,.4Z"/></g><g><path class="d" d="M316.1,103.31s-.06,.03-.09,.05h0c-.07,.06-.14,.12-.21,.18-.08,.07-.15,.15-.22,.22,.02,0,.18-.12,.52-.46Z"/><path class="d" d="M298.7,109.29c-7.54,18.86-5.06,36.25-15.26,53.32-2.81,4.7-3.32,9.51-5.35,14.92-1.39,3.7,2.2,7.95,5.94,7.8,5.74-.23,10.69-2.83,15.47-5.78,3.73-2.3,7.44-4.65,11.02-7.18,7.66-5.43,14.8-11.66,19.83-19.67,5.49-8.74,7.68-19.2,7.67-29.42,0-5.1-.41-10.37-1.56-15.34-1.22-5.27-3.79-10.27-8.12-13.61-4.76-3.68-12.47-4.93-18.08-1.89-4.27,2.32-6.61,6.82-9.5,12.36-1.13,2.18-1.84,3.92-2.07,4.49Zm18.66,40.58c.13-.16,.53-.69,.53-.7-.01,.14-.3,.46-.53,.7Zm.24-46.77c.9-.13,1.12-.19,1.65,.02h.01c.13,.05,.22,.09,.3,.13,.41,.21,.81,.44,1.19,.7,.01,0,.04,.03,.08,.06,.31,.28,.62,.56,.91,.86,.07,.07,.23,.26,.37,.42,.15,.22,.35,.5,.42,.61,.26,.41,.49,.83,.7,1.26l.46,1.07c.69,1.97,1.14,4.01,1.45,6.08,.66,5.48,.76,11.04,.1,16.53-.54,3.52-1.43,6.98-2.72,10.3-1.28,2.88-2.85,5.6-4.72,8.14-.1,.13-.19,.26-.29,.39-.1,.14-.16,.21-.18,.24-.11,.12-.21,.22-.25,.27-.51,.62-1.04,1.22-1.58,1.82-1.12,1.23-2.31,2.41-3.53,3.55-1.19,1.11-2.43,2.17-3.69,3.2-.3,.24-.59,.48-.89,.72-.07,.05-.13,.1-.2,.15,.16-.13,.3-.24,.28-.21-.59,.6-1.42,1.07-2.11,1.57-1.74,1.26-3.46,2.93-5.59,3.5-.99,.26-1.95,.26-2.72-.51-1.28-1.27-.17-2.7,.29-4.12,1.34-4.08,2.63-8.17,3.87-12.27,1.22-4.02,2.87-8.22,3.58-12.36,1.02-5.92,2.44-11.83,4.39-17.54,0-.03,.02-.06,.03-.09,.13-.47,.41-1.38,1.04-3.62,.03-.1,.03-.09,.03-.11,.44-1.56,1.02-2.7,1.78-4.28,0,0,1.77-3.71,2.59-4.77,.1-.13,.21-.26,.21-.26h0c.47-.5,1.06-.87,1.71-1.09l1.04-.34Z"/><path class="d" d="M321.26,104.29s-.04-.01-.08-.04c.04,.02,.07,.04,.08,.04Z"/><path class="d" d="M306.88,159.85c.11-.08,.21-.17,.32-.25-.29,.23-.65,.51-.32,.25Z"/></g></g></g></svg>