<?xml version="1.0" encoding="UTF-8"?><svg xmlns="http://www.w3.org/2000/svg" viewBox="0 0 734.35 907.68"><defs><style>.d,.e{fill:#efefef;}.f{fill:#98c1d9;}.g{stroke:#fff;stroke-width:5px;}.g,.h{fill:none;stroke-miterlimit:10;}.i{letter-spacing:0em;}.h{stroke:#efefef;}.e{font-family:Montserrat-ExtraBold, Montserrat;font-size:47px;}</style></defs><g id="a"/><g id="b"><g id="c"><g><g><path class="f" d="M447.8,373.22c-4.66,.96-9.49,1.38-14.53,1.38-12.4,0-24.54-2.23-34.55-8.21-10.33-6.17-17.32-16.62-23.3-27.28-5.79-10.33-9.32-21.65-9.32-34.45,0-9.84,1.77-18.89,5.31-27.4,2.61-6.25,5.98-11.93,10.09-17.03,.77-.96,.99-2.24,.6-3.4v-.02c-.56-1.61-2.35-2.37-3.83-2.87-.2-.07-.38-.16-.54-.27-8.57,.9-16.68,3.58-24.32,6.85-9.8,4.19-19.56,9.02-26.95,16.63-7.38,7.61-12.79,17.38-16.85,27.48-3.92,9.75-7.43,20.51-7.43,31.72s4.32,21.63,8.24,31.37c4.06,10.1,8.32,20.56,15.7,28.18,7.38,7.61,17.52,12.02,27.32,16.21,9.45,4.04,19.56,7.66,30.43,7.66s20.78-2.45,30-6.27c9.56-3.96,18.6-9.59,25.92-16.82,4.48-4.42,8.18-9.55,11.36-15.08,1.84-3.2,.28-7.35-3.26-8.38l-.08-.02Z"/><path class="f" d="M378.55,256.74c-.51-.46-1.2-.69-1.88-.67l1.05,6.23c.33-.63,.66-1.26,.99-1.89,.3-.57,.61-1.17,.64-1.82,.03-.7-.29-1.4-.8-1.85Z"/><path class="f" d="M379.28,256.33c.18,.31,.29,.65,.39,1,.12,.42,.24,.85,.34,1.28,.14-.63,.21-1.28,.24-1.92l-1.36-.82c.15,.13,.29,.29,.39,.46Z"/><path class="f" d="M449.78,375.71c-.51-.28-1.13-.32-1.69-.19l1.33,5.43,1.02-2.71c.13-.36,.27-.72,.26-1.1-.01-.6-.4-1.15-.91-1.43Z"/><path class="f" d="M450.84,375.31c-.21-.25-.42-.51-.66-.73l1.5,2.56"/></g><g><g><path class="d" d="M377.79,416.25c-11.49,0-21.93-3.67-31.51-7.64-9.53-3.95-20.34-8.43-28.23-16.33-7.87-7.87-12.36-18.69-16.32-28.23l-.32-.78c-3.81-9.18-8.13-19.58-8.13-30.72,0-11.88,4.09-23.25,7.64-31.84,4.75-11.45,10.62-20.72,17.46-27.56,7.79-7.79,17.99-12.65,27.86-16.74,11.8-4.89,21.82-7.17,31.54-7.17,.17,0,.35,.01,.54,.03,1.7,.21,3.11,1.35,3.68,2.97,.59,1.67,.19,3.49-1.04,4.76-5.46,5.62-9.81,12.17-12.95,19.46-3.41,7.94-5.07,16.24-5.07,25.38,0,11.09,2.92,21.53,8.92,31.91,5.38,9.29,12.22,19.57,22.22,25.36,8.67,5.01,19.79,7.56,33.06,7.56,7.01,0,13.17-.81,18.85-2.48,1.75-.51,3.64,.06,4.81,1.45,1.17,1.39,1.4,3.33,.6,4.96-4.64,9.43-9.79,16.79-15.75,22.49-7.21,6.9-16.48,12.73-26.82,16.88-10.38,4.17-20.83,6.28-31.05,6.28Zm-3.03-161.11c-8.02,.43-16.46,2.57-26.28,6.65-9.31,3.86-18.9,8.41-25.97,15.48-6.3,6.3-11.75,14.94-16.2,25.67-3.56,8.59-7.2,18.82-7.2,29.61,0,9.98,3.91,19.39,7.68,28.49l.33,.78c3.93,9.49,8,19.3,15.06,26.35,7.08,7.08,17.31,11.32,26.34,15.07,9.02,3.74,18.81,7.2,29.28,7.2,9.48,0,19.2-1.97,28.89-5.86,9.66-3.88,18.29-9.3,24.97-15.69,4.94-4.73,9.31-10.76,13.3-18.39-5.46,1.34-11.31,1.99-17.8,1.99-14.3,0-26.41-2.81-35.97-8.34-11.18-6.47-18.58-17.52-24.34-27.48-6.53-11.29-9.7-22.68-9.7-34.82,0-9.95,1.81-19.01,5.54-27.68,3.02-7.02,7.08-13.4,12.08-19.03Z"/><path class="d" d="M427.7,372.44c-11.41,0-25.04-3.72-35.62-9.85-12.83-7.42-21.68-15.56-27.07-24.87-6.31-10.91-9.79-23.65-9.79-35.88,0-10.23,3.98-19.49,7.5-27.67l5.34,2.3c-3.29,7.66-7.03,16.34-7.03,25.37,0,11.22,3.2,22.93,9.01,32.97,4.86,8.41,13.02,15.85,24.95,22.74,8.72,5.05,23.07,9.78,35.47,8.98l.37,5.8c-1.02,.07-2.07,.1-3.13,.1Z"/></g><path class="d" d="M370.6,255.45c.95,0,1.99,.58,2.01,1.63,.01,.57-.28,1.08-.55,1.56-.33,.61-.66,1.22-.99,1.83-.41,.76,.75,1.44,1.16,.68s.81-1.46,1.19-2.2,.62-1.49,.48-2.32c-.27-1.57-1.79-2.54-3.31-2.52-.86,0-.87,1.35,0,1.34h0Z"/><path class="d" d="M372.26,255c.07,.03,.05,.02-.04-.02,.03,.01,.05,.03,.08,.04,.02,.01,.15,.07,.15,.1-.08-.06-.09-.07-.03-.02,.02,.02,.04,.04,.06,.06,.01,.01,.12,.11,.12,.13-.06-.08-.07-.09-.03-.03,.02,.02,.03,.05,.05,.07,.04,.06,.07,.11,.1,.17s.07,.12,.09,.19c-.05-.16,0,.03,.02,.06,.2,.54,.34,1.1,.48,1.66,.07,.27,.36,.51,.65,.49s.58-.2,.65-.49c.18-.81,.27-1.65,.27-2.48h-1.34c0,.35,.05,.7,.14,1.04,.07,.27,.36,.51,.65,.49,.3-.01,.56-.2,.65-.49,.05-.16,.07-.34,.05-.51-.02-.19-.06-.34-.2-.47-.12-.12-.31-.2-.47-.2-.32,.01-.72,.3-.67,.67,0,0,0,.14,0,.14v-.08s0,.06-.01,.09h1.29c-.02-.07-.03-.14-.05-.21,0-.02-.03-.22-.02-.13s0-.11-.01-.13c0-.07,0-.14,0-.22,0-.35-.3-.69-.67-.67s-.67,.29-.67,.67-.02,.76-.05,1.13c0,.05,0,.09-.02,.14,0,.02-.03,.17,0,.08s-.01,.07-.01,.08c0,.05-.01,.09-.02,.14-.03,.19-.07,.38-.11,.57h1.29c-.16-.64-.32-1.3-.58-1.91-.28-.66-.72-1.18-1.4-1.43-.33-.12-.75,.14-.83,.47-.09,.38,.12,.7,.47,.83h0Z"/><path class="d" d="M442.12,371.1c.42-.08,.89-.06,1.27,.18,.3,.18,.5,.51,.48,.84-.01,.24-.12,.49-.2,.71-.11,.29-.22,.58-.34,.86l-.72,1.85c-.13,.34,.14,.74,.47,.83,.38,.1,.69-.13,.83-.47l.85-2.19c.27-.7,.57-1.4,.39-2.16-.15-.62-.62-1.19-1.18-1.49-.69-.37-1.46-.4-2.21-.25-.36,.07-.56,.49-.47,.83,.1,.37,.47,.54,.83,.47h0Z"/><path class="d" d="M443.56,370.02c.37,.33,.67,.72,.99,1.09l.23,.28s.08,.1,.12,.15c.02,.02,.03,.04,.05,.06-.06-.09-.08-.1-.04-.04,.01,.02,.03,.04,.04,.07-.04-.1-.05-.11-.03-.04-.04-.2,0-.02,0,.04,0,.03,0,.06,0,.09,0,.08,0,.06,0-.04,.02,.02-.03,.16-.04,.18-.09,.34,.11,.74,.47,.83s.73-.1,.83-.47c.08-.33,.13-.71,.03-1.05s-.36-.59-.58-.85c-.36-.42-.7-.87-1.11-1.24-.26-.23-.69-.28-.95,0-.23,.26-.28,.7,0,.95h0Z"/></g></g><text class="e" transform="translate(180.23 539.67)"><tspan x="0" y="0">Do Not Distu</tspan><tspan class="i" x="320.44" y="0">r</tspan><tspan x="341.17" y="0">b</tspan></text><path class="d" d="M13.25,818.19l-.69-224.44c-.23-74.43-1.22-148.9-.5-223.33,.15-15.98-.66-32.05,.2-48.01,.96-17.85,1.05-35.68,1.17-53.55,.26-37.28,.33-74.56-.38-111.84-.36-18.63-.35-37.22,.07-55.85,.21-9.14,.44-18.27,.57-27.41,.12-8.23-.18-16.66,1.44-24.77C22.42,12.55,67.09,15.2,95.62,14.88c37.59-.43,75.19-.59,112.78-.47,37.45,.11,74.97,1.44,112.4,.74,37.38-.7,74.61-2.44,112.02-1.91,36.83,.52,73.64,1.58,110.47,1.89s75.32-.12,112.89-2.72c7.43-.51,14.17-.24,21.51,1.02,6.18,1.06,12.5,1.86,18.08,4.9,11.26,6.14,17.5,18.29,21.11,30.13,5.15,16.92,4.69,34.83,4.39,52.32-.32,18.8-.89,37.59-1.45,56.38-1.11,37.29-2.19,74.6-1.19,111.91,.86,31.93,3.85,63.55,2.98,95.53-.48,17.5-1.76,34.97-2.59,52.45-.83,17.45-.21,34.71,.24,52.15,.93,35.67-.5,71.29,1,106.96,1.53,36.44,2.74,72.97,1.82,109.45-.45,17.96-2.4,35.81-3.06,53.75-.28,7.72,11.72,7.71,12,0,.69-18.92,2.72-37.73,3.12-56.67,.4-18.85,.12-37.7-.22-56.54-.68-36.83-2.92-73.52-2.43-110.37,.48-35.47-1.99-70.88-.1-106.32,1.73-32.33,3.69-64.7,1.44-97.06-2.61-37.52-2.97-75.02-2.17-112.62,.8-37.62,2.85-75.27,2.74-112.91-.08-27.7-4.68-65.44-32.74-79.51-6.08-3.05-12.44-4.23-19.08-5.38-7.13-1.24-14.22-2.36-21.47-1.85-18.78,1.31-37.58,2.2-56.4,2.65-76.01,1.81-152.04-3.64-228.02-1.44-18.96,.55-37.9,1.53-56.86,1.84-18.85,.31-37.7-.23-56.55-.42-38.59-.39-77.18-.48-115.77-.3-18.96,.09-37.93,.26-56.89,.49-17.26,.21-35.49-.38-51.94,5.69-13.74,5.08-25.85,14.35-31.46,28.22C-.1,52.5,1.79,70.96,1.43,87.46c-.83,38.06-.05,76.03,.14,114.09,.09,18.81,.04,37.61-.07,56.42-.11,19.04,.22,38.18-.8,57.2-.85,15.87-.47,31.67-.58,47.56C0,381.66-.03,400.58,.03,419.5c.12,38.07,.23,76.14,.35,114.21,.23,76.29,.47,152.58,.7,228.87l.17,55.61c.02,7.72,12.02,7.74,12,0h0Z"/><path class="d" d="M54.05,901.89c-.28-8.79-.82-17.59-.44-26.39,.4-9.42,.68-18.48,0-27.91s-1.38-17.98-.6-26.95,2.19-17.46,1.33-26.4c-.87-9-1.83-17.48-.96-26.53,.87-9,1.02-17.99,.95-27.03-.14-18.23-1.22-36.47-.77-54.7,.22-8.69,1.01-17.38,.86-26.08s-1.27-17.86-1.56-26.81c-.31-9.44,.54-18.79,1.09-28.2,.53-9.17,.09-18.18-.64-27.33-2.53-31.64,3.68-63.08,1.1-94.74-1.79-21.95-.14-43.58,1.1-65.53,.45-7.98-1.28-15.82-1.44-23.78s.58-15.03,1-22.57-.24-15.36-.22-23.05,.15-15.4,.2-23.1c.11-17.19,2.52-34.15,2.01-51.38-.55-18.44-2.58-36.81-3.16-55.25-.57-18.26,1.28-36.39,1.9-54.62,.3-8.75-.28-17.29-.94-26-.6-7.92-.98-16.32,2.38-23.74,3.57-7.88,9.44-9.46,17.55-9.97,9.12-.58,18.26-.96,27.39-1.29,18.6-.67,37.21-.99,55.82-1.28,37.44-.58,74.88-1.01,112.32-1.33,75.28-.63,150.56-.8,225.84-.97,37.31-.08,74.64-.28,111.92,1.57,9.23,.46,18.44,1.05,27.65,1.79,8.11,.66,18.26,.28,25.36,4.85,10.57,6.81,11.17,22.41,11.49,33.65,2.15,75.38,2.19,150.88,1.16,226.27-.42,30.3,.62,60.47,1.19,90.76,.27,14.1,0,28.2-.02,42.3-.03,15.52,.62,31.05,.05,46.56-.29,7.87-1.05,15.69-1.86,23.52s-.41,15.04-.14,22.56c.47,12.74-.49,25.28-1.18,37.98-.78,14.14-.32,28.16-.36,42.3-.04,16.31-.66,32.62-.5,48.93,.18,17.89-.44,35.89,.26,53.75,.3,7.7,12.3,7.74,12,0-.73-18.76-.18-37.7-.28-56.48-.09-16.58,.56-33.16,.52-49.75-.04-14.18-.26-28.18,.56-42.35,.77-13.19,1.23-26.09,.8-39.31-.51-15.59,2.03-30.96,2.32-46.54,.3-15.84-.27-31.68-.17-47.52,.19-29.65-.87-59.21-1.4-88.84-.64-35.86,.67-71.79,.75-107.67,.08-38.62-.21-77.25-.87-115.87-.29-17.13,.4-34.7-1.56-51.74-1.49-12.98-5.7-27.02-18.03-33.65-7.42-3.99-15.96-4.5-24.18-5.23-9.53-.85-19.07-1.51-28.63-2.03-19.11-1.05-38.25-1.53-57.39-1.73-76.52-.83-153.09,.04-229.61,.48-76.2,.44-152.58,.16-228.74,3.18-9.05,.36-18.23,.47-27.24,1.48-7.68,.86-14.63,3.25-19.49,9.55-10.39,13.47-7.9,30.35-6.85,46.11,1.22,18.55-1.55,37.19-1.92,55.73-.37,18.79,1.52,37.52,2.64,56.26,.56,9.34,.92,18.7,.71,28.06-.21,9.06-1.47,18.01-1.87,27.05-.68,15.25-.52,30.63-.07,45.88,.24,8.02-.77,15.94-1.05,23.94-.29,8.36,.66,16.41,1.29,24.72,.89,11.82-1.13,24.13-1.5,35.98-.33,10.24-.99,20.34-.12,30.57,1.44,16.91,1.89,33.52,.4,50.45-1.34,15.24-2.31,30.89-1.28,46.17,.64,9.45,1.6,18.81,1.21,28.3s-1.41,18.17-1.38,27.29c.03,9.31,1.06,18.57,1.53,27.86s-.33,17.99-.65,26.98c-.64,18.53,.49,37.06,.67,55.59,.09,9.39,.06,18.77-.85,28.13-.88,9.05-.13,17.44,.79,26.46s-.43,18.11-1.23,27.34,0,18.64,.67,27.92c.63,8.78,.42,17.24-.02,26.01-.46,9.1,.11,18.22,.4,27.32,.24,7.7,12.24,7.74,12,0h0Z"/><path class="d" d="M439.45,61.21q-35.67,0-71.35-.01c-35.67,0-35.67-1.94-71.35-1.94-2.89,0-5.19-.89-5.19-3.78h0c0-2.89,2.3-6.42,5.19-6.42,35.67,0,35.67,1.51,71.35,1.51s35.67-1.01,71.35-1.01c2.89,0,5.35,3.03,5.35,5.93h0c0,2.89-2.45,5.74-5.35,5.74Z"/><path class="d" d="M230.63,233.29c1.16-.07,2.21,.21,2.28,1.3s-.95,1.46-2.11,1.53c-1.16,.07-1.98-.2-2.04-1.29-.06-1.09,.71-1.47,1.88-1.54Z"/><path class="d" d="M241.71,205.7c1.56-.09,3.22,1.01,3.3,2.43s-1.43,2.69-3,2.78c-1.56,.09-3.13-.99-3.21-2.41s1.34-2.7,2.9-2.8Z"/><path class="d" d="M174.23,208.97c1.98-.12,2.79-.44,4.14,1.03,1.23,1.34,2.31,2.4,2.44,4.48s1.45,4.9,.39,6.38c-1.16,1.62-4.17,1.88-6.15,2s-4.49-.26-5.83-1.73c-1.23-1.34-1.44-3.79-1.56-5.88s.01-4.39,1.07-5.86c1.16-1.62,3.52-.31,5.5-.43Z"/><path class="d" d="M486.87,321.59c.26-1.13,.82-2.06,1.89-1.82,1.06,.25,1.14,1.33,.87,2.46s-.75,1.84-1.81,1.59c-1.06-.25-1.21-1.1-.95-2.24Z"/><path class="d" d="M187.45,389.93c.26-1.13,.82-2.06,1.89-1.82,1.06,.25,1.14,1.33,.87,2.46s-.75,1.84-1.81,1.59c-1.06-.25-1.21-1.1-.95-2.24Z"/><path class="d" d="M463.55,303.17c.35-1.53,1.88-2.8,3.27-2.48,1.39,.32,2.17,2.13,1.82,3.66-.35,1.53-1.84,2.72-3.22,2.39-1.39-.32-2.21-2.05-1.86-3.57Z"/><path class="d" d="M136.65,351.11c.35-1.53,1.88-2.8,3.27-2.48,1.39,.32,2.17,2.13,1.82,3.66-.35,1.53-1.84,2.72-3.22,2.39-1.39-.32-2.21-2.05-1.86-3.57Z"/><g><path class="d" d="M541.16,383.33c2.55,.24,3.99,2.84,3.8,4.83s-2.01,3.44-4.56,3.2c-2.55-.24-3.29-1.94-3.1-3.93s1.32-4.34,3.87-4.1Z"/><path class="h" d="M541.16,383.33c2.55,.24,3.99,2.84,3.8,4.83s-2.01,3.44-4.56,3.2c-2.55-.24-3.29-1.94-3.1-3.93s1.32-4.34,3.87-4.1Z"/></g><g><path class="d" d="M554.66,258.23c2.11,.2,3.19-.2,4.34,1.68,1.01,1.66,.31,3.02,.1,5.28-.22,2.26,2.35,5.67,1.04,7.11-1.48,1.63-4.67-.2-6.78-.4-2.11-.2-4.25,.18-5.39-1.7-1.01-1.66,.12-3.77,.34-6.03s1.34-2.88,2.65-4.32c1.48-1.63,1.61-1.81,3.72-1.61Z"/><path class="h" d="M554.66,258.23c2.11,.2,3.19-.2,4.34,1.68,1.01,1.66,.31,3.02,.1,5.28-.22,2.26,2.35,5.67,1.04,7.11-1.48,1.63-4.67-.2-6.78-.4-2.11-.2-4.25,.18-5.39-1.7-1.01-1.66,.12-3.77,.34-6.03s1.34-2.88,2.65-4.32c1.48-1.63,1.61-1.81,3.72-1.61Z"/></g><g><path class="d" d="M148.84,378.67c2.11,.2,3.19-.2,4.34,1.68,1.01,1.66,.31,3.02,.1,5.28s2.35,5.67,1.04,7.11c-1.48,1.63-4.67-.2-6.78-.4-2.11-.2-4.25,.18-5.39-1.7-1.01-1.66,.12-3.77,.34-6.03s1.34-2.88,2.65-4.32c1.48-1.63,1.61-1.81,3.72-1.61Z"/><path class="h" d="M148.84,378.67c2.11,.2,3.19-.2,4.34,1.68,1.01,1.66,.31,3.02,.1,5.28s2.35,5.67,1.04,7.11c-1.48,1.63-4.67-.2-6.78-.4-2.11-.2-4.25,.18-5.39-1.7-1.01-1.66,.12-3.77,.34-6.03s1.34-2.88,2.65-4.32c1.48-1.63,1.61-1.81,3.72-1.61Z"/></g><path class="d" d="M205.57,170.79l3.57-2.23c.27-.17,.49-.42,.63-.71l1.8-3.8c.2-.42,.78-.45,1.02-.06l2.4,3.84c.06,.09,.14,.17,.25,.22l4.09,1.94c.42,.2,.45,.78,.06,1.02l-3.84,2.4c-.09,.06-.17,.14-.22,.25l-1.94,4.09c-.2,.42-.78,.45-1.02,.06l-2.18-3.49c-.2-.32-.49-.58-.83-.74l-3.72-1.76c-.42-.2-.45-.78-.06-1.02Z"/><path class="d" d="M310.35,149.31l3.57-2.23c.27-.17,.49-.42,.63-.71l1.8-3.8c.2-.42,.78-.45,1.02-.06l2.4,3.84c.06,.09,.14,.17,.25,.22l4.09,1.94c.42,.2,.45,.78,.06,1.02l-3.84,2.4c-.09,.06-.17,.14-.22,.25l-1.94,4.09c-.2,.42-.78,.45-1.02,.06l-2.18-3.49c-.2-.32-.49-.58-.83-.74l-3.72-1.76c-.42-.2-.45-.78-.06-1.02Z"/><path class="d" d="M598.35,382.32l3.57-2.23c.27-.17,.49-.42,.63-.71l1.8-3.8c.2-.42,.78-.45,1.02-.06l2.4,3.84c.06,.09,.14,.17,.25,.22l4.09,1.94c.42,.2,.45,.78,.06,1.02l-3.84,2.4c-.09,.06-.17,.14-.22,.25l-1.94,4.09c-.2,.42-.78,.45-1.02,.06l-2.18-3.49c-.2-.32-.49-.58-.83-.74l-3.72-1.76c-.42-.2-.45-.78-.06-1.02Z"/><g><path class="d" d="M501.32,626.21c0-7.44,5.8-12.96,13.71-12.96s13.71,5.48,13.71,12.96-5.83,12.96-13.71,12.96-13.71-5.51-13.71-12.96Zm21.55,0c0-4.76-3.37-8.02-7.84-8.02s-7.84,3.26-7.84,8.02,3.36,8.02,7.84,8.02,7.84-3.26,7.84-8.02Z"/><path class="d" d="M556.08,613.68v25.05h-4.76l-12.49-15.21v15.21h-5.73v-25.05h4.8l12.46,15.21v-15.21h5.73Z"/></g><g><path class="d" d="M178.21,627.83c0-7.44,5.8-12.96,13.71-12.96s13.71,5.48,13.71,12.96-5.83,12.96-13.71,12.96-13.71-5.51-13.71-12.96Zm21.55,0c0-4.76-3.37-8.02-7.84-8.02s-7.84,3.26-7.84,8.02,3.36,8.02,7.84,8.02,7.84-3.26,7.84-8.02Z"/><path class="d" d="M215.79,619.96v6.62h11.6v4.65h-11.6v9.13h-5.8v-25.05h18.93v4.65h-13.14Z"/><path class="d" d="M238.66,619.96v6.62h11.6v4.65h-11.6v9.13h-5.8v-25.05h18.93v4.65h-13.14Z"/></g><path class="f" d="M430.16,671.05c-55.01,0-55.01-1.44-110.01-1.44-20.06,0-37.59-14.58-37.59-34.74,0-2.48,0,2.48,0,0,0-20.16,17.53-42.35,37.59-42.35,55.01,0,55.01,.31,110.01,.31,20.06,0,37.03,21.88,37.03,42.05,0,2.48,0-2.48,0,0,0,20.16-16.97,36.18-37.03,36.18Z"/><rect class="g" x="283.16" y="592.32" width="175.38" height="71.02" rx="35.51" ry="35.51"/><path class="d" d="M446.68,627.51c0,2.44,.22,4.9-.42,7.13s-2.39,4.13-3.62,6.15-2.67,3.77-4.37,5.44-3.33,3.33-5.39,4.55-4.01,2.78-6.31,3.44-4.74,.69-7.18,.69-4.93,0-7.21-.59-4.52-1.85-6.58-3.01-3.6-3.11-5.28-4.78-3.27-3.37-4.5-5.46-2.81-4.01-3.47-6.34-.53-4.78-.53-7.22,.51-4.73,1.22-6.96,1.65-4.45,2.94-6.44,2.47-4.19,4.14-5.86,3.86-2.78,5.88-3.99,4.1-2.32,6.4-2.96,4.58-.78,7-.78,4.83,.12,7.11,.69,4.75,1.19,6.82,2.33,3.67,3.1,5.37,4.78,3.76,3.18,4.96,5.25,1.28,4.63,1.9,6.96,1.12,4.55,1.12,6.99Z"/></g></g></svg>