<?xml version="1.0" encoding="UTF-8"?><svg xmlns="http://www.w3.org/2000/svg" viewBox="0 0 532.51 113.16"><defs><style>.d{fill:#ee6c4d;}.e{fill:#efefef;}.f{fill:none;stroke:#fff;stroke-miterlimit:10;stroke-width:5px;}</style></defs><g id="a"/><g id="b"><g id="c"><path class="d" d="M483.48,105.57c-215.4,0-215.4,7.59-430.8,7.59C25.51,113.16,0,88.73,0,61.56,0,59.47,0,63.64,0,61.56c0-27.17,25.51-56.62,52.68-56.62q215.4,0,430.8-.1c27.17,0,49.03,29.55,49.03,56.72,0,2.08,0-2.08,0,0,0,27.17-21.86,44.01-49.03,44.01Z"/><rect class="f" x="5.24" y="2.5" width="507.68" height="98.39" rx="49.2" ry="49.2"/><g><path class="e" d="M151.29,41.14h10.81c7.79,0,13.12,4.69,13.12,11.9s-5.34,11.9-13.12,11.9h-10.81v-23.8Zm10.54,19.28c4.72,0,7.82-2.82,7.82-7.38s-3.09-7.38-7.82-7.38h-5.03v14.75h5.03Z"/><path class="e" d="M190.35,46.38v4.9c-.44-.03-.78-.07-1.19-.07-2.92,0-4.86,1.6-4.86,5.1v8.64h-5.3v-18.29h5.07v2.41c1.29-1.77,3.47-2.69,6.29-2.69Z"/><path class="e" d="M192.87,41.14c0-1.67,1.33-2.96,3.3-2.96s3.3,1.22,3.3,2.86c0,1.77-1.33,3.06-3.3,3.06s-3.3-1.29-3.3-2.96Zm.65,5.51h5.3v18.29h-5.3v-18.29Z"/><path class="e" d="M222.45,54.47v10.47h-5.3v-9.66c0-2.96-1.36-4.32-3.71-4.32-2.55,0-4.39,1.56-4.39,4.93v9.04h-5.3v-18.29h5.07v2.14c1.43-1.56,3.57-2.41,6.05-2.41,4.32,0,7.58,2.52,7.58,8.09Z"/><path class="e" d="M235.09,57.76l-2.55,2.52v4.66h-5.3v-25.23h5.3v14.28l7.75-7.34h6.32l-7.62,7.75,8.3,10.54h-6.42l-5.78-7.17Z"/><path class="e" d="M257.94,55.79c0-5.51,4.25-9.42,10.2-9.42,3.84,0,6.87,1.67,8.19,4.66l-4.11,2.21c-.99-1.73-2.45-2.52-4.11-2.52-2.69,0-4.79,1.87-4.79,5.07s2.11,5.07,4.79,5.07c1.67,0,3.13-.75,4.11-2.52l4.11,2.24c-1.33,2.92-4.35,4.62-8.19,4.62-5.95,0-10.2-3.91-10.2-9.42Z"/><path class="e" d="M277.8,55.79c0-5.51,4.25-9.42,10.06-9.42s10.03,3.91,10.03,9.42-4.21,9.42-10.03,9.42-10.06-3.91-10.06-9.42Zm14.72,0c0-3.16-2.01-5.07-4.66-5.07s-4.69,1.9-4.69,5.07,2.04,5.07,4.69,5.07,4.66-1.9,4.66-5.07Z"/><path class="e" d="M307.24,47.06h4.69v4.08h-4.56v13.8h-5.3v-13.8h-2.82v-4.08h2.82v-.82c0-4.11,2.52-6.8,7.07-6.8,1.5,0,3.06,.31,4.04,.99l-1.39,3.84c-.58-.41-1.33-.65-2.14-.65-1.56,0-2.41,.85-2.41,2.65v.78Z"/><path class="e" d="M320.4,47.06h4.69v4.08h-4.56v13.8h-5.3v-13.8h-2.82v-4.08h2.82v-.82c0-4.11,2.52-6.8,7.07-6.8,1.5,0,3.06,.31,4.05,.99l-1.39,3.84c-.58-.41-1.33-.65-2.14-.65-1.56,0-2.41,.85-2.41,2.65v.78Z"/><path class="e" d="M345.32,57.29h-13.84c.51,2.28,2.45,3.67,5.23,3.67,1.94,0,3.33-.58,4.59-1.77l2.82,3.06c-1.7,1.94-4.25,2.96-7.55,2.96-6.32,0-10.44-3.98-10.44-9.42s4.18-9.42,9.76-9.42,9.52,3.6,9.52,9.49c0,.41-.07,.99-.1,1.43Zm-13.9-3.09h9.01c-.37-2.31-2.11-3.81-4.49-3.81s-4.15,1.46-4.52,3.81Z"/><path class="e" d="M366.77,57.29h-13.84c.51,2.28,2.45,3.67,5.24,3.67,1.94,0,3.33-.58,4.59-1.77l2.82,3.06c-1.7,1.94-4.25,2.96-7.55,2.96-6.32,0-10.44-3.98-10.44-9.42s4.18-9.42,9.76-9.42,9.52,3.6,9.52,9.49c0,.41-.07,.99-.1,1.43Zm-13.9-3.09h9.01c-.37-2.31-2.11-3.81-4.49-3.81s-4.15,1.46-4.52,3.81Z"/></g></g></g></svg>