<?xml version="1.0" encoding="UTF-8"?><svg xmlns="http://www.w3.org/2000/svg" viewBox="0 0 1920 4715.43"><defs><style>.f,.g,.h{fill:none;}.g{stroke-width:3px;}.g,.h{stroke:#efefef;stroke-miterlimit:10;}.i{letter-spacing:0em;}.j,.k,.l{fill:#efefef;}.m{fill:#98c1d9;}.n{fill:#0a0a3f;}.o,.p{fill:#3d5a80;}.q{letter-spacing:0em;}.k{font-size:42px;}.l{opacity:.21;}.r{letter-spacing:0em;}.s{opacity:.18;}.t,.p{opacity:.25;}.u{opacity:.36;}.v{letter-spacing:0em;}.w{letter-spacing:-.02em;}.x{letter-spacing:.04em;}</style></defs><g id="a"/><g id="b"><g id="c"><rect class="n" x="0" y="0" width="1920" height="4715.43"/></g><g id="d"><g><path class="j" d="M811.32,633.2l-9.62-29.4h7.06l8.36,26.04h-3.53l8.74-26.04h6.3l8.4,26.04h-3.4l8.57-26.04h6.51l-9.62,29.4h-7.31l-7.43-22.85h1.93l-7.64,22.85h-7.31Z"/><path class="j" d="M861.09,633.53c-2.41,0-4.54-.5-6.4-1.51-1.86-1.01-3.33-2.39-4.41-4.14-1.08-1.75-1.62-3.74-1.62-5.98s.54-4.28,1.62-6.03c1.08-1.75,2.55-3.12,4.41-4.12,1.86-.99,4-1.49,6.4-1.49s4.51,.5,6.38,1.49c1.88,.99,3.34,2.36,4.41,4.1s1.6,3.75,1.6,6.05-.53,4.24-1.6,5.98c-1.06,1.75-2.53,3.13-4.41,4.14-1.88,1.01-4,1.51-6.38,1.51Zm0-5.38c1.09,0,2.07-.25,2.94-.76,.87-.5,1.55-1.22,2.06-2.16,.5-.94,.76-2.05,.76-3.34s-.25-2.44-.76-3.36-1.19-1.64-2.06-2.14c-.87-.5-1.85-.76-2.94-.76s-2.07,.25-2.94,.76c-.87,.5-1.56,1.22-2.08,2.14-.52,.92-.78,2.04-.78,3.36s.26,2.4,.78,3.34c.52,.94,1.21,1.66,2.08,2.16,.87,.5,1.85,.76,2.94,.76Z"/><path class="j" d="M877.85,633.2v-22.6h6.26v6.38l-.88-1.85c.67-1.6,1.75-2.81,3.23-3.63,1.48-.83,3.29-1.24,5.42-1.24v6.05c-.28-.03-.53-.05-.76-.06-.22-.01-.46-.02-.71-.02-1.79,0-3.24,.51-4.35,1.53-1.11,1.02-1.66,2.61-1.66,4.77v10.67h-6.55Z"/><path class="j" d="M895.78,633.2v-31.16h6.55v31.16h-6.55Zm5.42-4.62l.17-7.98,10.54-10h7.81l-10.12,10.29-3.4,2.77-5,4.91Zm11.42,4.62l-7.64-9.49,4.12-5.08,11.47,14.57h-7.94Z"/><path class="j" d="M926.78,607.45c-1.2,0-2.18-.35-2.94-1.05-.76-.7-1.13-1.57-1.13-2.6s.38-1.9,1.13-2.6c.76-.7,1.74-1.05,2.94-1.05s2.18,.33,2.94,.99c.76,.66,1.13,1.51,1.13,2.54,0,1.09-.37,2-1.11,2.71-.74,.71-1.73,1.07-2.96,1.07Zm-3.28,25.75v-22.6h6.55v22.6h-6.55Z"/><path class="j" d="M949.88,610.26c1.79,0,3.39,.36,4.81,1.07,1.41,.71,2.53,1.81,3.34,3.28,.81,1.47,1.22,3.35,1.22,5.65v12.94h-6.55v-11.93c0-1.82-.4-3.16-1.2-4.03-.8-.87-1.93-1.3-3.38-1.3-1.04,0-1.97,.22-2.79,.65-.83,.43-1.47,1.1-1.93,2-.46,.9-.69,2.04-.69,3.44v11.17h-6.55v-22.6h6.26v6.26l-1.18-1.89c.81-1.51,1.97-2.67,3.49-3.49,1.51-.81,3.23-1.22,5.17-1.22Z"/><path class="j" d="M974.95,632.1c-2.1,0-4-.46-5.69-1.37-1.69-.91-3.05-2.18-4.07-3.82-1.02-1.64-1.53-3.55-1.53-5.73s.51-4.14,1.53-5.78c1.02-1.64,2.38-2.9,4.07-3.8,1.69-.9,3.59-1.34,5.69-1.34,1.9,0,3.58,.38,5.04,1.15,1.46,.77,2.59,1.96,3.4,3.57,.81,1.61,1.22,3.67,1.22,6.2s-.41,4.54-1.22,6.15c-.81,1.61-1.95,2.81-3.4,3.59s-3.14,1.18-5.04,1.18Zm1.01,9.58c-2.13,0-4.18-.26-6.15-.78-1.97-.52-3.62-1.3-4.94-2.33l2.6-4.7c.95,.78,2.16,1.41,3.63,1.87s2.92,.69,4.35,.69c2.32,0,4.01-.52,5.06-1.55s1.58-2.58,1.58-4.62v-3.4l.42-5.67-.08-5.71v-4.87h6.22v18.82c0,4.2-1.09,7.29-3.28,9.28-2.18,1.99-5.32,2.98-9.41,2.98Zm.29-14.95c1.15,0,2.17-.23,3.07-.69s1.6-1.11,2.1-1.95,.76-1.81,.76-2.9-.25-2.09-.76-2.92-1.2-1.47-2.1-1.93-1.92-.69-3.07-.69-2.17,.23-3.07,.69c-.9,.46-1.6,1.11-2.12,1.93-.52,.83-.78,1.8-.78,2.92s.26,2.06,.78,2.9c.52,.84,1.22,1.49,2.12,1.95,.9,.46,1.92,.69,3.07,.69Z"/><path class="j" d="M1006.62,633.2v-31.16h6.55v31.16h-6.55Z"/><path class="j" d="M1026.23,633.53c-1.76,0-3.28-.3-4.54-.9-1.26-.6-2.23-1.42-2.9-2.46-.67-1.04-1.01-2.2-1.01-3.49s.33-2.52,.99-3.53c.66-1.01,1.7-1.8,3.13-2.37,1.43-.57,3.29-.86,5.59-.86h6.01v3.82h-5.29c-1.54,0-2.6,.25-3.17,.76s-.86,1.13-.86,1.89c0,.84,.33,1.5,.99,2s1.56,.73,2.71,.73,2.07-.26,2.94-.78c.87-.52,1.5-1.28,1.89-2.29l1.01,3.02c-.48,1.46-1.34,2.56-2.6,3.32s-2.88,1.13-4.87,1.13Zm6.89-.34v-4.41l-.42-.97v-7.9c0-1.4-.43-2.49-1.28-3.28s-2.16-1.18-3.93-1.18c-1.2,0-2.39,.19-3.55,.57-1.16,.38-2.15,.89-2.96,1.53l-2.35-4.58c1.23-.87,2.72-1.54,4.45-2.02,1.74-.48,3.5-.71,5.29-.71,3.44,0,6.12,.81,8.02,2.44,1.9,1.62,2.86,4.16,2.86,7.6v12.89h-6.13Z"/><path class="j" d="M1042.49,616.14v-5.04h15.67v5.04h-15.67Zm11.93,17.39c-2.66,0-4.73-.68-6.22-2.04-1.48-1.36-2.23-3.38-2.23-6.07v-19.82h6.55v19.74c0,.95,.25,1.69,.76,2.2,.5,.52,1.19,.78,2.06,.78,1.04,0,1.92-.28,2.65-.84l1.76,4.62c-.67,.48-1.48,.83-2.42,1.07-.94,.24-1.91,.36-2.92,.36Z"/><path class="j" d="M1073.94,633.53c-2.58,0-4.84-.5-6.78-1.51-1.95-1.01-3.45-2.39-4.51-4.14-1.06-1.75-1.6-3.74-1.6-5.98s.53-4.28,1.58-6.03c1.05-1.75,2.48-3.12,4.3-4.12,1.82-.99,3.88-1.49,6.17-1.49s4.21,.47,5.98,1.41c1.78,.94,3.18,2.28,4.22,4.03,1.04,1.75,1.55,3.84,1.55,6.28,0,.25-.01,.54-.04,.86-.03,.32-.06,.62-.08,.9h-18.35v-3.82h14.91l-2.52,1.13c0-1.18-.24-2.2-.71-3.07-.48-.87-1.13-1.55-1.97-2.04-.84-.49-1.82-.73-2.94-.73s-2.11,.25-2.96,.73c-.85,.49-1.52,1.18-1.99,2.06-.48,.88-.71,1.92-.71,3.13v1.01c0,1.23,.27,2.32,.82,3.25,.55,.94,1.32,1.65,2.31,2.14,.99,.49,2.16,.74,3.51,.74,1.2,0,2.26-.18,3.17-.55,.91-.36,1.74-.91,2.5-1.64l3.49,3.78c-1.04,1.18-2.34,2.08-3.91,2.71-1.57,.63-3.38,.95-5.42,.95Z"/><path class="j" d="M1091.71,633.53c-1.12,0-2.08-.38-2.88-1.16-.8-.77-1.2-1.76-1.2-2.96s.4-2.18,1.2-2.92c.8-.74,1.76-1.11,2.88-1.11s2.11,.37,2.9,1.11c.78,.74,1.18,1.72,1.18,2.92s-.39,2.19-1.18,2.96c-.78,.77-1.75,1.16-2.9,1.16Z"/><path class="j" d="M1102.71,633.53c-1.12,0-2.08-.38-2.88-1.16-.8-.77-1.2-1.76-1.2-2.96s.4-2.18,1.2-2.92c.8-.74,1.76-1.11,2.88-1.11s2.11,.37,2.9,1.11c.78,.74,1.18,1.72,1.18,2.92s-.39,2.19-1.18,2.96c-.78,.77-1.75,1.16-2.9,1.16Z"/><path class="j" d="M1113.72,633.53c-1.12,0-2.08-.38-2.88-1.16-.8-.77-1.2-1.76-1.2-2.96s.4-2.18,1.2-2.92c.8-.74,1.76-1.11,2.88-1.11s2.11,.37,2.9,1.11c.78,.74,1.18,1.72,1.18,2.92s-.39,2.19-1.18,2.96c-.78,.77-1.75,1.16-2.9,1.16Z"/></g><text class="k" transform="translate(570.48 4389.87)"><tspan x="0" y="0">M</tspan><tspan class="i" x="40.11" y="0">a</tspan><tspan x="66.19" y="0">de it </tspan><tspan class="i" x="176.44" y="0">m</tspan><tspan x="220.67" y="0">o</tspan><tspan class="q" x="248.17" y="0">r</tspan><tspan x="265.9" y="0">e difficu</tspan><tspan class="x" x="445.19" y="0">l</tspan><tspan x="459.47" y="0">t </tspan><tspan class="w" x="489.63" y="0">t</tspan><tspan x="507.18" y="0">o </tspan><tspan class="v" x="546.58" y="0">f</tspan><tspan x="562.41" y="0">all aslee</tspan><tspan class="r" x="739.36" y="0">p</tspan><tspan x="768.04" y="0">.</tspan></text><g><path class="j" d="M775.62,1908.42v-29.4h13.36c3.19,0,6.01,.61,8.44,1.83s4.34,2.92,5.71,5.1c1.37,2.18,2.06,4.77,2.06,7.77s-.69,5.55-2.06,7.75c-1.37,2.2-3.28,3.91-5.71,5.12s-5.25,1.83-8.44,1.83h-13.36Zm6.8-5.59h6.22c1.96,0,3.66-.37,5.1-1.11,1.44-.74,2.56-1.8,3.36-3.17,.8-1.37,1.2-2.98,1.2-4.83s-.4-3.49-1.2-4.85c-.8-1.36-1.92-2.41-3.36-3.15-1.44-.74-3.14-1.11-5.1-1.11h-6.22v18.23Z"/><path class="j" d="M809.85,1908.42v-22.6h6.26v6.38l-.88-1.85c.67-1.6,1.75-2.81,3.23-3.63,1.48-.83,3.29-1.24,5.42-1.24v6.05c-.28-.03-.53-.05-.76-.06-.22-.01-.46-.02-.71-.02-1.79,0-3.24,.51-4.35,1.53-1.11,1.02-1.66,2.61-1.66,4.77v10.67h-6.55Z"/><path class="j" d="M831.06,1882.68c-1.2,0-2.18-.35-2.94-1.05-.76-.7-1.13-1.57-1.13-2.6s.38-1.9,1.13-2.6c.76-.7,1.74-1.05,2.94-1.05s2.18,.33,2.94,.99c.76,.66,1.13,1.51,1.13,2.54,0,1.09-.37,2-1.11,2.71-.74,.71-1.73,1.07-2.96,1.07Zm-3.28,25.75v-22.6h6.55v22.6h-6.55Z"/><path class="j" d="M854.16,1885.49c1.79,0,3.4,.36,4.81,1.07,1.41,.71,2.53,1.81,3.34,3.28s1.22,3.35,1.22,5.65v12.94h-6.55v-11.93c0-1.82-.4-3.16-1.2-4.03-.8-.87-1.93-1.3-3.38-1.3-1.04,0-1.97,.22-2.79,.65-.83,.43-1.47,1.1-1.93,2-.46,.9-.69,2.04-.69,3.44v11.17h-6.55v-22.6h6.26v6.26l-1.18-1.89c.81-1.51,1.97-2.67,3.49-3.49,1.51-.81,3.23-1.22,5.17-1.22Z"/><path class="j" d="M869.45,1908.42v-31.16h6.55v31.16h-6.55Zm5.42-4.62l.17-7.98,10.54-10h7.81l-10.12,10.29-3.4,2.77-5,4.91Zm11.42,4.62l-7.64-9.49,4.12-5.08,11.47,14.57h-7.94Z"/><path class="j" d="M900.44,1882.68c-1.2,0-2.18-.35-2.94-1.05-.76-.7-1.13-1.57-1.13-2.6s.38-1.9,1.13-2.6c.76-.7,1.74-1.05,2.94-1.05s2.18,.33,2.94,.99c.76,.66,1.13,1.51,1.13,2.54,0,1.09-.37,2-1.11,2.71-.74,.71-1.73,1.07-2.96,1.07Zm-3.28,25.75v-22.6h6.55v22.6h-6.55Z"/><path class="j" d="M923.54,1885.49c1.79,0,3.39,.36,4.81,1.07,1.41,.71,2.53,1.81,3.34,3.28,.81,1.47,1.22,3.35,1.22,5.65v12.94h-6.55v-11.93c0-1.82-.4-3.16-1.2-4.03-.8-.87-1.93-1.3-3.38-1.3-1.04,0-1.97,.22-2.79,.65-.83,.43-1.47,1.1-1.93,2-.46,.9-.69,2.04-.69,3.44v11.17h-6.55v-22.6h6.26v6.26l-1.18-1.89c.81-1.51,1.97-2.67,3.49-3.49,1.51-.81,3.23-1.22,5.17-1.22Z"/><path class="j" d="M948.62,1907.33c-2.1,0-4-.46-5.69-1.37-1.69-.91-3.05-2.18-4.07-3.82-1.02-1.64-1.53-3.55-1.53-5.73s.51-4.14,1.53-5.78c1.02-1.64,2.38-2.9,4.07-3.8,1.69-.9,3.59-1.34,5.69-1.34,1.9,0,3.58,.38,5.04,1.15,1.46,.77,2.59,1.96,3.4,3.57,.81,1.61,1.22,3.67,1.22,6.2s-.41,4.54-1.22,6.15c-.81,1.61-1.95,2.81-3.4,3.59s-3.14,1.18-5.04,1.18Zm1.01,9.58c-2.13,0-4.18-.26-6.15-.78-1.97-.52-3.62-1.3-4.94-2.33l2.6-4.7c.95,.78,2.16,1.41,3.63,1.87s2.92,.69,4.35,.69c2.32,0,4.01-.52,5.06-1.55s1.58-2.58,1.58-4.62v-3.4l.42-5.67-.08-5.71v-4.87h6.22v18.82c0,4.2-1.09,7.29-3.28,9.28-2.18,1.99-5.32,2.98-9.41,2.98Zm.29-14.95c1.15,0,2.17-.23,3.07-.69s1.6-1.11,2.1-1.95,.76-1.81,.76-2.9-.25-2.09-.76-2.92-1.2-1.47-2.1-1.93-1.92-.69-3.07-.69-2.17,.23-3.07,.69c-.9,.46-1.6,1.11-2.12,1.93-.52,.83-.78,1.8-.78,2.92s.26,2.06,.78,2.9c.52,.84,1.22,1.49,2.12,1.95,.9,.46,1.92,.69,3.07,.69Z"/><path class="j" d="M991.21,1908.76c-2.44,0-4.61-.5-6.51-1.49-1.9-.99-3.4-2.37-4.47-4.14-1.08-1.76-1.62-3.77-1.62-6.01s.54-4.28,1.62-6.03c1.08-1.75,2.57-3.12,4.47-4.12,1.9-.99,4.07-1.49,6.51-1.49s4.45,.5,6.22,1.49c1.76,.99,3.07,2.42,3.91,4.26l-5.08,2.73c-.59-1.06-1.32-1.85-2.21-2.35s-1.84-.76-2.88-.76c-1.12,0-2.13,.25-3.02,.76-.9,.5-1.6,1.22-2.12,2.14-.52,.92-.78,2.04-.78,3.36s.26,2.44,.78,3.36c.52,.92,1.22,1.64,2.12,2.14,.9,.5,1.9,.76,3.02,.76,1.04,0,2-.25,2.88-.74,.88-.49,1.62-1.28,2.21-2.37l5.08,2.77c-.84,1.82-2.14,3.23-3.91,4.22-1.76,.99-3.84,1.49-6.22,1.49Z"/><path class="j" d="M1015.56,1908.76c-2.41,0-4.54-.5-6.41-1.51-1.86-1.01-3.33-2.39-4.41-4.14-1.08-1.75-1.62-3.74-1.62-5.98s.54-4.28,1.62-6.03c1.08-1.75,2.55-3.12,4.41-4.12,1.86-.99,4-1.49,6.41-1.49s4.51,.5,6.38,1.49c1.88,.99,3.35,2.36,4.41,4.1,1.06,1.74,1.6,3.75,1.6,6.05s-.53,4.24-1.6,5.98c-1.06,1.75-2.54,3.13-4.41,4.14-1.88,1.01-4,1.51-6.38,1.51Zm0-5.38c1.09,0,2.07-.25,2.94-.76s1.55-1.22,2.06-2.16c.5-.94,.76-2.05,.76-3.34s-.25-2.44-.76-3.36c-.5-.92-1.19-1.64-2.06-2.14s-1.85-.76-2.94-.76-2.07,.25-2.94,.76c-.87,.5-1.56,1.22-2.08,2.14-.52,.92-.78,2.04-.78,3.36s.26,2.4,.78,3.34c.52,.94,1.21,1.66,2.08,2.16,.87,.5,1.85,.76,2.94,.76Z"/><path class="j" d="M1029.63,1891.37v-5.04h15.67v5.04h-15.67Zm3.49,17.05v-23.1c0-2.55,.76-4.58,2.27-6.11,1.51-1.53,3.67-2.29,6.47-2.29,.95,0,1.87,.1,2.75,.29,.88,.2,1.63,.5,2.25,.92l-1.72,4.75c-.36-.25-.77-.45-1.22-.59-.45-.14-.92-.21-1.43-.21-.95,0-1.69,.27-2.21,.82-.52,.55-.78,1.36-.78,2.46v2.1l.17,2.81v18.14h-6.55Z"/><path class="j" d="M1046.22,1891.37v-5.04h15.67v5.04h-15.67Zm3.49,17.05v-23.1c0-2.55,.76-4.58,2.27-6.11,1.51-1.53,3.67-2.29,6.47-2.29,.95,0,1.87,.1,2.75,.29,.88,.2,1.63,.5,2.25,.92l-1.72,4.75c-.36-.25-.77-.45-1.22-.59-.45-.14-.92-.21-1.43-.21-.95,0-1.69,.27-2.21,.82-.52,.55-.78,1.36-.78,2.46v2.1l.17,2.81v18.14h-6.55Z"/><path class="j" d="M1076.09,1908.76c-2.58,0-4.84-.5-6.78-1.51-1.95-1.01-3.45-2.39-4.51-4.14-1.06-1.75-1.6-3.74-1.6-5.98s.53-4.28,1.58-6.03c1.05-1.75,2.48-3.12,4.3-4.12,1.82-.99,3.88-1.49,6.17-1.49s4.21,.47,5.98,1.41c1.78,.94,3.18,2.28,4.22,4.03,1.04,1.75,1.55,3.84,1.55,6.28,0,.25-.01,.54-.04,.86-.03,.32-.06,.62-.08,.9h-18.35v-3.82h14.91l-2.52,1.13c0-1.18-.24-2.2-.71-3.07-.48-.87-1.13-1.55-1.97-2.04-.84-.49-1.82-.73-2.94-.73s-2.11,.25-2.96,.73c-.85,.49-1.52,1.18-1.99,2.06-.48,.88-.71,1.92-.71,3.13v1.01c0,1.23,.27,2.32,.82,3.25,.55,.94,1.32,1.65,2.31,2.14,.99,.49,2.16,.74,3.51,.74,1.2,0,2.26-.18,3.17-.55,.91-.36,1.74-.91,2.5-1.64l3.49,3.78c-1.04,1.18-2.34,2.08-3.91,2.71-1.57,.63-3.38,.95-5.42,.95Z"/><path class="j" d="M1102.59,1908.76c-2.58,0-4.84-.5-6.78-1.51-1.95-1.01-3.45-2.39-4.51-4.14-1.06-1.75-1.6-3.74-1.6-5.98s.53-4.28,1.58-6.03c1.05-1.75,2.48-3.12,4.3-4.12,1.82-.99,3.88-1.49,6.17-1.49s4.21,.47,5.98,1.41c1.78,.94,3.18,2.28,4.22,4.03,1.04,1.75,1.55,3.84,1.55,6.28,0,.25-.01,.54-.04,.86-.03,.32-.06,.62-.08,.9h-18.35v-3.82h14.91l-2.52,1.13c0-1.18-.24-2.2-.71-3.07-.48-.87-1.13-1.55-1.97-2.04-.84-.49-1.82-.73-2.94-.73s-2.11,.25-2.96,.73c-.85,.49-1.52,1.18-1.99,2.06-.48,.88-.71,1.92-.71,3.13v1.01c0,1.23,.27,2.32,.82,3.25,.55,.94,1.32,1.65,2.31,2.14,.99,.49,2.16,.74,3.51,.74,1.2,0,2.26-.18,3.17-.55,.91-.36,1.74-.91,2.5-1.64l3.49,3.78c-1.04,1.18-2.34,2.08-3.91,2.71-1.57,.63-3.38,.95-5.42,.95Z"/><path class="j" d="M1120.35,1908.76c-1.12,0-2.08-.38-2.88-1.16-.8-.77-1.2-1.76-1.2-2.96s.4-2.18,1.2-2.92c.8-.74,1.76-1.11,2.88-1.11s2.11,.37,2.9,1.11c.78,.74,1.18,1.72,1.18,2.92s-.39,2.19-1.18,2.96c-.78,.77-1.75,1.16-2.9,1.16Z"/><path class="j" d="M1131.36,1908.76c-1.12,0-2.08-.38-2.88-1.16-.8-.77-1.2-1.76-1.2-2.96s.4-2.18,1.2-2.92c.8-.74,1.76-1.11,2.88-1.11s2.11,.37,2.9,1.11c.78,.74,1.18,1.72,1.18,2.92s-.39,2.19-1.18,2.96c-.78,.77-1.75,1.16-2.9,1.16Z"/><path class="j" d="M1142.36,1908.76c-1.12,0-2.08-.38-2.88-1.16-.8-.77-1.2-1.76-1.2-2.96s.4-2.18,1.2-2.92c.8-.74,1.76-1.11,2.88-1.11s2.11,.37,2.9,1.11c.78,.74,1.18,1.72,1.18,2.92s-.39,2.19-1.18,2.96c-.78,.77-1.75,1.16-2.9,1.16Z"/></g><g><path class="f" d="M1338.87,987.62l6.3,2.42c6.78,2.6,14.08,5.64,17.62,11.97,3.67,6.56,2.06,15.13-2.34,21.22-4.4,6.09-11.12,10.09-17.98,13.16-5.52,2.47-11.31,4.48-16.3,7.89-4.99,3.42-9.21,8.6-9.69,14.63"/><path class="m" d="M1432.92,1221.39c-1.39-.38-6.74-5.8-11.17-10.32,.23-.35,.43-.72,.58-1.13,.61-1.6,.63-2.98,.21-4.22-3.33-.92-6.67-1.81-9.99-2.78-6.26-1.82-12.35-4.14-18.65-5.82-10.63-2.83-21.51-4.79-31.46-9.67-10.51-5.15-19.68-13.55-25.31-23.85-5.28-9.66-7.72-20.55-12.31-30.51-1.46-3.17,1.28-6.06,3.85-6.11-.5-4.85-.6-9.79-.6-14.63-.03-25.15,2.06-51.7,13.8-73.6-4.32-23.82-5-48.4-6.01-72.56-3.12-5.23-6.35-10.68-9.85-16.91-10.22-18.19-26.32-34.89-47.18-38.69-19.22-3.5-38.54,4.45-55.99,13.05-10.11,4.98-20.24,10.36-28.11,18.31-16.61,16.78-20.39,41.92-20.86,65.27-.63,31.27-3.66,72.54,22.93,89.31,11.35,7.16,28.11,24.56,31.16,39.04,2.71,12.88-9.58,24.06-18.36,34.02-8.78,9.96-24.64,12.72-36.07,19.64-7.31,4.42-19.7,9.56-28.06,11.48-7.61,1.75-6.42,4.94-14.15,6.07-.3,.04-.59,.11-.89,.16-.07,1.19-.65,2.34-1.88,3.07-5.67,3.34-11.91,5.92-18.12,8.52-6.94,2.9-13.65,10.69-18.62,16.12-1.16,1.27-3.99,3.5-4.49,5.13-1.07,3.5,.43,1.57,1.23,4.56,.82,3.07,.97,5.82,1.21,9.46,.21,3.17,1.59,6.61,4.52,7.82,1.72,.71,3.66,.53,5.52,.34,18.03-1.78,36.34-2.67,54.46-1.96,15.32,.61,29.99,2.98,45.69,1.96,32.77-2.14,65.04-9.23,97.95-9.82,15.14-.27,37.29,2.93,52.41,2.1,11.09-.61,41.9-7.04,52.93-8.39,19.29-2.36,27.61,.54,45.59-6.81,1.76-.72,8.38-11.01-15.9-17.64Z"/><path class="j" d="M1238.1,1073.72c4.52-1.01,7.91-1.48,12.5-1.7,4.4-.21,8.82-.03,13.19,.5,1.88,.23,3.68-1.82,3.6-3.6-.1-2.15-1.59-3.36-3.6-3.6-9.21-1.11-18.56-.57-27.61,1.46-1.84,.41-3.1,2.64-2.52,4.43,.63,1.93,2.46,2.96,4.43,2.52h0Z"/><path class="j" d="M1274.56,986.69l23.65,2.82c1.29,.15,2.4-1.21,2.4-2.4,0-1.43-1.11-2.25-2.4-2.4l-23.65-2.82c-1.29-.15-2.4,1.21-2.4,2.4,0,1.43,1.11,2.25,2.4,2.4h0Z"/><path class="j" d="M1214.07,982.53c-6.34-.33-12.62,.98-18.36,3.64-1.18,.55-1.47,2.24-.86,3.29,.71,1.21,2.11,1.41,3.29,.86,5-2.32,10.46-3.27,15.94-2.98,1.3,.07,2.4-1.15,2.4-2.4,0-1.36-1.1-2.33-2.4-2.4h0Z"/><path class="j" d="M1241.16,996.94c.21,3.88,.42,7.77,.34,11.66-.04,2-.17,3.99-.39,5.97,0,0-.08,.61-.03,.26,.05-.39-.06,.37-.07,.44-.07,.43-.14,.86-.22,1.29-.19,1.04-.42,2.07-.7,3.1-.99,3.7-2.57,7.28-2.54,11.17,.02,3.94,1.58,7.66,4.86,9.95,3.59,2.51,8.29,1.93,12.34,1.31,1.87-.29,3.07-2.73,2.52-4.43-.66-2.03-2.43-2.83-4.43-2.52-.2,.03-.4,.06-.6,.09-.06,0-.58,.08-.13,.02s-.07,0-.14,.01c-.21,.02-.41,.05-.62,.07-.72,.07-1.45,.11-2.17,.1-.36,0-.71-.05-1.07-.06-.54-.02,.58,.14,.07,0-.14-.04-.29-.06-.44-.09-.34-.08-.66-.2-.99-.29-.39-.12,.14,.05,.19,.08-.21-.13-.43-.23-.64-.36-.13-.08-.25-.16-.37-.25,.57,.43,.16,.11,.06,0-.09-.1-.19-.22-.29-.31-.37-.32,.28,.49,.04,.06-.14-.25-.31-.48-.44-.73-.06-.11-.29-.66-.12-.22s-.04-.16-.07-.24c-.1-.32-.19-.65-.26-.98-.04-.19-.07-.38-.1-.58,0,.05,.04,.64,.05,.23,0-.74-.03-1.45,.02-2.19-.04,.58,.08-.47,.12-.64,.07-.35,.15-.7,.24-1.05,.22-.88,.48-1.74,.75-2.6,.51-1.63,1.04-3.25,1.43-4.92,.84-3.64,1.23-7.41,1.33-11.15,.11-4.08-.11-8.15-.33-12.22-.1-1.88-1.58-3.69-3.6-3.6-1.86,.08-3.71,1.59-3.6,3.6h0Z"/><g class="u"><path class="o" d="M1303.27,1009.15c.09,1.26,.2,2.55,.04,3.81,.08-.64-.07,.2-.12,.38-.03,.09-.35,.92-.16,.51s-.19,.3-.23,.37c-.14,.23-.63,.66-.13,.21-.18,.16-.33,.36-.51,.53-.25,.23-.46,.39-.06,.1-.44,.32-.91,.61-1.39,.86-.31,.16-.56,.24-.09,.06-.28,.1-.56,.2-.84,.29-.65,.2-1.31,.32-1.97,.44-.26,.04-.24,.04,.05,0l-.37,.04c-.37,.03-.74,.06-1.11,.08-.62,.03-1.23,.05-1.85,.05-1.26,.02-2.52,.03-3.77-.02-.56-.02-1.11-.05-1.66-.1-.23-.02-1-.15-.36-.04-.32-.06-.65-.11-.97-.19-.53-.12-1.05-.28-1.56-.45-.92-.32,.53,.33-.33-.15-.29-.16-.57-.32-.85-.49-1.6-1-4.04-.39-4.93,1.29-.94,1.77-.42,3.86,1.29,4.93,2.8,1.75,6.1,2.29,9.36,2.4s6.53,.11,9.69-.54c3.2-.66,6.1-2.34,8.07-4.95,2.06-2.73,2.2-6.16,1.96-9.43-.13-1.88-1.56-3.69-3.6-3.6-1.84,.08-3.75,1.59-3.6,3.6h0Z"/></g><path class="j" d="M1295.81,990.63c-2.34-.22-4.7-.25-7.04-.11-2.69,.16-5.49,.47-8.03,1.4s-4.66,2.43-5.72,5.07c-1.25,3.11-1.28,6.77-.23,9.94,2.47,7.44,10.1,10.88,17.48,11.33,3.86,.24,7.72-.72,10.74-3.19,2.48-2.03,4.24-5.13,4.76-8.29,1.34-8.05-4.8-15.34-12.83-15.99-1.29-.1-2.4,1.18-2.4,2.4,0,1.39,1.1,2.3,2.4,2.4,4.58,.37,8.46,4.69,8.24,9.3-.1,2.13-1.13,4.43-2.75,6.03-1.8,1.79-4.45,2.58-7.13,2.57-2.88-.01-5.95-.69-8.52-1.99-2.35-1.19-4.26-3-5.17-5.3-.94-2.36-1.04-4.75-.27-7.12,.15-.47,.29-.66,.47-1.08,.14-.32-.27,.24,.08-.12,.17-.17,.33-.33,.51-.49,.19-.18-.11,.08-.13,.09,.1-.07,.2-.15,.31-.21,.16-.1,.33-.2,.5-.3,.21-.11,.42-.21,.63-.32,.24-.12-.06,.02-.1,.04,.17-.07,.33-.13,.5-.19,1.13-.41,2.3-.67,3.48-.87,.75-.12,.63-.11,1.44-.19,.66-.07,1.32-.12,1.98-.15,2.26-.12,4.54-.08,6.8,.13,1.29,.12,2.4-1.19,2.4-2.4,0-1.4-1.1-2.28-2.4-2.4h0Z"/><path class="o" d="M1286.06,1009.5c1.88,0,3.69-1.66,3.6-3.6-.09-1.95-1.58-3.6-3.6-3.6-1.88,0-3.69,1.66-3.6,3.6,.09,1.95,1.58,3.6,3.6,3.6h0Z"/><g class="u"><path class="o" d="M1185.06,1008.15c-.37,3.4,1.78,6.48,3.72,9.05,1.1,1.45,2.25,2.73,3.79,3.74,1.56,1.02,3.37,1.44,5.19,1.68,6.15,.83,12.93,1.31,18.48-1.97,1.62-.96,2.35-3.29,1.29-4.93-1.05-1.63-3.19-2.32-4.93-1.29-.28,.17-.57,.33-.86,.48-.15,.07-1.02,.42-.33,.16-.51,.19-1.02,.36-1.54,.49-.31,.08-.63,.15-.95,.21-.08,.02-1.14,.18-.33,.08-.54,.07-1.09,.11-1.64,.14-2.51,.12-5.02-.11-7.51-.37-.29-.03-.58-.06-.86-.09,.74,.09-.36-.07-.41-.08-.28-.06-.56-.12-.84-.2-.17-.04-.33-.1-.49-.15,.28,.13,.3,.14,.07,.03-.24-.13-.47-.26-.7-.4-.77-.47,.38,.42-.27-.22-.42-.42-.81-.84-1.2-1.29-.26-.3,.25,.37-.12-.17-.19-.26-.38-.53-.56-.79-.36-.52-.72-1.04-1.05-1.58-.15-.25-.29-.51-.44-.76-.48-.83,.09,.5-.19-.4-.04-.12-.21-1.09-.15-.35-.03-.34,0-.67,.03-1.01,.2-1.88-1.8-3.68-3.6-3.6-2.13,.1-3.38,1.59-3.6,3.6h0Z"/></g><path class="j" d="M1197.26,992.91c-5.39,1.55-8.55,7.34-7.83,12.76,.78,5.85,5.68,10.29,11.11,12.01,3.04,.96,6.59,1.18,9.61,.04,2.64-1,4.77-2.75,6.41-5.03,3.12-4.34,3.56-10.45,.64-15-3.34-5.21-9.88-8-15.89-6.51-5.38,1.33-9.19,4.44-9,5.69,1.62,10.49-.47,1.42,10.27-1.06,3.39-.78,7.22,.52,9.71,3.31s2.67,6.45,1.07,9.56c-.83,1.62-1.91,2.89-3.33,3.78-.88,.55-1.29,.74-2.31,.99-1.17,.29-2.42,.3-3.61,.15-3.97-.52-8.06-3.09-9.48-6.73-1.42-3.64,.48-8.64,4.13-9.69,2.97-.85,1.46-5.12-1.52-4.26h0Z"/><path class="o" d="M1201.69,1009.98c1.88,0,3.69-1.66,3.6-3.6s-1.58-3.6-3.6-3.6c-1.88,0-3.69,1.66-3.6,3.6,.09,1.95,1.58,3.6,3.6,3.6h0Z"/><path class="j" d="M1342.54,994.15c.17,.03,.34,.09,.5,.12,.72,.14-.34-.07-.41-.19,.03,.06,.45,.25,.47,.26,.51,.28-.15,.2-.3-.26,.07,.22,.66,.63,.84,.81,.1,.11,.4,.52,.01-.02-.45-.63,.08,.13,.17,.27,.23,.36,.45,.73,.64,1.11,.04,.07,.28,.47,.28,.59,0-.06-.39-1.08-.1-.19s.58,1.78,.79,2.69c.11,.47,.2,.94,.28,1.41,.07,.37,.05,1.1,.22,1.43-.06-.11-.13-1.12-.03-.2,.03,.24,.05,.48,.08,.72,.05,.5,.1,1,.14,1.5,.08,1.01,.13,2.01,.12,3.02,0,.5-.02,1-.05,1.5-.02,.25-.04,.5-.06,.75-.07,.94,.13-.58,0,.01-.18,.82-.34,1.64-.59,2.45-.12,.38-.24,.76-.38,1.13-.07,.18-.14,.37-.21,.55-.31,.8,.35-.75,.09-.21-.65,1.36-1.35,2.67-2.17,3.94-1.59,2.47-3.44,4.75-5.1,7.17-2.15,3.13-3.89,6.61-4.75,10.32-.57,2.44,.76,5.32,3.36,5.91,2.46,.56,5.3-.74,5.91-3.36,.2-.84,.43-1.66,.71-2.47,.06-.16,.57-1.42,.23-.65-.3,.69-.03,.09,.04-.08,.12-.26,.24-.51,.37-.77,.7-1.41,1.54-2.75,2.43-4.05,1.79-2.61,3.81-5.06,5.47-7.75,2.2-3.55,3.64-7.42,4.13-11.57,.26-2.19,.19-4.39-.02-6.58-.22-2.35-.5-4.72-1.05-7.01-1.17-4.83-4.2-10.46-9.52-11.55-2.45-.51-5.31,.71-5.91,3.36-.55,2.4,.72,5.37,3.36,5.91h0Z"/><g><path class="m" d="M1048.64,1286.24c-1.01,.16-2.02,.31-3.03,.45-.35,.05-2,.33-.52,.08-.54,.09-1.09,.14-1.63,.21-2.1,.27-4.2,.5-6.31,.72-4.21,.43-8.43,.75-12.66,1-8.46,.49-16.94,.66-25.42,.65-17.16-.02-34.31-.66-51.46-1.14l-25.87-.71c-3.96-.11-7.95-.08-11.9-.48-.23-.02-1.56-.17-.63-.07,.98,.1-.57-.11-.81-.16-.92-.18-1.83-.4-2.72-.69-.34-.11-.78-.37-1.13-.4,.87,.08,.84,.39,.32,.12-.18-.09-.36-.18-.54-.27-.36-.18-.7-.38-1.04-.59-.21-.13-.43-.27-.63-.41-.15-.1-.86-.64-.16-.09,.76,.59-.41-.37-.55-.5-.28-.25-.55-.51-.81-.78-.62-.63-1.14-1.35-1.74-1.99,0,0,.71,.98,.35,.44-.11-.16-.23-.31-.34-.47-.26-.37-.51-.74-.76-1.11-.49-.75-.96-1.52-1.42-2.3-1.99-3.42-3.81-6.94-5.7-10.41-4.09-7.49-8.22-14.95-12.41-22.39-8.4-14.94-16.99-29.77-25.77-44.49-8.7-14.6-17.59-29.08-26.66-43.45-2.25-3.56-4.34-7.34-6.99-10.63-1.48-1.84-3.58-3.22-5.94-3.54-3.33-.45-6.53,1.03-8.32,3.93-1.46,2.36-2.19,5.76-1.41,8.42,.23,.78,.61,1.55,1.01,2.26,.09,.16,.18,.35,.29,.49,.35,.46-.16-.46-.18-.5,.5,1.32,1.1,2.61,1.71,3.88,1.75,3.61,3.91,7,6.2,10.28,4.65,6.65,9.63,13.06,14.28,19.71,4.62,6.61,9.09,13.33,13.4,20.15,8.67,13.71,16.57,27.84,24.06,42.23,1.84,3.54,3.73,7.07,5.88,10.43,2.14,3.35,4.63,6.46,6.94,9.7,2.29,3.21,4.12,6.6,5.94,10.09s3.99,7.13,7.02,9.8c3.4,2.99,7.47,4.99,12.08,5.04,3.11,.03,6.08-2.75,5.94-5.94-.15-3.24-2.61-5.9-5.94-5.94-.36,0-.75-.07-1.11-.05,1.28-.06,.98,.17,.49,.03-.18-.05-.36-.09-.53-.14-.23-.07-1.36-.51-.5-.12s-.59-.32-.79-.43c-.32-.19-.64-.39-.95-.6-.15-.1-.3-.25-.46-.33,.01,0,.91,.78,.46,.34-.64-.62-1.31-1.19-1.91-1.86-.15-.17-.94-1.15-.38-.42,.59,.77-.37-.54-.5-.74-.55-.83-1.07-1.68-1.55-2.55-.91-1.62-1.73-3.28-2.59-4.92-3.62-6.92-8.94-12.69-12.91-19.38-4.02-6.77-7.39-13.92-11.16-20.83-3.79-6.96-7.74-13.83-11.84-20.6-8.2-13.55-17.01-26.72-26.39-39.47-4.7-6.38-9.69-12.65-13.11-19.84-.1-.22-.62-1.01-.56-1.23-.1,.36,.39,.92,.08,.17-.22-.53-.42-1.07-.68-1.59-.16-.33-.33-.7-.55-.99-.36-.48,.21,.52,.22,.57v1.95c.04-.21,.09-.42,.15-.62,.06-.23,.47-1.42,.11-.51-.32,.81-.11,.23,.02,.08-.46,.59-1.13,1.27-1.83,1.55-.47,.19-.93,.23-1.44,.26,.88-.05-.74-.1-.77-.11,.09,.02-1.31-.61-.79-.31s-.86-.89-.5-.4c.16,.22,.44,.47,.64,.66,.52,.49-.75-1.08-.36-.48,.08,.12,.17,.24,.25,.36,.51,.74,.98,1.52,1.46,2.28,1.11,1.74,2.21,3.48,3.32,5.22,8.92,14.09,17.65,28.31,26.2,42.62,8.59,14.37,17.01,28.85,25.24,43.43,4.12,7.29,8.19,14.61,12.22,21.95,1.99,3.63,3.97,7.27,5.94,10.91,1.81,3.34,3.75,6.54,6.18,9.46,2.71,3.25,6.17,5.55,10.11,7.05,3.7,1.41,7.81,1.74,11.73,1.91,8.31,.35,16.64,.47,24.96,.7,16.81,.46,33.62,1.04,50.43,1.3,16.63,.26,33.3,.05,49.85-1.71,4.43-.47,8.84-1.05,13.24-1.73,1.37-.21,2.88-1.58,3.55-2.73,.74-1.27,1.06-3.15,.6-4.58-.46-1.44-1.36-2.82-2.73-3.55-1.5-.79-2.91-.86-4.58-.6h0Z"/><path class="m" d="M898.13,1289.74c19.49,2.04,39.11,2.89,58.71,2.53,9.86-.18,19.69-.72,29.52-1.45,4.87-.36,9.74-.68,14.62-.62,4.87,.06,9.72,.42,14.57,.79,5.48,.41,10.97,.83,16.45,1.24l8.38,.63c2.64,.2,5.32,.3,7.95,.62l-1.58-.21c.67,.09,1.32,.24,1.95,.5l-1.42-.6c.29,.13,.55,.29,.81,.48l-1.2-.93c.14,.12,.27,.24,.39,.38l-.93-1.2c.15,.2,.27,.4,.37,.63l-.6-1.42,.06,.18c.51,1.47,1.35,2.74,2.73,3.55,1.27,.74,3.15,1.06,4.58,.6s2.82-1.36,3.55-2.73c.72-1.36,1.12-3.07,.6-4.58-.73-2.11-1.94-3.76-3.86-4.96-1.05-.66-2.34-1.11-3.57-1.31-2.79-.47-5.65-.56-8.46-.77l-15.54-1.17c-10.31-.78-20.67-1.91-31.02-1.51-5.18,.2-10.35,.68-15.53,1.03-5.17,.34-10.34,.6-15.52,.78-10.35,.35-20.72,.36-31.07,.04-10.35-.32-20.7-.98-31.01-1.98-1.31-.13-2.63-.26-3.94-.4-1.42-.15-3.23,.77-4.2,1.74-1.03,1.03-1.81,2.72-1.74,4.2,.07,1.54,.57,3.13,1.74,4.2l1.2,.93c.93,.54,1.92,.81,3,.81h0Z"/></g><g><path class="f" d="M900.73,1273.9h.86l-71.47-122.67c-.86-1.48-2.25-2.54-3.91-2.98-.55-.14-1.1-.22-1.65-.22-1.12,0-2.23,.3-3.22,.88-1.48,.86-2.54,2.25-2.98,3.91-.44,1.66-.2,3.39,.66,4.87l71.24,122.29c2.09-3.63,5.99-6.08,10.47-6.08Z"/><path class="j" d="M890.26,1279.98l-71.24-122.29c-.86-1.48-1.1-3.21-.66-4.87,.44-1.66,1.5-3.05,2.98-3.91,1-.58,2.1-.88,3.22-.88,.55,0,1.1,.07,1.65,.22,1.66,.44,3.05,1.5,3.91,2.98l71.47,122.67h6.54l-73.12-125.52c-1.62-2.79-4.24-4.78-7.36-5.6-3.12-.83-6.37-.38-9.16,1.24-2.79,1.62-4.78,4.24-5.6,7.36-.82,3.12-.38,6.37,1.24,9.16l74.98,128.71c-.29-1.04-.46-2.14-.46-3.27,0-2.18,.59-4.23,1.61-6Z"/><path class="j" d="M1052.48,1273.9h-144.35l3.27,5.61s.02,.03,.03,.05h141.06c3.54,0,6.43,2.88,6.43,6.43s-2.88,6.43-6.43,6.43h-141.57c-.98,1.44-2.27,2.69-3.87,3.62h0c-1.91,1.11-4,1.64-6.06,1.64-4.16,0-8.22-2.15-10.46-6l-1.41-2.41c1.43,5.07,6.09,8.81,11.62,8.81h151.75c6.66,0,12.08-5.42,12.08-12.08s-5.42-12.08-12.08-12.08Z"/><path class="j" d="M900.98,1297.66c2.06,0,4.15-.53,6.06-1.64h0c1.6-.93,2.89-2.18,3.87-3.62h-10.18c-3.16,0-5.78-2.29-6.32-5.29l-4.15-7.13c-1.02,1.77-1.61,3.81-1.61,6,0,1.14,.17,2.23,.46,3.27l1.41,2.41c2.24,3.85,6.3,6,10.46,6Z"/><path class="j" d="M904.88,1279.55h6.54s-.02-.03-.03-.05l-3.27-5.61h-6.54l3.29,5.65Z"/><path class="j" d="M889.4,1288.86c1.26,2.02,2.89,3.71,4.86,5.05,2.01,1.37,4.38,2.18,6.75,2.68,5.04,1.06,10.35,1.08,15.48,.99,1.33-.02,2.61-1.15,2.54-2.54-.06-1.36-1.12-2.57-2.54-2.54-2.38,.04-4.76,.01-7.13-.09-1.16-.05-2.32-.11-3.47-.22-.26-.02-.53-.05-.79-.08-.18-.02-.35-.04-.53-.06-.29-.04-.35-.04-.19-.02,.16,.02,.1,.01-.19-.03-.17-.03-.35-.05-.52-.08-.26-.04-.52-.09-.78-.14-1.12-.21-2.23-.49-3.3-.86-.24-.08-.49-.17-.72-.27,.39,.16-.22-.1-.3-.14-.47-.22-.92-.48-1.35-.75-.19-.12-.37-.24-.55-.37-.05-.04-.6-.49-.19-.14-.39-.34-.78-.67-1.15-1.04-.31-.32-.6-.65-.89-.99,.34,.4-.07-.1-.14-.19-.17-.24-.33-.49-.49-.74-.7-1.13-2.3-1.67-3.48-.91-1.13,.73-1.67,2.27-.91,3.48h0Z"/><path class="j" d="M812.53,1150.99c-1.37,5.8,1.05,11.3,4.1,16.11,1.44,2.28,2.96,4.52,4.44,6.78,1.47,2.23,2.35,4.84,4.05,6.91,1.42,1.74,2.62,4.11,3.84,6.34l4.18,7.61c2.81,5.13,5.63,10.25,8.44,15.38,1.45,2.64,2.9,5.28,4.35,7.92,1.37,2.5,2.65,5.09,4.29,7.43,1.51,2.15,3.11,4.21,4.54,6.41,1.58,2.42,3.11,4.88,4.58,7.37,5.7,9.67,10.45,19.88,16.28,29.48,2.79,4.59,6.2,8.95,8.32,13.91,.43,1.01,.67,2.09,1.07,3.11,.57,1.45,1.43,2.59,2.39,3.81,1.65,2.1,3.33,4.01,5.54,5.55,4.46,3.11,10.16,3.24,15.4,3.29,5.96,.06,11.92,.11,17.87,.17s11.76,.31,17.6-.06c3-.19,5.98-.49,8.99-.41,2.96,.08,5.94,.18,8.9,.38,2.51,.17,5.01,.45,7.52,.51,2.32,.06,4.63-.02,6.95-.05,5.4-.06,10.78,.47,16.18,.42,11.86-.13,23.72-.38,35.59-.37,5.72,0,11.45,.09,17.17,.11,2.95,0,5.93,.05,8.86-.38,1.31-.2,2.73-.51,3.89-1.2,.66-.39,1.12-.91,1.65-1.42,.28-.27,.52-.37,1.07-.74,2.76-1.83,3.55-4.39,3.96-7.51,.36-2.73,.16-5.32-1.23-7.76-2.82-4.93-8.44-6.86-13.82-7.13-5.67-.28-11.42,.44-17.1,.59-5.79,.16-11.6,.02-17.38-.26-2.65-.13-5.27-.66-7.92-.59-2.82,.07-5.63,.23-8.46,.28-5.95,.1-11.9,.19-17.85,.25-11.9,.12-23.81,.16-35.71,.11-4.91-.02-9.81-.05-14.72-.11-1.62-.02-3.23,.24-4.85,.32-2.82,.15-5.65,.02-8.47-.01-1.41-.02-2.82-.02-4.24,.05-1.19,.06-2.84,.41-3.85,.24,.27,.04-.51-.24-.27-.09,.15,.09,.33,.3-.15-.17-.37-.36-.46-.49-.69-.82-.82-1.17-1.51-2.43-2.22-3.67-2.83-4.94-5.66-9.87-8.49-14.81-1.44-2.52-2.85-5.06-4.3-7.57-.65-1.13-1.29-2.3-2.01-3.39-.81-1.21-1.76-2.18-2.49-3.38-1.44-2.37-2.57-4.94-3.87-7.4-1.32-2.51-2.68-4.98-4.08-7.44-5.79-10.2-11.87-20.25-17.83-30.36-1.53-2.59-3.06-5.19-4.58-7.78-.7-1.19-1.38-2.4-2.11-3.57s-1.6-2.22-2.32-3.39c-2.97-4.82-5.58-9.9-7.99-15.01-1.2-2.55-2.25-5.17-3.9-7.47s-3.33-4.31-4.92-6.53c-1.53-2.13-2.85-4.73-4.78-6.52-1.08-1-2.38-1.76-3.83-2.05-.68-.14-1.41-.22-2.11-.21-.34,0-.68,.03-1.02,.06-.2,.02-1.93,.25-1.37,.18s-.84,.11-.65,.09c-.38,.05-.76,.1-1.15,.16-.48,.07-.96,.16-1.43,.27-1.15,.27-2.33,.7-3.31,1.38-2.25,1.57-3.77,4.07-4.52,6.68-.51,1.76,.62,3.69,2.37,4.17,1.79,.49,3.67-.6,4.17-2.37,.2-.7,.64-1.64,1.03-2.13,.16-.19,.34-.36,.51-.54,.06-.07,.52-.4,.12-.13,.18-.12,.38-.23,.57-.31-.52,.23,.5-.12,.51-.12,.47-.13,.95-.22,1.43-.3,.24-.04,.47-.07,.71-.11-.75,.11,.64-.09,.55-.07l.45-.06c-.26,.03-.26,.04,.01,0,.27-.02,.54-.05,.82-.06,.53-.02,.78-.04,1.22,.16-.25-.11,.49,.44,.12,.11,.18,.16,.35,.35,.51,.53,.02,.02,.38,.49,.15,.19,.15,.2,.28,.41,.42,.61,.78,1.15,1.56,2.3,2.36,3.44,1.58,2.22,3.38,4.45,4.95,6.57,1.59,2.15,2.63,4.54,3.75,6.95,1.17,2.52,2.4,5,3.69,7.46,1.29,2.45,2.63,4.88,4.03,7.27,1.29,2.2,2.82,4.23,4.12,6.42,5.87,9.94,11.72,19.88,17.59,29.83,2.84,4.81,5.67,9.62,8.34,14.52,1.31,2.4,2.55,4.84,3.79,7.27,.58,1.15,1.16,2.32,1.86,3.4s1.63,2.06,2.27,3.02c3.06,4.6,5.56,9.65,8.31,14.44,2.73,4.76,5.3,9.66,8.25,14.29,1.57,2.46,3.49,4.64,6.53,5.05,1.29,.17,2.53,0,3.82-.08,1.41-.1,2.82-.12,4.23-.11,2.83,.01,5.65,.15,8.48,.06,1.76-.06,3.5-.34,5.25-.36,1.6-.02,3.2,.08,4.8,.11,2.83,.05,5.66-.03,8.49-.01,5.71,.03,11.41,.04,17.12,.03,11.58-.02,23.15-.13,34.73-.31,2.82-.05,5.64-.05,8.45-.16,2.58-.1,5.08-.22,7.55,.08,5.56,.68,11.28,.66,16.88,.65s11.18-.34,16.77-.59c2.47-.11,5.13-.26,7.46,.26,.57,.13,1.13,.3,1.69,.48,.62,.19,.33,.12,.18,.05,.22,.09,.43,.2,.64,.32s.42,.23,.62,.36c-.1-.06,.86,.58,.54,.34,.18,.13,.8,.7,1.1,1.04,.35,.39,.86,1.22,.95,1.63,.05,.23,.12,.44,.17,.67-.11-.54,0,.15,0,.23,0,.74-.05,1.48-.15,2.22,0,.04-.12,.77-.2,1.08,.03-.13-.32,1.01-.18,.69,.11-.26-.3,.44-.13,.23,.07-.09,.51-.36-.15,.1-.2,.14-.42,.26-.62,.39-.65,.41-1.27,.87-1.82,1.41-.19,.18-.71,.59-.2,.34-.49,.25-1.16,.35-1.69,.44-1.12,.19-2.49,.19-3.72,.22-2.73,.05-5.47,.02-8.2,0-11.47-.11-22.94-.1-34.41,.05-5.62,.07-11.26,.34-16.89,.23-5.12-.1-10.21-.48-15.33-.36-4.87,.11-9.64-.38-14.49-.62-2.8-.14-5.63-.29-8.44-.28-2.84,0-5.66,.34-8.49,.48-5.7,.28-11.43,.05-17.13,0-5.79-.05-11.59-.11-17.38-.16-4.39-.04-9.12,.04-12.4-2.69-1.7-1.42-3.32-3.34-4.36-5.1-.39-.66-.63-1.84-1-2.78-.57-1.43-1.21-2.84-1.93-4.2-2.44-4.61-5.58-8.83-8.23-13.31-2.77-4.7-5.32-9.52-7.87-14.34-2.56-4.84-5.14-9.67-7.95-14.37-1.4-2.35-2.86-4.66-4.36-6.95-1.39-2.11-2.97-4.08-4.4-6.17-1.58-2.3-2.82-4.85-4.16-7.29-1.37-2.5-2.74-5-4.11-7.5-2.78-5.06-5.55-10.12-8.33-15.18l-3.97-7.24c-1.21-2.21-2.31-4.59-3.8-6.64-.87-1.2-1.38-1.61-2.03-2.89-.58-1.13-1.09-2.29-1.75-3.37-1.38-2.27-2.92-4.45-4.37-6.67-2.36-3.62-5.22-7.87-4.22-12.13,.42-1.78-.56-3.68-2.37-4.17-1.72-.47-3.75,.58-4.17,2.37Z"/></g><g><g><path class="m" d="M850.68,925.58c-4.28,.88-8.71,1.26-13.34,1.26-11.38,0-22.52-2.05-31.71-7.53-9.48-5.66-15.9-15.25-21.39-25.03-5.32-9.48-8.56-19.87-8.56-31.62,0-9.03,1.62-17.34,4.88-25.14,2.39-5.74,5.49-10.95,9.26-15.63,.71-.88,.91-2.06,.55-3.12v-.02c-.51-1.48-2.16-2.17-3.51-2.64-.19-.06-.35-.15-.5-.24-7.87,.83-15.3,3.28-22.33,6.29-8.99,3.85-17.96,8.28-24.73,15.27-6.78,6.99-11.74,15.95-15.47,25.22-3.6,8.95-6.82,18.83-6.82,29.11s3.97,19.85,7.56,28.8c3.73,9.27,7.64,18.87,14.41,25.86,6.78,6.99,16.08,11.03,25.07,14.87,8.67,3.71,17.95,7.03,27.92,7.03s19.07-2.25,27.54-5.75c8.78-3.63,17.07-8.8,23.79-15.43,4.11-4.06,7.51-8.77,10.42-13.84,1.69-2.94,.26-6.74-3-7.7l-.07-.02Z"/><path class="m" d="M787.12,818.67c-.47-.42-1.11-.63-1.73-.61l.97,5.72c.3-.58,.61-1.15,.91-1.73,.28-.52,.56-1.07,.58-1.67,.03-.64-.27-1.28-.74-1.7Z"/><path class="m" d="M787.79,818.29c.17,.28,.27,.6,.36,.92,.11,.39,.22,.78,.31,1.17,.13-.58,.2-1.17,.22-1.77l-1.25-.75c.14,.12,.26,.26,.36,.42Z"/><path class="m" d="M852.5,927.86c-.47-.26-1.03-.29-1.56-.18l1.22,4.99,.94-2.49c.12-.33,.25-.66,.24-1.01-.01-.55-.37-1.05-.84-1.31Z"/><path class="m" d="M853.47,927.49c-.19-.23-.38-.47-.61-.67l1.37,2.35"/></g><g><path class="m" d="M850.68,925.58c-4.28,.88-8.71,1.26-13.34,1.26-11.38,0-22.52-2.05-31.71-7.53-9.48-5.66-15.9-15.25-21.39-25.03-5.32-9.48-8.56-19.87-8.56-31.62,0-9.03,1.62-17.34,4.88-25.14,2.39-5.74,5.49-10.95,9.26-15.63,.71-.88,.91-2.06,.55-3.12v-.02c-.51-1.48-2.16-2.17-3.51-2.64-.19-.06-.35-.15-.5-.24-7.87,.83-15.3,3.28-22.33,6.29-8.99,3.85-17.96,8.28-24.73,15.27-6.78,6.99-11.74,15.95-15.47,25.22-3.6,8.95-6.82,18.83-6.82,29.11s3.97,19.85,7.56,28.8c3.73,9.27,7.64,18.87,14.41,25.86,6.78,6.99,16.08,11.03,25.07,14.87,8.67,3.71,17.95,7.03,27.92,7.03s19.07-2.25,27.54-5.75c8.78-3.63,17.07-8.8,23.79-15.43,4.11-4.06,7.51-8.77,10.42-13.84,1.69-2.94,.26-6.74-3-7.7l-.07-.02Z"/><path class="m" d="M787.12,818.67c-.47-.42-1.11-.63-1.73-.61l.97,5.72c.3-.58,.61-1.15,.91-1.73,.28-.52,.56-1.07,.58-1.67,.03-.64-.27-1.28-.74-1.7Z"/><path class="m" d="M787.79,818.29c.17,.28,.27,.6,.36,.92,.11,.39,.22,.78,.31,1.17,.13-.58,.2-1.17,.22-1.77l-1.25-.75c.14,.12,.26,.26,.36,.42Z"/><path class="m" d="M852.5,927.86c-.47-.26-1.03-.29-1.56-.18l1.22,4.99,.94-2.49c.12-.33,.25-.66,.24-1.01-.01-.55-.37-1.05-.84-1.31Z"/><path class="m" d="M853.47,927.49c-.19-.23-.38-.47-.61-.67l1.37,2.35"/></g><g class="t"><path class="o" d="M789.62,964.91c-3.62-1.64-7.08-3.6-10.44-5.72-3.41-2.15-6.76-4.4-9.99-6.82-4.58-3.67-8.87-7.69-12.95-11.9-4-4.13-7.9-8.4-11.48-12.9-3.33-4.45-6.27-9.17-8.52-14.26-2.15-5.31-3.97-10.8-4.92-16.44-.3-3.1-.28-6.2-.18-9.32,.11-3.15,.34-6.3,.71-9.43,.81-5.32,2.08-10.56,4.06-15.56,3.12-6.87,7.35-13.24,11.89-19.26,3.9-4.95,8.24-9.56,13.14-13.52,4.61-3.39,9.65-6.24,14.88-8.56,3.77-1.49,7.64-2.67,11.61-3.49l-.78-2.16c-.88-.37-.99-.39-1.87-.76-1.96-.53-5,1.35-6.96,1.87l-6.15,.27c-4.41,.91-7.61,2.29-11.77,4.01-5.01,2.08-4.69,1.4-9.3,4.28-8.18,5.11-5.11,4.04-13.67,9.93-8.12,5.58-12.01,12.72-16.05,21.76-2.26,5.05-4.26,9.51-5.41,14.92-1.17,5.52-1.32,10.3-1.66,15.93-.29,4.73,.93,8.49,1.55,13.2,.73,5.59,3.58,10.5,5.47,15.81,1.8,5.06,2.7,6.82,5.29,11.53,2.51,4.55,6.36,10.92,10.17,14.45,7.13,6.6,12.05,8.32,20.03,12.19,11.06,5.35,17.29,7.48,26.87,9.99"/></g><g><g><path class="j" d="M786.43,965.07c-10.55,0-20.13-3.37-28.92-7.01-8.75-3.63-18.66-7.74-25.91-14.98-7.22-7.22-11.34-17.15-14.97-25.91l-.3-.72c-3.5-8.42-7.46-17.97-7.46-28.19,0-10.9,3.75-21.34,7.02-29.22,4.36-10.51,9.75-19.02,16.03-25.29,7.15-7.15,16.51-11.61,25.57-15.36,10.83-4.49,20.03-6.58,28.94-6.58,.16,0,.32,.01,.49,.03,1.56,.19,2.86,1.24,3.38,2.73,.54,1.53,.17,3.2-.95,4.37-5.01,5.16-9.01,11.17-11.88,17.86-3.13,7.28-4.65,14.91-4.65,23.3,0,10.18,2.68,19.76,8.19,29.28,4.93,8.53,11.22,17.96,20.39,23.27,7.95,4.6,18.16,6.93,30.34,6.93,6.43,0,12.09-.74,17.31-2.27,1.61-.47,3.34,.05,4.42,1.33,1.07,1.27,1.29,3.06,.55,4.55-4.26,8.66-8.98,15.41-14.46,20.64-6.62,6.33-15.13,11.69-24.62,15.5-9.53,3.83-19.12,5.76-28.5,5.76Zm-2.78-147.87c-7.36,.39-15.11,2.36-24.12,6.1-8.55,3.54-17.35,7.72-23.84,14.21-5.78,5.78-10.78,13.71-14.87,23.56-3.27,7.88-6.61,17.27-6.61,27.18,0,9.16,3.59,17.79,7.05,26.15l.3,.72c3.61,8.71,7.34,17.71,13.82,24.18,6.49,6.49,15.89,10.39,24.18,13.83,8.28,3.43,17.26,6.61,26.87,6.61,8.7,0,17.62-1.81,26.51-5.38,8.86-3.56,16.79-8.54,22.92-14.4,4.54-4.34,8.54-9.88,12.21-16.88-5.01,1.23-10.38,1.83-16.34,1.83-13.13,0-24.24-2.57-33.01-7.65-10.26-5.94-17.05-16.08-22.34-25.22-5.99-10.36-8.91-20.81-8.91-31.96,0-9.13,1.66-17.44,5.09-25.41,2.77-6.44,6.49-12.3,11.09-17.46Z"/><path class="j" d="M832.24,924.85c-10.47,0-22.98-3.42-32.69-9.04-11.77-6.81-19.9-14.28-24.84-22.82-5.79-10.02-8.99-21.71-8.99-32.93,0-9.39,3.66-17.89,6.88-25.39l4.9,2.11c-3.02,7.03-6.45,15-6.45,23.28,0,10.3,2.94,21.04,8.27,30.26,4.46,7.71,11.95,14.54,22.9,20.87,8,4.63,21.18,8.97,32.55,8.24l.34,5.33c-.94,.06-1.9,.09-2.88,.09Z"/></g><path class="j" d="M779.83,817.48c.87,0,1.82,.54,1.85,1.5,.01,.52-.26,.99-.5,1.43-.3,.56-.61,1.12-.91,1.68-.38,.7,.68,1.32,1.06,.62s.75-1.34,1.09-2.02,.57-1.37,.44-2.13c-.25-1.44-1.64-2.33-3.03-2.32-.79,0-.79,1.24,0,1.23h0Z"/><path class="j" d="M781.36,817.06c.06,.02,.05,.02-.04-.02,.02,.01,.05,.02,.07,.04,.02,0,.13,.07,.13,.09-.07-.06-.08-.06-.03-.02,.02,.02,.04,.04,.06,.06,.01,.01,.11,.1,.11,.12-.05-.07-.06-.08-.02-.03,.02,.02,.03,.04,.05,.07,.03,.05,.06,.1,.09,.16s.06,.11,.08,.17c-.05-.15,0,.02,.02,.05,.18,.5,.31,1.01,.44,1.53,.06,.25,.33,.46,.59,.45s.53-.18,.59-.45c.16-.75,.25-1.51,.25-2.28h-1.23c0,.32,.05,.64,.13,.95,.06,.25,.33,.46,.59,.45,.28-.01,.51-.18,.59-.45,.05-.15,.07-.31,.05-.47-.02-.17-.05-.31-.18-.44-.11-.11-.28-.19-.44-.18-.3,.01-.66,.27-.62,.62,0,0,0,.13,0,.13v-.08s0,.06-.01,.08h1.19c-.02-.06-.03-.13-.04-.19,0-.02-.03-.21-.02-.12s0-.1,0-.12c0-.07,0-.13,0-.2,0-.32-.28-.63-.62-.62s-.62,.27-.62,.62-.01,.69-.05,1.04c0,.04,0,.08-.01,.13,0,.02-.03,.16,0,.07s0,.07-.01,.07c0,.04-.01,.08-.02,.13-.03,.18-.06,.35-.1,.52h1.19c-.15-.59-.29-1.19-.53-1.76-.25-.6-.66-1.09-1.29-1.32-.3-.11-.69,.12-.76,.43-.08,.35,.11,.64,.43,.76h0Z"/><path class="j" d="M845.47,923.63c.39-.08,.82-.06,1.17,.16,.27,.17,.46,.47,.44,.77-.01,.22-.11,.45-.19,.65-.1,.26-.2,.53-.31,.79l-.66,1.69c-.12,.31,.13,.68,.43,.76,.35,.1,.64-.12,.76-.43l.78-2.01c.25-.64,.53-1.28,.36-1.98-.14-.57-.57-1.09-1.08-1.37-.63-.34-1.34-.37-2.03-.23-.33,.06-.51,.45-.43,.76,.09,.34,.43,.5,.76,.43h0Z"/><path class="j" d="M846.79,922.64c.34,.3,.62,.66,.91,1l.21,.25s.08,.09,.11,.13l.05,.05c-.06-.08-.07-.09-.03-.04,.01,.02,.02,.04,.03,.06-.04-.09-.04-.1-.03-.04-.04-.18,0-.02,0,.03,0,.03,0,.06,0,.08,0,.07,0,.06,0-.04,.01,.02-.03,.14-.04,.17-.08,.31,.1,.68,.43,.76s.67-.1,.76-.43c.08-.3,.12-.66,.03-.96s-.33-.54-.54-.78c-.33-.39-.64-.8-1.02-1.14-.24-.22-.64-.25-.87,0-.22,.23-.26,.64,0,.87h0Z"/></g></g><path class="j" d="M971.37,968.9c-1.72-9.39-3.34-18.25-3.34-36.5s.82-27.8,1.6-36.87c.8-9.23,1.63-18.78,1.63-37.55s.45-27.92,.89-37.02c.44-9.19,.9-18.7,.9-37.4,0-10.86-10.73-16.73-20.82-16.73-23.26,0-35.09-.59-46.52-1.16-11.53-.57-23.46-1.17-46.92-1.17s-35.33,.39-46.85,.76c-11.45,.37-23.3,.76-46.59,.76s-35.1-.51-46.55-1c-11.53-.5-23.44-1.01-46.89-1.01-10.5,0-20.06,9.32-20.06,19.55,0,18.63,.14,28.11,.27,37.27,.13,9.13,.27,18.58,.27,37.15s.74,28.3,1.46,37.52c.71,9.07,1.43,18.45,1.43,36.9s.47,28.21,.93,37.41c.45,9.1,.92,18.51,.92,37.01s-1.36,27.2-2.8,36.61c-1.42,9.29-2.89,18.9-2.89,37.81s.09,28.09,.17,37.24c.08,9.14,.17,18.59,.17,37.17,0,10.07,9.4,18.9,20.12,18.9,23.24,0,35.06,.7,46.49,1.37,11.54,.68,23.48,1.38,46.95,1.38,15.68,0,26.2-.14,34.89-.33,1.16-.64,1.78-2.34,2-3.98-.96-1.52-2.3-2.92-3.83-3.9-8.33,.17-18.45,.29-33.07,.29-23.24,0-35.06-.7-46.49-1.37-11.54-.68-23.48-1.38-46.95-1.38-6.27,0-12.2-5.34-12.2-10.99,0-18.62-.09-28.09-.17-37.25-.08-9.14-.17-18.59-.17-37.17s1.36-27.2,2.8-36.61c1.42-9.29,2.89-18.9,2.89-37.81s-.47-28.21-.93-37.41c-.45-9.1-.92-18.51-.92-37.01s-.74-28.3-1.46-37.52c-.71-9.07-1.43-18.45-1.43-36.9s-.14-28.11-.27-37.27c-.13-9.13-.27-18.58-.27-37.15,0-5.87,6.01-11.64,12.14-11.64,23.27,0,35.1,.51,46.55,1,11.53,.5,23.44,1.01,46.89,1.01s35.33-.39,46.85-.76c11.45-.37,23.3-.76,46.59-.76s35.09,.59,46.52,1.16c11.53,.57,23.46,1.17,46.92,1.17,5.36,0,12.9,2.73,12.9,8.81,0,18.51-.45,27.92-.89,37.02-.44,9.19-.9,18.7-.9,37.4s-.82,27.8-1.6,36.87c-.8,9.23-1.63,18.78-1.63,37.55s1.76,28.6,3.47,37.92c1.72,9.39,3.34,18.25,3.34,36.5s-.01,27.9-.03,37.2c-.01,9.3-.03,18.61-.03,37.22s-1.84,27.04-3.79,36.4c-1.95,9.34-3.96,19-3.96,38.02,0,8.82-3.25,9.56-6.88,9.56-23.48,0-35.42,.75-46.96,1.47-10.87,.68-22.1,1.39-43.18,1.45-1.45,2.01-1.32,5.89-.05,7.92,21.37-.07,32.73-.78,43.73-1.47,11.42-.72,23.23-1.46,46.47-1.46,6.75,0,14.79-3.03,14.79-17.47,0-18.2,1.84-27.04,3.79-36.4,1.95-9.34,3.96-19,3.96-38.02s.01-27.9,.03-37.21c.01-9.3,.03-18.61,.03-37.22s-1.76-28.6-3.47-37.92Z"/><path class="j" d="M1302.84,777.64c0,18.33-.45,27.64-.89,36.65-.44,9.1-.9,18.52-.9,37.04s.81,28.05,1.59,37.19c.5,5.84,1.01,11.84,1.31,20.29,.38,.71,1.01,1.32,2.03,1.9,1.26,.72,3.37,1.69,4.82,1.15,.36-.13,.75-.42,1.14-.78-.28-10.01-.85-16.73-1.41-23.24-.77-8.98-1.56-18.26-1.56-36.51s.45-27.64,.89-36.65c.44-9.1,.9-18.52,.9-37.04,0-9.99-8.34-17.82-18.99-17.82-23.29,0-35.14-.39-46.59-.78-11.52-.38-23.43-.78-46.85-.78s-35.21-.1-46.69-.19c-11.49-.1-23.38-.19-46.75-.19s-35.26,.11-46.75,.21c-11.48,.1-23.34,.21-46.68,.21-9.75,0-17.11,8.31-17.11,19.34,0,18.5,.36,27.91,.72,37,.35,9.02,.71,18.35,.71,36.7s-1.05,27.03-2.17,36.38c-1.09,9.17-2.22,18.66-2.22,37.32s.07,27.81,.13,36.87c.06,9.05,.13,18.41,.13,36.82,0,10.05,9.26,18.87,19.81,18.87,23.27,0,35.1,.54,46.54,1.06,11.53,.52,23.45,1.07,46.9,1.07,21.86,0,33.69-.22,44.53-.44,1.33-.85,2.47-2.01,3.18-3.29,1.33-2.41,.59-4.02-1.41-4.67-11.35,.24-23.21,.48-46.3,.48s-35.1-.54-46.54-1.06c-11.53-.52-23.45-1.07-46.9-1.07-6.22,0-11.89-5.22-11.89-10.95,0-18.44-.07-27.81-.13-36.88-.06-9.05-.13-18.41-.13-36.82s1.05-27.03,2.17-36.38c1.09-9.17,2.22-18.66,2.22-37.32s-.36-27.91-.72-37c-.35-9.02-.71-18.35-.71-36.7,0-5.68,3.16-11.42,9.19-11.42,23.38,0,35.26-.11,46.75-.21,11.48-.1,23.34-.21,46.68-.21s35.21,.1,46.69,.19c11.49,.1,23.38,.19,46.75,.19s35.14,.39,46.59,.78c11.52,.38,23.43,.78,46.85,.78,6.31,0,11.07,4.26,11.07,9.9Z"/><path class="j" d="M1184.1,1170.68c2.58-1.75,4.92-4.98,2.39-7.33-16.82,.06-26.77,.27-36.44,.47-11.46,.24-23.32,.48-46.64,.48s-35.1-.54-46.54-1.06c-11.53-.52-23.45-1.07-46.9-1.07-6.22,0-11.89-5.22-11.89-10.95,0-24.44-.07-36.86-.13-48.88-.06-12-.13-24.42-.13-48.84,0-7.39,10.12-7.76,12.15-7.76,23.42,0,35.32-.36,46.84-.72,11.45-.35,23.3-.71,46.6-.71s34.04-.51,45.01-1.03c.89-.9,1.51-2.03,1.66-3.36,.15-1.36,.37-3.67-.92-4.5-.05-.03-.12-.06-.17-.09-11.15,.53-22.96,1.07-45.58,1.07s-35.32,.36-46.84,.72c-11.45,.35-23.3,.71-46.6,.71-12,0-20.07,6.3-20.07,15.68,0,24.44,.07,36.86,.13,48.88,.06,12,.13,24.42,.13,48.84,0,10.05,9.26,18.87,19.81,18.87,23.27,0,35.1,.54,46.54,1.06,11.53,.52,23.45,1.07,46.9,1.07s35.3-.25,46.8-.48c8.3-.17,16.82-.35,29.74-.43,1.41-.19,2.77-.37,4.15-.62Z"/><path class="l" d="M1224.6,1152.38c9.7-31.96-5.98-51.15-22.56-74.45-3.96-5.56-7.64-11.5-9.75-18.04-2.41-7.47-2.41-15.14-2.67-22.9-.28-8.69-1.63-17.1-3.37-25.6-1.41-6.93-2.55-13.72-2.23-20.82,.81-18.37,10.12-36,24.14-47.84,2.22-3.98,3.56-8.54,4.42-13.18-22.91,12.74-26.98,21.94-33.99,43.47-4.41,13.52-11.17,23.87-8.57,37.75,1.48,7.94,3.32,15.68,3.68,23.78,.38,8.52,.24,17.1,2.18,25.46,3.41,14.69,12.77,26.92,22.11,38.36,9.24,11.31,19.56,22.9,23.18,37.44,1.23,4.93,1.19,9.63,.22,14.09,.07,.09,.14,.2,.21,.29-24.33-25.19-56.4-44.66-84.67-66.84-15.48-12.15-29.97-25.27-45-37.87-38.73-32.48-81.08-61.49-126.2-86.49-7.44-4.12-16.79-1.84-21.45,5.27l-103.72,158.13c-3.69,5.63-9.01,11.59-11.6,17.67-2.96,6.96-1.14,8.24,3.29,14.84,8.02,11.96,16.08,23.9,24.19,35.82,16.04,23.56,25.9,49.74,42.32,73.09,3.58,5.09,4.44,9.47,10.37,12.3,5.83,2.78,22.12,.94,28.72,.82,43.32-.77,89.81,13.98,129.96-2.32,22.59-9.17,19.99-36.56,31.71-39.24,14.14-3.23,19.43-21.51,31.88-28.32,33.57-18.36,59.58-16.69,86.28-42.57,3.11-3.01,6.84-4.03,6.79-8.13"/><path class="o" d="M1305.87,999.65v.04c-.06-.42-.23-1.86,0-.04Z"/><path class="p" d="M1383.03,1188.51c-14.32-3.69-27.51-10.34-36.84-22.89-7.79-10.49-11.97-23.23-14.48-36.21-2.71-14.01-4.74-28.7-5.33-42.99-.32-7.79-.01-15.65,1.42-23.31,1.42-7.55,4.55-14.14,7.63-21.03,6.62-14.8,10.95-29.44,8.23-45.95-2.43-14.77-7.19-29.61-14.76-42.31-3.64-6.11-7.85-11.95-11.96-17.71-4.4-6.16-9.13-12.26-14.74-17.22-15.58-13.78-42.08-14.42-60.17-3.75,.28,2.97,1.1,5.86,2.64,8.41,2.78,4.59,7.13,9.1,12.36,10.13,3.7,.73,7.3,1.86,10.81,3.27,5.31,2.63,10.36,5.81,15.28,9.19,4.89,3.36,9.78,6.8,14.47,10.48,1.88,1.67,3.67,3.46,5.3,5.4,.99,1.61,1.86,3.29,2.65,5.02,2.52,7.14,4.2,14.67,5.31,22.19,1.85,17.89,.14,35.9-1.7,53.72-1.94,18.68-4.04,37.57-2.15,56.36,.94,9.36,2.33,18.62,4.96,27.62,2.52,8.63,5.87,17.1,9.8,25.1,3.16,6.43,6.86,12.53,11,18.28,5.21,7.22,10.58,14.14,16.9,20.3,6.2,6.04,12.95,11.59,20.04,16.39,7.22,4.88,14.94,8.64,22.88,11.99,1.58,.67,3.18,1.29,4.79,1.88,2.75,.92,5.5,1.05,8.25,.39,2.75-.13,5.32-1,7.69-2.62,2.41-1.39,4.35-3.28,5.8-5.68,1.65-1.93,2.82-4.16,3.5-6.69-10.67-11.73-25.31-14.09-39.59-17.77Z"/><path class="j" d="M1086.03,1257.4c7.23-12.24,17.33-23.16,28.47-31.48,11.58-8.65,24.44-15.41,37.54-21.43,13.48-6.2,26.52-11.34,40-17.27,12.84-5.65,26.54-12.48,34.59-24.47,9.27-13.78,4.64-31.69-4.06-44.53-8.58-12.65-20.33-22.56-30.25-34.07-4.53-5.26-8.74-11.07-11.6-17.72-3.25-7.55-4.39-16.12-4.95-24.36-.58-8.66-.76-17.34-1.42-25.99s-1.4-16.72-1.55-25.11c-.28-15.22,1.64-31.46,11.33-43.43,9.55-11.79,23.08-19.1,36.36-26.18s29.61-18.46,45.34-14.47c7.58,1.92,14.27,6.35,20.7,10.87,6.35,4.47,12.47,8.63,18.12,13.77,21.43,19.52,33.03,47.58,32.25,76.33-.22,8.03-1.47,14.87-3.13,22.78-1.98,9.47-3.93,18.95-5.76,28.45s-3.54,19.02-5.07,28.58c-1.24,7.77-2.2,15.53-2.18,23.41,.05,15,2.97,29.94,9.1,43.65,6.02,13.47,15.9,26.19,28.67,33.86,7.33,4.4,15.34,6.16,23.58,7.95,3.27,.71,6.5,1.57,9.64,2.73,.59,.22,1.17,.45,1.75,.68,.76,.3-1.03-.46,.18,.07,.25,.11,.5,.22,.75,.33,1.38,.61,2.75,1.26,4.11,1.91,7.23,3.44,14.54,6.68,21.48,10.69,5.73,3.31,11.17,7.04,16.61,10.79,4.96,3.42,9.98,6.74,15.31,9.58,2.29,1.22,5.23,.58,6.57-1.72,1.27-2.18,.57-5.35-1.72-6.57-11.41-6.09-21.43-14.4-32.66-20.8-7.04-4.01-14.44-7.28-21.76-10.75-5.92-2.8-11.9-4.98-18.31-6.34-7.99-1.69-15.4-3.34-22.23-7.83-5.33-3.5-11.06-9.21-14.79-14.2-8.71-11.68-13.5-24.93-15.65-39.38-.16-1.1-.37-2.84-.53-4.46-.18-1.92-.31-3.85-.39-5.78-.16-3.67-.13-7.36,.07-11.03,.46-8.5,1.95-16.34,3.46-25.02,1.65-9.51,3.47-19,5.37-28.46,1.83-9.09,4.03-18.14,5.55-27.29,5.06-30.43-2.61-61.76-21.61-86.13-9.73-12.48-22.43-21.84-35.5-30.56-6.73-4.49-14.2-8.67-22.29-9.99-8.88-1.45-17.62,.39-25.84,3.8-8.14,3.38-15.77,7.83-23.54,11.96-6.92,3.68-13.81,7.43-20.32,11.8-6.48,4.35-12.72,9.29-17.77,15.28-5.41,6.42-9.34,13.79-11.68,21.86-4.69,16.19-3.28,33.43-1.97,49.99,.68,8.56,1.09,17.12,1.5,25.7,.43,8.94,1.17,18.06,3.8,26.66,4.7,15.38,15.68,27.18,26.64,38.45,10.41,10.7,21.83,21.59,25.11,36.63,.39,1.78,.6,3.19,.69,5.05,.04,.88,.05,1.77,.02,2.66-.02,.58-.07,1.15-.12,1.73-.09,1.04,.11-.23-.12,.75-.8,3.51-1.41,5.21-3.32,8.15-3.23,4.97-8.69,9.27-14.1,12.63-5.98,3.71-12.38,6.65-18.83,9.46-6.95,3.04-13.6,5.81-20.33,8.66-26.86,11.39-54.4,23.95-74.24,46.08-5.04,5.62-9.53,11.74-13.36,18.23-3.15,5.34,5.15,10.18,8.3,4.85h0Z"/><path class="j" d="M848.85,856.25c0,.87-.3,1.45-1.11,1.45s-1.87-.59-1.87-1.45,1.06-1.73,1.87-1.73,1.11,.87,1.11,1.73Z"/><path class="j" d="M868.77,865.69c0,1.17-.82,2.45-1.88,2.45s-2.24-1.29-2.24-2.45,1.18-2.61,2.24-2.61,1.88,1.45,1.88,2.61Z"/><path class="j" d="M1128.44,831.4c0,.87-.66,1.82-1.48,1.82s-1.78-.95-1.78-1.82,.97-1.32,1.78-1.32,1.48,.45,1.48,1.32Z"/><path class="j" d="M1148.62,840.85c0,1.17-1.45,1.78-2.51,1.78s-1.46-.61-1.46-1.78,.4-2.2,1.46-2.2,2.51,1.03,2.51,2.2Z"/><path class="j" d="M869.83,815.36c0,2.83-1.61,4.3-4.86,4.3s-6.37-1.47-6.37-4.3,3.11-6.18,6.37-6.18,4.86,3.35,4.86,6.18Z"/><path class="j" d="M771.94,1042.88c.83,.25,1.69,.9,1.45,1.68s-1.27,.76-2.1,.52-1.09-.61-.86-1.39,.68-1.05,1.51-.8Z"/><path class="j" d="M786.54,1026.78c1.12,.33,2.11,1.22,1.81,2.23-.3,1.02-1.86,2.04-2.98,1.71-1.12-.33-1.79-2.02-1.49-3.03,.3-1.02,1.54-1.25,2.66-.92Z"/><path class="j" d="M739.03,1009.93c2.71,.8,2.91,4,1.99,7.12-.92,3.12-2.36,4.13-5.07,3.33-2.71-.8-5.82-3.14-4.9-6.27s5.26-4.98,7.98-4.18Z"/><path class="j" d="M1128.89,940.52c.83,.25,1.28,.67,1.05,1.45-.23,.78-.82,.84-1.65,.6s-1.5-.68-1.27-1.46,1.04-.83,1.88-.58Z"/><path class="j" d="M1143.45,924.55c1.12,.33,2.47,1.05,2.17,2.07-.3,1.02-2.09,1.76-3.21,1.43s-1.84-1.81-1.54-2.83c.3-1.02,1.45-1,2.57-.67Z"/><path class="j" d="M1095.78,908.23c2.71,.8,4.4,3.6,3.48,6.72-.92,3.12-3.58,3.61-6.29,2.81s-3.36-2.27-2.44-5.39c.92-3.12,2.54-4.95,5.26-4.15Z"/><path class="j" d="M1131.12,799.28c2.71,.8,4.77,4.35,3.85,7.47-.92,3.12-4.12,3.45-6.84,2.65-2.71-.8-4.26-2.53-3.34-5.65,.92-3.12,3.61-5.27,6.32-4.47Z"/><g><path class="j" d="M723.08,1080.61c-.29,1.89-1.66,2.31-3.13,2.08s-2.71-1.06-2.42-2.94c.29-1.89,1.72-2.27,3.19-2.04,1.47,.23,2.65,1.01,2.36,2.9Z"/><path class="h" d="M723.08,1080.61c-.29,1.89-1.66,2.31-3.13,2.08s-2.71-1.06-2.42-2.94c.29-1.89,1.72-2.27,3.19-2.04,1.47,.23,2.65,1.01,2.36,2.9Z"/></g><g><path class="j" d="M819.44,1096.73c-.46,2.94-5.56,5.5-9.12,4.95-3.57-.55-6.28-4.34-5.83-7.27,.46-2.94,4.13-5.32,7.7-4.77s7.71,4.15,7.25,7.09Z"/><path class="h" d="M819.44,1096.73c-.46,2.94-5.56,5.5-9.12,4.95-3.57-.55-6.28-4.34-5.83-7.27,.46-2.94,4.13-5.32,7.7-4.77s7.71,4.15,7.25,7.09Z"/></g><path class="j" d="M896.39,840.34l1.5,2.75c.12,.21,.29,.38,.5,.5l2.75,1.5c.3,.16,.3,.6,0,.76l-2.96,1.62c-.07,.04-.13,.1-.17,.17l-1.62,2.96c-.16,.3-.6,.3-.76,0l-1.62-2.96c-.04-.07-.1-.13-.17-.17l-2.96-1.62c-.3-.16-.3-.6,0-.76l2.69-1.47c.25-.14,.45-.34,.59-.59l1.47-2.69c.16-.3,.6-.3,.76,0Z"/><path class="j" d="M1172.93,875.64l1.5,2.75c.12,.21,.29,.38,.5,.5l2.75,1.5c.3,.16,.3,.6,0,.76l-2.96,1.62c-.07,.04-.13,.1-.17,.17l-1.62,2.96c-.16,.3-.6,.3-.76,0l-1.62-2.96c-.04-.07-.1-.13-.17-.17l-2.96-1.62c-.3-.16-.3-.6,0-.76l2.69-1.47c.25-.14,.45-.34,.59-.59l1.47-2.69c.16-.3,.6-.3,.76,0Z"/><path class="j" d="M1040.19,786.45l1.5,2.75c.12,.21,.29,.38,.5,.5l2.75,1.5c.3,.16,.3,.6,0,.76l-2.96,1.62c-.07,.04-.13,.1-.17,.17l-1.62,2.96c-.16,.3-.6,.3-.76,0l-1.62-2.96c-.04-.07-.1-.13-.17-.17l-2.96-1.62c-.3-.16-.3-.6,0-.76l2.69-1.47c.25-.14,.45-.34,.59-.59l1.47-2.69c.16-.3,.6-.3,.76,0Z"/><path class="j" d="M907.79,919.23l1.5,2.75c.12,.21,.29,.38,.5,.5l2.75,1.5c.3,.16,.3,.6,0,.76l-2.96,1.62c-.07,.04-.13,.1-.17,.17l-1.62,2.96c-.16,.3-.6,.3-.76,0l-1.62-2.96c-.04-.07-.1-.13-.17-.17l-2.96-1.62c-.3-.16-.3-.6,0-.76l2.69-1.47c.25-.14,.45-.34,.59-.59l1.47-2.69c.16-.3,.6-.3,.76,0Z"/></g><g><path class="m" d="M1163.94,2125.85c-.56-8.37-2.07-17.32-7.97-23.28-5.09-5.15-12.48-7.08-19.3-9.5-11.69-4.16-22.65-10.35-32.25-18.21-2.65-2.17-9.06-7.78-12.39-8.55-7.65-1.77-10.41,8.49-17.12,12.57-7.72,4.69-17.05,5.69-26.04,6.57-51.13,5.04-103.15,10.04-153.55,.02-14.61-2.9-28.96-7.04-43.66-9.51-6.86-1.15-14.28-.81-20.99-2.43-5.34-1.29-10.4-3.96-15,.99-3.77,4.05-4.44,10.01-4.88,15.53-3.18,40.47-3.5,81.73,6.6,121.05,3.03,11.79,7.23,23.75,15.66,32.54,9.61,10.02,23.43,14.62,36.77,18.48,27.65,8,55.77,14.37,84.16,19.07,13.18,2.18,26.64,4,39.85,2.06,15.7-2.3,30.11-9.76,44.18-17.09,7.49-3.9,15.03-7.85,21.53-13.24,6.62-5.5,11.96-12.34,18.1-18.37,13.24-13,29.86-21.89,45.23-32.3,15.37-10.41,30.19-23.22,36.9-40.52,4.39-11.31,4.97-23.76,4.15-35.87Zm-32.14,45.8c-4.61,5.8-10.69,10.29-17.33,13.5-4.79,2.32-10.81,5.13-16.24,3.48-13.24-4.03-6.28-26.21-3.62-35.11,4.19-14.07,10.14-28.51,18.8-40.46,.33-.45,.7-.81,1.11-1.08,.34-1.7,1.62-3.16,3.88-3.11,14.99,.35,21.78,13.25,23.16,26.65,1.31,12.74-1.71,26.01-9.75,36.12Z"/><path class="j" d="M914.65,2162.29c-6-7.01-13.66-12.31-22.23-15.69-1.75-.69-3.84,.7-4.32,2.38-.56,1.95,.62,3.63,2.38,4.32,7.46,2.94,13.92,7.73,19.11,13.79,1.23,1.43,3.62,1.37,4.94,.12,1.43-1.36,1.35-3.5,.12-4.94h0Z"/><path class="j" d="M1018.58,2159.24c-3.4-.31-6.83-.36-10.23-.17-3.91,.23-7.97,.68-11.67,2.04-3.8,1.4-6.77,3.54-8.32,7.38-1.82,4.52-1.86,9.85-.33,14.45,3.59,10.81,14.68,15.81,25.4,16.47,5.61,.34,11.22-1.05,15.61-4.64,3.61-2.96,6.16-7.45,6.92-12.05,1.95-11.7-6.98-22.3-18.64-23.24-1.88-.15-3.49,1.71-3.49,3.49,0,2.02,1.6,3.34,3.49,3.49,6.65,.54,12.3,6.82,11.97,13.52-.15,3.1-1.65,6.44-3.99,8.77-2.62,2.6-6.47,3.75-10.36,3.73-4.18-.02-8.65-1-12.39-2.9-3.41-1.73-6.19-4.36-7.51-7.7-1.36-3.43-1.51-6.91-.39-10.35,.22-.68,.42-.96,.68-1.57,.2-.46-.4,.34,.12-.17,.24-.24,.49-.47,.73-.71,.28-.26-.16,.12-.19,.14,.15-.1,.29-.21,.45-.31,.24-.15,.48-.3,.72-.43,.3-.17,.61-.31,.91-.46,.35-.18-.09,.03-.14,.05,.24-.1,.48-.19,.73-.28,1.64-.59,3.34-.98,5.06-1.27,1.09-.18,.91-.16,2.09-.27,.96-.1,1.91-.17,2.87-.22,3.29-.17,6.6-.12,9.88,.18,1.88,.17,3.49-1.73,3.49-3.49,0-2.03-1.61-3.32-3.49-3.49h0Z"/><path class="o" d="M1009.07,2182.72c2.74,0,5.36-2.41,5.24-5.24-.13-2.84-2.3-5.24-5.24-5.24-2.74,0-5.36,2.41-5.24,5.24s2.3,5.24,5.24,5.24h0Z"/><path class="j" d="M875.33,2162.55c-7.84,2.26-12.42,10.67-11.38,18.55,1.13,8.51,8.25,14.95,16.15,17.45,4.42,1.4,9.57,1.72,13.97,.06,3.84-1.45,6.94-4,9.32-7.32,4.53-6.3,5.17-15.19,.94-21.8-4.85-7.58-14.35-11.63-23.1-9.47-7.81,1.93-13.35,6.46-13.07,8.27,2.36,15.24-.69,2.06,14.93-1.53,4.93-1.14,10.5,.76,14.12,4.81,3.44,3.85,3.88,9.37,1.56,13.9-1.2,2.35-2.78,4.2-4.84,5.49-1.28,.8-1.88,1.07-3.36,1.44-1.69,.42-3.52,.44-5.25,.21-5.77-.75-11.71-4.48-13.78-9.78-2.07-5.29,.7-12.56,6-14.08,4.31-1.24,2.13-7.44-2.21-6.19h0Z"/><path class="o" d="M886.43,2183.42c2.74,0,5.36-2.41,5.24-5.24-.13-2.84-2.3-5.24-5.24-5.24-2.74,0-5.36,2.41-5.24,5.24s2.3,5.24,5.24,5.24h0Z"/><path class="j" d="M976.21,2161.1c6-7.01,13.66-12.31,22.23-15.69,1.75-.69,3.84,.7,4.32,2.38,.56,1.95-.62,3.63-2.38,4.32-7.46,2.94-13.92,7.73-19.11,13.79-1.23,1.43-3.62,1.37-4.94,.12-1.43-1.36-1.35-3.5-.12-4.94h0Z"/><path class="j" d="M930.78,2206.93c6.34,11.81,21.27,14.01,31.11,5.13,2.87-2.59-1.38-6.83-4.24-4.24-7.09,6.4-17.24,4.37-21.69-3.91-1.83-3.4-7.01-.38-5.18,3.03h0Z"/><path class="m" d="M841.1,2046.83c25.99-6.78,52.94-8.85,79.72-10.89,51.72-3.95,104.96-7.73,154.4,7.94,4.24,1.34,8.74,3.06,11.18,6.78,3.2,4.9,1.54,11.78-2.33,16.16-3.87,4.38-9.45,6.81-14.91,8.92-41.43,16.05-86.85,21.66-130.94,16.16-26.71-3.33-53.16-10.66-80.05-9.51-7.05,.3-14.25,1.18-21.07-.63-7.28-1.93-19.97-10.61-18.94-19.59,1.04-9.1,15.72-13.47,22.94-15.35Z"/><g class="t"><path class="o" d="M828.21,2073.92c7.87-3.08,15.92-5.62,24.13-7.62,3.8-.92,7.64-1.74,11.48-2.45,2.08-.39,4.16-.75,6.24-1.08,.93-.15,7.19-1.01,4.19-.64,16.61-2.07,33.34-2.77,50.07-3.11,34.56-.7,69.59-2.4,104.11-.25,4.51,.28,9,.71,13.5,1.17,.5,.05,3.54,.42,.57,.03,1.19,.15,2.37,.34,3.55,.53,2.36,.37,4.72,.79,7.06,1.25,9.4,1.86,18.58,4.53,27.48,8.09s20.15-3.83,22.14-12.57c2.37-10.41-3.19-18.38-12.57-22.14-32.96-13.22-69.39-13.39-104.37-12.95s-71.61-.51-107.03,3.42c-20.54,2.28-40.82,6.05-60.13,13.61-8.74,3.42-15.78,12.22-12.57,22.14,2.75,8.49,12.75,16.25,22.14,12.57h0Z"/></g><g><path class="j" d="M1169.41,2110.46c-2.99-7.2-7.21-14.12-13.31-19.12-3.34-2.73-6.83-4.82-10.89-6.31-3.91-1.43-8.17-1.86-12.31-1.92-3.9-.06-7.8,.23-11.7,.07-.73-.03-1.46-.09-2.19-.16-.08-.02-.94-.13-1.08-.16-.35-.07-.7-.14-1.05-.23-.52-.13-1.04-.27-1.55-.44,.01,0-.47-.18-.77-.29-.29-.15-.74-.36-.73-.35-.49-.26-.93-.59-1.41-.86-.05-.03-.09-.05-.13-.07-.02-.02-.04-.04-.07-.07-.22-.2-.45-.39-.66-.6-.42-.39-1.3-1.05-1.49-1.61l.43,.56c-.17-.23-.34-.47-.5-.71s-.32-.49-.47-.73c-.46-.75-.84-1.54-1.23-2.33-.02-.04-.03-.06-.05-.09,0-.03-.02-.05-.03-.08-.1-.28-.21-.56-.32-.85-.26-.72-.49-1.45-.71-2.18-.49-1.66-.89-3.34-1.26-5.02-1.52-6.9-2.67-13.95-6.17-20.2-3.63-6.47-9.49-11.52-15.99-14.97-13.88-7.37-30.25-9.31-45.55-11.74-36.4-5.79-73.34-8.88-110.21-7.28-18.52,.8-37,2.79-55.24,6.11-8.84,1.61-17.62,3.55-26.31,5.84-4.3,1.14-8.58,2.36-12.83,3.67-4.14,1.28-8.3,2.56-11.9,5.05-6.98,4.81-12.22,11.85-14.75,19.94-.18,.59-.38,2.2-.36,2.82-1.68,34.71-2.86,68.59,2.06,103.1,2.37,16.65,6.32,33.11,12.56,48.75,3.2,8.01,6.74,16.1,11.37,23.41,4.9,7.74,11.45,13.6,19.77,17.45,8.37,3.87,17.3,6.64,26.11,9.28,8.96,2.68,18.03,5,27.18,6.94,18.5,3.93,37.35,6.39,56.25,7.32,18.67,.92,38.43,1.33,56.51-4.09,16.29-4.88,30.64-14.23,44.6-23.68,6.89-4.67,13.77-9.38,20.92-13.65,6.39-3.81,12.97-7.28,19.56-10.74,12.93-6.78,26.02-13.49,37.64-22.41,12.88-9.89,23.32-22.24,28.82-37.69,5.57-15.65,5.86-34.25-.56-49.7Zm-348.93-57.71c.43-.8,.89-1.57,1.39-2.33,.25-.38,.51-.76,.77-1.13,.07-.11,.15-.21,.23-.31,.05-.06,.15-.19,.32-.39,1.17-1.29,2.32-2.56,3.65-3.69,.14-.12,.53-.43,.62-.5,.16-.12,.32-.23,.48-.35,.87-.6,1.78-1.15,2.73-1.64,0,0,.26-.13,.52-.26,.23-.09,.87-.36,.88-.36,.98-.35,1.98-.65,2.97-.96,2.07-.65,4.15-1.28,6.24-1.89,4.37-1.28,8.77-2.47,13.19-3.56,8.51-2.11,17.1-3.89,25.74-5.36,2.03-.34,4.06-.67,6.09-.98,1.07-.16,2.14-.32,3.21-.48,.64-.09,1.29-.18,1.93-.27,.25-.04,.38-.05,.45-.06,.08-.01,.23-.03,.49-.06,4.3-.56,8.6-1.06,12.91-1.48,35.36-3.47,71.07-2.25,106.32,1.97,2.17,.26,4.34,.53,6.51,.81,.43,.06,.87,.11,1.3,.17,.21,.03,.35,.05,.47,.06,.12,.02,.27,.04,.49,.07,1.19,.16,2.38,.33,3.57,.5,4.43,.63,8.85,1.31,13.27,2.02,7.91,1.29,15.87,2.55,23.67,4.38,3.36,.79,6.7,1.7,9.96,2.85,.79,.28,1.57,.57,2.35,.87,.31,.12,.62,.25,.93,.37-1.41-.56,.13,.06,.35,.16,1.49,.67,2.95,1.4,4.36,2.21,1.39,.8,2.72,1.67,4.02,2.62l.06,.05c.29,.26,.61,.5,.9,.76,.71,.62,1.39,1.27,2.04,1.95,1.7,1.78,2.9,4.29,1.86,6.73-.47,.39-.72,1.07-1.06,1.57-.43,.62-.86,1.25-1.27,1.89,.88-1.39,.13-.18-.15,.16-.3,.36-.6,.71-.9,1.06-.65,.75-1.33,1.47-2.03,2.18-1.31,1.31-2.69,2.55-4.13,3.72-.1,.08-.17,.14-.23,.18-.35,.26-.71,.53-1.06,.78-.81,.58-1.64,1.15-2.49,1.69-3.2,2.06-6.58,3.78-10.05,5.32l-.08,.04s-.09,.04-.15,.06c-.45,.18-.89,.36-1.34,.54-.96,.38-1.94,.74-2.91,1.08-1.83,.65-3.68,1.23-5.55,1.78-3.8,1.1-7.65,2-11.53,2.75-1.93,.37-3.86,.7-5.8,1-1.15,.18-2.31,.34-3.46,.5-.26,.03-.91,.12-1.14,.15-.72,.09-1.45,.18-2.18,.27-10.25,1.21-20.57,1.8-30.89,2.08-20.93,.55-41.95,.24-62.87-.44-10.43-.34-20.85-.9-31.24-1.87-2.66-.25-5.33-.52-7.98-.83-1.19-.14-2.38-.28-3.57-.43-.64-.08-1.28-.16-1.92-.25l-.14-.02c-.25-.03-.87-.12-.97-.13-4.8-.67-9.58-1.45-14.34-2.35-9.41-1.79-18.72-4.07-27.85-6.97-4.59-1.46-9.14-3.07-13.61-4.86-.55-.22-1.1-.44-1.65-.66-.23-.1-.47-.19-.7-.29-.07-.03-.25-.1-.41-.17-.26-.11-.79-.34-.92-.39-.62-.27-1.24-.54-1.86-.82-1.69-.76-3.35-1.65-5.06-2.36-1.36-.56-2.54-.99-3.39-2.33-1.08-1.69-1.27-4.35-.34-6.09Zm340.82,91.18c.04-.24,.07-.46,0,0h0Zm.16-1.49c-.05,.56-.12,1.11-.19,1.67,0,.06-.02,.13-.03,.21-.19,1.17-.38,2.33-.62,3.49-.79,3.87-1.96,7.61-3.36,11.3-.05,.14-.09,.25-.13,.34-.01,.03-.02,.05-.04,.09-.2,.45-.4,.9-.6,1.35-.41,.89-.84,1.78-1.29,2.65-.92,1.79-1.93,3.53-3.02,5.22-.89,1.38-1.82,2.74-2.8,4.06-.12,.16-1.18,1.5-.29,.39-.21,.27-.43,.54-.64,.8-.65,.8-1.31,1.58-1.99,2.35-2.26,2.56-4.68,4.97-7.23,7.24-1.28,1.14-2.59,2.24-3.92,3.31-.33,.27-.67,.53-1.01,.8l-.04,.03-.14,.11c-.76,.57-1.52,1.14-2.29,1.69-5.75,4.16-11.84,7.82-18.03,11.28-12.78,7.14-26.06,13.37-38.54,21.05-13.7,8.42-26.46,18.32-40.56,26.11-3.52,1.95-7.13,3.69-10.8,5.34-.06,.03-.1,.05-.14,.06-.08,.03-.17,.07-.28,.11-.46,.18-.91,.37-1.36,.55-.82,.32-1.65,.63-2.48,.93-2.04,.73-4.1,1.39-6.18,1.97-9.05,2.5-16.86,3.18-26.4,3.46-8.93,.26-17.88,.1-26.79-.39-4.67-.25-9.34-.6-13.99-1.04-2.11-.2-4.21-.42-6.31-.66-1.11-.13-2.21-.26-3.32-.39-.55-.07-1.11-.14-1.66-.21,.02,0-.86-.11-1.16-.15-17.93-2.44-35.68-6.32-53-11.57-4.37-1.32-8.71-2.73-13.03-4.23-1.92-.67-3.83-1.34-5.72-2.07-.37-.14-.74-.29-1.11-.43-.04-.01-.73-.31-1-.41-.81-.35-1.62-.72-2.42-1.11-1.77-.86-3.49-1.81-5.14-2.88-.41-.27-.82-.54-1.22-.82-.12-.08-.48-.36-.64-.47-.84-.67-1.64-1.39-2.41-2.15-.63-.63-1.23-1.28-1.81-1.95-.25-.29-.5-.6-.75-.9-.11-.15-.4-.53-.49-.64-1.22-1.69-2.33-3.46-3.36-5.26-2.01-3.49-3.8-7.11-5.5-10.76-.43-.92-.84-1.84-1.25-2.76-.25-.55-.49-1.11-.73-1.67-.02-.05-.08-.18-.13-.31-.84-2.01-1.64-4.03-2.4-6.07-2.85-7.63-5.18-15.44-7.06-23.36-.96-4.02-1.8-8.07-2.53-12.13-.36-1.99-.7-3.98-1.01-5.98-.14-.9-.28-1.8-.41-2.7-.07-.5-.15-1-.22-1.51,0-.03-.1-.74-.14-1.04-1.05-8.21-1.78-16.46-2.22-24.73-.79-14.85-.72-29.73-.28-44.6,.08-2.77-.55-6.55,1.77-8.6,1.08-.95,2.51-1.34,3.92-1.38,1.65-.05,2.79,.57,4.27,1.19,3.26,1.37,6.56,2.65,9.89,3.84,6.66,2.39,13.45,4.44,20.3,6.18,2.74,.7,5.5,1.34,8.26,1.94,20.68,4.49,41.85,6.49,62.97,7.41,21.3,.92,42.71,1.16,64.03,.84,10.6-.16,21.2-.6,31.75-1.64,9.44-.93,18.92-2.18,28.14-4.47,6.13-1.52,12.15-3.51,17.9-6.14,2.83-1.29,5.58-2.75,8.23-4.37,1.92-1.18,3.68-2.71,5.64-3.78s4.19-1.38,6.36-1.36c.88,0,1.76,.07,2.6,.35,1.3,.44,1.78,1.1,2.13,2.32,.46,1.61,1.26,3.21,2.04,4.68,1.91,3.63,4.57,6.85,7.96,9.19,6.95,4.81,15.69,4.38,23.74,4.24,1.91-.03,3.81-.04,5.72,.08,.47,.03,.94,.07,1.41,.12,.15,.01,.48,.07,.69,.11,.83,.16,1.64,.32,2.46,.55,.81,.23,1.59,.53,2.38,.79h.02s.07,.04,.11,.06c.3,.15,.6,.29,.89,.44,.74,.38,1.46,.79,2.16,1.23,.42,.27,.84,.54,1.24,.83,.13,.09,.49,.38,.68,.53,1.18,1,2.31,2.03,3.36,3.17,.58,.63,1.12,1.28,1.67,1.94l.02,.03-.04-.06,.05,.07c.1,.13,.27,.37,.29,.4,.19,.26,.38,.52,.57,.79,.99,1.43,1.88,2.91,2.7,4.44,.41,.77,.8,1.55,1.17,2.34,.17,.36,.32,.72,.48,1.07,.11,.27,.22,.54,.32,.82,1.32,3.45,2.26,7.03,2.9,10.66,.09,.48,.17,.97,.24,1.46,.02,.13,.06,.45,.09,.67,.1,.89,.2,1.78,.26,2.67,.15,1.96,.21,3.93,.19,5.9-.02,1.97-.13,3.93-.33,5.89Z"/><path class="j" d="M1152.5,2105.74c-.1-.13-.19-.27-.29-.4h0c.25,.34,.32,.43,.3,.4Z"/></g><g><path class="j" d="M1121.26,2115.63s-.06,.03-.09,.05h0c-.07,.06-.14,.12-.21,.18-.08,.07-.15,.15-.22,.22,.02,0,.18-.12,.52-.46Z"/><path class="j" d="M1103.86,2121.6c-7.54,18.86-5.06,36.25-15.26,53.32-2.81,4.7-3.32,9.51-5.35,14.92-1.39,3.7,2.2,7.95,5.94,7.8,5.74-.23,10.69-2.83,15.47-5.78,3.73-2.3,7.44-4.65,11.02-7.18,7.66-5.43,14.8-11.66,19.83-19.67,5.49-8.74,7.68-19.2,7.67-29.42,0-5.1-.41-10.37-1.56-15.34-1.22-5.27-3.79-10.27-8.12-13.61-4.76-3.68-12.47-4.93-18.08-1.89-4.27,2.32-6.61,6.82-9.5,12.36-1.13,2.18-1.84,3.92-2.07,4.49Zm18.66,40.58c.13-.16,.53-.69,.53-.7-.01,.14-.3,.46-.53,.7Zm.24-46.77c.9-.13,1.12-.19,1.65,.02h.01c.13,.05,.22,.09,.3,.13,.41,.21,.81,.44,1.19,.7,.01,0,.04,.03,.08,.06,.31,.28,.62,.56,.91,.86,.07,.07,.23,.26,.37,.42,.15,.22,.35,.5,.42,.61,.26,.41,.49,.83,.7,1.26l.46,1.07c.69,1.97,1.14,4.01,1.45,6.08,.66,5.48,.76,11.04,.1,16.53-.54,3.52-1.43,6.98-2.72,10.3-1.28,2.88-2.85,5.6-4.72,8.14-.1,.13-.19,.26-.29,.39-.1,.14-.16,.21-.18,.24-.11,.12-.21,.22-.25,.27-.51,.62-1.04,1.22-1.58,1.82-1.12,1.23-2.31,2.41-3.53,3.55-1.19,1.11-2.43,2.17-3.69,3.2-.3,.24-.59,.48-.89,.72-.07,.05-.13,.1-.2,.15,.16-.13,.3-.24,.28-.21-.59,.6-1.42,1.07-2.11,1.57-1.74,1.26-3.46,2.93-5.59,3.5-.99,.26-1.95,.26-2.72-.51-1.28-1.27-.17-2.7,.29-4.12,1.34-4.08,2.63-8.17,3.87-12.27,1.22-4.02,2.87-8.22,3.58-12.36,1.02-5.92,2.44-11.83,4.39-17.54,0-.03,.02-.06,.03-.09,.13-.47,.41-1.38,1.04-3.62,.03-.1,.03-.09,.03-.11,.44-1.56,1.02-2.7,1.78-4.28,0,0,1.77-3.71,2.59-4.77,.1-.13,.21-.26,.21-.26h0c.47-.5,1.06-.87,1.71-1.09l1.04-.34Z"/><path class="j" d="M1126.42,2116.61s-.04-.01-.08-.04c.04,.02,.07,.04,.08,.04Z"/><path class="j" d="M1112.04,2172.16c.11-.08,.21-.17,.32-.25-.29,.23-.65,.51-.32,.25Z"/></g></g><g><path class="j" d="M935.07,3429.68c3.77,0,3.77,.1,7.54,.1,.44,0,.68,.44,.35,.73-1.73,1.52-1.81,1.42-3.54,2.94-2.04,1.79-1.97,1.87-4.01,3.66-.18,.16-.53,.21-.71,.05-2.04-1.79-1.9-1.95-3.95-3.74-1.73-1.52-1.86-1.37-3.59-2.88-.33-.29-.07-1.02,.38-1.02,3.77,.03,3.77,.16,7.54,.16Z"/><path class="m" d="M887.22,3628.3c-3.15-31.24-4.14-62.66-4.11-94.05,.02-17.62,.35-35.25,.68-52.87l.92-48.71c.56-29.34,1.11-58.73,3.95-87.94,.33-3.45,2.29-8.05,5.61-7.08,1.66,.49,2.55,2.27,3.07,3.91,3.01,9.42,.58,20.46,5.81,28.86,6.38,10.25,20.56,11.44,32.63,11.48,8.75,.03,18.32-.26,24.94-5.97,9.65-8.31,8.54-24,16.36-34.04,1.07-1.38,2.43-2.7,4.15-2.99,4.65-.8,6.8,5.58,6.92,10.3,.39,15.15-.57,30.37,.94,45.45,1.38,13.82,4.81,27.36,6.81,41.11,4.71,32.42,1.64,66.73,14.94,96.68,4.1,9.24,9.66,17.75,15.18,26.22l15.71,24.07c13.9,21.29,28.03,43.09,34.31,67.73,.23,.9,.44,1.89,.03,2.73-.53,1.08-1.85,1.47-3.03,1.71-10.96,2.26-22.22,2.48-33.41,2.69l-68.67,1.3c-19.74,.37-39.52,.75-59.23-.56-6.05-.4-14.75,.57-18.91-4.68-4.81-6.07-4.89-18.03-5.63-25.34Z"/><path class="j" d="M891.01,3444.96c-9.86,2.6-19.05,7.16-28.72,10.37s-19.92,5.64-30.15,7.26c-1.9,.3-1.09,3.19,.8,2.89,10.23-1.62,20.31-4,30.15-7.26,9.66-3.21,18.86-7.77,28.72-10.37,1.87-.49,1.07-3.39-.8-2.89h0Z"/><path class="j" d="M889.88,3438.74l-55.54,2.07c-1.92,.07-1.93,3.07,0,3l55.54-2.07c1.92-.07,1.93-3.07,0-3h0Z"/><path class="j" d="M891.32,3433.54c-14.69-7.87-29.77-14.93-45.22-21.19-1.79-.72-2.57,2.18-.8,2.89,15.2,6.16,30.04,13.14,44.5,20.89,1.7,.91,3.22-1.68,1.51-2.59h0Z"/><path class="j" d="M980.97,3434.29c9.83-2.7,18.98-7.36,28.61-10.67s19.86-5.85,30.07-7.57c1.9-.32,1.09-3.21-.8-2.89-10.21,1.73-20.27,4.21-30.07,7.57s-18.77,7.97-28.61,10.67c-1.86,.51-1.07,3.41,.8,2.89h0Z"/><path class="j" d="M982.38,3440.08l55.54-2.07c1.92-.07,1.93-3.07,0-3l-55.54,2.07c-1.92,.07-1.93,3.07,0,3h0Z"/><path class="j" d="M982.2,3447c14.65,7.94,29.7,15.07,45.12,21.4,1.78,.73,2.56-2.17,.8-2.89-15.17-6.23-29.98-13.28-44.4-21.1-1.7-.92-3.21,1.67-1.51,2.59h0Z"/><path class="j" d="M890.71,3338.3l-.07,.15c-.11,.23-.22,.47-.3,.71-.06,.19-.1,.38-.14,.57-.16,.64-.42,1.24-.63,1.86-.7,1.85-1.23,3.76-1.65,5.69-.85,3.88-1.13,7.87-1.27,11.83-.26,7.38,.12,14.79-1.24,22.08-1.46,7.83-4.13,15.33-4.9,23.3-.78,8.05-.43,16.16-.33,24.22,.1,8.19-.17,16.39-.32,24.58-.65,34.54-1.92,69.19,.35,103.69,2.27,34.47,9.76,68.25,16.27,102.1,.61,3.16-4.24,4.51-4.84,1.34-7.43-38.67-15.52-77.01-17.13-116.47-1.43-34.81-.05-69.73,.6-104.55,.3-16.03-1.25-32.11,2.66-47.84,2.03-8.18,3.62-15.81,3.74-24.28,.1-7.62,.06-15.35,1.92-22.79,1.08-4.34,3.81-13.53,9.36-14.08,2.63-.26,3.66,1.91,4.56,4,1.44,3.35,2.69,6.78,3.78,10.26,2.42,7.75,4.06,15.72,5.65,23.67,.68,3.4,1,7.27,2.47,10.45,1.8,3.92,6.1,2.13,9.54,1.87,8.74-.66,17.6-.91,26.36-.76,4.43,.07,8.88,.4,13.31,.21,3.93-.17,6.89-.87,7.64-5.21,1.45-8.42,2.93-16.61,5.27-24.85,1.71-6.03,2.75-13.33,8.17-17.2,.84-.6,2.39-.39,3.04,.39,7.87,9.49,5.01,20.93,6.04,32.22,.56,6.11,3.15,11.77,4.18,17.79,1.02,5.94,.56,12.12,.39,18.11-1.37,46.91-.25,95.14,15.99,139.74,7.58,20.81,19.09,39.33,31.64,57.45,12.2,17.6,24.8,35.06,33.47,54.76,1.29,2.93-3.04,5.49-4.34,2.54-9.64-21.91-24.14-40.99-37.53-60.66-12.03-17.66-22.36-36.03-29.35-56.3-7.15-20.75-11.16-42.47-13.28-64.28-2.34-24.06-2.4-48.27-1.66-72.41,.19-6.22,.78-12.83-.44-18.97-.96-4.81-2.81-9.4-3.65-14.25-1.82-10.46,2.37-23.26-5.03-32.19l3.04,.39c-3.69,2.63-4.49,9.38-5.64,13.43-1.24,4.34-2.42,8.7-3.38,13.12-.96,4.41-1.23,8.98-2.23,13.36-.66,2.9-2.22,5.21-4.9,6.57-6.38,3.24-15.5,1.27-22.33,1.23-9.38-.05-19.02-.02-28.33,1.2-5.59,.74-9.24-1.21-11.14-6.64-2.41-6.9-3.06-14.61-4.7-21.72-.91-3.95-1.92-7.87-3.13-11.74-.6-1.93-1.25-3.84-1.96-5.74-.35-.95-.72-1.89-1.11-2.82-.11-.26-.23-.5-.48-.62-.26-.13-.57-.13-.85-.08-.36,.07-.53,.23-.68,.55s-.31,.66-.47,.98Z"/><path class="j" d="M909.56,3427.65c6.97,.34,12.35-2.06,12.43-9.83,.06-6.4-3.66-13.98-10.74-14.51-6.62-.5-13.44,4.9-14.13,11.53-.8,7.69,5.47,12.31,12.44,12.81,2.89,.21,2.88-4.29,0-4.5-4.32-.31-8.35-2.9-8.01-7.74,.3-4.33,5.61-8.32,9.87-7.53s5.9,5.56,6.04,9.27c.2,5.47-3.35,6.22-7.91,5.99-2.89-.14-2.89,4.36,0,4.5Z"/><path class="j" d="M963.24,3429.38c7.91-1.29,10.92-8.91,10.19-16.11-.31-3.1-1.16-5.73-4.23-7.02s-6.73-1.98-9.94-2.11c-7.13-.3-11.5,4.66-11.94,11.58-.57,8.92,6.92,13.84,15.32,13.73,2.89-.04,2.9-4.54,0-4.5-6.1,.08-11.5-3.19-10.74-9.7,.59-5.12,3.75-7.07,8.56-6.5,4.06,.48,7.91,1.28,8.59,5.9,.72,4.87-2.03,9.57-7.01,10.38-2.85,.47-1.64,4.8,1.2,4.34Z"/><path class="o" d="M905.06,3417.52c.01,.38,.07,.77,.25,1.1,.16,.28,.4,.5,.64,.72,.62,.57,1.26,1.14,2.04,1.45,.61,.25,1.28,.31,1.94,.38,1.24,.12,2.59,.22,3.61-.49,1.25-.87,1.51-2.61,1.47-4.13-.03-1.11-.2-2.31-.99-3.08-.84-.82-2.09-.92-3.19-1.05-.8-.09-1.66-.29-2.44,0-1.95,.74-3.41,3.04-3.33,5.09Z"/><path class="o" d="M959.85,3413.62c-.42,0-.86,.05-1.23,.23-.31,.15-.56,.39-.81,.62-.64,.61-1.3,1.23-1.66,2-.29,.61-.38,1.27-.46,1.93-.16,1.23-.3,2.59,.46,3.63,.94,1.28,2.86,1.58,4.56,1.58,1.23,0,2.57-.14,3.44-.91,.93-.82,1.07-2.06,1.23-3.16,.12-.8,.36-1.65,.05-2.44-.78-1.97-3.29-3.48-5.58-3.45Z"/><path class="j" d="M1167.7,3558.7c1.96-66.39,.32-132.82,3.18-199.19,1.32-30.74,.76-61.56-1.7-92.23-1.2-15.01-2-30.73-5.21-45.47-1.1-5.03-3.08-10.33-6.81-14.03s-8.53-4.7-13.41-5.4c-12.97-1.87-25.9-.87-38.89,.41-15.43,1.52-30.53,2.55-46.04,2.06-31.12-.98-62.18-2.11-93.32-1.98s-63.65,1.01-95.47,2.02c-15.1,.48-30.21,.98-45.31,1.47-11.88,.39-27.69-1.76-37.54,6.45-9.27,7.72-10.84,21.18-11.59,32.43-.97,14.53-1.18,29.15-1.67,43.7-1.05,31.58-1.85,63.17-2.2,94.76-.7,62.41,.3,124.87,4.5,187.16,1.01,15.03,2.21,30.04,3.62,45.04,1.15,12.29,1.1,27.23,8.42,37.81,7.96,11.5,21.85,10.35,34.25,10.49,15.26,.18,30.52,.32,45.78,.43,63.04,.45,126.08,.33,189.11-.35,15.93-.17,31.85-.38,47.77-.63,7.3-.11,14.6-.23,21.9-.36,6.73-.12,13.64,.02,19.95-2.64,10.79-4.54,16.17-15.83,18.72-26.64,2.91-12.32,2.42-24.83,2.26-37.38s-.23-25.28-.31-37.93c-.05-7.72-12.05-7.74-12,0,.08,12.64,.15,25.29,.31,37.93,.14,11.44,.82,22.96-1.83,34.19-1.15,4.86-2.75,9.9-5.78,13.95-3.94,5.25-9.48,6.21-15.71,6.41-14.47,.47-28.96,.5-43.43,.7-60.05,.83-120.1,1.15-180.15,.95-29.86-.1-59.72-.32-89.58-.67-5.26-.06-11.39,.66-16.42-1.26-5.73-2.19-7.55-8.64-8.72-14.06-2.91-13.45-3.23-27.79-4.34-41.48-4.82-59.23-6.57-118.68-6.53-178.09,.02-29.62,.48-59.24,1.24-88.86,.37-14.47,.81-28.95,1.3-43.42s.49-28.68,1.78-42.91c.93-10.31,3.21-21.71,15.25-22.95,14.21-1.46,28.85-1.02,43.13-1.49,29.82-.97,59.63-1.96,89.46-2.46s59.68-.53,89.5,.43c14.52,.47,29.03,1.27,43.56,1.49s29.17-1.8,43.75-3.04c10.55-.89,23.45-2.48,33.76,.94,4.21,1.4,5.31,6.06,6.17,9.99,1.62,7.43,2.16,15.25,2.96,22.8,3.12,29.26,4.5,58.72,4.16,88.14-.21,18.03-1.43,36.01-1.85,54.03-.39,16.55-.57,33.1-.74,49.65-.34,34.6-.42,69.2-.92,103.79-.07,5.09-.16,10.19-.31,15.28-.23,7.72,11.77,7.72,12,0h0Z"/><path class="j" d="M933.42,3441.91c.22,1.6,1.3,2.87,2.65,3.7,1.58,.97,2.78,.87,4.22-.26,.76-.6-.31-1.65-1.06-1.06-1.82,1.43-4.1-.94-4.36-2.78-.13-.95-1.58-.55-1.45,.4h0Z"/><path class="j" d="M933.36,3441.72c-.09,.99,.81,1.86-.1,2.68s-2.44,.67-3.09-.4c-.5-.82-1.8-.07-1.3,.76,.95,1.55,2.84,2.09,4.48,1.32,.72-.34,1.38-.89,1.69-1.64,.16-.4,.23-.8,.16-1.23-.08-.52-.4-.95-.35-1.49,.09-.96-1.41-.95-1.5,0h0Z"/><path class="j" d="M931.11,3438.38c.78-.09,1.57-.19,2.35-.2,.6,0,1.1,0,1.44,.15l1.51-5.59c-1.92-.14-4.4-.75-6.17,.22-2.28,1.25-2.53,4.27-.65,5.97,1.28,1.15,3.01,2.44,4.79,2.39,2.7-.08,3.25-2.67,3.84-4.75,1.05-3.72-4.74-5.31-5.79-1.6l-.34,1.19c-.07,.26-.56,1.23-.12,.52l1.08-1.08-.19,.12,1.51-.41c.86,.36,1.05,.4,.58,.14-.2-.13-.39-.27-.59-.4s-.39-.27-.58-.41c-.42-.33-.39-.27,.1,.18l.41,1.51-.03,.34-.77,1.32c-1.19,.3-1.5,.45-.94,.46,.19,0,.38,.02,.57,.04,.34,.02,.68,.05,1.02,.08l2.25,.17c1.3,.1,2.56-1,2.89-2.2s-.18-2.86-1.38-3.39c-2.24-.99-4.42-1.06-6.82-.77-1.61,.19-3,1.24-3,3,0,1.47,1.38,3.2,3,3h0Z"/><path class="j" d="M933.19,3439.96c-.07,.61-.05,1.2,.03,1.8,.09,.72,.47,1.71,.22,2.39-.55,1.48-2.99,.63-3.79-.14-.69-.67-1.76,.39-1.06,1.06,1.37,1.32,3.62,1.85,5.32,.81,2.05-1.25,.57-4.05,.79-5.93,.11-.96-1.39-.95-1.5,0h0Z"/><path class="j" d="M937.19,3435.58c.51,1.65-1.53,3.21-2.71,3.96-.81,.52-.06,1.82,.76,1.3,1.78-1.13,4.14-3.27,3.4-5.65-.29-.92-1.73-.53-1.45,.4h0Z"/><path class="j" d="M933.46,3440.02c-.05,.99-.06,1.96,.09,2.95,.06,.4,.57,.62,.92,.52,.43-.11,.58-.52,.52-.92-.12-.84-.08-1.7-.04-2.55,.05-.96-1.45-.96-1.5,0h0Z"/><g class="t"><path class="n" d="M824.84,3282.88c.29,2.65,.81,5.22,1.68,7.75,.93,2.73,5.28,1.56,4.34-1.2-.73-2.13-1.27-4.32-1.52-6.55-.13-1.21-.94-2.25-2.25-2.25-1.11,0-2.38,1.03-2.25,2.25h0Z"/></g><g><path class="j" d="M676.17,3699.83l-.58-189.28c-.19-62.37-.98-124.77-.4-187.14,.55-59.19,1.95-118.38,.81-177.59-.31-15.89-.27-31.74,.09-47.63,.17-7.29,.35-14.57,.45-21.86s-.2-15.27,1.67-22.61c7.48-29.29,47.07-25.4,70.1-25.65,31.02-.34,62.05-.45,93.08-.34,31.52,.11,63.11,1.27,94.63,.54s61.1-1.96,91.74-1.52c30.86,.44,61.71,1.33,92.57,1.58,31.45,.25,62.92-.15,94.3-2.36,5.8-.41,11.15-.06,16.89,.92,5.29,.91,10.61,1.6,15.34,4.31,9.54,5.47,14.55,16.44,17.29,26.64,3.87,14.4,3.2,29.58,2.92,44.34s-.75,30.26-1.2,45.39c-.93,31.26-1.81,62.55-.92,93.83,.77,26.74,3.22,53.2,2.42,79.98-.43,14.48-1.49,28.92-2.17,43.39-.67,14.37-.12,28.6,.25,42.97,.74,29.45-.44,58.86,.79,88.3,1.3,31.28,2.39,62.63,1.54,93.94-.4,14.65-1.99,29.21-2.53,43.84-.29,7.72,11.72,7.71,12,0,.59-15.96,2.29-31.83,2.62-47.81,.33-15.86,.09-31.72-.21-47.58-.57-30.75-2.42-61.39-2.02-92.16,.39-30.01-1.64-59.94-.02-89.93,1.43-26.52,2.98-53.07,1.17-79.62-2.18-31.84-2.52-63.65-1.83-95.55,.67-31.32,2.41-62.66,2.28-93.99-.09-23.38-4.09-54.78-27.46-66.96-4.97-2.59-10.16-3.7-15.63-4.65-5.79-1.01-11.7-2.13-17.6-1.89-15.71,.65-31.38,1.9-47.11,2.29-63.6,1.61-127.2-2.93-190.78-1.22-16.17,.44-32.34,1.29-48.52,1.58-15.72,.28-31.46-.16-47.18-.32-31.69-.32-63.37-.41-95.06-.27-16.5,.07-33.01,.21-49.51,.41-14.69,.18-30.19-.4-44.24,4.55-11.13,3.92-21.52,11.17-26.7,22.07-6.06,12.76-4.77,27.76-5.05,41.49-.66,32.45-.15,64.8,.03,97.25,.17,31.48,.77,63.17-.59,94.62-1.28,29.42-.78,58.98-.69,88.44,.1,31.85,.2,63.69,.29,95.54,.2,63.96,.39,127.93,.59,191.89l.15,47.82c.02,7.72,12.02,7.74,12,0h0Z"/><path class="j" d="M710.34,3769.92c-.48-15.2,.7-30.38-.38-45.54-.52-7.32-1.12-14.69-.54-22.03s1.87-14.96,1.15-22.65-1.54-14.27-.85-21.66,.9-15.18,.84-22.82c-.11-15.52-1.05-31.05-.63-46.57,.19-7.12,.85-14.24,.71-21.37-.15-8.14-1.21-16.23-1.36-24.37-.26-14.32,1.73-28.36,.58-42.71-2.13-26.63,2.91-53.05,.89-79.66-1.42-18.64-.39-36.87,.74-55.51,.35-5.8-.59-11.35-.99-17.11-.47-6.92,.06-13.8,.56-20.69,.88-12.26,.05-24.85,.1-37.15,.06-14.57,2.05-29,1.77-43.58-.3-15.43-1.98-30.79-2.61-46.2s.76-30.87,1.4-46.36c.28-6.65,.21-13.2-.34-19.82-.6-7.13-1.6-14.72,.75-21.65s6.04-9.15,12.99-9.76c8.47-.74,17.03-.91,25.53-1.22,15.29-.54,30.59-.8,45.88-1.04,31.98-.5,63.96-.86,95.95-1.13,63.07-.52,126.14-.66,189.2-.8,31.26-.07,62.55-.21,93.78,1.43,7.16,.38,14.32,.84,21.47,1.43s16.07,.17,21.74,4.95c8.27,6.98,7.57,21.11,7.79,30.82,1.44,62.73,1.72,125.48,.81,188.22-.36,25.28,.73,50.48,1.1,75.75,.17,11.35-.07,22.7-.07,34.05,0,12.85,.54,25.72,0,38.57-.28,6.64-1.09,13.21-1.65,19.83-.53,6.26-.14,12.57,.07,18.84,.37,10.67-.55,21.23-1.12,31.88-.62,11.75-.18,23.43-.23,35.19-.06,13.58-.56,27.15-.4,40.73,.17,14.68-.35,29.43,.2,44.09,.29,7.7,12.3,7.74,12,0-.6-15.84-.16-31.82-.23-47.68-.06-13.54,.46-27.08,.44-40.62-.02-12.03-.24-23.9,.46-35.91,.63-10.92,1.06-21.61,.7-32.56-.44-13.37,1.7-26.53,1.94-39.89s-.23-25.79-.15-38.68c.15-24.95-.7-49.83-1.16-74.77-.55-29.82,.55-59.69,.62-89.51,.07-31.88-.16-63.77-.69-95.65-.25-15.05,.34-30.47-1.31-45.45-1.18-10.72-4.38-21.99-13.88-28.27-5.71-3.78-12.53-4.6-19.18-5.25-8.44-.83-16.9-1.41-25.36-1.9-15.63-.9-31.28-1.32-46.94-1.52-64.64-.82-129.33,0-193.97,.36-64.56,.37-129.27,.1-193.79,2.71-13.22,.54-31.36-1.62-39.9,10.79-8.03,11.67-5.77,25.47-4.99,38.68,.94,15.85-1.49,31.77-1.68,47.62-.19,15.44,1.39,30.83,2.28,46.23,.45,7.68,.73,15.37,.54,23.06s-1.29,15.42-1.6,23.16c-.5,12.77-.29,25.59,0,38.36,.15,6.95-.77,13.83-.95,20.76s.74,13.13,1.16,19.78c.65,10.26-.99,20.96-1.36,31.24-.8,22.41,2.12,44.57,.22,66.98-1.07,12.62-1.84,25.55-.97,38.2,.51,7.47,1.28,14.87,1.03,22.37s-1.11,14.8-1.19,22.22,.63,14.87,1.11,22.29c.54,8.44-.09,16.8-.38,25.24-.53,15.52,.41,31.04,.56,46.55,.08,7.71,.04,15.39-.66,23.07s-.07,15.38,.68,23.35c.66,7.06-.29,13.75-.97,20.76-.78,7.98-.2,15.95,.37,23.93,1.07,15.15-.11,30.34,.38,45.54,.25,7.7,12.25,7.74,12,0h0Z"/><path class="j" d="M1032.09,3065.94q-29.87,0-59.74-.01c-29.87,0-29.87-1.63-59.74-1.63-2.42,0-4.35-.75-4.35-3.17h0c0-2.42,1.92-5.38,4.35-5.38,29.87,0,29.87,1.26,59.74,1.26s29.87-.85,59.74-.85c2.42,0,4.48,2.54,4.48,4.96h0c0,2.42-2.06,4.81-4.48,4.81Z"/></g><path class="j" d="M822.99,3705c0-2.04-.43-3.95-.94-5.85-.52-1.95-.6-4.11-1.59-5.83-1-1.74-2.72-3-4.15-4.4-1.42-1.4-2.75-3.03-4.5-4-1.73-.96-3.75-1.46-5.71-1.95-1.91-.48-3.92-.58-5.95-.58s-4.01,.13-5.87,.65c-1.92,.54-3.67,1.47-5.36,2.48-1.69,1.01-3.52,1.94-4.92,3.34-1.4,1.4-2.38,3.23-3.47,4.91-1.08,1.67-1.85,3.49-2.46,5.4-.59,1.87-1.02,3.78-1.02,5.83s-.09,4.13,.45,6.04c.55,1.95,1.89,3.59,2.9,5.31,1.03,1.75,2.35,3.17,3.77,4.57,1.41,1.4,2.66,3.02,4.42,4.01,1.73,.97,3.55,2.01,5.51,2.52,1.91,.5,4.01,.49,6.04,.49s4.12-.04,6.01-.58c1.93-.55,3.58-1.86,5.29-2.88,1.72-1.02,3.09-2.42,4.51-3.81,1.42-1.39,2.63-2.85,3.66-4.55,1.02-1.69,2.48-3.22,3.03-5.15,.53-1.87,.35-3.93,.35-5.97Zm-14.8,1.04c-1.47,2.16-2.94,4.31-4.46,6.43-.75,1.04-1.51,2.08-2.31,3.09-.56,.71-1.1,1.56-2.1,1.41-.59-.09-1.05-.51-1.35-1.04-.33-.6-.8-1.11-1.22-1.65-.99-1.26-1.97-2.52-2.96-3.78-2.15-2.73-3.88-5.64-4.19-9.26-.09-1.09,.02-2.22,.46-3.22,.58-1.31,2.29-2.29,3.62-2.4,1.04-.09,2.13,.29,2.85,1.09,.33,.36,.58,.79,.82,1.22,.26,.46,.52,.91,.78,1.37,.17,.3,.34,.6,.6,.83,1.1,.98,1.51-.65,1.98-1.37,.7-1.09,1.62-2.01,2.76-2.57,2.56-1.27,6.19-.08,6.98,2.79,.68,2.48-.82,4.97-2.25,7.07Z"/><path class="g" d="M885.02,3720.24c-.11-1.29-.16-3.61,.55-4.81,1.64-2.77,3.26-5.77,3.26-9,0-2.91-1.17-5.62-2.49-8.11-1.31-2.45-3.22-4.55-5.44-6.39-2.12-1.76-4.51-3.19-7.24-4.1-2.56-.85-5.32-1.68-8.26-1.68s-5.72,.96-8.37,1.72c-2.83,.81-5.21,2.17-7.36,3.92-2.26,1.84-4.5,3.73-5.81,6.27-1.32,2.58-2.37,5.46-2.37,8.37s1.07,5.76,2.43,8.3c1.33,2.49,3.08,4.97,5.34,6.8,2.15,1.74,4.98,2.62,7.78,3.5,2.62,.83,5.41,.99,8.35,.99,2.31,0,4.47-.23,6.61-.74,1.8-.43,3.67-.61,5.33-1.19,.7-.25,1.45-.3,2.18-.14,.88,.2,1.76,.39,2.63,.61,1.05,.26,4.82,3.34,5.89,3.42,.19,.01,.29-.12,.21-.3-.73-1.62-3.09-5.81-3.23-7.43Z"/></g><g><path class="j" d="M661.99,2884.96l13.1-29.4h6.72l13.15,29.4h-7.14l-10.75-25.96h2.69l-10.79,25.96h-6.97Zm6.55-6.3l1.81-5.17h15.12l1.85,5.17h-18.77Z"/><path class="j" d="M711.3,2862.03c1.79,0,3.39,.36,4.81,1.07,1.41,.71,2.53,1.81,3.34,3.28,.81,1.47,1.22,3.35,1.22,5.65v12.94h-6.55v-11.93c0-1.82-.4-3.16-1.2-4.03-.8-.87-1.93-1.3-3.38-1.3-1.04,0-1.97,.22-2.79,.65-.83,.43-1.47,1.1-1.93,1.99-.46,.9-.69,2.04-.69,3.44v11.17h-6.55v-22.6h6.26v6.26l-1.18-1.89c.81-1.51,1.97-2.67,3.49-3.49,1.51-.81,3.23-1.22,5.17-1.22Z"/><path class="j" d="M736.46,2885.3c-2.13,0-4.05-.48-5.75-1.45-1.71-.97-3.06-2.32-4.05-4.05-.99-1.74-1.49-3.78-1.49-6.13s.5-4.44,1.49-6.17,2.34-3.08,4.05-4.03c1.71-.95,3.62-1.43,5.75-1.43,1.9,0,3.57,.42,5,1.26,1.43,.84,2.53,2.11,3.32,3.82s1.18,3.89,1.18,6.55-.38,4.81-1.13,6.53c-.76,1.72-1.84,3-3.25,3.84s-3.12,1.26-5.1,1.26Zm1.13-5.38c1.06,0,2.03-.25,2.9-.76s1.56-1.22,2.08-2.16c.52-.94,.78-2.05,.78-3.34s-.26-2.44-.78-3.36c-.52-.92-1.21-1.64-2.08-2.14s-1.83-.76-2.9-.76-2.07,.25-2.94,.76-1.56,1.22-2.08,2.14c-.52,.92-.78,2.04-.78,3.36s.26,2.4,.78,3.34c.52,.94,1.21,1.66,2.08,2.16s1.85,.76,2.94,.76Zm5.92,5.04v-4.62l.13-6.72-.42-6.68v-13.15h6.55v31.16h-6.26Z"/><path class="j" d="M775.31,2885.3c-1.93,0-3.79-.23-5.56-.69-1.78-.46-3.19-1.04-4.22-1.74l2.18-4.7c1.04,.64,2.26,1.17,3.67,1.58,1.41,.41,2.81,.61,4.18,.61,1.51,0,2.58-.18,3.21-.55,.63-.36,.95-.87,.95-1.51,0-.53-.25-.93-.74-1.2-.49-.27-1.14-.47-1.95-.61-.81-.14-1.7-.28-2.67-.42-.97-.14-1.94-.33-2.92-.57-.98-.24-1.88-.59-2.69-1.07-.81-.48-1.46-1.12-1.95-1.93-.49-.81-.73-1.86-.73-3.15,0-1.43,.41-2.69,1.24-3.78,.83-1.09,2.02-1.95,3.59-2.58,1.57-.63,3.44-.95,5.63-.95,1.54,0,3.11,.17,4.7,.5,1.6,.34,2.93,.83,3.99,1.47l-2.18,4.66c-1.09-.64-2.19-1.08-3.3-1.32-1.11-.24-2.18-.36-3.21-.36-1.46,0-2.52,.2-3.19,.59-.67,.39-1.01,.9-1.01,1.51,0,.56,.24,.98,.73,1.26,.49,.28,1.14,.5,1.95,.67,.81,.17,1.7,.31,2.67,.44s1.94,.32,2.92,.57,1.87,.61,2.67,1.07,1.45,1.09,1.95,1.89c.5,.8,.76,1.84,.76,3.13,0,1.4-.42,2.64-1.26,3.72s-2.05,1.93-3.63,2.54c-1.58,.62-3.51,.92-5.78,.92Z"/><path class="j" d="M787.32,2867.91v-5.04h15.67v5.04h-15.67Zm11.93,17.39c-2.66,0-4.73-.68-6.22-2.04-1.48-1.36-2.23-3.38-2.23-6.07v-19.82h6.55v19.74c0,.95,.25,1.69,.76,2.2,.5,.52,1.19,.78,2.06,.78,1.04,0,1.92-.28,2.65-.84l1.76,4.62c-.67,.48-1.48,.83-2.42,1.07-.94,.24-1.91,.36-2.92,.36Z"/><path class="j" d="M815.25,2885.3c-1.76,0-3.28-.3-4.54-.9-1.26-.6-2.23-1.42-2.9-2.46-.67-1.04-1.01-2.2-1.01-3.49s.33-2.52,.99-3.53c.66-1.01,1.7-1.8,3.13-2.37,1.43-.57,3.29-.86,5.59-.86h6.01v3.82h-5.29c-1.54,0-2.6,.25-3.17,.76-.57,.5-.86,1.13-.86,1.89,0,.84,.33,1.5,.99,2,.66,.49,1.56,.73,2.71,.73s2.07-.26,2.94-.78c.87-.52,1.5-1.28,1.89-2.29l1.01,3.02c-.48,1.46-1.34,2.56-2.6,3.32-1.26,.76-2.88,1.13-4.87,1.13Zm6.89-.34v-4.41l-.42-.97v-7.9c0-1.4-.43-2.49-1.28-3.28-.85-.78-2.16-1.18-3.93-1.18-1.2,0-2.39,.19-3.55,.57-1.16,.38-2.15,.89-2.96,1.53l-2.35-4.58c1.23-.87,2.72-1.54,4.45-2.02,1.74-.48,3.5-.71,5.29-.71,3.44,0,6.12,.81,8.02,2.44,1.9,1.62,2.86,4.16,2.86,7.6v12.89h-6.13Z"/><path class="j" d="M836.63,2893.44c-1.18,0-2.34-.18-3.49-.55-1.15-.36-2.09-.87-2.81-1.51l2.39-4.66c.5,.45,1.08,.8,1.74,1.05,.66,.25,1.31,.38,1.95,.38,.92,0,1.66-.22,2.21-.65,.55-.43,1.04-1.16,1.49-2.16l1.18-2.77,.5-.71,8.11-19.49h6.3l-10.21,23.98c-.73,1.82-1.56,3.25-2.5,4.28-.94,1.04-1.97,1.76-3.11,2.18-1.13,.42-2.39,.63-3.76,.63Zm3.86-7.6l-10.08-23.48h6.76l7.81,18.9-4.49,4.58Z"/><path class="j" d="M862.16,2859.21c-1.2,0-2.18-.35-2.94-1.05-.76-.7-1.13-1.57-1.13-2.6s.38-1.9,1.13-2.6c.76-.7,1.74-1.05,2.94-1.05s2.18,.33,2.94,.99c.76,.66,1.13,1.5,1.13,2.54,0,1.09-.37,2-1.11,2.71-.74,.71-1.73,1.07-2.96,1.07Zm-3.28,25.75v-22.6h6.55v22.6h-6.55Z"/><path class="j" d="M885.26,2862.03c1.79,0,3.39,.36,4.81,1.07,1.41,.71,2.53,1.81,3.34,3.28,.81,1.47,1.22,3.35,1.22,5.65v12.94h-6.55v-11.93c0-1.82-.4-3.16-1.2-4.03-.8-.87-1.93-1.3-3.38-1.3-1.04,0-1.97,.22-2.79,.65-.83,.43-1.47,1.1-1.93,1.99-.46,.9-.69,2.04-.69,3.44v11.17h-6.55v-22.6h6.26v6.26l-1.18-1.89c.81-1.51,1.97-2.67,3.49-3.49,1.51-.81,3.23-1.22,5.17-1.22Z"/><path class="j" d="M910.34,2883.87c-2.1,0-4-.46-5.69-1.37-1.69-.91-3.05-2.18-4.07-3.82-1.02-1.64-1.53-3.55-1.53-5.73s.51-4.14,1.53-5.78c1.02-1.64,2.38-2.9,4.07-3.8,1.69-.9,3.59-1.34,5.69-1.34,1.9,0,3.58,.38,5.04,1.16s2.59,1.96,3.4,3.57c.81,1.61,1.22,3.67,1.22,6.2s-.41,4.54-1.22,6.15c-.81,1.61-1.95,2.81-3.4,3.59s-3.14,1.18-5.04,1.18Zm1.01,9.58c-2.13,0-4.18-.26-6.15-.78-1.97-.52-3.62-1.3-4.94-2.33l2.6-4.7c.95,.78,2.16,1.41,3.63,1.87s2.92,.69,4.35,.69c2.32,0,4.01-.52,5.06-1.55s1.58-2.58,1.58-4.62v-3.4l.42-5.67-.08-5.71v-4.87h6.22v18.82c0,4.2-1.09,7.29-3.28,9.28-2.18,1.99-5.32,2.98-9.41,2.98Zm.29-14.95c1.15,0,2.17-.23,3.07-.69s1.6-1.11,2.1-1.95,.76-1.81,.76-2.9-.25-2.09-.76-2.92c-.5-.83-1.2-1.47-2.1-1.93-.9-.46-1.92-.69-3.07-.69s-2.17,.23-3.07,.69c-.9,.46-1.6,1.11-2.12,1.93-.52,.83-.78,1.8-.78,2.92s.26,2.06,.78,2.9c.52,.84,1.22,1.49,2.12,1.95,.9,.46,1.92,.69,3.07,.69Z"/><path class="j" d="M952.76,2885.3c-2.41,0-4.54-.5-6.41-1.51-1.86-1.01-3.33-2.39-4.41-4.14-1.08-1.75-1.62-3.74-1.62-5.98s.54-4.28,1.62-6.03c1.08-1.75,2.55-3.12,4.41-4.12,1.86-.99,4-1.49,6.41-1.49s4.51,.5,6.38,1.49c1.88,.99,3.35,2.36,4.41,4.09,1.06,1.74,1.6,3.75,1.6,6.05s-.53,4.24-1.6,5.98c-1.06,1.75-2.54,3.13-4.41,4.14-1.88,1.01-4,1.51-6.38,1.51Zm0-5.38c1.09,0,2.07-.25,2.94-.76s1.55-1.22,2.06-2.16c.5-.94,.76-2.05,.76-3.34s-.25-2.44-.76-3.36c-.5-.92-1.19-1.64-2.06-2.14s-1.85-.76-2.94-.76-2.07,.25-2.94,.76c-.87,.5-1.56,1.22-2.08,2.14-.52,.92-.78,2.04-.78,3.36s.26,2.4,.78,3.34c.52,.94,1.21,1.66,2.08,2.16,.87,.5,1.85,.76,2.94,.76Z"/><path class="j" d="M983.25,2862.03c1.79,0,3.39,.36,4.81,1.07,1.41,.71,2.53,1.81,3.34,3.28,.81,1.47,1.22,3.35,1.22,5.65v12.94h-6.55v-11.93c0-1.82-.4-3.16-1.2-4.03-.8-.87-1.93-1.3-3.38-1.3-1.04,0-1.97,.22-2.79,.65-.83,.43-1.47,1.1-1.93,1.99-.46,.9-.69,2.04-.69,3.44v11.17h-6.55v-22.6h6.26v6.26l-1.18-1.89c.81-1.51,1.97-2.67,3.49-3.49,1.51-.81,3.23-1.22,5.17-1.22Z"/><path class="j" d="M1024.15,2862.03c1.79,0,3.39,.36,4.81,1.07,1.41,.71,2.53,1.81,3.34,3.28,.81,1.47,1.22,3.35,1.22,5.65v12.94h-6.55v-11.93c0-1.82-.4-3.16-1.2-4.03-.8-.87-1.93-1.3-3.38-1.3-1.04,0-1.97,.22-2.79,.65-.83,.43-1.47,1.1-1.93,1.99-.46,.9-.69,2.04-.69,3.44v11.17h-6.55v-31.16h6.55v14.83l-1.47-1.89c.81-1.51,1.97-2.67,3.49-3.49,1.51-.81,3.23-1.22,5.17-1.22Z"/><path class="j" d="M1042.72,2859.21c-1.2,0-2.18-.35-2.94-1.05-.76-.7-1.13-1.57-1.13-2.6s.38-1.9,1.13-2.6c.76-.7,1.74-1.05,2.94-1.05s2.18,.33,2.94,.99,1.13,1.5,1.13,2.54c0,1.09-.37,2-1.11,2.71s-1.73,1.07-2.96,1.07Zm-3.28,25.75v-22.6h6.55v22.6h-6.55Z"/><path class="j" d="M1059.69,2885.3c-1.93,0-3.79-.23-5.57-.69-1.78-.46-3.18-1.04-4.22-1.74l2.18-4.7c1.04,.64,2.26,1.17,3.67,1.58,1.41,.41,2.81,.61,4.18,.61,1.51,0,2.58-.18,3.21-.55,.63-.36,.95-.87,.95-1.51,0-.53-.25-.93-.74-1.2-.49-.27-1.14-.47-1.95-.61-.81-.14-1.7-.28-2.67-.42-.97-.14-1.94-.33-2.92-.57s-1.88-.59-2.69-1.07c-.81-.48-1.46-1.12-1.95-1.93-.49-.81-.74-1.86-.74-3.15,0-1.43,.41-2.69,1.24-3.78,.83-1.09,2.02-1.95,3.59-2.58,1.57-.63,3.44-.95,5.63-.95,1.54,0,3.11,.17,4.7,.5s2.93,.83,3.99,1.47l-2.18,4.66c-1.09-.64-2.19-1.08-3.3-1.32-1.11-.24-2.18-.36-3.21-.36-1.46,0-2.52,.2-3.19,.59-.67,.39-1.01,.9-1.01,1.51,0,.56,.25,.98,.74,1.26,.49,.28,1.14,.5,1.95,.67,.81,.17,1.7,.31,2.67,.44s1.94,.32,2.92,.57c.98,.25,1.87,.61,2.67,1.07s1.45,1.09,1.95,1.89c.5,.8,.76,1.84,.76,3.13,0,1.4-.42,2.64-1.26,3.72s-2.05,1.93-3.63,2.54c-1.58,.62-3.51,.92-5.78,.92Z"/><path class="j" d="M1086.27,2893.11v-30.74h6.26v4.62l-.13,6.72,.42,6.68v12.73h-6.55Zm13.36-7.81c-1.9,0-3.57-.42-5-1.26s-2.54-2.12-3.34-3.84c-.8-1.72-1.2-3.9-1.2-6.53s.38-4.84,1.13-6.55c.76-1.71,1.85-2.98,3.28-3.82s3.14-1.26,5.12-1.26c2.13,0,4.04,.48,5.73,1.45,1.69,.97,3.04,2.32,4.03,4.05s1.49,3.78,1.49,6.13-.5,4.44-1.49,6.17c-.99,1.74-2.34,3.08-4.03,4.03-1.69,.95-3.61,1.43-5.73,1.43Zm-1.13-5.38c1.09,0,2.06-.25,2.92-.76,.85-.5,1.54-1.22,2.06-2.16,.52-.94,.78-2.05,.78-3.34s-.26-2.44-.78-3.36c-.52-.92-1.2-1.64-2.06-2.14-.85-.5-1.83-.76-2.92-.76s-2.07,.25-2.94,.76-1.55,1.22-2.06,2.14c-.5,.92-.76,2.04-.76,3.36s.25,2.4,.76,3.34c.5,.94,1.19,1.66,2.06,2.16s1.85,.76,2.94,.76Z"/><path class="j" d="M1128.98,2862.03c1.79,0,3.39,.36,4.81,1.07,1.41,.71,2.53,1.81,3.34,3.28,.81,1.47,1.22,3.35,1.22,5.65v12.94h-6.55v-11.93c0-1.82-.4-3.16-1.2-4.03-.8-.87-1.93-1.3-3.38-1.3-1.04,0-1.97,.22-2.79,.65-.83,.43-1.47,1.1-1.93,1.99-.46,.9-.69,2.04-.69,3.44v11.17h-6.55v-31.16h6.55v14.83l-1.47-1.89c.81-1.51,1.97-2.67,3.49-3.49,1.51-.81,3.23-1.22,5.17-1.22Z"/><path class="j" d="M1155.19,2885.3c-2.41,0-4.54-.5-6.41-1.51-1.86-1.01-3.33-2.39-4.41-4.14-1.08-1.75-1.62-3.74-1.62-5.98s.54-4.28,1.62-6.03c1.08-1.75,2.55-3.12,4.41-4.12,1.86-.99,4-1.49,6.41-1.49s4.51,.5,6.38,1.49c1.88,.99,3.35,2.36,4.41,4.09,1.06,1.74,1.6,3.75,1.6,6.05s-.53,4.24-1.6,5.98c-1.06,1.75-2.54,3.13-4.41,4.14-1.88,1.01-4,1.51-6.38,1.51Zm0-5.38c1.09,0,2.07-.25,2.94-.76s1.55-1.22,2.06-2.16c.5-.94,.76-2.05,.76-3.34s-.25-2.44-.76-3.36c-.5-.92-1.19-1.64-2.06-2.14s-1.85-.76-2.94-.76-2.07,.25-2.94,.76c-.87,.5-1.56,1.22-2.08,2.14-.52,.92-.78,2.04-.78,3.36s.26,2.4,.78,3.34c.52,.94,1.21,1.66,2.08,2.16,.87,.5,1.85,.76,2.94,.76Z"/><path class="j" d="M1185.68,2862.03c1.79,0,3.39,.36,4.81,1.07,1.41,.71,2.53,1.81,3.34,3.28,.81,1.47,1.22,3.35,1.22,5.65v12.94h-6.55v-11.93c0-1.82-.4-3.16-1.2-4.03-.8-.87-1.93-1.3-3.38-1.3-1.04,0-1.97,.22-2.79,.65-.83,.43-1.47,1.1-1.93,1.99-.46,.9-.69,2.04-.69,3.44v11.17h-6.55v-22.6h6.26v6.26l-1.18-1.89c.81-1.51,1.97-2.67,3.49-3.49,1.51-.81,3.23-1.22,5.17-1.22Z"/><path class="j" d="M1212.35,2885.3c-2.58,0-4.84-.5-6.78-1.51-1.95-1.01-3.45-2.39-4.51-4.14-1.06-1.75-1.6-3.74-1.6-5.98s.53-4.28,1.58-6.03c1.05-1.75,2.48-3.12,4.3-4.12s3.88-1.49,6.17-1.49,4.21,.47,5.98,1.41,3.18,2.28,4.22,4.03c1.04,1.75,1.55,3.84,1.55,6.28,0,.25-.01,.54-.04,.86-.03,.32-.06,.62-.08,.9h-18.35v-3.82h14.91l-2.52,1.13c0-1.18-.24-2.2-.71-3.07-.48-.87-1.13-1.55-1.97-2.04-.84-.49-1.82-.73-2.94-.73s-2.11,.25-2.96,.73c-.85,.49-1.52,1.18-1.99,2.06-.48,.88-.71,1.93-.71,3.13v1.01c0,1.23,.27,2.32,.82,3.25,.55,.94,1.32,1.65,2.31,2.14,.99,.49,2.16,.74,3.51,.74,1.2,0,2.26-.18,3.17-.55,.91-.36,1.74-.91,2.5-1.64l3.49,3.78c-1.04,1.18-2.34,2.08-3.91,2.71-1.57,.63-3.38,.95-5.42,.95Z"/><path class="j" d="M1230.12,2885.3c-1.12,0-2.08-.38-2.88-1.16-.8-.77-1.2-1.76-1.2-2.96s.4-2.18,1.2-2.92c.8-.74,1.76-1.11,2.88-1.11s2.11,.37,2.9,1.11c.78,.74,1.18,1.72,1.18,2.92s-.39,2.19-1.18,2.96c-.78,.77-1.75,1.16-2.9,1.16Z"/><path class="j" d="M1241.12,2885.3c-1.12,0-2.08-.38-2.88-1.16-.8-.77-1.2-1.76-1.2-2.96s.4-2.18,1.2-2.92c.8-.74,1.76-1.11,2.88-1.11s2.11,.37,2.9,1.11c.78,.74,1.18,1.72,1.18,2.92s-.39,2.19-1.18,2.96c-.78,.77-1.75,1.16-2.9,1.16Z"/><path class="j" d="M1252.13,2885.3c-1.12,0-2.08-.38-2.88-1.16-.8-.77-1.2-1.76-1.2-2.96s.4-2.18,1.2-2.92c.8-.74,1.76-1.11,2.88-1.11s2.11,.37,2.9,1.11c.78,.74,1.18,1.72,1.18,2.92s-.39,2.19-1.18,2.96c-.78,.77-1.75,1.16-2.9,1.16Z"/></g></g><g id="e"><path class="s" d="M1774.17,12.36c-24.78,1.52-49.54,3.89-72.61,14.47-18.56,8.51-34.66,21.54-49.09,36.56-30.27,31.51-55.79,67.02-88.29,96.22-75.37,67.73-154.16,132.57-242.12,180.38-43.97,23.9-90.1,43.43-137.82,56.76-50.9,14.21-103.41,20.43-155.88,22.37-112.27,4.15-224.1-10.9-336.16-15.38-89.73-3.59-178.28,1.24-265.46,25.36-77.12,21.33-151.76,53.75-220.91,96.24C127.86,573.25,53.18,637.14,0,716.04V3238.4c27.16,31.47,53.94,63.29,73.16,101.3,70.5,139.39,21.1,312.84,14.77,473.32-2.56,64.89,5.75,137.89,50.33,178.76,37.25,34.15,89.51,36.17,137.35,32.85,77.93-5.4,155.32-20.78,230.23-45.75,127.82-42.61,272-111.24,385.53-32.25,33.41,23.25,60.01,57.5,93.51,80.58,99.41,68.5,226.82,22.94,336.27-21.82,109.45-44.76,240.18-84.36,334.78-7.61,96.18,78.03,103.39,233.25,109.96,367.03,6.57,133.78,39.03,293.15,150.78,337.15,1.1,.43,2.22,.85,3.33,1.26V22.12c-47.7-9.16-96.34-12.8-145.83-9.76Z"/></g></g></svg>