<svg xmlns="http://www.w3.org/2000/svg" viewBox="0 0 1858.41 762.86"><defs><style>.cls-1{fill:#98c1d9;}</style></defs><g id="Layer_2" data-name="Layer 2"><g id="full"><path class="cls-1" d="M40.87,678.19l-10.78,3.24c10.22,7.73,25.85,7.2,35.52-1.21,5-15.49-15.94-28.27-16.3-44.55a19.19,19.19,0,0,1,14.6-18.57c8.2-1.8,16.44,2,24.66,3.79s18.82.07,21.67-7.83c2.08-5.76-1-11.94-3.7-17.44-4-8.11-7.23-17.16-5.49-26s10.26-16.89,19.1-15.07c6.32,1.31,10.92,7,17.1,8.87,10.17,3.09,21.64-7.77,19.1-18.09-.9-3.67-3.13-6.85-4.53-10.36-4.43-11.14-.07-23.63,4.27-34.8l16.86.58a8.74,8.74,0,0,1,4.83,1.12,6.39,6.39,0,0,1,2.27,5.26c0,5-3.24,9.43-4.73,14.24s.09,11.6,5.09,12.18c3,.35,5.72-1.83,7.86-4,4.32-4.42,8.75-9.81,14.91-10.23,2.69-.19,5.43.64,8.07.08,7.51-1.6,8.35-12.43,4.95-19.32s-9.31-13.06-9.42-20.74c-.15-10.06,11.26-17.8,21.09-15.66s16.78,12,17.66,22c.53,6-.71,12.06.55,17.9s6.49,11.65,12.34,10.42c-3.9-7.68,5.15-17,13.71-16.06s14.92,8.59,18.3,16.51,4.71,16.64,8.43,24.41c7.67,16,24.51,26.29,31.52,42.59.8,1.85,1.52,3.84,3.06,5.13,2.71,2.27,6.75,1.5,10.17.61,10.57-2.75,23-7.31,25.31-18,1.18-5.4-.7-10.93-1.87-16.33a63.94,63.94,0,0,1,1.54-32.6c7.21-11.54,30,4,37.54-7.36,3-4.48,1.16-10.43-.72-15.45-4.78-12.77-9.41-28.07-21.06-35.15a60.29,60.29,0,0,1,18.79-18.89c3.7-2.34,7.69-4.3,10.92-7.26s5.65-7.25,5-11.58c-.36-2.49-1.67-4.72-2.82-7-5-9.62-7.29-21.29-3.2-31.33s16-17.15,26.15-13.38c2.13.8,4.15,2,6.42,2.25,2.63.26,5.18-.85,7.59-1.94,8.08-3.66,17.49-9.39,17-18.24-.34-6-5.34-10.61-7.92-16.06-4.39-9.25-.74-21.54,8-26.89,8-4.93,18.17-3.94,27.54-5s20.06-6.23,20.84-15.62c.87-10.41-11-18.38-10.84-28.81.14-6.93,5.58-12.46,10.69-17.14,4.52-4.15,9.33-8.39,15.25-10s13.29.41,15.83,6a17.74,17.74,0,0,1,1.1,7.94c-.51,17-5.62,35.76,3.9,49.86a10.72,10.72,0,0,0,3.8,3.74,12.67,12.67,0,0,0,4.64,1.1,115.83,115.83,0,0,0,31.66-1.18c6.45-1.14,13.89-3.85,15.48-10.21,1.33-5.3-2.11-10.46-4.65-15.29-3.86-7.33-5.92-15.93-3.94-24,.78-3.12,2.13-6.07,2.89-9.2,1-4.36.9-8.91.75-13.39-.3-8.8-3.83-24.55.23-32.19,3.87-7.27,14.91-12.47,22.47-14.24,6.71-1.57,15.25-2.53,17.47-9.06,1.81-5.33-2.14-10.82-6.3-14.62s-9.09-7.61-10-13.16c-.71-4.3,1.23-8.58,3.54-12.27,4.28-6.84,10.39-13,18.18-15.12s17.28.86,20.73,8.16c2.37,5,1.58,10.89,1.12,16.44-1.12,13.69,1.36,29.67,13.08,36.83l9-16.28c1.89-3.42,4-7.06,7.52-8.76,4.63-2.24,10.28-.39,14.49,2.58a9,9,0,0,0,3.51,1.86c3,.49,5.42-2.57,5.9-5.53,1.57-9.87-10.18-16.85-12.31-26.62-1-4.33.1-8.83,1.37-13.08,1.82-6.16,4.58-12.75,10.34-15.6,3-1.46,6.37-1.72,9.67-2,5.49-.39,12-.35,15.24,4.09,1.89,2.57,2.11,6,2,9.16-.23,13-3.88,26.58,1.2,38.52,1.87,4.41,5.92,8.77,10.63,8a13.27,13.27,0,0,0,4.85-2.29q8.56-5.59,17.12-11.19c2.07-1.35,4.25-2.84,5.23-5.12,1.15-2.69.32-5.8-.8-8.5-3.31-8-9.14-15.36-9.26-24-.09-6.73,3.54-13.22,8.86-17.32a31,31,0,0,1,18.9-6,20.89,20.89,0,0,1,10.14,2.2c5.29,2.94,8.2,9.12,8.49,15.16.42,9-5.09,15.08-6.74,23.28a28.08,28.08,0,0,0,4.42,21.24c5.84-.62,11.19-3.8,17-4.3a19.41,19.41,0,0,1,17.6,8.68c4.28,6.69,4,15.29,2.63,23.12s-3.55,15.71-2.56,23.59a13,13,0,0,0,2.11,6.1,13.41,13.41,0,0,0,3.59,3.16,38,38,0,0,0,24,6c2.86-.26,5.85-.82,8.5.26,3,1.23,4.94,4.44,5.4,7.68a22.53,22.53,0,0,1-1.26,9.67c-2.32,7.55-5.92,15-5.6,22.86s6.66,16.33,14.47,15.19c2.9-.43,5.45-2.07,8.14-3.23,5.9-2.55,13.33-3.27,16.81-8.68s1.08-12.43-2.4-17.7c-1.91-2.9-4.19-5.68-5.12-9a17.7,17.7,0,0,1-.14-7.8,32.39,32.39,0,0,1,24-25.42,19.09,19.09,0,0,1,10.73.24c11.58,4.22,6.5,21.85,4.43,30.75-2.11,9.08-5.38,18.48-2.94,27.48L987.82,251c3.25-.45,6.91-1.15,8.67-3.91s1-6,.17-9l-2.75-10.67c-.86-3.35-1.72-6.87-.89-10.22,1.05-4.22,4.71-7.43,8.79-8.93s8.56-1.5,12.89-1.14c3.72.31,7.63,1,10.49,3.37,4.67,3.88,5,11,3.63,16.87s-4.18,11.54-4.49,17.6c-.43,8.66,4.22,16.69,9,23.94,2.25,3.42,5,7.1,9.08,7.67,4.56.64,8.68-3.1,10.75-7.22s2.84-8.81,5-12.89a21.66,21.66,0,0,1,16-11.19,9.26,9.26,0,0,1,5.37.59c4.38,2.2,4.83,9.08,9.35,11a11.22,11.22,0,0,0,5,.46c5.54-.33,11.41-.78,15.92-4s6.73-10.31,3-14.43c-1.29-1.43-3.08-2.3-4.62-3.46-4.32-3.26-6.5-8.76-7-14.16s.62-10.8,1.68-16.11a21.53,21.53,0,0,1,2.39-7.31c2.76-4.46,8.49-6.36,13.73-6,4.53.32,12.45,1.93,14.24,6.12,2,4.75,0,14.88,0,20.12,0,5.51.06,11.13,1.75,16.37s5.33,10.17,10.54,12a13.89,13.89,0,0,0,16.46-6.82c.9-1.85,1.36-3.9,2.34-5.72,3.11-5.74,11.7-7.54,16.85-3.52,2.73,2.13,4.77,5.65,8.21,6.05,2.34.27,4.55-1.06,6.49-2.41,5.77-4,11.64-10,10.49-17-1.7-10.22-17-13.53-18.88-23.72-.63-3.37.44-6.85,2.07-9.87a28,28,0,0,1,20-14.15c8.84-1.38,25.82,2.5,25.54,13.76-.12,4.87-2.78,9.25-4.58,13.79a40.37,40.37,0,0,0-2.7,18.16c.19,2.19.73,4.65,2.61,5.78s4.66.33,6.49-1.13,3.21-3.42,5.09-4.81c4.3-3.16,13.54-3.21,18-.07,3.53,2.5,6.19,10.14,7.79,14.28,2.45,6.35,2.46,13.34,3.83,20a49.92,49.92,0,0,0,16.85,28c1.78,1.47,4.21,2.88,6.26,1.81,1.55-.81,2.15-2.79,2-4.53-.61-7.08-9.55-9.77-14-15.33-3.46-4.37-3.91-10.61-2.12-15.89s5.54-9.68,9.78-13.3c5.85-5,14.2-8.76,21-5.3,2,1,3.9,2.67,6.18,2.8,2,.11,3.85-1,5.56-2.05l21.65-13.45c2-1.21,4-2.5,5.19-4.48,2.62-4.35.14-10-3-14a48.69,48.69,0,0,0-9.25-9.17,11.76,11.76,0,0,1-3.61-3.55,8.81,8.81,0,0,1-.81-3.44,26.69,26.69,0,0,1,7.24-20.05c5.19-5.43,10.79-6,17.42-8.23,5.58-1.91,11.08-4.94,16.57-7.22a12.86,12.86,0,0,0,2.9-1.5c3.25-2.45,3.49-7.4,2-11.17s-4.4-6.81-6.61-10.22a33,33,0,0,1-5.11-14.29c-.94-8.42,1.68-17.43,7.88-23.2s16.1-7.64,23.5-3.53c1.5.83,3,1.91,4.71,1.87,2.21,0,3.9-1.92,5.13-3.74,1.83-2.73,3.32-6,2.72-9.21-1.28-7-10.62-9-14.47-14.92s-1.33-13.48,1.21-19.93c1.34-3.37,2.71-6.83,5.13-9.54,3.45-3.89,8.7-5.81,13.88-6.27,6-.54,13.87-1.15,16.46,4.73s1.87,13.5.4,19.47c-1.33,5.34-3.58,10.48-4.13,16a26.44,26.44,0,0,0,4.93,18.09,4.46,4.46,0,0,0,1.48,1.42,4.75,4.75,0,0,0,3.2,0,177.51,177.51,0,0,0,22.65-7.11c5.82-2.27,12.35-5.92,13-12.14s-4.93-10.93-8-16.28c-4.34-7.43-4-16.87-1.1-25,1.37-3.79,3.39-7.52,6.65-9.9a24,24,0,0,1,6.9-3.16c7.26-2.36,16-3.72,21.82,1.27,5.92,5.13,5.63,14.42,3.51,22s-5.6,15.14-4.36,22.88c1.31,8.2,5.59,17.57,14.64,14,10.82-4.22,24.54,2.45,27.9,13.57,2.31,7.64.16,15.81-1.17,23.68s-1.5,16.84,3.76,22.85c6.41,7.3,17.59,6.91,27.27,7.7,3.3.27,6.83.85,9.17,3.19,2.53,2.51,3,6.47,2.38,10s-2.27,6.72-3.48,10.07a44.5,44.5,0,0,0-.4,28.79c.7,2.14,1.78,4.44,3.88,5.27,1.6.62,3.39.23,5.05-.21a135.5,135.5,0,0,0,28.17-10.82c3.39-1.76,7.11-4.27,7.39-8.09.16-2.26-1-4.4-2.16-6.35-4.75-7.88-10.65-12.25-10.89-21.83-.26-10,4.26-17.71,12.13-23.54A19.76,19.76,0,0,1,1656,130.87c.54,7-2.59,13.61-4.81,20.23s-3.43,14.42.5,20.2a7.67,7.67,0,0,0,3.52,3,10.29,10.29,0,0,0,5.37,0,110.61,110.61,0,0,0,13.16-3.19c2.28-.71,4.69-1.59,6.08-3.53a10.67,10.67,0,0,0,1.54-5.68,58.11,58.11,0,0,0-2.9-21.78c-.73-2.19-1.61-4.39-1.61-6.71,0-5.13,4.39-9.43,9.29-11,10.75-3.43,26.89-3.22,24.77,11.89-1.64,11.74-5.34,23.43-4,35.21s9.95,24,21.81,24.08c3.21-9.46,6.79-19.46,14.58-25.72s21.2-6.62,26.44,1.89a14.25,14.25,0,0,0,2.55,3.73c2.23,1.89,5.56,1.32,8.4.64,5.37-1.28,11.59-3.31,13.3-8.56,2.6-8-7.14-14.13-10.71-21.73-3.14-6.69-1.24-14.66,1.83-21.39,2-4.38,4.6-8.7,8.57-11.43,7.5-5.17,19.15-2.64,23.82,5.18,2.18,3.63,2.89,7.93,4.35,11.91,3,8.08,10.08,12.37,13.81,19.55,3.86,7.45,4.71,18.1,6.18,26.28a238.49,238.49,0,0,1,1.88,72.49c-6,47,11.88,92.77,13.35,140.74,1.44,47-4.3,94-3.69,141.1.6,45.69,7.18,91.33,4.34,136.94-1.71,27.29-22,52.8-10.56,80.12.76,1.81,1.65,3.68,1.52,5.65-.37,5.69-7.92,7.29-13.62,7.28-23.62,0-46.19-1.33-69.61,1.6-32.7,7-66.52,0-99.57-5.14-146.77-22.68-296.32-7.53-444.77-3.42-265.22,7.34-531.5-20.74-795.51,5.58-137.12-15.17-274-18.57-411.57-8.23,2.85-15.83-13.9-29.29-14-45.37C-.09,689.72,27.56,675.22,40.87,678.19Z"/></g></g></svg>