<?xml version="1.0" encoding="UTF-8"?><svg xmlns="http://www.w3.org/2000/svg" viewBox="0 0 1858.37 702.75"><defs><style>.d{fill:#98c1d9;}</style></defs><g id="a"/><g id="b"><g id="c"><path class="d" d="M1857.66,665.28c2.85-45.61-3.74-91.25-4.33-136.94-.61-47.06,5.13-94.06,3.69-141.1-1.47-47.97-19.37-93.72-13.35-140.73,3.08-24.07,2.42-48.61-1.88-72.5-1.47-8.17-2.32-18.83-6.18-26.27-3.73-7.18-10.84-11.47-13.81-19.56-1.46-3.98-2.17-8.27-4.35-11.91-4.68-7.82-16.33-10.35-23.83-5.18-3.97,2.74-6.57,7.05-8.57,11.44-3.07,6.73-4.97,14.7-1.83,21.39,3.57,7.6,13.31,13.74,10.71,21.72-1.71,5.25-7.93,7.28-13.3,8.57-2.84,.68-6.17,1.25-8.4-.64-1.16-.98-1.76-2.44-2.55-3.73-5.24-8.52-18.65-8.17-26.44-1.9-7.79,6.27-11.37,16.26-14.58,25.73-11.86-.05-20.47-12.3-21.81-24.09-1.33-11.78,2.37-23.47,4.01-35.21,2.12-15.11-14.02-15.32-24.78-11.88-4.89,1.56-9.31,5.86-9.29,11,0,2.31,.88,4.52,1.62,6.71,2.34,6.99,3.33,14.42,2.9,21.78-.12,1.99-.37,4.07-1.53,5.68-1.39,1.94-3.8,2.82-6.08,3.52-4.32,1.33-8.72,2.4-13.17,3.19-1.78,.32-3.67,.59-5.37-.05-1.47-.55-2.64-1.72-3.52-3.02-3.92-5.78-2.72-13.57-.5-20.2,2.22-6.62,5.35-13.27,4.81-20.23-.54-7-5.12-13.53-11.5-16.44-6.38-2.91-14.32-2.07-19.96,2.1-7.87,5.83-12.39,13.5-12.13,23.54,.24,9.58,6.14,13.96,10.89,21.84,1.17,1.95,2.32,4.08,2.15,6.35-.28,3.81-4,6.32-7.39,8.09-8.95,4.64-18.41,8.28-28.17,10.83-1.66,.43-3.45,.83-5.05,.2-2.1-.82-3.18-3.12-3.88-5.27-3.06-9.29-2.91-19.59,.4-28.79,1.21-3.35,2.83-6.57,3.48-10.07,.65-3.5,.15-7.46-2.37-9.97-2.35-2.33-5.88-2.92-9.18-3.19-9.68-.79-20.85-.4-27.27-7.7-5.27-6-5.09-14.97-3.76-22.84,1.32-7.88,3.48-16.04,1.17-23.69-3.36-11.12-17.08-17.79-27.9-13.57-9.05,3.53-13.33-5.84-14.64-14.04-1.24-7.74,2.24-15.34,4.36-22.88,2.12-7.55,2.41-16.84-3.51-21.97-5.77-4.99-14.56-3.63-21.81-1.28-2.42,.78-4.85,1.67-6.9,3.16-3.26,2.38-5.28,6.11-6.65,9.9-2.93,8.09-3.23,17.54,1.1,24.97,3.12,5.35,8.65,10.12,8.04,16.28-.61,6.22-7.14,9.87-12.96,12.13-7.38,2.87-14.95,5.25-22.65,7.12-1.06,.26-2.22,.49-3.19,0-.62-.31-1.07-.87-1.48-1.42-3.78-5.15-5.58-11.73-4.94-18.08,.55-5.47,2.81-10.62,4.13-15.96,1.48-5.96,2.17-13.66-.39-19.47-2.6-5.88-10.44-5.27-16.46-4.73-5.18,.46-10.43,2.39-13.88,6.27-2.41,2.71-3.79,6.17-5.12,9.54-2.54,6.45-4.99,14.12-1.22,19.93,3.86,5.94,13.19,7.96,14.48,14.92,.59,3.23-.89,6.48-2.72,9.2-1.23,1.83-2.92,3.7-5.13,3.75-1.71,.04-3.21-1.04-4.71-1.88-7.41-4.11-17.31-2.24-23.51,3.54s-8.82,14.78-7.88,23.2c.57,5.07,2.33,10.01,5.11,14.29,2.21,3.41,5.08,6.45,6.61,10.22,1.53,3.77,1.29,8.72-1.96,11.17-.87,.66-1.89,1.08-2.9,1.5-5.49,2.28-10.99,5.31-16.57,7.22-6.63,2.27-12.23,2.8-17.42,8.23-5.06,5.29-7.75,12.75-7.23,20.05,.08,1.19,.26,2.39,.81,3.45,.79,1.51,2.25,2.52,3.61,3.55,3.47,2.63,6.6,5.72,9.25,9.17,3.1,4.03,5.57,9.65,2.95,14.01-1.19,1.98-3.22,3.27-5.18,4.48-7.22,4.48-14.44,8.97-21.66,13.45-1.71,1.06-3.55,2.16-5.56,2.04-2.28-.13-4.14-1.77-6.18-2.8-6.86-3.46-15.2,.33-21.05,5.31-4.24,3.61-8,8.02-9.78,13.3-1.79,5.28-1.34,11.52,2.12,15.89,4.41,5.57,13.36,8.26,13.96,15.33,.15,1.74-.45,3.72-2,4.53-2.04,1.07-4.48-.34-6.26-1.81-8.56-7.1-14.6-17.16-16.85-28.05-1.37-6.66-1.39-13.65-3.84-20-1.6-4.14-4.26-11.78-7.79-14.28-4.45-3.15-13.69-3.09-17.99,.07-1.88,1.38-3.26,3.35-5.09,4.81-1.83,1.46-4.48,2.33-6.48,1.13-1.89-1.13-2.43-3.59-2.61-5.78-.51-6.16,.42-12.43,2.69-18.17,1.8-4.53,4.46-8.91,4.58-13.79,.28-11.26-16.7-15.13-25.54-13.76-8.37,1.3-16,6.7-20.02,14.15-1.63,3.02-2.7,6.5-2.08,9.87,1.88,10.19,17.18,13.5,18.88,23.72,1.15,6.93-4.72,12.95-10.49,16.96-1.94,1.35-4.15,2.68-6.49,2.41-3.44-.4-5.48-3.92-8.21-6.05-5.15-4.01-13.74-2.21-16.84,3.53-.98,1.81-1.45,3.86-2.35,5.72-2.83,5.84-10.32,8.94-16.46,6.81-5.21-1.81-8.85-6.72-10.54-11.97s-1.72-10.86-1.74-16.38c-.02-5.24,1.97-15.37-.05-20.12-1.78-4.2-9.71-5.8-14.24-6.12-5.24-.37-10.97,1.53-13.73,5.99-1.35,2.19-1.88,4.78-2.39,7.31-1.06,5.31-2.13,10.71-1.68,16.11,.45,5.4,2.63,10.9,6.96,14.16,1.54,1.16,3.33,2.03,4.62,3.46,3.72,4.12,1.5,11.2-3.01,14.43s-10.38,3.68-15.93,4.01c-1.69,.1-3.44,.19-5-.47-4.52-1.9-4.97-8.78-9.35-10.99-1.63-.82-3.56-.83-5.37-.59-6.7,.9-12.85,5.2-15.99,11.19-2.15,4.08-2.92,8.77-4.99,12.89-2.07,4.12-6.18,7.86-10.75,7.22-4.05-.57-6.83-4.25-9.08-7.67-4.77-7.25-9.42-15.28-8.98-23.94,.3-6.06,3.08-11.69,4.48-17.59,1.4-5.9,1.04-12.99-3.62-16.88-2.87-2.39-6.77-3.05-10.49-3.37-4.33-.36-8.81-.35-12.89,1.14s-7.74,4.71-8.79,8.93c-.83,3.35,.03,6.87,.89,10.21,.92,3.56,1.83,7.12,2.75,10.67,.77,3,1.49,6.41-.18,9.02-1.76,2.76-5.42,3.46-8.67,3.91-7.6,1.05-15.19,2.09-22.79,3.14-2.44-8.99,.83-18.4,2.94-27.47,2.07-8.91,7.15-26.53-4.43-30.75-3.41-1.24-7.19-1.06-10.73-.24-12.04,2.78-21.94,13.24-24.04,25.42-.45,2.58-.56,5.27,.14,7.8,.93,3.35,3.21,6.13,5.13,9.03,3.47,5.27,5.81,12.4,2.4,17.7-3.48,5.41-10.91,6.13-16.81,8.68-2.69,1.16-5.24,2.81-8.14,3.23-7.81,1.14-14.15-7.3-14.47-15.19-.32-7.89,3.29-15.31,5.61-22.86,.96-3.13,1.72-6.43,1.26-9.67-.46-3.25-2.36-6.46-5.39-7.69-2.66-1.08-5.65-.51-8.5-.26-8.37,.75-16.98-1.41-24.01-6.01-1.34-.88-2.65-1.87-3.6-3.16-1.29-1.75-1.83-3.94-2.1-6.1-1-7.88,1.22-15.76,2.56-23.59,1.34-7.83,1.65-16.44-2.63-23.13-3.71-5.79-10.75-9.26-17.6-8.68-5.85,.5-11.21,3.67-17.05,4.29-4.23-6.07-5.87-13.98-4.41-21.23,1.65-8.2,7.15-14.25,6.73-23.28-.28-6.04-3.19-12.23-8.48-15.16-3.06-1.7-6.65-2.2-10.15-2.2-6.72,0-13.57,1.86-18.89,5.97-5.33,4.11-8.96,10.6-8.86,17.32,.12,8.65,5.96,16.01,9.26,24.01,1.12,2.7,1.95,5.81,.8,8.5-.97,2.28-3.16,3.77-5.23,5.12-5.7,3.73-11.4,7.46-17.11,11.18-1.51,.98-3.08,1.99-4.85,2.29-4.72,.81-8.76-3.55-10.63-7.96-5.07-11.94-1.43-25.55-1.19-38.52,.06-3.19-.17-6.59-2.05-9.17-3.26-4.44-9.75-4.48-15.24-4.09-3.3,.24-6.7,.5-9.67,1.97-5.76,2.85-8.51,9.44-10.34,15.6-1.26,4.25-2.32,8.75-1.37,13.08,2.13,9.76,13.89,16.75,12.31,26.62-.47,2.96-2.94,6.02-5.9,5.53-1.32-.22-2.42-1.09-3.51-1.86-4.21-2.97-9.85-4.82-14.49-2.58-3.52,1.7-5.63,5.34-7.52,8.77-3,5.43-5.99,10.85-8.99,16.28-11.72-7.16-14.21-23.14-13.08-36.83,.46-5.54,1.25-11.41-1.13-16.44-3.45-7.3-12.95-10.29-20.73-8.16-7.78,2.13-13.89,8.28-18.17,15.12-2.31,3.69-4.26,7.97-3.55,12.27,.92,5.55,5.85,9.36,10.01,13.16,4.15,3.8,8.11,9.29,6.3,14.62-2.22,6.53-10.76,7.49-17.47,9.06-7.55,1.77-18.6,6.97-22.46,14.23-4.07,7.65-.54,23.4-.23,32.2,.15,4.48,.3,9.03-.75,13.39-.76,3.13-2.11,6.08-2.88,9.2-1.99,8.04,.07,16.64,3.93,23.97,2.55,4.84,5.99,9.99,4.66,15.29-1.59,6.36-9.03,9.07-15.49,10.21-10.43,1.84-21.12,2.24-31.66,1.19-1.59-.16-3.22-.36-4.64-1.1-1.6-.83-2.79-2.26-3.8-3.75-9.52-14.1-4.41-32.85-3.9-49.86,.08-2.69,.02-5.48-1.1-7.94-2.54-5.59-9.9-7.57-15.83-5.99-5.93,1.58-10.73,5.82-15.26,9.96-5.11,4.68-10.55,10.21-10.69,17.14-.21,10.43,11.71,18.4,10.84,28.8-.78,9.4-11.47,14.57-20.84,15.62-9.37,1.05-19.51,.05-27.55,4.98-8.73,5.36-12.38,17.64-7.99,26.89,2.59,5.45,7.58,10.04,7.92,16.06,.5,8.85-8.92,14.58-17,18.24-2.41,1.09-4.96,2.21-7.59,1.94-2.26-.23-4.28-1.45-6.42-2.24-10.16-3.77-22.07,3.34-26.16,13.38s-1.77,21.7,3.2,31.33c1.15,2.23,2.46,4.46,2.82,6.94,.63,4.33-1.79,8.62-5.02,11.58s-7.22,4.93-10.92,7.27c-7.57,4.79-14.04,11.3-18.79,18.89,11.65,7.08,16.28,22.38,21.06,35.15,1.88,5.02,3.68,10.97,.72,15.45-7.5,11.35-30.33-4.18-37.54,7.36-3.32,10.49-3.86,21.85-1.54,32.6,1.17,5.41,3.04,10.93,1.87,16.34-2.33,10.68-14.73,15.24-25.31,17.99-3.42,.89-7.45,1.66-10.16-.61-1.54-1.29-2.26-3.29-3.06-5.13-7.02-16.3-23.86-26.59-31.52-42.59-3.72-7.77-5.06-16.48-8.44-24.4-3.37-7.93-9.73-15.54-18.29-16.51-8.56-.98-17.61,8.38-13.71,16.06-5.85,1.23-11.08-4.57-12.34-10.41-1.26-5.85-.02-11.94-.54-17.9-.89-10.02-7.83-19.84-17.66-21.98-9.83-2.14-21.24,5.6-21.09,15.66,.11,7.68,6.01,13.86,9.42,20.74,3.41,6.89,2.57,17.71-4.95,19.31-2.64,.56-5.38-.27-8.07-.08-6.17,.43-10.59,5.81-14.92,10.23-2.13,2.18-4.83,4.36-7.86,4-5-.58-6.58-7.37-5.09-12.18,1.49-4.81,4.75-9.2,4.73-14.24,0-1.98-.65-4.11-2.27-5.25-1.37-.97-3.15-1.06-4.83-1.12l-16.86-.59c-4.34,11.17-8.71,23.67-4.27,34.8,1.4,3.51,3.63,6.7,4.53,10.36,2.54,10.32-8.93,21.18-19.1,18.09-6.18-1.88-10.78-7.56-17.11-8.87-8.84-1.82-17.36,6.22-19.1,15.07s1.54,17.9,5.49,26.01c2.68,5.5,5.78,11.68,3.7,17.44-2.85,7.9-13.45,9.58-21.67,7.83-8.22-1.75-16.46-5.59-24.66-3.79-8.33,1.83-14.79,10.04-14.6,18.57,.36,16.27,21.3,29.05,16.3,44.54-9.67,8.41-25.3,8.95-35.52,1.21,3.59-1.08,7.18-2.16,10.78-3.24-13.11-2.93-40.14,11.11-40.83,24.56H1848.24c3.78-12.35,8.63-24.71,9.43-37.47Z"/></g></g></svg>