<?xml version="1.0" encoding="UTF-8"?><svg xmlns="http://www.w3.org/2000/svg" viewBox="0 0 532.51 113.16"><defs><style>.d{fill:#ee6c4d;}.e{fill:#efefef;}.f{fill:none;stroke:#fff;stroke-miterlimit:10;stroke-width:5px;}</style></defs><g id="a"/><g id="b"><g id="c"><path class="d" d="M483.48,105.57c-215.4,0-215.4,7.59-430.8,7.59C25.51,113.16,0,88.73,0,61.56,0,59.47,0,63.64,0,61.56c0-27.17,25.51-56.62,52.68-56.62q215.4,0,430.8-.1c27.17,0,49.03,29.55,49.03,56.72,0,2.08,0-2.08,0,0,0,27.17-21.86,44.01-49.03,44.01Z"/><rect class="f" x="5.24" y="2.5" width="507.68" height="98.39" rx="49.2" ry="49.2"/><g><path class="e" d="M192.22,51.83h5.03v9.66c-2.62,1.97-6.22,3.03-9.62,3.03-7.48,0-12.99-5.13-12.99-12.31s5.51-12.31,13.09-12.31c4.18,0,7.65,1.43,9.96,4.11l-3.54,3.26c-1.73-1.84-3.74-2.69-6.15-2.69-4.62,0-7.79,3.09-7.79,7.62s3.16,7.62,7.72,7.62c1.5,0,2.89-.27,4.28-1.02v-6.97Z"/><path class="e" d="M200.62,54.96c0-5.51,4.25-9.42,10.06-9.42s10.03,3.91,10.03,9.42-4.21,9.42-10.03,9.42-10.06-3.91-10.06-9.42Zm14.72,0c0-3.16-2.01-5.07-4.66-5.07s-4.69,1.9-4.69,5.07,2.04,5.07,4.69,5.07,4.66-1.9,4.66-5.07Z"/><path class="e" d="M245.67,63.22c-1.09,.78-2.69,1.16-4.32,1.16-4.32,0-6.83-2.21-6.83-6.56v-7.51h-2.82v-4.08h2.82v-4.45h5.3v4.45h4.55v4.08h-4.55v7.45c0,1.56,.85,2.41,2.28,2.41,.78,0,1.56-.24,2.14-.68l1.43,3.74Z"/><path class="e" d="M246.72,54.96c0-5.51,4.25-9.42,10.06-9.42s10.03,3.91,10.03,9.42-4.21,9.42-10.03,9.42-10.06-3.91-10.06-9.42Zm14.72,0c0-3.16-2.01-5.07-4.66-5.07s-4.69,1.9-4.69,5.07,2.04,5.07,4.69,5.07,4.66-1.9,4.66-5.07Z"/><path class="e" d="M299.9,54.96c0,5.75-3.98,9.42-9.11,9.42-2.45,0-4.42-.78-5.75-2.38v2.11h-5.06v-25.23h5.3v8.87c1.36-1.5,3.23-2.21,5.51-2.21,5.13,0,9.11,3.67,9.11,9.42Zm-5.37,0c0-3.16-2-5.07-4.66-5.07s-4.66,1.9-4.66,5.07,2.01,5.07,4.66,5.07,4.66-1.9,4.66-5.07Z"/><path class="e" d="M321.25,56.46h-13.84c.51,2.28,2.45,3.67,5.24,3.67,1.94,0,3.33-.58,4.59-1.77l2.82,3.06c-1.7,1.94-4.25,2.96-7.55,2.96-6.32,0-10.44-3.98-10.44-9.42s4.18-9.42,9.76-9.42,9.52,3.6,9.52,9.49c0,.41-.07,.99-.1,1.43Zm-13.9-3.09h9.01c-.37-2.31-2.11-3.81-4.49-3.81s-4.15,1.46-4.52,3.81Z"/><path class="e" d="M343.52,38.88v25.23h-5.07v-2.11c-1.33,1.6-3.26,2.38-5.71,2.38-5.17,0-9.14-3.67-9.14-9.42s3.98-9.42,9.14-9.42c2.24,0,4.15,.71,5.47,2.21v-8.87h5.3Zm-5.2,16.08c0-3.16-2.04-5.07-4.66-5.07s-4.69,1.9-4.69,5.07,2.04,5.07,4.69,5.07,4.66-1.9,4.66-5.07Z"/></g></g></g></svg>