<?xml version="1.0" encoding="UTF-8"?><svg xmlns="http://www.w3.org/2000/svg" viewBox="0 0 1463.01 703.49"><defs><style>.d{fill:#98c1d9;}</style></defs><g id="a"/><g id="b"><g id="c"><path class="d" d="M1462.3,665.28c2.85-45.61-3.74-91.25-4.33-136.94-.61-47.06,5.13-94.06,3.69-141.1-1.47-47.97-19.37-93.72-13.35-140.73,3.08-24.07,2.42-48.61-1.88-72.5-1.47-8.17-2.32-18.83-6.18-26.27-3.73-7.18-10.84-11.47-13.81-19.56-1.46-3.98-2.17-8.27-4.35-11.91-4.68-7.82-16.33-10.35-23.83-5.18-3.97,2.74-6.57,7.05-8.57,11.44-3.07,6.73-4.97,14.7-1.83,21.39,3.57,7.6,13.31,13.74,10.71,21.72-1.71,5.25-7.93,7.28-13.3,8.57-2.84,.68-6.17,1.25-8.4-.64-1.16-.98-1.76-2.44-2.55-3.73-5.24-8.52-18.65-8.17-26.44-1.9-7.79,6.27-11.37,16.26-14.58,25.73-11.86-.05-20.47-12.3-21.81-24.09-1.33-11.78,2.37-23.47,4.01-35.21,2.12-15.11-14.02-15.32-24.78-11.88-4.89,1.56-9.31,5.86-9.29,11,0,2.31,.88,4.52,1.62,6.71,2.34,6.99,3.33,14.42,2.9,21.78-.12,1.99-.37,4.07-1.53,5.68-1.39,1.94-3.8,2.82-6.08,3.52-4.32,1.33-8.72,2.4-13.17,3.19-1.78,.32-3.67,.59-5.37-.05-1.47-.55-2.64-1.72-3.52-3.02-3.92-5.78-2.72-13.57-.5-20.2,2.22-6.62,5.35-13.27,4.81-20.23-.54-7-5.12-13.53-11.5-16.44-6.38-2.91-14.32-2.07-19.96,2.1-7.87,5.83-12.39,13.5-12.13,23.54,.24,9.58,6.14,13.96,10.89,21.84,1.17,1.95,2.32,4.08,2.15,6.35-.28,3.81-4,6.32-7.39,8.09-8.95,4.64-18.41,8.28-28.17,10.83-1.66,.43-3.45,.83-5.05,.2-2.1-.82-3.18-3.12-3.88-5.27-3.06-9.29-2.91-19.59,.4-28.79,1.21-3.35,2.83-6.57,3.48-10.07,.65-3.5,.15-7.46-2.37-9.97-2.35-2.33-5.88-2.92-9.18-3.19-9.68-.79-20.85-.4-27.27-7.7-5.27-6-5.09-14.97-3.76-22.84,1.32-7.88,3.48-16.04,1.17-23.69-3.36-11.12-17.08-17.79-27.9-13.57-9.05,3.53-13.33-5.84-14.64-14.04-1.24-7.74,2.24-15.34,4.36-22.88,2.12-7.55,2.41-16.84-3.51-21.97-5.77-4.99-14.56-3.63-21.81-1.28-2.42,.78-4.85,1.67-6.9,3.16-3.26,2.38-5.28,6.11-6.65,9.9-2.93,8.09-3.23,17.54,1.1,24.97,3.12,5.35,8.65,10.12,8.04,16.28-.61,6.22-7.14,9.87-12.96,12.13-7.38,2.87-14.95,5.25-22.65,7.12-1.06,.26-2.22,.49-3.19,0-.62-.31-1.07-.87-1.48-1.42-3.78-5.15-5.58-11.73-4.94-18.08,.55-5.47,2.81-10.62,4.13-15.96,1.48-5.96,2.17-13.66-.39-19.47-2.6-5.88-10.44-5.27-16.46-4.73-5.18,.46-10.43,2.39-13.88,6.27-2.41,2.71-3.79,6.17-5.12,9.54-2.54,6.45-4.99,14.12-1.22,19.93,3.86,5.94,13.19,7.96,14.48,14.92,.59,3.23-.89,6.48-2.72,9.2-1.23,1.83-2.92,3.7-5.13,3.75-1.71,.04-3.21-1.04-4.71-1.88-7.41-4.11-17.31-2.24-23.51,3.54s-8.82,14.78-7.88,23.2c.57,5.07,2.33,10.01,5.11,14.29,2.21,3.41,5.08,6.45,6.61,10.22,1.53,3.77,1.29,8.72-1.96,11.17-.87,.66-1.89,1.08-2.9,1.5-5.49,2.28-10.99,5.31-16.57,7.22-6.63,2.27-12.23,2.8-17.42,8.23-5.06,5.29-7.75,12.75-7.23,20.05,.08,1.19,.26,2.39,.81,3.45,.79,1.51,2.25,2.52,3.61,3.55,3.47,2.63,6.6,5.72,9.25,9.17,3.1,4.03,5.57,9.65,2.95,14.01-1.19,1.98-3.22,3.27-5.18,4.48-7.22,4.48-14.44,8.97-21.66,13.45-1.71,1.06-3.55,2.16-5.56,2.04-2.28-.13-4.14-1.77-6.18-2.8-6.86-3.46-15.2,.33-21.05,5.31-4.24,3.61-8,8.02-9.78,13.3-1.79,5.28-1.34,11.52,2.12,15.89,4.41,5.57,13.36,8.26,13.96,15.33,.15,1.74-.45,3.72-2,4.53-2.04,1.07-4.48-.34-6.26-1.81-8.56-7.1-14.6-17.16-16.85-28.05-1.37-6.66-1.39-13.65-3.84-20-1.6-4.14-4.26-11.78-7.79-14.28-4.45-3.15-13.69-3.09-17.99,.07-1.88,1.38-3.26,3.35-5.09,4.81-1.83,1.46-4.48,2.33-6.48,1.13-1.89-1.13-2.43-3.59-2.61-5.78-.51-6.16,.42-12.43,2.69-18.17,1.8-4.53,4.46-8.91,4.58-13.79,.28-11.26-16.7-15.13-25.54-13.76-8.37,1.3-16,6.7-20.02,14.15-1.63,3.02-2.7,6.5-2.08,9.87,1.88,10.19,17.18,13.5,18.88,23.72,1.15,6.93-4.72,12.95-10.49,16.96-1.94,1.35-4.15,2.68-6.49,2.41-3.44-.4-5.48-3.92-8.21-6.05-5.15-4.01-13.74-2.21-16.84,3.53-.98,1.81-1.45,3.86-2.35,5.72-2.83,5.84-10.32,8.94-16.46,6.81-5.21-1.81-8.85-6.72-10.54-11.97s-1.72-10.86-1.74-16.38c-.02-5.24,1.97-15.37-.05-20.12-1.78-4.2-9.71-5.8-14.24-6.12-5.24-.37-10.97,1.53-13.73,5.99-1.35,2.19-1.88,4.78-2.39,7.31-1.06,5.31-2.13,10.71-1.68,16.11,.45,5.4,2.63,10.9,6.96,14.16,1.54,1.16,3.33,2.03,4.62,3.46,3.72,4.12,1.5,11.2-3.01,14.43s-10.38,3.68-15.93,4.01c-1.69,.1-3.44,.19-5-.47-4.52-1.9-4.97-8.78-9.35-10.99-1.63-.82-3.56-.83-5.37-.59-6.7,.9-12.85,5.2-15.99,11.19-2.15,4.08-2.92,8.77-4.99,12.89-2.07,4.12-6.18,7.86-10.75,7.22-4.05-.57-6.83-4.25-9.08-7.67-4.77-7.25-9.42-15.28-8.98-23.94,.3-6.06,3.08-11.69,4.48-17.59,1.4-5.9,1.04-12.99-3.62-16.88-2.87-2.39-6.77-3.05-10.49-3.37-4.33-.36-8.81-.35-12.89,1.14s-7.74,4.71-8.79,8.93c-.83,3.35,.03,6.87,.89,10.21,.92,3.56,1.83,7.12,2.75,10.67,.77,3,1.49,6.41-.18,9.02-1.76,2.76-5.42,3.46-8.67,3.91-7.6,1.05-15.19,2.09-22.79,3.14-2.44-8.99,.83-18.4,2.94-27.47,2.07-8.91,7.15-26.53-4.43-30.75-3.41-1.24-7.19-1.06-10.73-.24-12.04,2.78-21.94,13.24-24.04,25.42-.45,2.58-.56,5.27,.14,7.8,.93,3.35,3.21,6.13,5.13,9.03,3.47,5.27,5.81,12.4,2.4,17.7-3.48,5.41-10.91,6.13-16.81,8.68-2.69,1.16-5.24,2.81-8.14,3.23-7.81,1.14-14.15-7.3-14.47-15.19-.32-7.89,3.29-15.31,5.61-22.86,.96-3.13,1.72-6.43,1.26-9.67-.46-3.25-2.36-6.46-5.39-7.69-2.66-1.08-5.65-.51-8.5-.26-8.37,.75-16.98-1.41-24.01-6.01-1.34-.88-2.65-1.87-3.6-3.16-1.29-1.75-1.83-3.94-2.1-6.1-1-7.88,1.22-15.76,2.56-23.59,1.34-7.83,1.65-16.44-2.63-23.12-8.75-13.66-35.33-10.92-41.28,4.17-3.49,8.86-.51,19.22,5.17,26.87,3.25,4.37,7.55,8.63,7.73,14.07,.18,5.36-3.97,10.1-8.86,12.32s-10.41,2.42-15.77,2.59c-6.41-12.56,2.61-29.57-5.3-41.25-6.13-9.04-21.05-9.28-28.52-1.31-7.47,7.97-7.07,21.5-.29,30.07,2.77,3.5,6.41,6.3,8.76,10.1,2.34,3.8,2.98,9.27-.23,12.37-2.2,2.11-5.48,2.5-8.26,3.74-8.25,3.68-10.94,14.64-8.53,23.34,2.42,8.7,8.55,15.79,14.01,22.98,5.46,7.2,10.6,15.41,10.44,24.44-15.13,1.91-32.25,7.32-37.82,21.52-2.27,5.77-2.2,12.16-2.1,18.36,.2,12.49,.39,24.98,.59,37.47,.08,5.33,.2,10.8,2.24,15.72,1.37,3.29,3.61,6.52,3.17,10.05-.5,4.01-4.24,6.71-7.65,8.89-13.09,8.41-30.08,16.93-43.21,8.58-8.89-5.65-12.1-17.23-12-27.76,.1-10.53,2.76-20.95,2.45-31.48-.11-3.75-.8-7.87-3.68-10.26-2.28-1.89-5.48-2.27-8.41-1.92-10.31,1.24-18.24,10.6-20.75,20.68-2.51,10.08-.61,20.72,2.05,30.76,.86,3.25,1.76,6.89,.09,9.81-.98,1.72-2.7,2.87-4.4,3.88-8.77,5.18-18.87,8.09-29.05,8.38-5.52,.16-11.72-.21-15.8,3.52-5.62,5.14-3.51,14.3-.83,21.42,2.65,7.04,5.48,14.19,5.72,21.71,.23,7.52-2.69,15.62-9.17,19.43-14.6,8.58-36.61-8.52-48.92,3.11-5.9,5.57-5.74,15.12-3.11,22.8,2.62,7.68,7.22,14.66,8.99,22.58,.64,2.86,.88,5.93-.2,8.65-3.16,8.03-14.27,7.99-22.27,11.24-15.11,6.14-11.78,26.88-28.04,13.46-8.27-6.83-23.35-4.13-26.61,6.09-4.03,12.64,10.28,23.96,11.36,37.18,1.09,13.33-15.02,24.68-27.2,19.18-2.94-1.33-5.62-3.42-8.81-3.92-4.72-.75-9.4,2.31-12,6.32-2.6,4.01-3.56,8.84-4.48,13.53-1.72,8.86-3.34,18.51,.8,26.54,1.49,2.9,3.69,5.45,4.69,8.55,2.17,6.74-3.01,14.81-10.04,15.65-1.87,.22-3.85-.02-5.48-.97-1.81-1.06-3.02-2.86-4.41-4.43-6.21-7.05-17.06-9.53-25.72-5.9-8.11,3.4-13.73,11.94-13.85,20.7H1452.64c3.81-12.59,8.84-25.2,9.65-38.22Z"/></g></g></svg>