<?xml version="1.0" encoding="UTF-8"?><svg xmlns="http://www.w3.org/2000/svg" viewBox="0 0 800.05 765.66"><defs><style>.d{fill:none;}.e{fill:#efefef;}.f{fill:#98c1d9;}.g,.h{fill:#3d5a80;}.h{opacity:.25;}</style></defs><g id="a"/><g id="b"><g id="c"><path class="d" d="M548.22,190.74l13.2,5.06c14.19,5.44,29.49,11.81,36.9,25.07,7.68,13.74,4.31,31.68-4.9,44.44-9.21,12.76-23.28,21.14-37.65,27.56-11.56,5.17-23.69,9.38-34.14,16.53-10.45,7.15-19.29,18-20.28,30.63"/><path class="f" d="M745.14,680.2c-2.92-.8-14.11-12.15-23.38-21.6,.47-.74,.9-1.51,1.22-2.37,1.28-3.36,1.33-6.23,.44-8.83-6.98-1.92-13.97-3.79-20.91-5.81-13.11-3.82-25.85-8.68-39.06-12.19-22.25-5.92-45.03-10.04-65.87-20.25-22-10.78-41.21-28.38-53-49.93-11.05-20.22-16.16-43.02-25.77-63.89-3.05-6.64,2.68-12.69,8.07-12.79-1.05-10.16-1.25-20.49-1.26-30.63-.07-52.66,4.3-108.25,28.89-154.11-9.04-49.87-10.47-101.34-12.59-151.93-6.53-10.95-13.3-22.36-20.62-35.4-21.39-38.08-55.11-73.05-98.78-81.01-40.23-7.34-80.69,9.32-117.24,27.33-21.16,10.42-42.38,21.7-58.86,38.34-34.79,35.13-42.69,87.77-43.67,136.66-1.32,65.46-7.65,151.89,48,186.99,23.77,14.99,69.09,46.85,75.48,77.16,5.68,26.97-30.28,54.95-48.67,75.79-18.39,20.85-51.58,26.63-75.53,41.12-15.3,9.26-41.24,20.01-58.76,24.03-15.93,3.66-13.45,10.35-29.63,12.71-.63,.09-1.24,.23-1.86,.33-.15,2.49-1.36,4.9-3.94,6.42-11.88,7-24.94,12.4-37.94,17.83-14.54,6.08-28.58,22.37-38.99,33.75-2.43,2.66-8.35,7.32-9.39,10.73-2.24,7.32,.91,3.29,2.58,9.55,1.72,6.42,2.02,12.18,2.53,19.82,.44,6.63,3.33,13.84,9.47,16.37,3.6,1.49,7.67,1.1,11.55,.72,37.76-3.74,76.08-5.59,114.02-4.09,32.07,1.27,62.79,6.24,95.66,4.1,68.62-4.47,136.19-19.33,205.09-20.55,31.7-.56,78.08,6.13,109.73,4.39,23.22-1.28,87.74-14.74,110.82-17.56,40.39-4.93,57.8,1.12,95.46-14.26,3.68-1.5,17.56-23.04-33.28-36.94Z"/><path class="e" d="M288.39,184.55c-12.74-3.8-26.15-4.22-39.16-1.62-2.66,.53-4.1,3.84-3.37,6.26,.84,2.8,3.59,3.9,6.26,3.37,11.32-2.26,22.89-1.52,33.9,1.76,2.61,.78,5.46-1.17,6.07-3.71,.67-2.76-1.09-5.29-3.71-6.07h0Z"/><path class="e" d="M469.21,181.96c-12.74-3.8-26.15-4.22-39.16-1.62-2.66,.53-4.1,3.84-3.37,6.26,.84,2.8,3.59,3.9,6.26,3.37,11.32-2.26,22.89-1.52,33.9,1.76,2.61,.78,5.46-1.17,6.07-3.71,.67-2.76-1.09-5.29-3.71-6.07h0Z"/><path class="e" d="M343.64,210.26c.45,8.13,.89,16.27,.72,24.41-.09,4.18-.35,8.35-.82,12.51,0,0-.16,1.28-.06,.55,.11-.83-.12,.77-.14,.93-.14,.9-.29,1.8-.45,2.69-.4,2.18-.88,4.34-1.46,6.48-2.07,7.74-5.37,15.24-5.32,23.4,.05,8.25,3.32,16.03,10.18,20.83,7.51,5.25,17.36,4.05,25.84,2.74,3.91-.6,6.42-5.71,5.27-9.28-1.38-4.26-5.09-5.92-9.28-5.27-.42,.06-.84,.13-1.26,.19-.13,.02-1.2,.17-.28,.04s-.16,.02-.29,.03c-.43,.05-.87,.1-1.3,.14-1.51,.14-3.03,.23-4.54,.21-.75-.01-1.49-.1-2.23-.12-1.13-.04,1.22,.3,.14,.02-.3-.08-.61-.12-.91-.18-.7-.16-1.37-.41-2.06-.61-.81-.24,.3,.11,.39,.16-.43-.27-.91-.48-1.34-.75-.26-.17-.52-.34-.77-.52,1.2,.89,.34,.23,.13,0-.19-.21-.4-.46-.62-.65-.78-.68,.59,1.03,.08,.13-.29-.52-.64-1-.92-1.52-.12-.22-.61-1.38-.25-.45s-.09-.34-.14-.51c-.22-.67-.4-1.36-.54-2.05-.08-.4-.15-.8-.21-1.2,.02,.1,.09,1.34,.1,.48,.02-1.54-.06-3.04,.05-4.58-.09,1.22,.17-.98,.25-1.35,.15-.74,.32-1.47,.5-2.2,.46-1.84,1.01-3.64,1.58-5.45,1.08-3.42,2.19-6.81,3-10.31,1.77-7.63,2.57-15.52,2.79-23.34,.24-8.54-.22-17.07-.69-25.59-.22-3.93-3.31-7.73-7.54-7.54-3.9,.17-7.78,3.32-7.54,7.54h0Z"/><path class="h" d="M655.37,629.03c-34.97-8-67.21-22.4-89.99-49.61-19.04-22.74-29.23-50.35-35.36-78.49-6.62-30.37-11.58-62.2-13.02-93.18-.79-16.88-.03-33.92,3.48-50.52,3.46-16.37,11.11-30.64,18.64-45.58,16.18-32.08,26.76-63.82,20.11-99.6-5.95-32.02-17.55-64.18-36.05-91.71-8.89-13.24-19.17-25.91-29.22-38.38-10.74-13.34-22.3-26.58-36-37.33-38.07-29.87-102.79-31.25-146.97-8.14,.68,6.44,2.69,12.71,6.46,18.23,6.78,9.95,17.41,19.72,30.2,21.96,9.04,1.58,17.84,4.03,26.41,7.1,12.96,5.7,25.3,12.59,37.32,19.91,11.94,7.28,23.88,14.73,35.33,22.72,4.59,3.63,8.96,7.49,12.95,11.7,2.41,3.49,4.54,7.13,6.47,10.88,6.16,15.47,10.25,31.79,12.98,48.11,4.52,38.79,.35,77.8-4.16,116.44-4.73,40.5-9.86,81.42-5.26,122.16,2.29,20.28,5.69,40.36,12.11,59.86,6.16,18.71,14.33,37.06,23.94,54.41,7.71,13.93,16.75,27.16,26.88,39.62,12.72,15.66,25.85,30.65,41.29,44,15.14,13.09,31.62,25.13,48.95,35.52,17.64,10.58,36.51,18.72,55.9,26,3.86,1.45,7.77,2.8,11.7,4.08,6.72,1.99,13.43,2.28,20.15,.85,6.72-.29,12.99-2.18,18.79-5.67,5.89-3,10.61-7.1,14.18-12.31,4.04-4.18,6.88-9.02,8.55-14.51-26.06-25.42-61.84-30.54-96.72-38.52Z"/><path class="e" d="M18.84,755.6c15.13-25.63,36.28-48.5,59.6-65.92,24.25-18.1,51.16-32.26,78.59-44.88,28.22-12.98,55.53-23.74,83.76-36.17,26.88-11.83,55.56-26.14,72.43-51.23,19.4-28.85,9.72-66.36-8.5-93.24-17.96-26.49-42.57-47.23-63.33-71.34-9.48-11.01-18.3-23.18-24.29-37.09-6.81-15.82-9.2-33.74-10.36-51-1.22-18.13-1.58-36.3-2.98-54.43-1.35-17.51-2.93-35.01-3.25-52.58-.58-31.87,3.43-65.87,23.73-90.93,20-24.69,48.33-39.99,76.12-54.81,28.33-15.1,61.99-38.66,94.92-30.3,15.87,4.03,29.88,13.3,43.33,22.76,13.3,9.36,26.12,18.07,37.94,28.84,44.86,40.87,69.15,99.63,67.52,159.82-.46,16.82-3.08,31.13-6.55,47.69-4.15,19.83-8.22,39.67-12.05,59.56-3.83,19.89-7.42,39.83-10.61,59.84-2.6,16.28-4.61,32.51-4.56,49.02,.11,31.4,6.23,62.68,19.05,91.38,12.6,28.2,33.29,54.83,60.02,70.89,15.36,9.22,32.12,12.89,49.38,16.65,6.84,1.49,13.62,3.28,20.18,5.71,1.23,.45,2.44,.94,3.66,1.42,1.58,.63-2.16-.96,.37,.15,.53,.23,1.05,.46,1.58,.69,2.89,1.29,5.75,2.65,8.61,4.01,15.14,7.21,30.43,13.99,44.98,22.38,11.99,6.92,23.39,14.73,34.78,22.59,10.39,7.17,20.9,14.11,32.05,20.06,4.79,2.56,10.95,1.21,13.76-3.61,2.67-4.56,1.2-11.2-3.61-13.76-23.9-12.75-44.88-30.14-68.39-43.54-14.74-8.4-30.24-15.25-45.56-22.5-12.39-5.87-24.91-10.43-38.34-13.28-16.73-3.54-32.24-6.99-46.55-16.39-11.15-7.32-23.16-19.28-30.96-29.73-18.23-24.46-28.27-52.2-32.77-82.45-.34-2.3-.78-5.95-1.1-9.34-.38-4.02-.65-8.06-.83-12.09-.33-7.69-.28-15.4,.14-23.09,.97-17.79,4.09-34.22,7.25-52.38,3.46-19.92,7.26-39.77,11.24-59.59,3.82-19.03,8.44-37.99,11.62-57.13,10.59-63.72-5.46-129.32-45.25-180.33-20.38-26.13-46.97-45.73-74.34-63.99-14.09-9.4-29.73-18.15-46.66-20.92-18.6-3.04-36.88,.81-54.11,7.97-17.04,7.08-33.01,16.39-49.28,25.05-14.48,7.71-28.92,15.56-42.55,24.71-13.57,9.11-26.63,19.45-37.2,31.99-11.34,13.45-19.57,28.86-24.46,45.77-9.81,33.9-6.86,69.99-4.12,104.66,1.42,17.93,2.27,35.84,3.14,53.8,.91,18.73,2.44,37.8,7.95,55.82,9.85,32.2,32.83,56.9,55.78,80.51,21.79,22.41,45.71,45.21,52.57,76.7,.81,3.74,1.25,6.67,1.44,10.57,.09,1.85,.11,3.71,.04,5.56-.04,1.21-.14,2.42-.25,3.63-.19,2.17,.22-.48-.24,1.56-1.68,7.34-2.96,10.9-6.96,17.06-6.77,10.41-18.19,19.41-29.53,26.44-12.53,7.77-25.93,13.91-39.42,19.81-14.56,6.36-28.48,12.16-42.57,18.13-56.24,23.84-113.9,50.14-155.45,96.48-10.55,11.76-19.95,24.58-27.98,38.18-6.6,11.17,10.79,21.31,17.37,10.15h0Z"/><path class="e" d="M458.06,197.05c-4.89-.45-9.84-.52-14.74-.24-5.63,.32-11.49,.98-16.81,2.94-5.47,2.02-9.76,5.1-11.98,10.63-2.62,6.51-2.68,14.18-.47,20.82,5.18,15.58,21.15,22.77,36.59,23.72,8.09,.5,16.16-1.51,22.48-6.69,5.2-4.26,8.87-10.74,9.97-17.36,2.81-16.85-10.05-32.13-26.85-33.48-2.71-.22-5.03,2.47-5.03,5.03,0,2.9,2.31,4.81,5.03,5.03,9.58,.77,17.72,9.82,17.25,19.48-.22,4.47-2.37,9.28-5.75,12.63-3.77,3.75-9.32,5.4-14.92,5.37-6.02-.03-12.46-1.45-17.85-4.17-4.91-2.49-8.91-6.28-10.82-11.09-1.96-4.94-2.18-9.95-.57-14.9,.32-.98,.6-1.38,.98-2.26,.29-.66-.57,.5,.18-.25,.35-.35,.7-.68,1.06-1.02,.4-.38-.23,.17-.27,.2,.21-.15,.42-.31,.65-.44,.34-.21,.69-.43,1.04-.62,.43-.24,.88-.44,1.32-.66,.51-.25-.13,.04-.2,.07,.35-.14,.7-.27,1.05-.4,2.36-.85,4.82-1.41,7.29-1.82,1.56-.26,1.31-.22,3.01-.4,1.38-.14,2.76-.24,4.14-.31,4.74-.25,9.5-.17,14.23,.27,2.71,.25,5.03-2.49,5.03-5.03,0-2.93-2.31-4.78-5.03-5.03h0Z"/><path class="g" d="M444.37,230.89c3.95,0,7.73-3.47,7.54-7.54-.18-4.09-3.31-7.54-7.54-7.54-3.95,0-7.73,3.47-7.54,7.54,.18,4.09,3.31,7.54,7.54,7.54h0Z"/><path class="e" d="M251.72,201.83c-11.3,3.25-17.9,15.37-16.39,26.72,1.63,12.26,11.89,21.54,23.26,25.14,6.37,2.01,13.79,2.48,20.12,.09,5.53-2.08,9.99-5.76,13.42-10.54,6.52-9.08,7.45-21.88,1.35-31.4-6.99-10.92-20.68-16.75-33.28-13.64-11.26,2.78-19.24,9.3-18.83,11.91,3.4,21.96-.99,2.97,21.51-2.21,7.11-1.64,15.12,1.1,20.34,6.93,4.96,5.54,5.59,13.5,2.25,20.02-1.74,3.38-4.01,6.05-6.97,7.91-1.84,1.15-2.71,1.54-4.84,2.07-2.44,.6-5.07,.63-7.56,.31-8.32-1.08-16.87-6.46-19.85-14.09-2.98-7.62,1.01-18.09,8.64-20.28,6.21-1.79,3.06-10.72-3.18-8.92h0Z"/><path class="g" d="M267.7,231.89c3.95,0,7.73-3.47,7.54-7.54s-3.31-7.54-7.54-7.54c-3.95,0-7.73,3.47-7.54,7.54,.18,4.09,3.31,7.54,7.54,7.54h0Z"/><path class="e" d="M555.9,204.42c.35,.07,.7,.19,1.06,.25,1.51,.28-.72-.15-.87-.4,.07,.12,.94,.53,.98,.55,1.07,.59-.3,.41-.62-.55,.15,.46,1.37,1.31,1.75,1.7,.22,.22,.84,1.1,.02-.04-.95-1.32,.16,.27,.35,.56,.49,.75,.93,1.53,1.34,2.32,.08,.15,.59,.98,.59,1.23,0-.13-.82-2.25-.2-.41s1.22,3.72,1.65,5.64c.22,.98,.42,1.96,.59,2.94,.14,.78,.11,2.3,.47,2.99-.12-.23-.27-2.34-.07-.41,.05,.5,.11,1.01,.17,1.51,.11,1.05,.21,2.09,.29,3.14,.17,2.11,.27,4.22,.26,6.33,0,1.05-.04,2.1-.1,3.15-.03,.52-.09,1.04-.13,1.56-.15,1.97,.28-1.21,0,.03-.38,1.72-.71,3.43-1.23,5.12-.25,.8-.51,1.59-.8,2.37-.14,.38-.29,.77-.44,1.15-.65,1.68,.72-1.57,.19-.45-1.36,2.85-2.83,5.6-4.54,8.25-3.33,5.17-7.21,9.94-10.68,15.01-4.49,6.56-8.14,13.83-9.95,21.61-1.19,5.11,1.58,11.13,7.03,12.37,5.14,1.17,11.09-1.54,12.37-7.03,.41-1.75,.9-3.48,1.5-5.17,.12-.33,1.2-2.98,.49-1.36-.64,1.44-.07,.18,.09-.18,.25-.54,.5-1.08,.77-1.61,1.47-2.95,3.21-5.76,5.08-8.48,3.74-5.47,7.97-10.59,11.46-16.24,4.6-7.44,7.62-15.54,8.66-24.23,.55-4.58,.4-9.19-.03-13.78-.46-4.91-1.05-9.87-2.21-14.68-2.44-10.12-8.79-21.89-19.93-24.19-5.14-1.06-11.11,1.49-12.37,7.03-1.14,5.02,1.51,11.24,7.03,12.37h0Z"/><path class="e" d="M325.37,360.76c4.75,5.09,11.21,7.37,17.82,9,7.5,1.84,15.32,3.04,23.06,2.83,13.86-.37,27.63-5.31,37.01-15.83,5.12-5.75-3.34-14.27-8.49-8.49-7.31,8.21-17.66,12.02-28.52,12.31-6.09,.16-12.1-.62-18.03-1.97-5.17-1.18-10.62-2.34-14.36-6.35-5.28-5.66-13.76,2.84-8.49,8.49h0Z"/></g></g></svg>