<?xml version="1.0" encoding="UTF-8"?><svg xmlns="http://www.w3.org/2000/svg" viewBox="0 0 917.2 617.03"><defs><style>.d,.e{fill:none;}.f,.g{fill:#efefef;}.h{fill:#98c1d9;}.i,.j{fill:#3d5a80;}.g{opacity:.21;}.e{stroke:#efefef;stroke-miterlimit:10;}.k,.j{opacity:.25;}.l{opacity:.36;}</style></defs><g id="a"/><g id="b"><g id="c"><path class="d" d="M780.61,260.89l7.16,2.74c7.7,2.95,15.99,6.4,20.01,13.6,4.16,7.45,2.34,17.18-2.66,24.1-5,6.92-12.63,11.46-20.42,14.95-6.27,2.8-12.85,5.09-18.52,8.96-5.67,3.88-10.46,9.76-11,16.61"/><path class="h" d="M887.42,526.36c-1.58-.43-7.66-6.59-12.68-11.71,.26-.4,.49-.82,.66-1.29,.69-1.82,.72-3.38,.24-4.79-3.78-1.04-7.57-2.05-11.34-3.15-7.11-2.07-14.02-4.71-21.18-6.61-12.07-3.21-24.42-5.44-35.73-10.98-11.93-5.85-22.35-15.39-28.74-27.08-5.99-10.97-8.77-23.33-13.97-34.65-1.66-3.6,1.45-6.89,4.38-6.94-.57-5.51-.68-11.11-.69-16.61-.04-28.56,2.33-58.71,15.67-83.58-4.9-27.05-5.68-54.96-6.83-82.4-3.54-5.94-7.21-12.13-11.18-19.2-11.6-20.65-29.89-39.62-53.58-43.94-21.82-3.98-43.76,5.06-63.59,14.82-11.48,5.65-22.99,11.77-31.93,20.8-18.87,19.05-23.15,47.6-23.69,74.12-.71,35.51-4.15,82.38,26.04,101.42,12.89,8.13,31.93,27.89,35.39,44.33,3.08,14.63-10.88,27.32-20.85,38.63-9.97,11.31-27.98,14.45-40.96,22.3-8.3,5.02-22.37,10.85-31.87,13.03-8.64,1.98-7.29,5.61-16.07,6.89-.34,.05-.67,.12-1.01,.18-.08,1.35-.74,2.66-2.14,3.48-6.44,3.8-13.53,6.72-20.58,9.67-7.88,3.3-15.5,12.14-21.15,18.3-1.32,1.44-4.53,3.97-5.09,5.82-1.21,3.97,.49,1.78,1.4,5.18,.93,3.48,1.1,6.6,1.37,10.75,.24,3.6,1.8,7.5,5.14,8.88,1.95,.81,4.16,.6,6.26,.39,20.48-2.03,41.26-3.03,61.84-2.22,17.39,.69,34.05,3.38,51.88,2.22,37.22-2.43,73.86-10.48,111.23-11.15,17.19-.31,42.35,3.33,59.51,2.38,12.59-.69,47.59-7.99,60.11-9.52,21.9-2.68,31.35,.61,51.78-7.74,1.99-.82,9.52-12.5-18.05-20.04Z"/><path class="f" d="M666.18,358.66c5.13-1.15,8.98-1.68,14.2-1.93s10.01-.04,14.98,.56c2.13,.26,4.18-2.07,4.09-4.09-.11-2.44-1.81-3.81-4.09-4.09-10.46-1.27-21.08-.64-31.36,1.66-2.09,.47-3.52,3-2.86,5.03,.71,2.19,2.79,3.36,5.03,2.86h0Z"/><path class="f" d="M707.59,259.84l26.86,3.2c1.47,.17,2.73-1.38,2.73-2.73,0-1.62-1.26-2.55-2.73-2.73l-26.86-3.2c-1.47-.17-2.73,1.38-2.73,2.73,0,1.62,1.26,2.55,2.73,2.73h0Z"/><path class="f" d="M638.89,255.12c-7.2-.38-14.33,1.11-20.85,4.13-1.34,.62-1.67,2.55-.98,3.73,.8,1.37,2.39,1.6,3.73,.98,5.68-2.64,11.87-3.72,18.1-3.39,1.47,.08,2.73-1.31,2.73-2.73,0-1.54-1.25-2.65-2.73-2.73h0Z"/><path class="f" d="M669.66,271.47c.24,4.41,.48,8.82,.39,13.24-.05,2.27-.19,4.53-.45,6.78,0,0-.09,.7-.03,.3,.06-.45-.06,.42-.08,.5-.08,.49-.16,.98-.25,1.46-.22,1.18-.48,2.36-.79,3.52-1.12,4.2-2.91,8.26-2.89,12.69s1.8,8.7,5.52,11.3c4.07,2.85,9.42,2.2,14.02,1.49,2.12-.33,3.48-3.1,2.86-5.03-.75-2.31-2.76-3.21-5.03-2.86-.23,.04-.46,.07-.69,.1-.07,.01-.65,.09-.15,.02s-.08,0-.16,.02c-.23,.03-.47,.05-.7,.08-.82,.08-1.64,.13-2.47,.11-.4,0-.81-.05-1.21-.07-.61-.02,.66,.16,.08,0-.16-.04-.33-.06-.5-.1-.38-.09-.75-.22-1.12-.33-.44-.13,.16,.06,.21,.09-.23-.15-.49-.26-.73-.41-.14-.09-.28-.18-.42-.28,.65,.48,.18,.13,.07,0-.1-.11-.22-.25-.33-.35-.42-.37,.32,.56,.04,.07-.16-.28-.35-.54-.5-.83-.06-.12-.33-.75-.13-.25s-.05-.18-.08-.27c-.12-.37-.21-.74-.29-1.11-.05-.22-.08-.43-.12-.65,0,.06,.05,.73,.05,.26,.01-.84-.03-1.65,.03-2.48-.05,.66,.09-.53,.13-.73,.08-.4,.17-.8,.27-1.2,.25-1,.55-1.98,.86-2.95,.58-1.85,1.19-3.7,1.63-5.59,.96-4.14,1.39-8.42,1.51-12.66,.13-4.63-.12-9.26-.37-13.88-.12-2.13-1.8-4.19-4.09-4.09-2.12,.09-4.22,1.8-4.09,4.09h0Z"/><g class="l"><path class="i" d="M740.19,285.34c.1,1.43,.23,2.9,.04,4.33,.09-.73-.08,.23-.14,.44-.03,.11-.4,1.05-.18,.58s-.21,.34-.26,.43c-.16,.26-.72,.75-.15,.24-.2,.18-.38,.41-.58,.6-.28,.27-.52,.45-.07,.11-.5,.37-1.03,.69-1.58,.97-.36,.18-.64,.27-.1,.07-.32,.12-.63,.23-.96,.33-.74,.22-1.49,.37-2.24,.5-.29,.05-.28,.04,.05,0l-.42,.04c-.42,.03-.84,.07-1.26,.09-.7,.04-1.4,.05-2.1,.06-1.43,.02-2.86,.03-4.28-.02-.63-.02-1.26-.06-1.89-.12-.26-.02-1.13-.17-.4-.04-.37-.07-.73-.13-1.1-.21-.6-.14-1.19-.31-1.77-.51-1.05-.36,.6,.37-.37-.17-.32-.18-.65-.36-.96-.56-1.82-1.14-4.59-.45-5.6,1.47-1.06,2.01-.47,4.39,1.47,5.6,3.18,1.99,6.93,2.6,10.63,2.73,3.65,.13,7.42,.13,11.01-.61s6.93-2.66,9.17-5.63c2.34-3.1,2.49-6.99,2.23-10.71-.15-2.13-1.77-4.2-4.09-4.09-2.09,.09-4.26,1.81-4.09,4.09h0Z"/></g><path class="f" d="M731.72,264.31c-2.65-.25-5.33-.28-8-.13-3.05,.18-6.23,.53-9.12,1.59-2.97,1.1-5.29,2.76-6.5,5.76-1.42,3.53-1.45,7.69-.26,11.29,2.81,8.45,11.47,12.35,19.85,12.86,4.39,.27,8.77-.82,12.19-3.63,2.82-2.31,4.81-5.82,5.41-9.41,1.53-9.14-5.45-17.43-14.56-18.16-1.47-.12-2.73,1.34-2.73,2.73,0,1.57,1.25,2.61,2.73,2.73,5.2,.42,9.61,5.33,9.35,10.56-.12,2.42-1.29,5.03-3.12,6.85-2.04,2.03-5.06,2.93-8.09,2.91-3.27-.02-6.76-.79-9.68-2.26-2.66-1.35-4.83-3.41-5.87-6.01s-1.18-5.4-.31-8.08c.17-.53,.33-.75,.53-1.23,.16-.36-.31,.27,.1-.13,.19-.19,.38-.37,.57-.55,.22-.2-.13,.09-.15,.11,.12-.08,.23-.17,.35-.24,.19-.12,.37-.23,.56-.34,.23-.13,.48-.24,.71-.36,.28-.14-.07,.02-.11,.04,.19-.08,.38-.15,.57-.22,1.28-.46,2.61-.76,3.95-.99,.85-.14,.71-.12,1.63-.21,.75-.08,1.5-.13,2.24-.17,2.57-.13,5.15-.09,7.72,.14,1.47,.14,2.73-1.35,2.73-2.73,0-1.59-1.25-2.59-2.73-2.73h0Z"/><path class="i" d="M720.65,285.74c2.14,0,4.19-1.88,4.09-4.09-.1-2.22-1.8-4.09-4.09-4.09-2.14,0-4.19,1.88-4.09,4.09,.1,2.22,1.8,4.09,4.09,4.09h0Z"/><g class="l"><path class="i" d="M605.95,284.21c-.42,3.86,2.02,7.36,4.23,10.28,1.25,1.65,2.55,3.11,4.3,4.25,1.77,1.15,3.83,1.64,5.89,1.91,6.98,.94,14.68,1.49,20.99-2.24,1.84-1.09,2.67-3.73,1.47-5.6-1.2-1.85-3.63-2.63-5.6-1.47-.32,.19-.64,.37-.98,.54-.17,.08-1.16,.47-.37,.18-.57,.21-1.15,.4-1.75,.56-.36,.09-.72,.17-1.08,.24-.09,.02-1.3,.21-.38,.09-.62,.08-1.24,.13-1.87,.16-2.85,.14-5.7-.12-8.53-.42-.33-.03-.65-.07-.98-.11,.84,.11-.41-.08-.47-.1-.32-.06-.64-.14-.95-.23-.19-.05-.37-.11-.56-.17,.31,.15,.34,.16,.08,.03-.27-.15-.54-.29-.8-.45-.88-.53,.43,.48-.3-.25-.48-.47-.92-.96-1.36-1.46-.3-.34,.29,.42-.14-.19-.21-.3-.43-.6-.64-.9-.41-.59-.82-1.18-1.19-1.79-.17-.28-.33-.58-.5-.87-.54-.95,.1,.56-.21-.46-.04-.14-.24-1.24-.17-.4-.03-.39,0-.76,.04-1.15,.23-2.14-2.05-4.18-4.09-4.09-2.41,.11-3.84,1.8-4.09,4.09h0Z"/></g><path class="f" d="M619.8,266.9c-6.13,1.76-9.71,8.34-8.89,14.49,.88,6.65,6.45,11.68,12.62,13.63,3.45,1.09,7.48,1.34,10.91,.05,3-1.13,5.42-3.13,7.28-5.72,3.54-4.93,4.04-11.86,.73-17.03-3.79-5.92-11.22-9.09-18.05-7.4-6.11,1.51-10.43,5.05-10.21,6.46,1.84,11.91-.54,1.61,11.67-1.2,3.86-.89,8.2,.6,11.03,3.76,2.69,3,3.03,7.32,1.22,10.86-.94,1.84-2.17,3.28-3.78,4.29-1,.62-1.47,.84-2.62,1.12-1.32,.33-2.75,.34-4.1,.17-4.51-.59-9.15-3.5-10.77-7.64-1.62-4.13,.55-9.81,4.69-11,3.37-.97,1.66-5.81-1.72-4.84h0Z"/><path class="i" d="M624.82,286.28c2.14,0,4.19-1.88,4.09-4.09-.1-2.22-1.8-4.09-4.09-4.09-2.14,0-4.19,1.88-4.09,4.09,.1,2.22,1.8,4.09,4.09,4.09h0Z"/><path class="f" d="M784.78,268.31c.19,.04,.38,.1,.57,.14,.82,.15-.39-.08-.47-.22,.04,.06,.51,.29,.53,.3,.58,.32-.16,.22-.34-.3,.08,.25,.75,.71,.95,.92,.12,.12,.45,.6,.01-.02-.52-.72,.09,.15,.19,.3,.26,.41,.51,.83,.72,1.26,.04,.08,.32,.53,.32,.67,0-.07-.44-1.22-.11-.22s.66,2.02,.9,3.06c.12,.53,.23,1.06,.32,1.6,.08,.43,.06,1.25,.26,1.62-.06-.12-.15-1.27-.04-.22,.03,.27,.06,.55,.09,.82,.06,.57,.11,1.14,.16,1.7,.09,1.14,.15,2.29,.14,3.43,0,.57-.02,1.14-.06,1.71-.02,.28-.05,.56-.07,.85-.08,1.07,.15-.66,0,.01-.21,.93-.38,1.86-.67,2.78-.13,.43-.28,.86-.43,1.28-.08,.21-.16,.42-.24,.62-.35,.91,.39-.85,.1-.24-.74,1.54-1.53,3.03-2.46,4.48-1.8,2.8-3.91,5.39-5.79,8.14-2.44,3.56-4.41,7.5-5.4,11.72-.65,2.77,.86,6.04,3.81,6.71,2.79,.64,6.02-.84,6.71-3.81,.22-.95,.49-1.89,.81-2.81,.06-.18,.65-1.62,.26-.74-.34,.78-.04,.1,.05-.1,.13-.29,.27-.58,.42-.87,.8-1.6,1.74-3.13,2.75-4.6,2.03-2.96,4.32-5.75,6.21-8.81,2.5-4.04,4.13-8.43,4.7-13.14,.3-2.49,.21-4.99-.02-7.47-.25-2.66-.57-5.36-1.2-7.96-1.33-5.49-4.77-11.87-10.81-13.12-2.79-.57-6.03,.81-6.71,3.81-.62,2.73,.82,6.1,3.81,6.71h0Z"/><g><path class="h" d="M451.03,600.01c-1.15,.18-2.29,.35-3.44,.51-.39,.06-2.28,.37-.59,.09-.61,.1-1.24,.16-1.85,.24-2.38,.3-4.77,.57-7.16,.81-4.78,.48-9.57,.86-14.37,1.14-9.61,.56-19.24,.75-28.86,.74-19.48-.02-38.97-.76-58.44-1.29l-29.38-.81c-4.5-.12-9.03-.09-13.51-.55-.26-.03-1.78-.19-.71-.07s-.65-.13-.92-.18c-1.04-.2-2.08-.46-3.09-.79-.39-.13-.88-.42-1.28-.46,.99,.09,.96,.44,.36,.14-.2-.1-.41-.2-.61-.31-.4-.21-.8-.43-1.18-.67-.24-.15-.48-.31-.72-.47-.17-.12-.98-.73-.18-.1,.86,.67-.46-.42-.62-.57-.31-.29-.62-.58-.92-.89-.7-.72-1.29-1.53-1.98-2.26,0,0,.81,1.11,.4,.5-.12-.18-.26-.35-.38-.53-.29-.42-.58-.84-.86-1.26-.56-.86-1.09-1.73-1.61-2.61-2.26-3.88-4.32-7.88-6.47-11.82-4.64-8.5-9.34-16.98-14.09-25.42-9.54-16.96-19.3-33.81-29.27-50.53-9.88-16.57-19.98-33.03-30.28-49.35-2.55-4.05-4.93-8.34-7.94-12.07-1.68-2.09-4.06-3.66-6.74-4.02-3.78-.51-7.42,1.17-9.45,4.47-1.65,2.68-2.48,6.54-1.6,9.56,.26,.88,.7,1.76,1.15,2.56,.1,.18,.2,.4,.32,.56,.4,.52-.19-.52-.21-.57,.57,1.5,1.24,2.97,1.94,4.41,1.99,4.1,4.44,7.95,7.05,11.68,5.28,7.55,10.94,14.83,16.22,22.38,5.25,7.51,10.32,15.14,15.21,22.88,9.84,15.57,18.82,31.61,27.32,47.95,2.09,4.02,4.23,8.03,6.68,11.85,2.43,3.81,5.25,7.34,7.88,11.01,2.6,3.64,4.68,7.49,6.74,11.45,2.1,4.03,4.53,8.1,7.97,11.13,3.86,3.4,8.49,5.67,13.71,5.72,3.53,.03,6.9-3.13,6.74-6.74s-2.96-6.71-6.74-6.74c-.41,0-.85-.08-1.26-.06,1.46-.07,1.11,.19,.56,.04-.2-.06-.4-.1-.6-.15-.27-.07-1.55-.58-.57-.14s-.67-.36-.89-.49c-.37-.21-.73-.44-1.08-.68-.17-.11-.34-.28-.52-.37,.01,0,1.03,.88,.52,.38-.73-.71-1.49-1.35-2.16-2.12-.17-.19-1.07-1.31-.43-.48,.67,.87-.42-.61-.57-.84-.63-.94-1.21-1.91-1.76-2.89-1.03-1.84-1.96-3.73-2.94-5.59-4.11-7.85-10.15-14.41-14.66-22.01-4.56-7.69-8.4-15.81-12.68-23.66-4.31-7.9-8.79-15.7-13.45-23.4-9.31-15.38-19.31-30.34-29.97-44.82-5.33-7.24-11.01-14.36-14.89-22.53-.12-.25-.71-1.14-.64-1.4-.11,.41,.44,1.04,.09,.2-.25-.6-.48-1.22-.77-1.8-.18-.37-.37-.79-.62-1.12-.41-.55,.24,.59,.25,.65v2.22c.05-.24,.1-.48,.17-.71,.07-.26,.54-1.61,.13-.57-.37,.92-.12,.27,.02,.09-.53,.67-1.29,1.44-2.08,1.76-.53,.21-1.06,.26-1.63,.29,1-.06-.84-.11-.88-.12,.1,.03-1.49-.69-.89-.35s-.98-1.01-.56-.45c.19,.25,.49,.54,.72,.75,.6,.55-.85-1.22-.41-.55,.09,.14,.19,.27,.29,.41,.58,.85,1.11,1.73,1.66,2.59,1.26,1.98,2.51,3.95,3.77,5.93,10.13,16,20.04,32.15,29.76,48.4,9.76,16.32,19.31,32.76,28.66,49.32,4.68,8.28,9.3,16.59,13.87,24.93,2.26,4.12,4.5,8.26,6.75,12.39,2.06,3.79,4.26,7.42,7.02,10.75,3.07,3.69,7.01,6.31,11.48,8.01,4.2,1.6,8.87,1.98,13.32,2.17,9.44,.4,18.9,.54,28.34,.8,19.09,.53,38.18,1.18,57.27,1.48,18.88,.29,37.81,.06,56.61-1.94,5.03-.54,10.04-1.2,15.04-1.97,1.56-.24,3.27-1.8,4.03-3.1,.85-1.45,1.2-3.58,.68-5.2-.53-1.63-1.54-3.21-3.1-4.03-1.71-.9-3.3-.97-5.2-.68h0Z"/><path class="h" d="M280.11,603.98c22.14,2.32,44.41,3.28,66.67,2.87,11.19-.21,22.36-.82,33.52-1.65,5.53-.41,11.06-.78,16.6-.71,5.53,.07,11.04,.48,16.55,.89,6.23,.47,12.45,.94,18.68,1.41l9.51,.72c3,.23,6.04,.34,9.03,.71l-1.79-.24c.76,.11,1.5,.27,2.21,.56l-1.61-.68c.33,.15,.63,.32,.92,.54l-1.36-1.05c.16,.14,.3,.27,.44,.43l-1.05-1.36c.17,.23,.31,.46,.42,.72l-.68-1.61,.07,.21c.58,1.67,1.54,3.12,3.1,4.03,1.45,.85,3.58,1.2,5.2,.68s3.21-1.54,4.03-3.1,1.27-3.49,.68-5.2c-.83-2.4-2.2-4.27-4.38-5.63-1.19-.74-2.66-1.26-4.06-1.49-3.17-.53-6.41-.64-9.61-.88l-17.65-1.33c-11.71-.88-23.47-2.17-35.23-1.72-5.89,.23-11.76,.78-17.63,1.17-5.87,.39-11.74,.68-17.62,.88-11.76,.4-23.52,.41-35.28,.04-11.76-.37-23.5-1.12-35.21-2.25-1.49-.14-2.98-.3-4.48-.45-1.61-.17-3.67,.87-4.77,1.97-1.17,1.17-2.05,3.09-1.97,4.77,.08,1.74,.65,3.55,1.97,4.77l1.36,1.05c1.05,.61,2.19,.92,3.4,.92h0Z"/></g><g><path class="d" d="M283.05,585.99h.97l-81.16-139.31c-.98-1.68-2.56-2.89-4.44-3.38-.62-.16-1.25-.24-1.87-.24-1.27,0-2.53,.34-3.66,1-1.68,.98-2.89,2.56-3.38,4.44-.5,1.88-.23,3.85,.75,5.53l80.9,138.87c2.37-4.12,6.81-6.91,11.89-6.91Z"/><path class="f" d="M271.16,592.9l-80.9-138.87c-.98-1.68-1.25-3.65-.75-5.53,.5-1.89,1.7-3.46,3.38-4.44,1.13-.66,2.39-1,3.66-1,.62,0,1.25,.08,1.87,.24,1.88,.5,3.46,1.7,4.44,3.38l81.16,139.31h7.43l-83.04-142.54c-1.84-3.17-4.81-5.43-8.36-6.36-3.54-.94-7.24-.43-10.4,1.41-3.17,1.84-5.43,4.81-6.36,8.35-.93,3.54-.43,7.24,1.41,10.4l85.15,146.16c-.33-1.18-.53-2.43-.53-3.72,0-2.48,.67-4.8,1.83-6.81Z"/><path class="f" d="M455.39,585.99h-163.93l3.71,6.37s.02,.04,.03,.06h160.19c4.02,0,7.3,3.27,7.3,7.3s-3.27,7.3-7.3,7.3h-160.77c-1.11,1.63-2.58,3.05-4.4,4.11h0c-2.17,1.26-4.54,1.86-6.88,1.86-4.73,0-9.33-2.44-11.88-6.81l-1.6-2.74c1.63,5.76,6.92,10,13.19,10h172.33c7.56,0,13.72-6.15,13.72-13.72s-6.15-13.72-13.72-13.72Z"/><path class="f" d="M283.34,612.98c2.34,0,4.72-.6,6.88-1.86h0c1.82-1.06,3.28-2.48,4.4-4.11h-11.56c-3.58,0-6.57-2.6-7.18-6.01l-4.72-8.1c-1.15,2.01-1.83,4.33-1.83,6.81,0,1.29,.19,2.53,.53,3.72l1.6,2.74c2.55,4.37,7.15,6.81,11.88,6.81Z"/><path class="f" d="M287.77,592.42h7.43s-.02-.04-.03-.06l-3.71-6.37h-7.43l3.74,6.42Z"/><path class="f" d="M270.19,602.98c1.43,2.29,3.29,4.21,5.51,5.73,2.28,1.55,4.98,2.48,7.66,3.04,5.72,1.2,11.75,1.23,17.58,1.13,1.51-.03,2.96-1.31,2.89-2.89s-1.27-2.92-2.89-2.89c-2.7,.04-5.4,.01-8.1-.1-1.32-.06-2.63-.13-3.94-.25-.3-.03-.6-.06-.9-.09-.2-.02-.4-.04-.6-.07-.33-.04-.4-.05-.21-.02,.18,.03,.11,.02-.21-.03-.2-.03-.4-.06-.59-.09-.3-.05-.59-.1-.89-.16-1.27-.24-2.53-.55-3.75-.98-.28-.1-.55-.2-.82-.31,.44,.18-.25-.12-.34-.16-.53-.26-1.04-.54-1.54-.86-.21-.13-.42-.27-.63-.42-.06-.04-.68-.55-.22-.15-.45-.38-.89-.76-1.3-1.18-.35-.36-.68-.74-1.01-1.12,.39,.46-.08-.11-.16-.22-.19-.27-.38-.56-.55-.84-.8-1.28-2.62-1.9-3.95-1.04s-1.89,2.58-1.04,3.95h0Z"/><path class="f" d="M182.89,446.41c-1.56,6.58,1.19,12.83,4.66,18.3,1.64,2.59,3.36,5.14,5.04,7.7,1.66,2.53,2.67,5.49,4.59,7.84,1.62,1.97,2.97,4.67,4.36,7.2l4.74,8.64c3.19,5.82,6.39,11.64,9.58,17.46,1.65,3,3.29,6,4.94,9,1.56,2.84,3.01,5.78,4.87,8.43,1.71,2.44,3.53,4.78,5.16,7.28,1.8,2.75,3.53,5.54,5.2,8.37,6.48,10.98,11.86,22.58,18.49,33.47,3.17,5.21,7.04,10.16,9.45,15.8,.49,1.15,.76,2.37,1.22,3.53,.65,1.65,1.62,2.94,2.71,4.33,1.87,2.38,3.79,4.56,6.29,6.3,5.07,3.53,11.54,3.68,17.48,3.74,6.77,.06,13.53,.13,20.3,.19s13.35,.35,19.99-.06c3.41-.21,6.79-.56,10.2-.46s6.74,.2,10.1,.43c2.85,.19,5.69,.51,8.54,.58,2.63,.06,5.26-.02,7.9-.05,6.13-.07,12.25,.54,18.38,.47,13.47-.14,26.94-.44,40.41-.41,6.5,0,13,.11,19.5,.12,3.35,0,6.74,.06,10.06-.44,1.49-.22,3.1-.58,4.41-1.36,.75-.44,1.27-1.03,1.87-1.62,.32-.31,.59-.42,1.22-.84,3.13-2.08,4.03-4.98,4.5-8.53,.41-3.1,.19-6.05-1.4-8.81-3.21-5.6-9.59-7.79-15.7-8.09-6.44-.32-12.97,.5-19.41,.67s-13.17,.03-19.74-.3c-3.01-.15-5.98-.75-9-.67-3.2,.08-6.4,.26-9.6,.32-6.76,.12-13.52,.21-20.27,.28-13.52,.14-27.04,.18-40.55,.12-5.58-.02-11.14-.06-16.72-.12-1.84-.02-3.66,.27-5.5,.36-3.21,.17-6.42,.03-9.62-.01-1.6-.02-3.21-.02-4.81,.06-1.35,.06-3.23,.46-4.38,.28,.31,.05-.58-.27-.31-.11,.17,.1,.38,.34-.17-.19-.42-.4-.52-.56-.78-.93-.93-1.33-1.71-2.76-2.52-4.17-3.21-5.6-6.43-11.21-9.64-16.81-1.64-2.86-3.23-5.74-4.88-8.6-.74-1.29-1.46-2.61-2.29-3.85-.92-1.38-2-2.47-2.83-3.84-1.64-2.69-2.92-5.61-4.39-8.4-1.49-2.85-3.05-5.66-4.63-8.45-6.58-11.59-13.48-23-20.24-34.47-1.74-2.94-3.47-5.89-5.2-8.83-.8-1.35-1.57-2.72-2.4-4.06s-1.82-2.52-2.63-3.85c-3.37-5.47-6.33-11.24-9.07-17.05-1.37-2.89-2.56-5.87-4.43-8.48-1.8-2.51-3.79-4.89-5.59-7.41-1.73-2.42-3.23-5.37-5.43-7.41-1.22-1.13-2.7-2-4.35-2.33-.78-.16-1.6-.24-2.39-.24-.39,0-.77,.03-1.16,.07-.22,.02-2.19,.29-1.56,.2s-.96,.13-.74,.1c-.43,.06-.87,.11-1.3,.18-.54,.08-1.09,.18-1.62,.3-1.31,.31-2.65,.8-3.75,1.57-2.56,1.78-4.29,4.62-5.14,7.58-.57,2,.7,4.19,2.69,4.74s4.16-.68,4.74-2.69c.23-.79,.72-1.86,1.17-2.42,.18-.22,.39-.41,.58-.62,.07-.08,.59-.45,.13-.14,.2-.13,.43-.26,.65-.36-.59,.26,.57-.13,.58-.14,.53-.14,1.08-.25,1.62-.34,.27-.04,.53-.08,.8-.12-.85,.13,.73-.1,.62-.09l.51-.07c-.29,.04-.29,.04,.01,0,.31-.03,.62-.06,.93-.07,.61-.02,.89-.04,1.39,.18-.28-.13,.55,.5,.14,.13,.2,.18,.39,.4,.58,.6,.02,.02,.43,.56,.17,.22,.17,.23,.32,.46,.48,.69,.89,1.31,1.77,2.62,2.68,3.9,1.8,2.53,3.84,5.05,5.62,7.46s2.99,5.16,4.26,7.89c1.33,2.86,2.73,5.68,4.19,8.47,1.46,2.79,2.99,5.54,4.58,8.25,1.46,2.5,3.2,4.8,4.67,7.3,6.67,11.29,13.31,22.58,19.97,33.87,3.22,5.46,6.44,10.92,9.47,16.49,1.48,2.73,2.89,5.49,4.3,8.26,.66,1.3,1.32,2.63,2.11,3.86s1.85,2.33,2.57,3.42c3.47,5.22,6.31,10.96,9.43,16.4s6.02,10.97,9.37,16.23c1.78,2.79,3.97,5.27,7.42,5.73,1.47,.2,2.87,0,4.34-.1,1.6-.11,3.2-.13,4.81-.13,3.21,.01,6.42,.17,9.63,.07,1.99-.06,3.97-.38,5.96-.41,1.82-.02,3.64,.1,5.46,.13,3.21,.06,6.43-.03,9.65-.02,6.48,.03,12.96,.04,19.44,.03,13.15-.03,26.29-.14,39.44-.35,3.2-.05,6.4-.06,9.6-.18,2.93-.11,5.77-.25,8.57,.09,6.31,.77,12.81,.74,19.17,.74s12.7-.38,19.04-.67c2.81-.13,5.82-.29,8.47,.3,.65,.15,1.28,.34,1.92,.54,.71,.22,.38,.14,.2,.06,.25,.11,.49,.23,.73,.36s.48,.26,.71,.4c-.12-.07,.98,.66,.61,.39,.2,.15,.9,.8,1.25,1.18,.4,.44,.97,1.39,1.08,1.85,.06,.26,.14,.5,.19,.76-.12-.61,0,.17,0,.27,0,.84-.06,1.68-.17,2.52,0,.04-.14,.87-.22,1.22,.03-.14-.36,1.15-.21,.78,.12-.3-.34,.5-.15,.26,.08-.1,.58-.4-.17,.11-.23,.16-.48,.29-.71,.44-.74,.47-1.45,.99-2.07,1.6-.21,.21-.8,.67-.23,.38-.56,.28-1.31,.39-1.92,.5-1.28,.22-2.82,.22-4.23,.25-3.1,.06-6.21,.02-9.31,0-13.03-.13-26.05-.12-39.08,.05-6.39,.08-12.79,.38-19.18,.26-5.81-.11-11.59-.55-17.4-.41s-10.95-.44-16.46-.71c-3.18-.16-6.39-.32-9.58-.32s-6.42,.39-9.64,.55c-6.47,.32-12.98,.06-19.46,0s-13.16-.12-19.74-.18c-4.99-.05-10.35,.05-14.08-3.06-1.93-1.61-3.77-3.79-4.95-5.79-.44-.75-.72-2.09-1.14-3.16-.64-1.63-1.37-3.23-2.19-4.77-2.77-5.23-6.33-10.02-9.34-15.12s-6.04-10.81-8.93-16.28c-2.91-5.5-5.84-10.98-9.03-16.32-1.59-2.66-3.24-5.29-4.95-7.89-1.58-2.4-3.38-4.64-5-7-1.79-2.62-3.2-5.5-4.73-8.28-1.56-2.84-3.11-5.67-4.67-8.51-3.15-5.74-6.31-11.49-9.46-17.23l-4.51-8.22c-1.38-2.51-2.62-5.21-4.31-7.53-.99-1.36-1.56-1.83-2.31-3.28-.66-1.28-1.24-2.6-1.99-3.83-1.57-2.57-3.32-5.05-4.96-7.57-2.68-4.11-5.93-8.94-4.79-13.77,.48-2.02-.63-4.17-2.69-4.74-1.95-.54-4.26,.66-4.74,2.69Z"/></g><g><g><path class="h" d="M226.22,190.44c-4.86,1-9.89,1.44-15.14,1.44-12.93,0-25.57-2.32-36.01-8.55-10.77-6.43-18.06-17.32-24.29-28.43-6.04-10.77-9.72-22.57-9.72-35.9,0-10.26,1.84-19.69,5.54-28.55,2.72-6.51,6.23-12.43,10.52-17.75,.8-1,1.03-2.34,.62-3.55v-.02c-.58-1.68-2.45-2.47-3.99-3-.21-.07-.4-.17-.57-.28-8.94,.94-17.38,3.73-25.35,7.14-10.21,4.37-20.39,9.4-28.09,17.34-7.69,7.94-13.33,18.11-17.56,28.64-4.08,10.16-7.74,21.38-7.74,33.06s4.5,22.54,8.59,32.7c4.23,10.53,8.67,21.43,16.37,29.37,7.69,7.94,18.26,12.52,28.47,16.89,9.85,4.21,20.39,7.99,31.71,7.99s21.66-2.55,31.27-6.53c9.97-4.13,19.38-10,27.02-17.53,4.67-4.61,8.53-9.96,11.84-15.72,1.92-3.34,.29-7.66-3.4-8.74l-.08-.02Z"/><path class="h" d="M154.04,69.03c-.53-.48-1.26-.71-1.96-.7l1.1,6.49c.35-.66,.69-1.31,1.04-1.97,.31-.6,.64-1.22,.66-1.9,.03-.73-.3-1.45-.84-1.93Z"/><path class="h" d="M154.81,68.6c.19,.32,.31,.68,.41,1.04,.13,.44,.25,.88,.35,1.33,.14-.66,.22-1.33,.25-2l-1.42-.85c.16,.13,.3,.3,.41,.48Z"/><path class="h" d="M228.28,193.02c-.53-.29-1.17-.33-1.77-.2l1.38,5.66,1.06-2.82c.14-.37,.28-.75,.27-1.15-.01-.62-.42-1.2-.95-1.49Z"/><path class="h" d="M229.39,192.61c-.22-.27-.44-.53-.69-.76l1.56,2.67"/></g><g><path class="h" d="M226.22,190.44c-4.86,1-9.89,1.44-15.14,1.44-12.93,0-25.57-2.32-36.01-8.55-10.77-6.43-18.06-17.32-24.29-28.43-6.04-10.77-9.72-22.57-9.72-35.9,0-10.26,1.84-19.69,5.54-28.55,2.72-6.51,6.23-12.43,10.52-17.75,.8-1,1.03-2.34,.62-3.55v-.02c-.58-1.68-2.45-2.47-3.99-3-.21-.07-.4-.17-.57-.28-8.94,.94-17.38,3.73-25.35,7.14-10.21,4.37-20.39,9.4-28.09,17.34-7.69,7.94-13.33,18.11-17.56,28.64-4.08,10.16-7.74,21.38-7.74,33.06s4.5,22.54,8.59,32.7c4.23,10.53,8.67,21.43,16.37,29.37,7.69,7.94,18.26,12.52,28.47,16.89,9.85,4.21,20.39,7.99,31.71,7.99s21.66-2.55,31.27-6.53c9.97-4.13,19.38-10,27.02-17.53,4.67-4.61,8.53-9.96,11.84-15.72,1.92-3.34,.29-7.66-3.4-8.74l-.08-.02Z"/><path class="h" d="M154.04,69.03c-.53-.48-1.26-.71-1.96-.7l1.1,6.49c.35-.66,.69-1.31,1.04-1.97,.31-.6,.64-1.22,.66-1.9,.03-.73-.3-1.45-.84-1.93Z"/><path class="h" d="M154.81,68.6c.19,.32,.31,.68,.41,1.04,.13,.44,.25,.88,.35,1.33,.14-.66,.22-1.33,.25-2l-1.42-.85c.16,.13,.3,.3,.41,.48Z"/><path class="h" d="M228.28,193.02c-.53-.29-1.17-.33-1.77-.2l1.38,5.66,1.06-2.82c.14-.37,.28-.75,.27-1.15-.01-.62-.42-1.2-.95-1.49Z"/><path class="h" d="M229.39,192.61c-.22-.27-.44-.53-.69-.76l1.56,2.67"/></g><g class="k"><path class="i" d="M156.88,235.1c-4.11-1.86-8.04-4.09-11.85-6.49-3.87-2.44-7.68-4.99-11.34-7.75-5.2-4.16-10.07-8.73-14.71-13.52-4.54-4.69-8.97-9.54-13.04-14.65-3.79-5.05-7.12-10.42-9.68-16.2-2.44-6.03-4.51-12.26-5.58-18.67-.34-3.52-.32-7.05-.2-10.59,.12-3.58,.39-7.15,.81-10.7,.92-6.04,2.37-11.99,4.61-17.67,3.55-7.8,8.35-15.04,13.51-21.87,4.43-5.62,9.35-10.85,14.92-15.36,5.24-3.85,10.96-7.09,16.9-9.72,4.28-1.69,8.68-3.03,13.19-3.96l-.89-2.46c-1-.42-1.13-.44-2.13-.86-2.22-.6-5.68,1.53-7.9,2.13l-6.99,.3c-5.01,1.03-8.65,2.6-13.37,4.56-5.7,2.36-5.33,1.59-10.57,4.86-9.28,5.81-5.81,4.59-15.53,11.27-9.22,6.34-13.64,14.45-18.23,24.71-2.56,5.73-4.84,10.8-6.14,16.95-1.33,6.27-1.49,11.7-1.89,18.09-.33,5.37,1.06,9.64,1.76,14.99,.83,6.35,4.06,11.92,6.21,17.96,2.04,5.75,3.06,7.75,6.01,13.1,2.85,5.17,7.22,12.41,11.54,16.41,8.1,7.49,13.68,9.45,22.75,13.84,12.56,6.08,19.63,8.49,30.52,11.34"/></g><g><g><path class="f" d="M153.25,235.28c-11.98,0-22.86-3.83-32.84-7.97-9.94-4.12-21.2-8.79-29.42-17.02-8.2-8.2-12.88-19.48-17.01-29.43l-.34-.82c-3.97-9.57-8.47-20.41-8.47-32.02,0-12.38,4.26-24.24,7.97-33.18,4.95-11.93,11.07-21.59,18.2-28.72,8.12-8.12,18.75-13.18,29.04-17.45,12.3-5.1,22.74-7.47,32.87-7.47,.18,0,.37,.01,.56,.03,1.78,.22,3.24,1.41,3.84,3.1,.61,1.74,.2,3.64-1.08,4.96-5.69,5.86-10.23,12.68-13.49,20.28-3.56,8.27-5.29,16.93-5.29,26.46,0,11.56,3.04,22.44,9.3,33.26,5.6,9.69,12.74,20.4,23.16,26.43,9.03,5.23,20.62,7.88,34.45,7.88,7.3,0,13.73-.84,19.65-2.58,1.83-.53,3.79,.06,5.02,1.51,1.22,1.44,1.46,3.47,.63,5.17-4.83,9.83-10.2,17.5-16.42,23.44-7.51,7.19-17.18,13.27-27.96,17.6-10.82,4.34-21.71,6.55-32.37,6.55Zm-3.15-167.92c-8.35,.45-17.15,2.68-27.39,6.93-9.71,4.03-19.7,8.77-27.07,16.13-6.56,6.56-12.25,15.57-16.89,26.76-3.71,8.95-7.51,19.62-7.51,30.86,0,10.4,4.07,20.21,8.01,29.69l.34,.82c4.1,9.89,8.34,20.11,15.69,27.46,7.37,7.38,18.04,11.8,27.46,15.7,9.4,3.9,19.6,7.5,30.52,7.5,9.88,0,20.01-2.06,30.11-6.11,10.06-4.04,19.06-9.7,26.02-16.35,5.15-4.93,9.7-11.22,13.87-19.17-5.69,1.39-11.79,2.07-18.56,2.07-14.91,0-27.52-2.92-37.49-8.69-11.65-6.74-19.36-18.26-25.37-28.64-6.81-11.76-10.12-23.63-10.12-36.29,0-10.37,1.89-19.81,5.78-28.85,3.14-7.31,7.37-13.97,12.6-19.83Z"/><path class="f" d="M205.27,189.61c-11.89,0-26.1-3.88-37.13-10.26-13.37-7.74-22.6-16.21-28.21-25.92-6.58-11.37-10.2-24.65-10.2-37.4,0-10.66,4.15-20.32,7.82-28.84l5.57,2.39c-3.43,7.98-7.32,17.03-7.32,26.44,0,11.69,3.33,23.9,9.39,34.36,5.07,8.76,13.57,16.52,26,23.71,9.09,5.26,24.05,10.19,36.97,9.36l.39,6.05c-1.07,.07-2.16,.1-3.27,.1Z"/></g><path class="f" d="M145.76,67.68c.99,0,2.07,.61,2.1,1.7,.02,.59-.3,1.13-.57,1.63-.34,.64-.69,1.27-1.04,1.91-.43,.79,.78,1.5,1.21,.71s.85-1.52,1.24-2.29,.65-1.55,.5-2.42c-.28-1.63-1.86-2.64-3.45-2.63-.9,0-.9,1.41,0,1.4h0Z"/><path class="f" d="M147.49,67.21c.07,.03,.06,.02-.04-.02,.03,.01,.05,.03,.08,.04,.02,.01,.15,.08,.15,.1-.08-.06-.09-.07-.04-.02,.02,.02,.04,.04,.07,.06,.01,.01,.13,.12,.12,.14-.06-.08-.07-.09-.03-.03,.02,.02,.03,.05,.05,.08,.04,.06,.07,.12,.11,.18s.07,.13,.09,.2c-.06-.17,0,.03,.02,.06,.21,.56,.35,1.15,.5,1.73,.07,.29,.38,.53,.67,.51s.61-.21,.67-.51c.19-.85,.28-1.72,.28-2.59h-1.4c0,.36,.06,.73,.14,1.08,.07,.29,.38,.53,.67,.51,.32-.01,.58-.21,.67-.51,.05-.17,.08-.35,.05-.53-.03-.19-.06-.35-.2-.49-.12-.12-.32-.21-.49-.2-.34,.02-.75,.31-.7,.7,0,0,0,.15,0,.15v-.09s0,.06-.01,.1h1.35c-.02-.07-.04-.15-.05-.22,0-.02-.03-.23-.02-.13s0-.11-.01-.13c0-.08,0-.15,0-.23,0-.37-.32-.72-.7-.7s-.7,.31-.7,.7-.02,.79-.06,1.18c0,.05-.01,.1-.02,.14,0,.02-.03,.18,0,.08s-.01,.08-.01,.08c0,.05-.01,.09-.02,.14-.03,.2-.07,.4-.11,.59h1.35c-.17-.67-.33-1.36-.6-1.99-.29-.68-.75-1.23-1.46-1.5-.34-.13-.78,.14-.86,.49-.09,.4,.12,.72,.49,.86h0Z"/><path class="f" d="M220.31,188.22c.44-.09,.93-.07,1.33,.18,.31,.19,.52,.54,.5,.88-.02,.25-.12,.51-.21,.74-.11,.3-.23,.6-.35,.9l-.75,1.92c-.14,.35,.15,.77,.49,.86,.4,.11,.72-.13,.86-.49l.88-2.28c.28-.73,.6-1.45,.41-2.25-.16-.65-.64-1.24-1.23-1.55-.72-.38-1.52-.42-2.3-.26-.37,.07-.58,.52-.49,.86,.11,.39,.49,.56,.86,.49h0Z"/><path class="f" d="M221.81,187.1c.38,.34,.7,.75,1.03,1.14l.24,.29c.04,.05,.09,.1,.13,.15,.02,.02,.03,.04,.05,.06-.07-.09-.08-.1-.04-.04,.01,.02,.03,.05,.04,.07-.04-.1-.05-.12-.03-.04-.04-.2,0-.02,0,.04,0,.03,0,.06,0,.1,0,.08,0,.06,0-.04,.02,.02-.03,.16-.04,.19-.09,.35,.11,.78,.49,.86s.76-.11,.86-.49c.09-.34,.14-.75,.03-1.09s-.38-.61-.61-.88c-.37-.44-.73-.91-1.16-1.29-.27-.24-.72-.29-.99,0-.24,.27-.29,.73,0,.99h0Z"/></g></g><path class="f" d="M363.28,239.63c-1.95-10.66-3.79-20.73-3.79-41.45s.93-31.57,1.82-41.87c.91-10.48,1.86-21.32,1.86-42.65s.51-31.71,1.01-42.04c.5-10.44,1.02-21.24,1.02-42.47,0-12.34-12.18-19-23.64-19-26.42,0-39.84-.67-52.83-1.32-13.1-.65-26.64-1.33-53.28-1.33s-40.12,.44-53.2,.86c-13.01,.42-26.45,.86-52.91,.86s-39.87-.58-52.86-1.14c-13.09-.56-26.62-1.15-53.25-1.15C11.31,6.96,.45,17.54,.45,29.17c0,21.16,.16,31.92,.31,42.32,.15,10.37,.31,21.1,.31,42.19s.84,32.13,1.66,42.61c.8,10.3,1.63,20.95,1.63,41.91s.54,32.04,1.06,42.48c.51,10.33,1.05,21.02,1.05,42.03s-1.54,30.88-3.18,41.58c-1.61,10.55-3.28,21.47-3.28,42.94s.1,31.9,.19,42.3c.09,10.38,.19,21.11,.19,42.21,0,11.44,10.68,21.47,22.84,21.47,26.39,0,39.81,.79,52.79,1.56,13.11,.77,26.66,1.57,53.32,1.57,17.81,0,29.75-.16,39.62-.38,1.31-.73,2.02-2.65,2.28-4.51-1.08-1.73-2.61-3.32-4.35-4.43-9.47,.19-20.95,.33-37.55,.33-26.39,0-39.81-.79-52.79-1.56-13.11-.77-26.66-1.57-53.32-1.57-7.12,0-13.85-6.06-13.85-12.48,0-21.15-.1-31.9-.19-42.3-.09-10.38-.19-21.11-.19-42.21s1.54-30.88,3.18-41.58c1.61-10.55,3.28-21.47,3.28-42.94s-.54-32.04-1.06-42.48c-.51-10.33-1.05-21.02-1.05-42.03s-.84-32.13-1.66-42.6c-.8-10.3-1.63-20.96-1.63-41.91s-.16-31.92-.31-42.32c-.15-10.37-.31-21.1-.31-42.19,0-6.67,6.83-13.22,13.79-13.22,26.43,0,39.87,.58,52.86,1.14,13.09,.56,26.62,1.15,53.25,1.15s40.12-.44,53.2-.86c13.01-.42,26.45-.86,52.91-.86s39.84,.67,52.83,1.32c13.1,.65,26.64,1.33,53.28,1.33,6.08,0,14.65,3.1,14.65,10,0,21.02-.51,31.71-1.01,42.04-.5,10.44-1.02,21.24-1.02,42.47s-.93,31.57-1.82,41.87c-.91,10.48-1.86,21.32-1.86,42.65s2,32.48,3.94,43.06c1.95,10.66,3.79,20.73,3.79,41.45s-.02,31.69-.03,42.25c-.02,10.57-.03,21.13-.03,42.26s-2.09,30.71-4.31,41.34c-2.21,10.61-4.49,21.58-4.49,43.17,0,10.02-3.69,10.85-7.81,10.85-26.67,0-40.22,.85-53.33,1.67-12.34,.77-25.1,1.57-49.04,1.65-1.64,2.28-1.5,6.69-.06,8.99,24.26-.07,37.17-.88,49.66-1.67,12.97-.81,26.39-1.66,52.77-1.66,7.66,0,16.8-3.44,16.8-19.84,0-20.67,2.09-30.71,4.31-41.34,2.21-10.61,4.49-21.58,4.49-43.17s.02-31.69,.03-42.25c.02-10.57,.03-21.13,.03-42.26s-2-32.48-3.94-43.07Z"/><path class="f" d="M739.7,22.44c0,20.81-.52,31.39-1.01,41.63-.5,10.34-1.03,21.03-1.03,42.06s.92,31.85,1.81,42.23c.57,6.63,1.15,13.45,1.49,23.05,.43,.81,1.15,1.5,2.3,2.16,1.43,.81,3.83,1.92,5.47,1.31,.41-.15,.85-.48,1.3-.89-.32-11.37-.97-19-1.6-26.39-.87-10.19-1.78-20.73-1.78-41.46s.52-31.39,1.01-41.62c.5-10.34,1.03-21.03,1.03-42.06,0-11.35-9.47-20.24-21.56-20.24-26.45,0-39.9-.45-52.91-.88-13.08-.43-26.6-.88-53.2-.88s-39.98-.11-53.02-.22c-13.05-.11-26.55-.22-53.09-.22s-40.04,.12-53.09,.24c-13.03,.12-26.51,.24-53.01,.24-11.08,0-19.43,9.44-19.43,21.96,0,21.01,.41,31.69,.81,42.02,.4,10.24,.81,20.84,.81,41.67s-1.2,30.69-2.46,41.31c-1.24,10.42-2.53,21.19-2.53,42.38s.08,31.58,.15,41.88c.07,10.28,.15,20.91,.15,41.81,0,11.42,10.51,21.43,22.49,21.43,26.43,0,39.86,.61,52.85,1.2,13.09,.6,26.63,1.21,53.26,1.21,24.83,0,38.26-.24,50.56-.5,1.51-.96,2.81-2.28,3.61-3.73,1.51-2.74,.67-4.56-1.6-5.3-12.89,.27-26.36,.54-52.58,.54s-39.86-.61-52.85-1.2c-13.09-.6-26.63-1.21-53.26-1.21-7.07,0-13.5-5.93-13.5-12.44,0-20.94-.08-31.58-.15-41.88-.07-10.28-.15-20.91-.15-41.81s1.2-30.69,2.46-41.31c1.24-10.42,2.53-21.19,2.53-42.38s-.41-31.69-.81-42.02c-.4-10.24-.81-20.84-.81-41.67,0-6.45,3.59-12.97,10.44-12.97,26.55,0,40.04-.12,53.09-.24,13.03-.12,26.51-.24,53.01-.24s39.98,.11,53.02,.22c13.05,.11,26.55,.22,53.09,.22s39.9,.45,52.9,.88c13.08,.43,26.6,.88,53.2,.88,7.17,0,12.57,4.83,12.57,11.25Z"/><path class="f" d="M604.86,468.78c2.93-1.99,5.58-5.66,2.71-8.32-19.1,.07-30.4,.3-41.38,.53-13.02,.27-26.48,.55-52.96,.55s-39.86-.61-52.85-1.2c-13.09-.6-26.63-1.21-53.26-1.21-7.07,0-13.5-5.93-13.5-12.44,0-27.75-.08-41.86-.15-55.51-.07-13.63-.15-27.73-.15-55.46,0-8.39,11.5-8.81,13.8-8.81,26.59,0,40.11-.41,53.19-.81,13.01-.4,26.46-.81,52.91-.81s38.66-.58,51.12-1.17c1.01-1.02,1.72-2.31,1.88-3.82,.17-1.54,.42-4.16-1.04-5.11-.06-.04-.13-.07-.2-.1-12.66,.6-26.07,1.21-51.76,1.21s-40.11,.41-53.19,.81c-13.01,.4-26.46,.81-52.91,.81-13.63,0-22.79,7.16-22.79,17.8,0,27.75,.08,41.86,.15,55.51,.07,13.63,.15,27.73,.15,55.46,0,11.42,10.51,21.43,22.49,21.43,26.43,0,39.86,.61,52.85,1.2,13.09,.6,26.63,1.21,53.26,1.21s40.08-.28,53.15-.55c9.43-.2,19.1-.4,33.77-.49,1.6-.22,3.15-.41,4.71-.71Z"/><path class="g" d="M650.84,448c11.02-36.3-6.79-58.08-25.62-84.54-4.5-6.32-8.68-13.06-11.07-20.48-2.73-8.48-2.74-17.19-3.03-26-.32-9.87-1.85-19.42-3.82-29.07-1.6-7.87-2.89-15.59-2.54-23.64,.93-20.86,11.5-40.88,27.41-54.33,2.52-4.52,4.04-9.7,5.01-14.96-26.02,14.46-30.64,24.91-38.6,49.36-5,15.36-12.68,27.1-9.74,42.87,1.69,9.02,3.77,17.81,4.17,27.01,.43,9.67,.28,19.42,2.48,28.91,3.87,16.68,14.5,30.57,25.11,43.56,10.5,12.85,22.21,26.01,26.32,42.52,1.39,5.6,1.35,10.94,.25,16,.07,.1,.16,.22,.24,.33-27.63-28.6-64.04-50.71-96.15-75.91-17.58-13.8-34.03-28.7-51.1-43.01-43.99-36.88-92.08-69.83-143.32-98.22-8.45-4.68-19.07-2.09-24.36,5.98l-117.78,179.57c-4.19,6.39-10.23,13.16-13.17,20.07-3.36,7.9-1.3,9.36,3.73,16.86,9.11,13.58,18.26,27.15,27.47,40.68,18.21,26.75,29.42,56.49,48.05,83,4.07,5.78,5.05,10.75,11.78,13.96,6.62,3.16,25.11,1.07,32.62,.94,49.2-.88,101.99,15.87,147.59-2.63,25.65-10.41,22.7-41.52,36.01-44.56,16.06-3.67,22.06-24.42,36.21-32.16,38.13-20.86,67.66-18.96,97.98-48.35,3.53-3.42,7.77-4.58,7.71-9.24"/><path class="i" d="M743.14,274.55v.04c-.06-.48-.26-2.11,0-.04Z"/><path class="j" d="M830.76,489.03c-16.26-4.19-31.24-11.74-41.83-25.99-8.85-11.92-13.59-26.38-16.44-41.12-3.08-15.91-5.38-32.59-6.05-48.82-.37-8.84-.01-17.77,1.62-26.47,1.61-8.58,5.16-16.06,8.67-23.88,7.52-16.81,12.44-33.44,9.35-52.18-2.76-16.77-8.16-33.63-16.76-48.05-4.13-6.94-8.91-13.57-13.58-20.11-5-6.99-10.37-13.93-16.74-19.56-17.7-15.65-47.78-16.37-68.32-4.26,.32,3.37,1.25,6.66,3,9.55,3.15,5.21,8.09,10.33,14.04,11.5,4.2,.83,8.29,2.11,12.28,3.72,6.03,2.99,11.76,6.59,17.35,10.43,5.55,3.81,11.1,7.72,16.43,11.9,2.14,1.9,4.16,3.93,6.02,6.13,1.12,1.83,2.11,3.74,3.01,5.7,2.86,8.1,4.77,16.65,6.03,25.2,2.1,20.32,.16,40.76-1.94,61.01-2.2,21.22-4.58,42.66-2.45,64,1.06,10.63,2.64,21.15,5.63,31.36,2.86,9.8,6.66,19.42,11.13,28.51,3.59,7.3,7.79,14.23,12.49,20.76,5.91,8.2,12.02,16.06,19.19,23.05,7.04,6.86,14.7,13.16,22.76,18.61,8.2,5.54,16.97,9.81,25.99,13.62,1.8,.76,3.61,1.47,5.44,2.14,3.12,1.04,6.24,1.19,9.37,.45,3.13-.15,6.04-1.14,8.73-2.97,2.74-1.57,4.93-3.72,6.59-6.45,1.88-2.19,3.2-4.72,3.97-7.6-12.12-13.32-28.75-16-44.96-20.18Z"/><path class="f" d="M493.49,567.25c8.21-13.9,19.68-26.31,32.33-35.75,13.15-9.82,27.75-17.5,42.63-24.34,15.31-7.04,30.12-12.88,45.43-19.62,14.58-6.42,30.13-14.18,39.28-27.78,10.52-15.65,5.27-35.99-4.61-50.57-9.74-14.37-23.09-25.61-34.35-38.69-5.14-5.97-9.92-12.57-13.17-20.12-3.69-8.58-4.99-18.3-5.62-27.66-.66-9.84-.86-19.69-1.62-29.52-.73-9.5-1.59-18.99-1.77-28.52-.31-17.29,1.86-35.73,12.87-49.32,10.84-13.39,26.21-21.69,41.29-29.73,15.37-8.19,33.62-20.97,51.48-16.43,8.61,2.19,16.2,7.21,23.5,12.35,7.22,5.08,14.17,9.8,20.58,15.64,24.33,22.17,37.5,54.04,36.62,86.69-.25,9.12-1.67,16.89-3.55,25.86-2.25,10.75-4.46,21.52-6.54,32.31-2.08,10.79-4.02,21.6-5.76,32.45-1.41,8.83-2.5,17.64-2.47,26.59,.06,17.03,3.38,34,10.33,49.56,6.83,15.29,18.05,29.74,32.56,38.45,8.33,5,17.42,6.99,26.78,9.03,3.71,.81,7.38,1.78,10.95,3.1,.67,.25,1.32,.51,1.98,.77,.86,.34-1.17-.52,.2,.08,.29,.13,.57,.25,.86,.38,1.57,.7,3.12,1.44,4.67,2.17,8.21,3.91,16.51,7.59,24.4,12.14,6.5,3.75,12.69,7.99,18.86,12.25,5.63,3.89,11.34,7.66,17.38,10.88,2.6,1.39,5.94,.65,7.46-1.96,1.45-2.47,.65-6.07-1.96-7.46-12.96-6.91-24.34-16.35-37.09-23.62-8-4.56-16.4-8.27-24.71-12.21-6.72-3.18-13.51-5.66-20.8-7.2-9.08-1.92-17.49-3.79-25.25-8.89-6.05-3.97-12.56-10.45-16.79-16.13-9.89-13.27-15.33-28.31-17.77-44.72-.19-1.25-.42-3.23-.6-5.06-.21-2.18-.35-4.37-.45-6.56-.18-4.17-.15-8.35,.08-12.52,.52-9.65,2.22-18.56,3.93-28.41,1.88-10.8,3.94-21.57,6.1-32.32s4.58-20.6,6.3-30.99c5.75-34.56-2.96-70.14-24.54-97.81-11.05-14.17-25.47-24.8-40.32-34.71-7.64-5.1-16.13-9.84-25.31-11.34-10.09-1.65-20,.44-29.35,4.32-9.24,3.84-17.91,8.89-26.73,13.59-7.85,4.18-15.69,8.44-23.08,13.4-7.36,4.94-14.44,10.55-20.18,17.35-6.15,7.29-10.61,15.66-13.27,24.83-5.32,18.39-3.72,37.96-2.23,56.77,.77,9.72,1.23,19.44,1.7,29.18,.49,10.16,1.32,20.5,4.31,30.28,5.34,17.46,17.81,30.86,30.26,43.67,11.82,12.15,24.79,24.52,28.51,41.6,.44,2.03,.68,3.62,.78,5.73,.05,1,.06,2.01,.02,3.02-.02,.66-.08,1.31-.13,1.97-.1,1.18,.12-.26-.13,.85-.91,3.98-1.61,5.91-3.78,9.25-3.67,5.65-9.87,10.53-16.02,14.34-6.79,4.22-14.06,7.55-21.38,10.74-7.9,3.45-15.45,6.59-23.09,9.83-30.5,12.93-61.78,27.2-84.31,52.33-5.72,6.38-10.82,13.33-15.18,20.71-3.58,6.06,5.85,11.56,9.42,5.51h0Z"/><path class="f" d="M224.09,111.71c0,.98-.28,1.86-1.21,1.86s-1.19-.88-1.19-1.86,.26-1.66,1.19-1.66,1.21,.68,1.21,1.66Z"/><path class="f" d="M246.84,122.43c0,1.33-1.01,2.67-2.22,2.67s-2.2-1.35-2.2-2.67,.99-2.59,2.2-2.59,2.22,1.27,2.22,2.59Z"/><path class="f" d="M541.18,83.49c0,.98-.28,1.86-1.21,1.86s-1.19-.88-1.19-1.86,.26-1.66,1.19-1.66,1.21,.68,1.21,1.66Z"/><path class="f" d="M563.93,94.21c0,1.33-1.01,2.67-2.22,2.67s-2.2-1.35-2.2-2.67,.99-2.59,2.2-2.59,2.22,1.27,2.22,2.59Z"/><path class="f" d="M247.43,65.27c0,3.21-1.29,4.78-4.99,4.78s-6.15-1.56-6.15-4.78,2.46-7.16,6.15-7.16,4.99,3.94,4.99,7.16Z"/><path class="f" d="M136.76,323.8c.94,.28,1.7,.8,1.44,1.69s-1.18,.89-2.12,.62-1.52-.73-1.26-1.61,.99-.97,1.94-.69Z"/><path class="f" d="M153.49,305.01c1.27,.37,2.27,1.73,1.93,2.88s-1.91,1.73-3.18,1.35-2.2-1.69-1.86-2.84c.34-1.16,1.84-1.77,3.11-1.39Z"/><path class="f" d="M98.83,288.26c3.08,.91,4.22,2.61,3.17,6.15-1.05,3.54-3.25,5.46-6.33,4.55s-6.16-4.38-5.11-7.93,5.19-3.69,8.27-2.78Z"/><path class="f" d="M542.15,207.43c.94,.28,1.7,.8,1.44,1.69s-1.18,.89-2.12,.62-1.52-.73-1.26-1.61c.26-.89,.99-.97,1.94-.69Z"/><path class="f" d="M558.88,188.64c1.27,.37,2.27,1.73,1.93,2.88-.34,1.16-1.91,1.73-3.18,1.35s-2.2-1.69-1.86-2.84c.34-1.16,1.84-1.77,3.11-1.39Z"/><path class="f" d="M504.22,171.89c3.08,.91,4.22,2.61,3.17,6.15-1.05,3.54-3.25,5.46-6.33,4.55s-6.16-4.38-5.11-7.93c1.05-3.54,5.19-3.69,8.27-2.78Z"/><path class="f" d="M544.15,48.83c3.08,.91,4.22,2.61,3.17,6.15-1.05,3.54-3.25,5.46-6.33,4.55-3.08-.91-6.16-4.38-5.11-7.93,1.05-3.54,5.19-3.69,8.27-2.78Z"/><g><path class="f" d="M81.91,366.59c-.33,2.14-2.6,3.23-4.27,2.97s-2.81-1.87-2.47-4.02c.33-2.14,1.81-2.69,3.47-2.43s3.6,1.33,3.27,3.47Z"/><path class="e" d="M81.91,366.59c-.33,2.14-2.6,3.23-4.27,2.97s-2.81-1.87-2.47-4.02c.33-2.14,1.81-2.69,3.47-2.43s3.6,1.33,3.27,3.47Z"/></g><g><path class="f" d="M186.93,384.21c-.52,3.33-2.19,4.92-6.24,4.29s-5.26-2.66-4.75-6c.52-3.33,2.66-7.31,6.71-6.68s4.79,5.05,4.28,8.39Z"/><path class="e" d="M186.93,384.21c-.52,3.33-2.19,4.92-6.24,4.29s-5.26-2.66-4.75-6c.52-3.33,2.66-7.31,6.71-6.68s4.79,5.05,4.28,8.39Z"/></g><path class="f" d="M278.13,93.64l1.71,3.12c.13,.24,.33,.44,.57,.57l3.12,1.71c.34,.19,.34,.68,0,.87l-3.36,1.84c-.08,.05-.15,.11-.2,.2l-1.84,3.36c-.19,.34-.68,.34-.87,0l-1.84-3.36c-.05-.08-.11-.15-.2-.2l-3.36-1.84c-.34-.19-.34-.68,0-.87l3.06-1.67c.28-.15,.51-.39,.67-.67l1.67-3.06c.19-.34,.68-.34,.87,0Z"/><path class="f" d="M592.17,133.72l1.71,3.12c.13,.24,.33,.44,.57,.57l3.12,1.71c.34,.19,.34,.68,0,.87l-3.36,1.84c-.08,.05-.15,.11-.2,.2l-1.84,3.36c-.19,.34-.68,.34-.87,0l-1.84-3.36c-.05-.08-.11-.15-.2-.2l-3.36-1.84c-.34-.19-.34-.68,0-.87l3.06-1.67c.28-.15,.51-.39,.67-.67l1.67-3.06c.19-.34,.68-.34,.87,0Z"/><path class="f" d="M441.43,32.44l1.71,3.12c.13,.24,.33,.44,.57,.57l3.12,1.71c.34,.19,.34,.68,0,.87l-3.36,1.84c-.08,.05-.15,.11-.2,.2l-1.84,3.36c-.19,.34-.68,.34-.87,0l-1.84-3.36c-.05-.08-.11-.15-.2-.2l-3.36-1.84c-.34-.19-.34-.68,0-.87l3.06-1.67c.28-.15,.51-.39,.67-.67l1.67-3.06c.19-.34,.68-.34,.87,0Z"/><path class="f" d="M291.08,183.22l1.71,3.12c.13,.24,.33,.44,.57,.57l3.12,1.71c.34,.19,.34,.68,0,.87l-3.36,1.84c-.08,.05-.15,.11-.2,.2l-1.84,3.36c-.19,.34-.68,.34-.87,0l-1.84-3.36c-.05-.08-.11-.15-.2-.2l-3.36-1.84c-.34-.19-.34-.68,0-.87l3.06-1.67c.28-.15,.51-.39,.67-.67l1.67-3.06c.19-.34,.68-.34,.87,0Z"/></g></g></svg>