<svg xmlns="http://www.w3.org/2000/svg" viewBox="0 0 690.86 664.15"><defs><style>.cls-1{fill:none;}.cls-2{fill:#98c1d9;}.cls-3{fill:#efefef;}.cls-4,.cls-6{fill:#3d5a80;}.cls-4{opacity:0.25;}.cls-5{opacity:0.36;}</style></defs><g id="Layer_2" data-name="Layer 2"><g id="Layer_14" data-name="Layer 14"><path class="cls-1" d="M473.4,164.71l11.39,4.37c12.26,4.7,25.47,10.2,31.87,21.65,6.63,11.86,3.72,27.35-4.24,38.37s-20.1,18.25-32.51,23.8c-10,4.47-20.45,8.1-29.48,14.28s-16.65,15.54-17.51,26.44"/><path class="cls-2" d="M644,590.35c-2.52-.69-12.19-10.49-20.19-18.65a10.6,10.6,0,0,0,1-2,10.81,10.81,0,0,0,.38-7.62c-6-1.66-12.06-3.28-18.06-5-11.32-3.3-22.32-7.49-33.72-10.53-19.22-5.11-38.89-8.67-56.89-17.49-19-9.31-35.58-24.5-45.76-43.11-9.54-17.46-14-37.15-22.25-55.17-2.64-5.73,2.31-11,7-11.05a260.06,260.06,0,0,1-1.09-26.45c-.06-45.47,3.71-93.47,24.94-133.07-7.81-43.07-9-87.51-10.87-131.2-5.64-9.45-11.48-19.31-17.8-30.57-18.47-32.88-47.59-63.08-85.3-69.95-34.75-6.34-69.68,8-101.24,23.6-18.27,9-36.6,18.74-50.83,33.11-30,30.33-36.86,75.79-37.71,118-1.14,56.52-6.61,131.16,41.45,161.46,20.52,12.95,59.66,40.46,65.17,66.64,4.91,23.28-26.15,47.45-42,65.45s-44.54,23-65.22,35.5c-13.21,8-35.61,17.28-50.74,20.75-13.75,3.16-11.61,8.94-25.58,11-.54.08-1.07.19-1.61.28a6.75,6.75,0,0,1-3.4,5.55c-10.26,6-21.54,10.7-32.76,15.4-12.55,5.25-24.68,19.32-33.67,29.14-2.1,2.3-7.21,6.32-8.11,9.27-1.93,6.32.78,2.84,2.23,8.25s1.74,10.52,2.18,17.11c.38,5.73,2.87,12,8.18,14.14,3.11,1.28,6.62.95,10,.62,32.61-3.23,65.7-4.83,98.46-3.54,27.7,1.1,54.22,5.39,82.61,3.54,59.26-3.86,117.6-16.69,177.09-17.75,27.38-.48,67.42,5.3,94.76,3.79,20.05-1.1,75.76-12.72,95.7-15.16,34.87-4.26,49.91,1,82.43-12.32C675.94,621,687.93,602.36,644,590.35Z"/></g><g id="image_of_crowd" data-name="image of crowd"><path class="cls-3" d="M291.21,320.38a121,121,0,0,1,22.6-3.07,143,143,0,0,1,23.86.9c3.39.41,6.66-3.29,6.51-6.52-.17-3.88-2.87-6.07-6.51-6.51a147.6,147.6,0,0,0-49.93,2.64,6.57,6.57,0,0,0-4.55,8,6.67,6.67,0,0,0,8,4.55Z"/><path class="cls-3" d="M357.13,163.05l42.77,5.09c2.33.28,4.34-2.19,4.34-4.34,0-2.58-2-4.06-4.34-4.34l-42.77-5.1c-2.33-.28-4.34,2.2-4.34,4.34,0,2.58,2,4.07,4.34,4.35Z"/><path class="cls-3" d="M247.76,155.52a70.27,70.27,0,0,0-33.2,6.58c-2.13,1-2.66,4.06-1.56,6A4.44,4.44,0,0,0,219,169.6a60.68,60.68,0,0,1,28.81-5.39,4.35,4.35,0,0,0,0-8.69Z"/><path class="cls-3" d="M296.74,181.57c.39,7,.77,14,.62,21.07-.07,3.61-.3,7.21-.71,10.8,0,0-.14,1.11,0,.48s-.1.66-.12.8c-.12.78-.25,1.55-.4,2.33q-.51,2.82-1.25,5.6c-1.79,6.68-4.64,13.15-4.6,20.2s2.86,13.84,8.78,18c6.49,4.53,15,3.49,22.32,2.36,3.38-.52,5.55-4.93,4.55-8-1.19-3.68-4.39-5.11-8-4.55l-1.09.17c-.12,0-1,.14-.25,0s-.13,0-.24,0c-.38,0-.75.09-1.13.12a34.18,34.18,0,0,1-3.92.18c-.65,0-1.28-.08-1.93-.1-1,0,1.06.26.12,0l-.79-.16c-.6-.14-1.18-.35-1.78-.53s.26.1.34.15c-.37-.24-.79-.42-1.16-.66a7.83,7.83,0,0,1-.67-.45c1,.77.29.2.11,0a7,7,0,0,0-.53-.56c-.68-.58.51.88.07.11-.25-.44-.55-.86-.79-1.31-.1-.2-.53-1.2-.22-.4s-.07-.29-.12-.43c-.19-.59-.34-1.18-.47-1.78-.07-.34-.13-.69-.18-1,0,.09.07,1.16.08.42,0-1.33-.05-2.62.05-4-.08,1.05.15-.84.21-1.16.13-.64.27-1.27.43-1.9.39-1.59.87-3.15,1.36-4.71.93-3,1.89-5.88,2.59-8.9a102,102,0,0,0,2.41-20.15c.2-7.37-.19-14.74-.6-22.09-.19-3.4-2.86-6.68-6.51-6.52-3.37.15-6.72,2.87-6.52,6.52Z"/></g><g id="Layer_17" data-name="Layer 17"><path class="cls-4" d="M565.93,543.19c-30.2-6.92-58-19.35-77.71-42.85-16.44-19.63-25.24-43.48-30.54-67.77-5.71-26.22-10-53.71-11.24-80.46-.68-14.58,0-29.3,3-43.63,3-14.14,9.59-26.46,16.1-39.36,14-27.71,23.11-55.11,17.37-86-5.14-27.64-15.16-55.42-31.13-79.19-7.68-11.43-16.56-22.37-25.23-33.15-9.28-11.52-19.26-22.95-31.09-32.23-32.88-25.8-88.76-27-126.92-7a34.07,34.07,0,0,0,5.58,15.74c5.86,8.59,15,17,26.08,19A139,139,0,0,1,323,72.34a273.89,273.89,0,0,1,32.22,17.2c10.31,6.28,20.62,12.72,30.51,19.62a105.29,105.29,0,0,1,11.18,10.1,81.93,81.93,0,0,1,5.59,9.4,202.85,202.85,0,0,1,11.21,41.54c3.9,33.49.3,67.19-3.6,100.55-4.08,35-8.51,70.31-4.55,105.49,2,17.51,4.92,34.85,10.46,51.69a275.21,275.21,0,0,0,20.67,47,234.22,234.22,0,0,0,23.21,34.21c11,13.52,22.32,26.46,35.65,38a303.21,303.21,0,0,0,42.27,30.67c15.23,9.14,31.52,16.17,48.27,22.45,3.34,1.26,6.71,2.42,10.1,3.52a34.85,34.85,0,0,0,17.4.74,33.83,33.83,0,0,0,16.22-4.89A32.46,32.46,0,0,0,642.07,589a30.56,30.56,0,0,0,7.38-12.53C626.94,554.5,596.05,550.08,565.93,543.19Z"/></g><g id="Layer_16" data-name="Layer 16"><path class="cls-3" d="M16.27,652.48a198,198,0,0,1,51.47-56.92c20.94-15.63,44.18-27.86,67.86-38.75,24.37-11.21,48-20.5,72.33-31.23,23.21-10.22,48-22.57,62.54-44.24,16.76-24.91,8.4-57.3-7.34-80.51-15.51-22.88-36.76-40.78-54.69-61.61-8.18-9.5-15.8-20-21-32-5.88-13.66-7.95-29.14-8.95-44-1-15.66-1.36-31.34-2.57-47-1.16-15.11-2.53-30.23-2.81-45.4-.5-27.52,3-56.88,20.49-78.52,17.27-21.32,41.73-34.54,65.74-47.33,24.46-13,53.52-33.38,82-26.16,13.7,3.48,25.8,11.48,37.42,19.66S401.31,54,411.51,63.3c38.75,35.29,59.72,86,58.31,138-.39,14.52-2.66,26.88-5.65,41.18-3.58,17.12-7.1,34.26-10.41,51.43s-6.41,34.4-9.16,51.68c-2.25,14-4,28.07-3.94,42.33.09,27.12,5.38,54.13,16.45,78.91C468,491.19,485.86,514.19,509,528.05c13.26,8,27.73,11.13,42.64,14.38A128.45,128.45,0,0,1,569,547.36c1.06.4,2.11.81,3.16,1.23,1.37.55-1.86-.83.32.13l1.37.6c2.49,1.11,5,2.29,7.43,3.46,13.08,6.23,26.28,12.08,38.84,19.33,10.35,6,20.2,12.72,30,19.5a284.94,284.94,0,0,0,27.68,17.33,8.86,8.86,0,0,0,11.88-3.12c2.31-3.93,1-9.67-3.11-11.88-20.64-11-38.75-26-59.06-37.6-12.73-7.26-26.11-13.17-39.34-19.44a148.74,148.74,0,0,0-33.11-11.46c-14.45-3.06-27.84-6-40.19-14.15-9.63-6.33-20-16.65-26.74-25.68-15.74-21.12-24.41-45.07-28.29-71.19-.3-2-.68-5.14-.95-8.07q-.49-5.21-.72-10.44c-.28-6.64-.23-13.3.13-19.94.83-15.36,3.53-29.55,6.25-45.23,3-17.2,6.28-34.34,9.71-51.46,3.3-16.43,7.29-32.8,10-49.33,9.15-55-4.72-111.67-39.07-155.72C427.67,51.67,404.71,34.74,381.08,19,368.91,10.85,355.4,3.3,340.79.91c-16.06-2.63-31.85.7-46.73,6.88-14.71,6.11-28.5,14.15-42.55,21.63-12.5,6.65-25,13.43-36.75,21.33s-23,16.8-32.12,27.63a107.2,107.2,0,0,0-21.12,39.52c-8.47,29.28-5.92,60.44-3.56,90.38,1.23,15.49,2,30.95,2.72,46.46.78,16.18,2.1,32.65,6.86,48.21,8.51,27.8,28.35,49.14,48.17,69.52,18.82,19.35,39.48,39,45.4,66.23a51.19,51.19,0,0,1,1.24,9.13c.08,1.6.1,3.2,0,4.81,0,1-.12,2.08-.21,3.13-.17,1.87.19-.42-.21,1.34-1.45,6.34-2.56,9.42-6,14.73-5.84,9-15.71,16.76-25.5,22.84-10.82,6.71-22.39,12-34,17.1-12.57,5.49-24.59,10.5-36.75,15.65C111.1,548,61.31,570.73,25.43,610.75a206.82,206.82,0,0,0-24.16,33c-5.7,9.65,9.31,18.4,15,8.77Z"/><g class="cls-5"><path class="cls-6" d="M409,203.64a34.49,34.49,0,0,1,.07,6.89c.15-1.16-.13.37-.22.69-.05.17-.64,1.67-.28.93s-.34.54-.42.67c-.26.42-1.15,1.2-.23.38-.33.3-.6.65-.92,1s-.83.71-.11.18a17.5,17.5,0,0,1-2.52,1.54c-.56.29-1,.43-.16.12-.51.18-1,.37-1.52.52a31.23,31.23,0,0,1-3.57.81c-.47.07-.44.06.08,0l-.66.07c-.67.05-1.33.11-2,.14-1.12.06-2.24.09-3.35.1-2.27,0-4.55,0-6.82,0-1,0-2-.09-3-.18-.41,0-1.81-.28-.64-.07-.59-.11-1.17-.2-1.75-.33a27.56,27.56,0,0,1-2.82-.82c-1.67-.58.95.59-.59-.28-.52-.29-1-.57-1.54-.89a6.57,6.57,0,0,0-8.91,2.34,6.65,6.65,0,0,0,2.34,8.91c5.07,3.17,11,4.14,16.92,4.35a74.48,74.48,0,0,0,17.52-1,24.15,24.15,0,0,0,14.6-9c3.72-4.93,4-11.13,3.54-17.05-.24-3.39-2.82-6.68-6.51-6.51-3.32.15-6.78,2.87-6.52,6.51Z"/></g><path class="cls-3" d="M395.55,170.16a85.87,85.87,0,0,0-12.73-.21,50.66,50.66,0,0,0-14.51,2.54c-4.73,1.75-8.43,4.4-10.35,9.18a26.66,26.66,0,0,0-.41,18c4.47,13.45,18.27,19.67,31.6,20.48,7,.43,14-1.3,19.42-5.77a25.2,25.2,0,0,0,8.61-15c2.43-14.55-8.68-27.74-23.19-28.91-2.34-.19-4.34,2.13-4.34,4.34a4.43,4.43,0,0,0,4.34,4.35c8.27.66,15.3,8.48,14.89,16.81a17.09,17.09,0,0,1-5,10.91c-3.25,3.24-8.05,4.66-12.88,4.64a35.36,35.36,0,0,1-15.42-3.6,19,19,0,0,1-9.34-9.58,18.54,18.54,0,0,1-.49-12.87,19.39,19.39,0,0,1,.85-1.95c.25-.57-.49.42.15-.22.3-.3.61-.59.92-.88s-.2.15-.23.17c.18-.13.36-.26.55-.38s.6-.37.9-.54.76-.38,1.14-.57-.11,0-.17.07c.29-.13.6-.24.9-.35a36,36,0,0,1,6.29-1.57,22.15,22.15,0,0,1,2.6-.34c1.19-.13,2.38-.21,3.57-.28a86.91,86.91,0,0,1,12.29.23c2.34.22,4.34-2.15,4.34-4.34a4.43,4.43,0,0,0-4.34-4.34Z"/><path class="cls-6" d="M383.73,199.38c3.4,0,6.67-3,6.51-6.52a6.62,6.62,0,0,0-6.51-6.51c-3.41,0-6.68,3-6.52,6.51a6.63,6.63,0,0,0,6.52,6.52Z"/><g class="cls-5"><path class="cls-6" d="M195.31,201.84c-.66,6.14,3.21,11.72,6.74,16.37a27.13,27.13,0,0,0,6.84,6.76,22.28,22.28,0,0,0,9.39,3.05c11.11,1.49,23.37,2.38,33.41-3.57,2.94-1.73,4.25-5.94,2.34-8.91a6.64,6.64,0,0,0-8.91-2.34q-.76.47-1.56.87c-.26.13-1.84.75-.58.29a27.35,27.35,0,0,1-2.79.88c-.56.15-1.14.28-1.71.39-.15,0-2.07.33-.6.14-1,.13-2,.2-3,.25a88,88,0,0,1-13.58-.66l-1.56-.17c1.33.17-.66-.14-.75-.15-.51-.11-1-.23-1.52-.37a9,9,0,0,1-.88-.28l.12.06c-.42-.24-.85-.47-1.27-.73-1.4-.84.68.76-.49-.39-.76-.75-1.45-1.52-2.16-2.33-.47-.53.46.67-.22-.3l-1-1.43c-.65-.94-1.3-1.88-1.89-2.85-.28-.46-.53-.92-.79-1.38-.86-1.51.16.9-.34-.73-.07-.22-.38-2-.28-.64a11.24,11.24,0,0,1,.06-1.83c.37-3.4-3.26-6.66-6.51-6.51-3.85.17-6.12,2.87-6.52,6.51Z"/></g><path class="cls-3" d="M217.37,174.28c-9.76,2.81-15.46,13.28-14.16,23.07,1.41,10.59,10.27,18.6,20.09,21.71,5.5,1.74,11.91,2.14,17.37.08a25.13,25.13,0,0,0,11.6-9.11c5.63-7.84,6.43-18.89,1.16-27.11a27.29,27.29,0,0,0-28.73-11.78c-2.29.53-16.19,6.52-15.58,8.72s18.51,1.55,20.8,1c6.13-1.43,10.15-.4,14.65,4.63a15.33,15.33,0,0,1,1.94,17.29,16.77,16.77,0,0,1-6,6.83,11.68,11.68,0,0,1-4.18,1.78,17.71,17.71,0,0,1-6.53.27c-7.18-.93-14.57-5.58-17.14-12.17s.43-14.95,7-16.84c5.37-1.55,3.09-9.93-2.3-8.38Z"/><path class="cls-6" d="M231.17,200.24c3.4,0,6.67-3,6.51-6.51a6.52,6.52,0,1,0-6.51,6.51Z"/><path class="cls-3" d="M480,176.52c.31.07.61.16.91.22,1.31.25-.62-.13-.75-.35a5,5,0,0,0,.85.48c.93.51-.26.35-.53-.47.13.4,1.18,1.13,1.51,1.46s.72.95,0,0c-.82-1.14.14.23.3.49a20.82,20.82,0,0,1,1.16,2,4.59,4.59,0,0,1,.5,1.07c0-.11-.7-1.95-.17-.36s1.05,3.21,1.43,4.87c.19.85.36,1.69.51,2.55a11.48,11.48,0,0,0,.4,2.58c-.1-.19-.23-2-.06-.36l.15,1.31c.1.9.18,1.81.25,2.71.15,1.82.24,3.64.23,5.47,0,.91,0,1.81-.09,2.72,0,.45-.08.89-.11,1.34-.14,1.7.24-1,0,0-.33,1.48-.61,3-1.06,4.42-.21.69-.45,1.37-.69,2-.13.34-.26.67-.38,1-.56,1.45.62-1.36.16-.39a65,65,0,0,1-3.92,7.13c-2.87,4.46-6.23,8.58-9.22,13a55.88,55.88,0,0,0-8.6,18.65c-1,4.42,1.37,9.62,6.07,10.69,4.44,1,9.58-1.34,10.68-6.07a43.86,43.86,0,0,1,1.3-4.47c.1-.28,1-2.57.42-1.17-.55,1.25-.06.16.08-.15.21-.47.43-.93.66-1.39a61.76,61.76,0,0,1,4.39-7.33c3.23-4.72,6.88-9.15,9.89-14a51,51,0,0,0,7.47-20.92,55.69,55.69,0,0,0,0-11.9,90.09,90.09,0,0,0-1.91-12.67c-2.11-8.74-7.59-18.91-17.21-20.89-4.44-.91-9.6,1.29-10.68,6.07-1,4.34,1.3,9.7,6.06,10.68Z"/></g></g></svg>