<?xml version="1.0" encoding="UTF-8"?><svg xmlns="http://www.w3.org/2000/svg" viewBox="0 0 532.51 113.16"><defs><style>.d{fill:#ee6c4d;}.e{fill:#efefef;}.f{fill:none;stroke:#fff;stroke-miterlimit:10;stroke-width:5px;}</style></defs><g id="a"/><g id="b"><g id="c"><path class="d" d="M483.48,105.57c-215.4,0-215.4,7.59-430.8,7.59C25.51,113.16,0,88.73,0,61.56,0,59.47,0,63.64,0,61.56c0-27.17,25.51-56.62,52.68-56.62q215.4,0,430.8-.1c27.17,0,49.03,29.55,49.03,56.72,0,2.08,0-2.08,0,0,0,27.17-21.86,44.01-49.03,44.01Z"/><rect class="f" x="5.24" y="2.5" width="507.68" height="98.39" rx="49.2" ry="49.2"/><g><path class="e" d="M69.11,49.78c0,5.3-3.98,8.6-10.33,8.6h-4.79v6.56h-5.51v-23.8h10.3c6.36,0,10.33,3.3,10.33,8.64Zm-5.58,0c0-2.62-1.7-4.15-5.07-4.15h-4.49v8.26h4.49c3.37,0,5.07-1.53,5.07-4.11Z"/><path class="e" d="M91.41,46.65v18.29h-5.03v-2.18c-1.39,1.6-3.43,2.45-5.68,2.45-4.59,0-7.82-2.58-7.82-8.23v-10.33h5.3v9.55c0,3.06,1.36,4.42,3.71,4.42s4.22-1.56,4.22-4.93v-9.04h5.3Z"/><path class="e" d="M108.14,64.05c-1.09,.78-2.69,1.16-4.32,1.16-4.32,0-6.83-2.21-6.83-6.56v-7.51h-2.82v-4.08h2.82v-4.45h5.3v4.45h4.56v4.08h-4.56v7.45c0,1.56,.85,2.41,2.28,2.41,.78,0,1.56-.24,2.14-.68l1.43,3.74Z"/><path class="e" d="M120.11,41.14c0-1.67,1.33-2.96,3.3-2.96s3.3,1.22,3.3,2.86c0,1.77-1.33,3.06-3.3,3.06s-3.3-1.29-3.3-2.96Zm.65,5.51h5.3v18.29h-5.3v-18.29Z"/><path class="e" d="M149.69,54.47v10.47h-5.3v-9.66c0-2.96-1.36-4.32-3.71-4.32-2.55,0-4.39,1.56-4.39,4.93v9.04h-5.3v-18.29h5.07v2.14c1.43-1.56,3.57-2.41,6.05-2.41,4.32,0,7.58,2.52,7.58,8.09Z"/><path class="e" d="M162.74,55.79c0-5.51,4.25-9.42,10.06-9.42s10.03,3.91,10.03,9.42-4.22,9.42-10.03,9.42-10.06-3.91-10.06-9.42Zm14.72,0c0-3.16-2.01-5.07-4.66-5.07s-4.69,1.9-4.69,5.07,2.04,5.07,4.69,5.07,4.66-1.9,4.66-5.07Z"/><path class="e" d="M205.07,54.47v10.47h-5.3v-9.66c0-2.96-1.36-4.32-3.71-4.32-2.55,0-4.39,1.56-4.39,4.93v9.04h-5.3v-18.29h5.07v2.14c1.43-1.56,3.57-2.41,6.05-2.41,4.32,0,7.58,2.52,7.58,8.09Z"/><path class="e" d="M238.12,39.71v25.23h-5.07v-2.11c-1.33,1.6-3.26,2.38-5.71,2.38-5.17,0-9.14-3.67-9.14-9.42s3.98-9.42,9.14-9.42c2.24,0,4.15,.71,5.47,2.21v-8.87h5.3Zm-5.2,16.08c0-3.16-2.04-5.07-4.66-5.07s-4.69,1.9-4.69,5.07,2.04,5.07,4.69,5.07,4.66-1.9,4.66-5.07Z"/><path class="e" d="M241.66,55.79c0-5.51,4.25-9.42,10.06-9.42s10.03,3.91,10.03,9.42-4.22,9.42-10.03,9.42-10.06-3.91-10.06-9.42Zm14.72,0c0-3.16-2.01-5.07-4.66-5.07s-4.69,1.9-4.69,5.07,2.04,5.07,4.69,5.07,4.66-1.9,4.66-5.07Z"/><path class="e" d="M293.61,54.47v10.47h-5.3v-9.66c0-2.96-1.36-4.32-3.71-4.32-2.55,0-4.39,1.56-4.39,4.93v9.04h-5.3v-18.29h5.07v2.14c1.43-1.56,3.57-2.41,6.05-2.41,4.32,0,7.58,2.52,7.58,8.09Z"/><path class="e" d="M297.25,55.79c0-5.51,4.25-9.42,10.06-9.42s10.03,3.91,10.03,9.42-4.22,9.42-10.03,9.42-10.06-3.91-10.06-9.42Zm14.72,0c0-3.16-2.01-5.07-4.66-5.07s-4.69,1.9-4.69,5.07,2.04,5.07,4.69,5.07,4.66-1.9,4.66-5.07Z"/><path class="e" d="M332.67,64.05c-1.09,.78-2.69,1.16-4.32,1.16-4.32,0-6.83-2.21-6.83-6.56v-7.51h-2.82v-4.08h2.82v-4.45h5.3v4.45h4.56v4.08h-4.56v7.45c0,1.56,.85,2.41,2.28,2.41,.78,0,1.56-.24,2.14-.68l1.43,3.74Z"/><path class="e" d="M363.92,39.71v25.23h-5.07v-2.11c-1.33,1.6-3.26,2.38-5.71,2.38-5.17,0-9.14-3.67-9.14-9.42s3.98-9.42,9.14-9.42c2.24,0,4.15,.71,5.47,2.21v-8.87h5.3Zm-5.2,16.08c0-3.16-2.04-5.07-4.66-5.07s-4.69,1.9-4.69,5.07,2.04,5.07,4.69,5.07,4.66-1.9,4.66-5.07Z"/><path class="e" d="M368.17,41.14c0-1.67,1.33-2.96,3.3-2.96s3.3,1.22,3.3,2.86c0,1.77-1.33,3.06-3.3,3.06s-3.3-1.29-3.3-2.96Zm.65,5.51h5.3v18.29h-5.3v-18.29Z"/><path class="e" d="M377.28,63.24l1.77-3.81c1.63,1.05,4.11,1.77,6.36,1.77,2.45,0,3.37-.65,3.37-1.67,0-2.99-11.05,.07-11.05-7.24,0-3.47,3.13-5.92,8.46-5.92,2.52,0,5.3,.58,7.04,1.6l-1.77,3.77c-1.8-1.02-3.6-1.36-5.27-1.36-2.38,0-3.4,.75-3.4,1.7,0,3.13,11.05,.1,11.05,7.31,0,3.4-3.16,5.81-8.63,5.81-3.09,0-6.22-.85-7.92-1.97Z"/><path class="e" d="M408.9,64.05c-1.09,.78-2.69,1.16-4.32,1.16-4.32,0-6.83-2.21-6.83-6.56v-7.51h-2.82v-4.08h2.82v-4.45h5.3v4.45h4.56v4.08h-4.56v7.45c0,1.56,.85,2.41,2.28,2.41,.78,0,1.56-.24,2.14-.68l1.43,3.74Z"/><path class="e" d="M430.32,46.65v18.29h-5.03v-2.18c-1.39,1.6-3.43,2.45-5.68,2.45-4.59,0-7.82-2.58-7.82-8.23v-10.33h5.3v9.55c0,3.06,1.36,4.42,3.71,4.42s4.22-1.56,4.22-4.93v-9.04h5.3Z"/><path class="e" d="M446.61,46.38v4.9c-.44-.03-.78-.07-1.19-.07-2.92,0-4.86,1.6-4.86,5.1v8.63h-5.3v-18.29h5.07v2.41c1.29-1.77,3.47-2.69,6.29-2.69Z"/><path class="e" d="M469.69,55.79c0,5.75-3.98,9.42-9.11,9.42-2.45,0-4.42-.78-5.75-2.38v2.11h-5.07v-25.23h5.3v8.87c1.36-1.5,3.23-2.21,5.51-2.21,5.13,0,9.11,3.67,9.11,9.42Zm-5.37,0c0-3.16-2.01-5.07-4.66-5.07s-4.66,1.9-4.66,5.07,2.01,5.07,4.66,5.07,4.66-1.9,4.66-5.07Z"/></g></g></g></svg>