<svg xmlns="http://www.w3.org/2000/svg" viewBox="0 0 246.32 107.81"><defs><style>.cls-1{fill:#ee6c4d;}.cls-2{fill:none;stroke:#fff;stroke-miterlimit:10;stroke-width:5px;}.cls-3{fill:#efefef;}</style></defs><g id="Layer_2" data-name="Layer 2"><g id="Layer_20" data-name="Layer 20"><path class="cls-1" d="M196.92,107.81c-73.39,0-73.39-1.9-146.77-1.9C23.39,105.91,0,86.56,0,59.8H0C0,33.05,23.39,3.6,50.15,3.6c73.38,0,73.38.4,146.77.4,26.75,0,49.4,29.05,49.4,55.8h0C246.32,86.56,223.67,107.81,196.92,107.81Z"/><rect class="cls-2" x="4.3" y="2.5" width="231.71" height="98.39" rx="49.2"/><path class="cls-3" d="M71.82,62.39,74.24,57a16.43,16.43,0,0,0,8.61,2.57c3.06,0,4.25-.85,4.25-2.12,0-4.14-14.83-1.12-14.83-10.81,0-4.66,3.8-8.46,11.55-8.46a19.59,19.59,0,0,1,9.47,2.27L91,45.88a15.42,15.42,0,0,0-7.23-2c-3.09,0-4.21,1-4.21,2.35,0,4,14.8,1,14.8,10.62,0,4.55-3.8,8.42-11.56,8.42C78.53,65.26,74.28,64.11,71.82,62.39Z"/><path class="cls-3" d="M111.36,63.92a9.53,9.53,0,0,1-4.92,1.16c-5.18,0-8.2-2.54-8.2-7.72V50.58H95.3V45.29h2.94V40h7.08v5.26H110v5.29h-4.63v6.71a2.05,2.05,0,0,0,2.13,2.31,3.89,3.89,0,0,0,2.16-.64Z"/><path class="cls-3" d="M133,53.52V64.74h-6.6V62.13c-1,1.94-3,2.95-6,2.95-4.85,0-7.53-2.72-7.53-6.23,0-3.72,2.72-6,9-6h4c-.12-2.05-1.5-3.2-4.29-3.2a9.42,9.42,0,0,0-5.48,1.75l-2.38-4.81a17,17,0,0,1,8.9-2.35C129.25,44.2,133,47.11,133,53.52Zm-7.08,4.74V56.5h-3.06c-2.27,0-3.09.82-3.09,2s1,2.05,2.64,2.05A3.49,3.49,0,0,0,125.94,58.26Z"/><path class="cls-3" d="M151,44.2v6.38a11.84,11.84,0,0,0-1.6-.11c-2.87,0-4.85,1.45-4.85,5v9.28h-7.08V44.54h6.75V47C145.69,45.14,148,44.2,151,44.2Z"/><path class="cls-3" d="M168.5,63.92a9.53,9.53,0,0,1-4.92,1.16c-5.18,0-8.2-2.54-8.2-7.72V50.58h-2.94V45.29h2.94V40h7.08v5.26h4.62v5.29h-4.62v6.71a2.05,2.05,0,0,0,2.13,2.31,3.89,3.89,0,0,0,2.16-.64Z"/></g></g></svg>