<?xml version="1.0" encoding="UTF-8"?><svg xmlns="http://www.w3.org/2000/svg" viewBox="0 0 232.61 288.56"><defs><style>.d{fill:none;stroke:#efefef;stroke-miterlimit:10;stroke-width:6px;}.e{fill:#efefef;}.f{fill:#98c1d9;}</style></defs><g id="a"/><g id="b"><g id="c"><path class="f" d="M222.84,204.07c6.86-5.09,8.94-12.13,8.37-20.28-.41-5.76-3.3-10.2-7.18-14.28-2.35-2.46-4.46-4.89-1.37-8.8,14.24-18.01,5.99-40.48-16.61-43.3-14.8-1.84-29.92-1.31-44.9-1.39-14.13-.08-27.69-.29-25.83-14.52,1.78-13.65,8.96-27.91,9.02-41.6,.09-21.89-9.48-44.6-29.05-50.44-18.16-5.42-31.52,2.87-32.77,21.63-.97,14.56-.58,29.28,.15,43.88,.73,14.81-4.05,28.79-15.04,38.97-5.27,4.88-11.88,9.47-17.95,13.27-7.83,4.89-8.17-7.71-12.76-11.05-1.42-1.03-3.18-1.45-4.9-1.8-5.6-1.13-11.3-1.75-17.01-1.86-2.09-.04-4.3,.02-6.09,1.11-1.48,.89-2.48,2.38-3.38,3.85-1.22,2.01-2.31,4.11-3.29,6.25,1.33,.76,2.31,2.13,2.36,4.1,.16,5.45,1.65,10.75,1.77,16.2,.11,5.24-.74,10.49-.65,15.77,.18,11.01-1.66,21.88-1.04,32.9,.3,5.41,.39,10.33-.47,15.7-.91,5.71-1.47,10.83-1.15,16.62,.57,10.42-.63,20.83-1,31.23,.22,.54,.35,1.15,.36,1.84,.12,5.6,.24,12.8,2,18.17,.77,2.34,2.25,2.63,4.18,3.97,1.59,1.11,2.84,2.68,4.44,3.74,3.83,2.53,9.85,2.42,14.28,3.14,1.85,.3,3.69,.38,5.53,.37,2.29-1.34,4.25-3.31,6.13-5.24,3.4-3.49,8.78-11.74,13.68-12.72,2.41-.48,5.87,.47,8.31,.64,3.53,.25,7.06,.54,10.59,.86,14.37,1.31,28.69,3.25,42.86,5.96,19.61,3.76,39.21,7.66,59.36,6.07,11.14-.88,22-2.89,31.54-9.23,8.21-5.46,10.65-12.8,8.36-22.01-.56-2.26,.45-5.96,2.12-7.54,10.76-10.17,12.05-16.08,5.07-29-2.39-4.43-2.2-8.08,1.98-11.19Z"/><path class="e" d="M223.14,197.25c7-5.2,10.07-12.54,9.37-22.44-.52-7.35-4.71-12.54-7.83-15.81-2.49-2.61-2.46-3.02-1.16-4.67,7.42-9.4,9.5-20.74,5.56-30.33-3.81-9.29-12.47-15.42-23.76-16.83-11.67-1.46-23.63-1.42-35.19-1.38-3,0-6,.02-8.99,0-2.34-.02-4.93,.08-7.67,.17-8.83,.3-20.93,.72-24.48-3.19-.56-.61-1.26-1.69-.96-3.99,.83-6.4,3.92-14.42,6.91-22.16,.89-2.3,1.77-4.6,2.61-6.87,3.81-10.35,5.17-21.42,3.92-32.03-2.36-20.02-10.29-31.79-24.26-35.96-9.94-2.97-18.66-2.12-25.24,2.44-6.3,4.37-9.96,11.76-10.6,21.37-1.01,15.2-.5,30.39,.14,43.24,1,20.35-7.6,34.66-27.08,45.04-3.52,1.87-7.14,3.57-10.85,5.1,.13,2.1,.3,4.19,.46,6.29,4.54-1.8,8.95-3.83,13.22-6.1,21.48-11.43,31.37-27.99,30.25-50.63-.62-12.68-1.13-27.66-.14-42.55,.51-7.72,3.29-13.54,8.04-16.84,5.02-3.49,11.97-4.05,20.1-1.62,11.42,3.41,17.97,13.52,20.02,30.91,1.14,9.68-.1,19.79-3.59,29.26-.83,2.25-1.7,4.52-2.58,6.79-3.12,8.08-6.34,16.43-7.26,23.55-.46,3.53,.37,6.49,2.47,8.8,5.43,5.97,18.02,5.53,29.13,5.15,2.67-.09,5.21-.18,7.43-.17,3.01,.02,6.02,0,9.04,0,11.37-.03,23.14-.07,34.43,1.34,9.08,1.13,15.99,5.93,18.95,13.15,3.1,7.56,1.34,16.66-4.72,24.33-4.72,5.98-.5,10.4,1.52,12.53,3.99,4.19,5.9,7.92,6.19,12.1,.55,7.8-1.66,13.27-6.96,17.2-3.5,2.6-6.83,7.28-2.79,14.77,6.05,11.22,5.28,15.61-4.37,24.75-2.4,2.27-3.74,6.98-2.92,10.27,2,8.02-.2,13.83-6.91,18.3-9.32,6.21-20.07,7.79-29.36,8.53-18.74,1.48-37.49-2.12-55.63-5.6l-1.52-.29c-21.69-4.16-44.67-6.68-70.61-7.7-.12,2-.19,4-.23,5.99,25.63,1.01,48.32,3.49,69.71,7.59l1.52,.29c15.54,2.98,31.52,6.05,47.8,6.05,3.13,0,6.27-.11,9.43-.36,10.06-.8,21.75-2.55,32.21-9.51,8.86-5.9,12.03-14.22,9.41-24.74-.29-1.18,.39-3.68,1.22-4.47,11.69-11.07,12.93-18.23,5.52-31.95-2.04-3.78-1.19-5.41,1.09-7.1Z"/><path class="d" d="M29.92,285.56c-5.45,0-9.86-1.44-14.91-3.5-10.4-4.24-12.01-4.67-12.01-12.74,0-35.85,.77-35.85,.77-71.7s0-35.85,0-71.7c0-8.07,7.17-15.92,15.25-15.92,5.45,0,5.16,1,10.91,2.23,7.89,1.7,14.12,5.61,14.12,13.68,0,35.85,2.09,35.85,2.09,71.7,0,35.85-.51,35.85-.51,71.7,0,8.07-7.63,16.24-15.7,16.24Z"/></g></g></svg>