<?xml version="1.0" encoding="UTF-8"?><svg xmlns="http://www.w3.org/2000/svg" viewBox="0 0 690.86 664.15"><defs><style>.g{fill:none;}.h{fill:#efefef;}.i{fill:#98c1d9;}.j,.k{fill:#3d5a80;}.l{opacity:.36;}.k{opacity:.25;}</style></defs><g id="a"/><g id="b"><g id="c"><path class="g" d="M473.4,164.71l11.4,4.37c12.25,4.7,25.46,10.2,31.86,21.65,6.63,11.86,3.72,27.36-4.23,38.37-7.96,11.02-20.11,18.25-32.51,23.8-9.98,4.47-20.45,8.1-29.48,14.27-9.03,6.18-16.65,15.54-17.51,26.45"/><path class="i" d="M644.03,590.35c-2.52-.69-12.19-10.49-20.19-18.65,.41-.64,.77-1.31,1.05-2.05,1.1-2.9,1.15-5.38,.38-7.62-6.02-1.66-12.06-3.27-18.06-5.02-11.32-3.3-22.32-7.49-33.73-10.53-19.21-5.11-38.89-8.67-56.88-17.49-19-9.31-35.59-24.5-45.77-43.12-9.54-17.46-13.96-37.15-22.25-55.17-2.64-5.73,2.31-10.96,6.97-11.05-.9-8.77-1.08-17.69-1.09-26.45-.06-45.47,3.72-93.47,24.95-133.07-7.81-43.06-9.04-87.51-10.87-131.2-5.64-9.45-11.48-19.31-17.81-30.57-18.47-32.88-47.59-63.08-85.3-69.95-34.74-6.33-69.68,8.05-101.24,23.6-18.27,9-36.6,18.74-50.83,33.11-30.04,30.34-36.86,75.79-37.71,118.01-1.14,56.53-6.61,131.16,41.45,161.47,20.53,12.94,59.66,40.46,65.18,66.63,4.91,23.29-26.15,47.45-42.03,65.45-15.88,18-44.54,23-65.22,35.5-13.21,7.99-35.61,17.28-50.74,20.75-13.76,3.16-11.61,8.93-25.59,10.98-.54,.08-1.07,.2-1.61,.28-.13,2.15-1.17,4.23-3.4,5.54-10.26,6.05-21.54,10.71-32.76,15.4-12.55,5.25-24.68,19.32-33.67,29.14-2.1,2.29-7.21,6.32-8.11,9.27-1.93,6.32,.78,2.84,2.23,8.25,1.48,5.54,1.74,10.51,2.18,17.11,.38,5.73,2.87,11.95,8.18,14.14,3.11,1.28,6.62,.95,9.97,.62,32.61-3.23,65.7-4.83,98.46-3.54,27.69,1.09,54.22,5.39,82.61,3.54,59.26-3.86,117.6-16.69,177.1-17.75,27.37-.49,67.42,5.29,94.75,3.79,20.05-1.1,75.76-12.73,95.7-15.16,34.87-4.26,49.91,.97,82.43-12.32,3.18-1.3,15.16-19.9-28.74-31.9Z"/></g><g id="d"><path class="h" d="M291.21,320.38c8.17-1.83,14.29-2.67,22.61-3.07,7.96-.38,15.94-.06,23.85,.9,3.4,.41,6.66-3.29,6.51-6.51-.17-3.88-2.88-6.07-6.51-6.51-16.65-2.02-33.56-1.02-49.92,2.64-3.33,.75-5.6,4.78-4.55,8.01,1.13,3.49,4.45,5.35,8.01,4.55h0Z"/><path class="h" d="M357.13,163.05l42.76,5.1c2.33,.28,4.34-2.2,4.34-4.34,0-2.58-2-4.06-4.34-4.34l-42.76-5.1c-2.33-.28-4.34,2.2-4.34,4.34,0,2.58,2,4.06,4.34,4.34h0Z"/><path class="h" d="M247.76,155.52c-11.46-.6-22.81,1.76-33.2,6.58-2.13,.99-2.66,4.05-1.56,5.94,1.28,2.18,3.81,2.55,5.94,1.56,9.05-4.2,18.91-5.92,28.81-5.4,2.34,.12,4.34-2.08,4.34-4.34,0-2.45-1.99-4.22-4.34-4.34h0Z"/><path class="h" d="M296.74,181.57c.39,7.02,.77,14.05,.62,21.08-.07,3.61-.3,7.21-.71,10.8,0,0-.14,1.11-.06,.47,.1-.71-.1,.66-.12,.8-.12,.78-.25,1.55-.39,2.33-.35,1.88-.76,3.75-1.26,5.6-1.79,6.68-4.64,13.16-4.6,20.2,.04,7.12,2.87,13.84,8.79,17.99,6.48,4.54,14.99,3.5,22.32,2.37,3.38-.52,5.55-4.93,4.55-8.01-1.19-3.68-4.39-5.11-8.01-4.55-.36,.06-.73,.11-1.09,.17-.11,.02-1.04,.14-.24,.04s-.13,.01-.25,.03c-.37,.04-.75,.08-1.12,.12-1.3,.12-2.61,.2-3.92,.18-.64,0-1.28-.08-1.93-.1-.97-.03,1.05,.26,.12,.01-.26-.07-.53-.1-.79-.16-.61-.14-1.19-.35-1.78-.53-.7-.21,.26,.09,.34,.14-.37-.24-.79-.41-1.16-.65-.23-.14-.45-.29-.67-.45,1.04,.77,.29,.2,.11,0-.16-.18-.35-.4-.53-.56-.67-.58,.51,.89,.07,.11-.25-.45-.55-.86-.79-1.32-.1-.19-.53-1.2-.21-.39s-.08-.29-.12-.44c-.19-.58-.34-1.17-.47-1.77-.07-.34-.13-.69-.18-1.04,.01,.09,.07,1.16,.08,.42,.02-1.33-.05-2.62,.05-3.95-.08,1.05,.15-.85,.21-1.16,.13-.64,.27-1.27,.43-1.9,.39-1.58,.87-3.15,1.36-4.7,.93-2.95,1.89-5.88,2.59-8.9,1.52-6.59,2.22-13.4,2.41-20.15,.21-7.37-.19-14.74-.6-22.1-.19-3.4-2.86-6.68-6.51-6.51-3.37,.15-6.71,2.87-6.51,6.51h0Z"/></g><g id="e"><path class="k" d="M565.93,543.19c-30.2-6.91-58.04-19.34-77.71-42.84-16.44-19.64-25.24-43.48-30.54-67.77-5.71-26.22-10-53.71-11.24-80.46-.68-14.57-.02-29.29,3-43.63,2.99-14.14,9.59-26.46,16.1-39.36,13.97-27.7,23.11-55.11,17.37-86.01-5.14-27.65-15.16-55.42-31.13-79.2-7.68-11.43-16.56-22.37-25.23-33.14-9.28-11.52-19.26-22.96-31.09-32.24-32.87-25.8-88.76-26.99-126.91-7.03,.59,5.56,2.32,10.97,5.58,15.74,5.86,8.59,15.04,17.03,26.08,18.96,7.81,1.37,15.4,3.48,22.81,6.13,11.2,4.92,21.85,10.87,32.22,17.19,10.31,6.29,20.62,12.72,30.51,19.62,3.97,3.13,7.73,6.47,11.18,10.1,2.08,3.01,3.92,6.16,5.59,9.4,5.32,13.36,8.85,27.45,11.21,41.54,3.9,33.49,.3,67.19-3.6,100.55-4.08,34.97-8.51,70.31-4.55,105.49,1.98,17.51,4.91,34.86,10.46,51.69,5.32,16.16,12.37,32,20.67,46.99,6.66,12.03,14.46,23.45,23.21,34.21,10.99,13.52,22.32,26.46,35.65,37.99,13.07,11.3,27.31,21.7,42.27,30.67,15.23,9.13,31.52,16.17,48.27,22.45,3.34,1.25,6.71,2.42,10.1,3.52,5.8,1.72,11.6,1.96,17.4,.74,5.81-.25,11.21-1.88,16.22-4.9,5.09-2.59,9.17-6.13,12.24-10.63,3.49-3.61,5.94-7.79,7.38-12.53-22.5-21.95-53.4-26.37-83.52-33.27Z"/></g><g id="f"><path class="h" d="M16.27,652.48c13.07-22.14,31.33-41.88,51.47-56.92,20.94-15.63,44.18-27.86,67.86-38.75,24.37-11.21,47.95-20.5,72.33-31.23,23.21-10.22,47.98-22.57,62.54-44.24,16.75-24.92,8.39-57.3-7.34-80.51-15.51-22.88-36.76-40.78-54.69-61.61-8.18-9.5-15.8-20.02-20.97-32.03-5.88-13.66-7.94-29.14-8.94-44.04-1.05-15.66-1.37-31.35-2.57-47-1.16-15.12-2.53-30.23-2.81-45.4-.5-27.52,2.97-56.88,20.49-78.52,17.27-21.32,41.73-34.54,65.73-47.33,24.46-13.04,53.53-33.38,81.97-26.16,13.7,3.48,25.8,11.48,37.42,19.66,11.49,8.08,22.55,15.6,32.76,24.9,38.74,35.29,59.71,86.03,58.3,138.01-.39,14.52-2.66,26.88-5.65,41.18-3.58,17.12-7.1,34.26-10.41,51.43-3.31,17.18-6.41,34.4-9.16,51.67-2.24,14.06-3.98,28.08-3.93,42.33,.09,27.12,5.38,54.13,16.45,78.91,10.88,24.35,28.75,47.35,51.83,61.21,13.26,7.96,27.74,11.13,42.64,14.38,5.9,1.29,11.76,2.83,17.43,4.93,1.06,.39,2.11,.81,3.16,1.23,1.37,.55-1.87-.83,.32,.13,.45,.2,.91,.4,1.36,.6,2.5,1.11,4.97,2.29,7.43,3.46,13.08,6.23,26.28,12.08,38.84,19.33,10.35,5.98,20.2,12.72,30.03,19.51,8.97,6.19,18.05,12.19,27.68,17.32,4.14,2.21,9.45,1.04,11.88-3.12,2.3-3.94,1.04-9.67-3.12-11.88-20.63-11.01-38.75-26.03-59.06-37.6-12.73-7.26-26.11-13.17-39.34-19.43-10.7-5.07-21.51-9.01-33.11-11.46-14.45-3.06-27.84-6.04-40.19-14.15-9.63-6.32-20-16.65-26.73-25.68-15.74-21.12-24.41-45.07-28.3-71.2-.29-1.98-.67-5.14-.95-8.06-.33-3.47-.57-6.96-.71-10.44-.28-6.64-.24-13.3,.12-19.94,.83-15.36,3.53-29.55,6.26-45.23,2.99-17.2,6.27-34.35,9.71-51.46,3.3-16.43,7.29-32.8,10.04-49.33,9.15-55.03-4.72-111.67-39.07-155.72-17.6-22.56-40.56-39.49-64.19-55.26-12.17-8.12-25.67-15.67-40.29-18.06-16.06-2.63-31.85,.7-46.72,6.88-14.72,6.12-28.51,14.15-42.55,21.63-12.5,6.66-24.98,13.44-36.75,21.34-11.72,7.87-22.99,16.8-32.12,27.63-9.79,11.61-16.9,24.92-21.12,39.52-8.47,29.27-5.92,60.44-3.56,90.38,1.22,15.48,1.96,30.95,2.71,46.46,.78,16.17,2.11,32.64,6.87,48.2,8.51,27.81,28.35,49.14,48.17,69.52,18.81,19.35,39.47,39.04,45.39,66.23,.7,3.23,1.08,5.76,1.25,9.13,.08,1.6,.1,3.2,.04,4.8-.04,1.05-.12,2.09-.21,3.13-.17,1.88,.19-.41-.21,1.35-1.45,6.34-2.56,9.41-6.01,14.73-5.84,8.99-15.71,16.76-25.5,22.83-10.82,6.71-22.39,12.01-34.04,17.1-12.57,5.49-24.6,10.5-36.76,15.65-48.56,20.59-98.36,43.3-134.23,83.31-9.11,10.16-17.23,21.22-24.16,32.97-5.7,9.65,9.31,18.4,15,8.77h0Z"/><g class="l"><path class="j" d="M409.03,203.64c.16,2.28,.36,4.61,.07,6.89,.15-1.16-.13,.37-.22,.69-.05,.17-.64,1.66-.28,.93s-.33,.55-.42,.68c-.26,.42-1.15,1.2-.23,.38-.33,.29-.6,.65-.92,.95-.45,.42-.83,.71-.11,.18-.79,.59-1.64,1.1-2.52,1.55-.57,.29-1.02,.43-.17,.12-.51,.19-1.01,.37-1.52,.53-1.17,.36-2.36,.59-3.57,.8-.47,.07-.44,.07,.08-.01l-.66,.07c-.67,.05-1.33,.11-2,.14-1.12,.06-2.23,.08-3.35,.1-2.27,.03-4.55,.05-6.82-.03-1-.04-2.01-.09-3.01-.19-.41-.04-1.81-.28-.64-.06-.58-.11-1.17-.2-1.75-.34-.96-.22-1.89-.5-2.82-.82-1.67-.58,.95,.59-.59-.28-.52-.29-1.03-.57-1.53-.89-2.89-1.81-7.3-.71-8.91,2.34-1.69,3.2-.75,6.98,2.34,8.91,5.07,3.17,11.03,4.14,16.92,4.35s11.81,.2,17.52-.97,11.03-4.23,14.6-8.96c3.72-4.93,3.97-11.13,3.54-17.05-.24-3.39-2.82-6.68-6.51-6.51-3.32,.15-6.78,2.87-6.51,6.51h0Z"/></g><path class="h" d="M395.55,170.16c-4.23-.39-8.49-.45-12.73-.21-4.86,.28-9.92,.84-14.51,2.54s-8.43,4.4-10.35,9.17c-2.26,5.62-2.31,12.25-.41,17.98,4.47,13.45,18.27,19.66,31.6,20.48,6.98,.43,13.96-1.31,19.41-5.77,4.49-3.68,7.66-9.27,8.61-14.99,2.43-14.55-8.68-27.74-23.19-28.91-2.34-.19-4.34,2.13-4.34,4.34,0,2.51,2,4.15,4.34,4.34,8.27,.67,15.3,8.48,14.89,16.82-.19,3.86-2.05,8.01-4.96,10.91-3.25,3.24-8.05,4.66-12.89,4.64-5.2-.02-10.76-1.25-15.41-3.6-4.24-2.15-7.7-5.42-9.34-9.57-1.69-4.27-1.88-8.59-.49-12.87,.28-.85,.52-1.19,.85-1.96,.25-.57-.49,.43,.15-.21,.3-.3,.6-.59,.91-.88,.35-.33-.2,.15-.23,.17,.19-.13,.37-.26,.56-.38,.3-.18,.59-.37,.9-.54,.37-.21,.76-.38,1.14-.57,.44-.22-.11,.04-.17,.06,.3-.12,.6-.24,.91-.35,2.04-.73,4.16-1.22,6.29-1.57,1.35-.23,1.13-.19,2.6-.34,1.19-.12,2.38-.21,3.57-.27,4.09-.21,8.21-.15,12.29,.23,2.34,.22,4.34-2.15,4.34-4.34,0-2.53-2-4.13-4.34-4.34h0Z"/><path class="j" d="M383.73,199.38c3.41,0,6.67-3,6.51-6.51-.16-3.53-2.86-6.51-6.51-6.51-3.41,0-6.67,3-6.51,6.51,.16,3.53,2.86,6.51,6.51,6.51h0Z"/><path class="h" d="M367.35,187.74c5.89,.03,11.78,.25,17.65,.69s11.99,1.12,16.53,1.78v-12.56c-1.14,.21-2.28,.41-3.42,.58,.02,0-2.08,.3-1.02,.16-.46,.06-.92,.12-1.38,.17-2.41,.28-4.83,.48-7.26,.6-4.74,.23-9.48,.14-14.21-.23-3.41-.27-6.66,3.19-6.51,6.51,.17,3.76,2.87,6.23,6.51,6.51,10.29,.8,20.59,.12,30.74-1.74,2.68-.49,4.9-3.62,4.78-6.28-.12-2.62-1.91-5.86-4.78-6.28-12.48-1.82-25.03-2.87-37.64-2.94-3.41-.02-6.67,3.01-6.51,6.51,.16,3.55,2.86,6.49,6.51,6.51h0Z"/><g class="l"><path class="j" d="M195.31,201.84c-.67,6.14,3.21,11.72,6.73,16.37,1.99,2.63,4.06,4.94,6.85,6.76,2.82,1.84,6.1,2.6,9.38,3.05,11.11,1.49,23.38,2.38,33.42-3.57,2.93-1.74,4.25-5.94,2.34-8.91-1.9-2.95-5.77-4.19-8.91-2.34-.51,.3-1.02,.6-1.55,.86-.26,.13-1.84,.75-.59,.29-.91,.34-1.84,.64-2.78,.89-.57,.15-1.14,.28-1.72,.39-.15,.03-2.06,.33-.6,.14-.98,.13-1.98,.2-2.97,.25-4.53,.22-9.08-.2-13.58-.66-.52-.05-1.04-.1-1.56-.17,1.33,.17-.66-.13-.75-.15-.51-.1-1.01-.22-1.51-.37-.3-.08-.6-.17-.89-.28,.5,.24,.54,.26,.13,.06-.43-.24-.85-.47-1.27-.72-1.4-.85,.68,.76-.48-.39-.76-.75-1.46-1.53-2.16-2.33-.47-.54,.46,.67-.23-.31-.34-.48-.68-.95-1.01-1.43-.65-.94-1.3-1.88-1.9-2.85-.28-.45-.53-.92-.79-1.38-.86-1.51,.16,.9-.34-.73-.07-.22-.38-1.98-.27-.64-.05-.61,0-1.22,.06-1.83,.37-3.4-3.26-6.66-6.51-6.51-3.84,.17-6.12,2.87-6.51,6.51h0Z"/></g><path class="h" d="M217.37,174.28c-9.75,2.81-15.46,13.28-14.15,23.07,1.41,10.58,10.27,18.6,20.09,21.71,5.5,1.74,11.91,2.14,17.38,.08,4.77-1.8,8.63-4.98,11.59-9.1,5.63-7.84,6.43-18.89,1.17-27.12-6.04-9.43-17.82-14.32-28.73-11.78-2.28,.53-16.19,6.52-15.58,8.71,.64,2.34,18.51,1.55,20.8,1.02,6.13-1.43,10.15-.41,14.66,4.63,4.28,4.78,4.83,11.66,1.94,17.29-1.5,2.92-3.46,5.23-6.02,6.83-1.59,1-2.34,1.33-4.18,1.79-2.11,.52-4.38,.55-6.53,.27-7.18-.93-14.57-5.58-17.15-12.17s.43-14.95,7.03-16.84c5.36-1.54,3.08-9.93-2.31-8.38h0Z"/><path class="j" d="M231.17,200.24c3.41,0,6.67-3,6.51-6.51-.16-3.53-2.86-6.51-6.51-6.51-3.41,0-6.67,3-6.51,6.51,.16,3.53,2.86,6.51,6.51,6.51h0Z"/><path class="h" d="M214.85,190.21c8.62,1.81,17.46,2.69,26.27,2.48l-1.73-12.8c-.31,.05-.62,.1-.94,.14,.95-.12,1.06-.14,.32-.05-.63,.07-1.26,.14-1.88,.2-1.18,.11-2.36,.18-3.55,.22-2.45,.08-4.9,.02-7.34-.17-3.41-.27-6.66,3.19-6.51,6.51,.17,3.76,2.87,6.23,6.51,6.51,5.66,.44,11.25,.06,16.84-.8,1.45-.22,3.23-1.74,3.89-2.99s.97-2.67,.77-4.15c-.42-3.11-3.14-5.73-6.4-5.65-4.04,.1-8.07-.02-12.1-.38-1.02-.09-2.05-.2-3.07-.32-.41-.05-1.92-.17-.15,0-.47-.04-.94-.13-1.41-.2-2.04-.31-4.06-.68-6.07-1.1-3.33-.7-7.2,.97-8.01,4.55-.74,3.27,.98,7.27,4.55,8.01h0Z"/><path class="h" d="M480.03,176.52c.3,.06,.61,.16,.91,.22,1.3,.24-.62-.13-.75-.35,.06,.1,.81,.46,.85,.48,.92,.51-.26,.35-.54-.47,.13,.4,1.19,1.13,1.51,1.46,.19,.19,.72,.95,.02-.03-.82-1.14,.14,.23,.3,.49,.42,.65,.81,1.32,1.15,2.01,.07,.13,.51,.85,.51,1.06,0-.11-.71-1.95-.17-.35,.54,1.61,1.05,3.21,1.43,4.87,.19,.84,.36,1.69,.51,2.54,.12,.68,.09,1.98,.41,2.58-.1-.19-.24-2.02-.06-.36,.05,.43,.1,.87,.15,1.3,.1,.9,.18,1.81,.25,2.71,.14,1.82,.23,3.64,.22,5.47,0,.91-.03,1.81-.09,2.72-.03,.45-.07,.9-.11,1.35-.13,1.7,.24-1.05,0,.02-.33,1.49-.61,2.96-1.06,4.42-.21,.69-.44,1.37-.69,2.05-.12,.33-.25,.66-.38,.99-.56,1.45,.62-1.35,.16-.39-1.18,2.46-2.44,4.83-3.92,7.12-2.87,4.46-6.23,8.58-9.22,12.96-3.88,5.67-7.03,11.94-8.59,18.66-1.03,4.42,1.37,9.61,6.07,10.68,4.44,1.01,9.58-1.33,10.68-6.07,.35-1.51,.77-3,1.29-4.47,.1-.29,1.04-2.57,.42-1.17-.55,1.24-.06,.16,.08-.15,.21-.47,.43-.93,.66-1.39,1.27-2.55,2.78-4.98,4.39-7.33,3.23-4.72,6.88-9.15,9.89-14.02,3.97-6.43,6.58-13.42,7.48-20.93,.47-3.96,.34-7.94-.03-11.9-.4-4.24-.9-8.53-1.91-12.67-2.11-8.74-7.59-18.9-17.21-20.88-4.44-.91-9.6,1.29-10.68,6.07-.99,4.34,1.31,9.7,6.07,10.68h0Z"/></g></g></svg>