<?xml version="1.0" encoding="UTF-8"?><svg xmlns="http://www.w3.org/2000/svg" viewBox="0 0 675.74 750.34"><defs><style>.d{fill:none;}.e{fill:#efefef;}.f{fill:#98c1d9;}.g,.h{fill:#3d5a80;}.i,.h{opacity:.25;}.j{opacity:.36;}</style></defs><g id="a"/><g id="b"><g id="c"><path class="d" d="M463.04,264.75l11.15,4.27c11.98,4.59,24.91,9.97,31.17,21.18,6.48,11.6,3.64,26.76-4.14,37.53-7.78,10.78-19.67,17.85-31.8,23.28-9.76,4.37-20.01,7.92-28.83,13.96-8.83,6.04-16.29,15.2-17.13,25.87"/><path class="f" d="M629.36,678.16c-2.47-.67-11.92-10.26-19.75-18.24,.4-.62,.76-1.28,1.03-2,1.08-2.84,1.12-5.26,.37-7.46-5.89-1.62-11.8-3.2-17.66-4.91-11.07-3.23-21.83-7.33-32.99-10.3-18.79-5-38.04-8.48-55.64-17.1-18.58-9.11-34.81-23.97-44.76-42.18-9.33-17.08-13.65-36.34-21.76-53.96-2.58-5.61,2.26-10.72,6.82-10.8-.88-8.58-1.06-17.31-1.07-25.87-.06-44.47,3.63-91.43,24.4-130.16-7.64-42.12-8.84-85.59-10.63-128.32-5.52-9.25-11.23-18.89-17.42-29.9-18.07-32.16-46.54-61.7-83.43-68.42-33.98-6.2-68.15,7.88-99.02,23.08-17.87,8.8-35.8,18.33-49.72,32.38-29.38,29.67-36.05,74.13-36.89,115.42-1.11,55.29-6.46,128.29,40.54,157.93,20.08,12.66,58.36,39.57,63.75,65.17,4.8,22.78-25.58,46.41-41.11,64.02-15.53,17.61-43.57,22.49-63.79,34.73-12.92,7.82-34.83,16.9-49.63,20.3-13.46,3.09-11.36,8.74-25.03,10.74-.53,.08-1.05,.19-1.57,.28-.13,2.1-1.15,4.14-3.33,5.42-10.04,5.91-21.07,10.47-32.04,15.06-12.28,5.14-24.14,18.9-32.93,28.51-2.05,2.24-7.05,6.18-7.93,9.07-1.89,6.18,.77,2.78,2.18,8.07,1.45,5.42,1.71,10.28,2.13,16.74,.37,5.6,2.81,11.69,8,13.83,3.04,1.25,6.48,.93,9.75,.61,31.89-3.16,64.26-4.73,96.3-3.46,27.09,1.07,53.03,5.27,80.8,3.46,57.96-3.78,115.03-16.33,173.22-17.36,26.77-.48,65.94,5.18,92.68,3.71,19.61-1.08,74.11-12.45,93.6-14.83,34.11-4.17,48.82,.95,80.63-12.05,3.11-1.27,14.83-19.46-28.11-31.2Z"/><path class="e" d="M284.83,417.02c7.99-1.79,13.98-2.62,22.11-3,7.79-.37,15.59-.06,23.33,.88,3.32,.4,6.51-3.22,6.37-6.37-.17-3.8-2.81-5.94-6.37-6.37-16.29-1.97-32.83-1-48.83,2.58-3.26,.73-5.47,4.67-4.45,7.84,1.11,3.42,4.35,5.23,7.84,4.45h0Z"/><path class="e" d="M349.31,263.13l41.83,4.99c2.28,.27,4.25-2.15,4.25-4.25,0-2.52-1.96-3.97-4.25-4.25l-41.83-4.99c-2.28-.27-4.25,2.15-4.25,4.25,0,2.52,1.96,3.97,4.25,4.25h0Z"/><path class="e" d="M242.33,255.77c-11.21-.59-22.31,1.72-32.47,6.44-2.08,.97-2.6,3.97-1.52,5.81,1.25,2.13,3.72,2.49,5.81,1.52,8.85-4.1,18.49-5.79,28.18-5.28,2.29,.12,4.25-2.04,4.25-4.25,0-2.4-1.95-4.13-4.25-4.25h0Z"/><path class="e" d="M290.25,281.24c.38,6.86,.75,13.74,.61,20.62-.07,3.53-.3,7.05-.7,10.56,0,0-.14,1.08-.05,.46,.09-.7-.1,.65-.12,.79-.12,.76-.24,1.52-.38,2.28-.34,1.84-.75,3.67-1.23,5.48-1.75,6.54-4.54,12.87-4.5,19.76s2.8,13.54,8.6,17.59c6.34,4.44,14.66,3.42,21.83,2.32,3.3-.51,5.42-4.83,4.45-7.84-1.16-3.6-4.3-5-7.84-4.45-.36,.05-.71,.11-1.07,.16-.11,.02-1.02,.14-.24,.04s-.13,.01-.24,.03c-.37,.04-.73,.08-1.1,.12-1.28,.12-2.56,.2-3.84,.18-.63,0-1.26-.08-1.88-.1-.95-.03,1.03,.25,.12,.01-.25-.07-.52-.1-.77-.16-.59-.14-1.16-.35-1.74-.52-.69-.2,.25,.09,.33,.14-.37-.23-.77-.4-1.14-.64-.22-.14-.44-.29-.65-.44,1.01,.76,.28,.2,.11,0-.16-.18-.34-.39-.52-.55-.66-.57,.5,.87,.07,.11-.25-.44-.54-.84-.78-1.29-.1-.19-.52-1.17-.21-.38s-.08-.29-.12-.43c-.18-.57-.33-1.15-.46-1.74-.07-.34-.13-.68-.18-1.02,.01,.09,.07,1.13,.08,.41,.02-1.3-.05-2.56,.04-3.87-.07,1.03,.15-.83,.21-1.14,.12-.62,.27-1.24,.42-1.86,.39-1.55,.85-3.08,1.33-4.6,.91-2.89,1.85-5.76,2.53-8.71,1.49-6.44,2.17-13.1,2.35-19.71,.2-7.21-.19-14.42-.58-21.61-.18-3.32-2.8-6.53-6.37-6.37-3.3,.15-6.57,2.81-6.37,6.37h0Z"/><path class="h" d="M553.54,634.94c-29.54-6.76-56.77-18.92-76.01-41.9-16.08-19.21-24.69-42.53-29.87-66.29-5.59-25.65-9.78-52.53-11-78.7-.66-14.26-.02-28.65,2.94-42.67,2.92-13.83,9.38-25.88,15.75-38.5,13.67-27.1,22.6-53.9,16.99-84.12-5.02-27.04-14.83-54.21-30.45-77.46-7.51-11.18-16.19-21.88-24.68-32.42-9.08-11.27-18.84-22.45-30.41-31.53-32.15-25.23-86.82-26.4-124.14-6.87,.58,5.44,2.27,10.73,5.45,15.4,5.73,8.4,14.71,16.65,25.51,18.54,7.64,1.34,15.06,3.4,22.31,6,10.95,4.81,21.37,10.63,31.52,16.82,10.08,6.15,20.17,12.44,29.84,19.19,3.88,3.06,7.56,6.33,10.94,9.88,2.04,2.95,3.84,6.02,5.46,9.19,5.2,13.06,8.66,26.85,10.96,40.63,3.82,32.76,.29,65.72-3.52,98.35-3.99,34.21-8.33,68.77-4.45,103.18,1.93,17.13,4.81,34.09,10.23,50.56,5.2,15.8,12.1,31.3,20.22,45.96,6.51,11.76,14.15,22.94,22.7,33.47,10.75,13.22,21.83,25.88,34.87,37.16,12.78,11.06,26.71,21.22,41.34,30,14.9,8.93,30.83,15.81,47.21,21.96,3.26,1.22,6.56,2.37,9.88,3.44,5.67,1.68,11.35,1.92,17.02,.72,5.68-.24,10.97-1.84,15.87-4.79,4.97-2.54,8.97-6,11.97-10.39,3.41-3.53,5.81-7.62,7.22-12.25-22.01-21.47-52.23-25.8-81.69-32.54Z"/><path class="e" d="M15.91,741.85c12.78-21.65,30.64-40.96,50.34-55.67,20.48-15.29,43.21-27.25,66.38-37.91,23.84-10.96,46.9-20.05,70.74-30.55,22.7-9.99,46.93-22.08,61.17-43.27,16.39-24.37,8.21-56.05-7.18-78.75-15.17-22.38-35.96-39.89-53.49-60.26-8-9.3-15.45-19.58-20.51-31.33-5.75-13.36-7.77-28.5-8.75-43.07-1.03-15.32-1.34-30.66-2.52-45.97-1.14-14.79-2.48-29.57-2.75-44.41-.49-26.92,2.9-55.64,20.04-76.81,16.89-20.85,40.82-33.78,64.3-46.29,23.93-12.75,52.36-32.65,80.17-25.59,13.4,3.4,25.23,11.23,36.6,19.23,11.24,7.91,22.06,15.26,32.05,24.36,37.89,34.52,58.4,84.15,57.03,134.99-.38,14.2-2.61,26.3-5.53,40.28-3.5,16.75-6.94,33.51-10.18,50.31-3.24,16.8-6.27,33.64-8.96,50.54-2.19,13.75-3.9,27.46-3.85,41.41,.09,26.52,5.26,52.94,16.09,77.18,10.64,23.82,28.12,46.31,50.7,59.87,12.97,7.79,27.13,10.89,41.71,14.06,5.77,1.26,11.5,2.77,17.05,4.83,1.04,.38,2.06,.79,3.09,1.2,1.34,.53-1.83-.81,.31,.13,.44,.2,.89,.39,1.33,.58,2.44,1.09,4.86,2.24,7.27,3.38,12.79,6.09,25.71,11.81,37.99,18.9,10.13,5.85,19.76,12.44,29.38,19.08,8.77,6.06,17.65,11.92,27.07,16.94,4.05,2.16,9.24,1.02,11.62-3.05,2.25-3.85,1.01-9.46-3.05-11.62-20.18-10.77-37.9-25.46-57.76-36.78-12.45-7.1-25.54-12.88-38.48-19.01-10.47-4.96-21.04-8.81-32.39-11.21-14.13-2.99-27.23-5.91-39.31-13.84-9.42-6.19-19.57-16.28-26.15-25.11-15.4-20.66-23.88-44.09-27.68-69.64-.29-1.94-.66-5.03-.93-7.89-.32-3.4-.55-6.8-.7-10.22-.28-6.5-.23-13.01,.12-19.5,.82-15.02,3.46-28.9,6.12-44.24,2.92-16.82,6.13-33.59,9.5-50.33,3.23-16.07,7.13-32.08,9.82-48.25,8.95-53.82-4.61-109.23-38.22-152.31-17.21-22.07-39.67-38.63-62.79-54.05-11.9-7.94-25.11-15.33-39.41-17.67-15.71-2.57-31.15,.68-45.7,6.73-14.4,5.98-27.88,13.84-41.62,21.16-12.23,6.51-24.43,13.14-35.94,20.87-11.46,7.69-22.49,16.43-31.42,27.02-9.58,11.36-16.53,24.38-20.66,38.66-8.29,28.63-5.79,59.11-3.48,88.4,1.2,15.14,1.92,30.27,2.65,45.44,.77,15.82,2.06,31.93,6.72,47.15,8.32,27.2,27.73,48.06,47.12,68,18.4,18.93,38.61,38.19,44.4,64.78,.69,3.16,1.06,5.63,1.22,8.93,.08,1.56,.09,3.13,.04,4.7-.04,1.02-.12,2.04-.21,3.06-.16,1.84,.19-.4-.2,1.32-1.42,6.2-2.5,9.21-5.88,14.41-5.71,8.8-15.36,16.39-24.94,22.33-10.58,6.56-21.9,11.75-33.29,16.73-12.29,5.37-24.06,10.27-35.95,15.31-47.5,20.14-96.2,42.35-131.3,81.49-8.91,9.94-16.85,20.76-23.63,32.25-5.57,9.44,9.11,18,14.67,8.58h0Z"/><g class="j"><path class="g" d="M402.87,295.02c.19,2.95,.42,5.97,.08,8.92,.17-1.5-.15,.48-.26,.9-.05,.22-.74,2.16-.33,1.2s-.39,.71-.48,.88c-.3,.54-1.33,1.55-.27,.49-.38,.38-.69,.84-1.06,1.23-.52,.55-.96,.92-.13,.23-.92,.76-1.9,1.42-2.91,2-.66,.37-1.17,.55-.19,.15-.58,.24-1.16,.48-1.76,.68-1.36,.46-2.74,.76-4.13,1.04-.54,.09-.51,.09,.09-.01l-.77,.09c-.77,.06-1.54,.14-2.32,.19-1.29,.08-2.58,.11-3.88,.13-2.63,.04-5.27,.07-7.89-.04-1.16-.05-2.33-.12-3.48-.24-.48-.05-2.09-.36-.74-.08-.68-.14-1.35-.26-2.02-.43-1.11-.28-2.19-.65-3.26-1.06-1.93-.75,1.1,.76-.69-.36-.6-.38-1.19-.74-1.78-1.15-3.35-2.34-8.45-.92-10.32,3.03-1.96,4.14-.87,9.04,2.71,11.54,5.87,4.11,12.77,5.36,19.58,5.63,6.72,.26,13.67,.26,20.28-1.26s12.77-5.48,16.9-11.6,4.6-14.42,4.1-22.09c-.28-4.39-3.27-8.65-7.54-8.44-3.84,.19-7.84,3.72-7.54,8.44h0Z"/></g><g class="j"><path class="g" d="M186.11,299.68c-.78,7.16,3.74,13.66,7.85,19.08,2.32,3.06,4.73,5.76,7.98,7.88,3.28,2.14,7.11,3.04,10.94,3.55,12.95,1.74,27.25,2.77,38.95-4.16,3.42-2.02,4.95-6.93,2.72-10.39-2.22-3.44-6.73-4.89-10.39-2.72-.6,.35-1.19,.69-1.81,1.01-.31,.16-2.14,.88-.69,.34-1.07,.39-2.14,.75-3.24,1.03-.66,.17-1.33,.32-2,.45-.17,.03-2.41,.38-.7,.16-1.15,.15-2.31,.24-3.46,.29-5.29,.26-10.58-.23-15.83-.77-.61-.06-1.21-.12-1.82-.2,1.55,.2-.77-.16-.87-.18-.59-.12-1.18-.26-1.76-.43-.35-.09-.69-.2-1.04-.32,.58,.28,.63,.3,.15,.06-.5-.28-.99-.55-1.48-.84-1.63-.99,.79,.88-.56-.46-.89-.88-1.7-1.78-2.52-2.71-.55-.63,.54,.78-.26-.36-.39-.56-.79-1.11-1.18-1.67-.76-1.09-1.52-2.19-2.21-3.33-.32-.53-.61-1.07-.92-1.61-1-1.76,.19,1.05-.4-.85-.08-.25-.44-2.3-.32-.75-.06-.72-.01-1.42,.07-2.13,.43-3.96-3.8-7.76-7.59-7.59-4.48,.2-7.13,3.35-7.59,7.59h0Z"/></g><path class="e" d="M469.52,276.31c.3,.06,.6,.16,.89,.21,1.27,.24-.61-.13-.73-.34,.06,.1,.79,.45,.83,.47,.9,.5-.26,.34-.53-.46,.13,.39,1.16,1.11,1.48,1.43,.18,.19,.71,.93,.02-.03-.8-1.12,.14,.23,.3,.47,.41,.63,.79,1.29,1.13,1.96,.06,.13,.5,.83,.5,1.04,0-.11-.69-1.9-.17-.34,.53,1.58,1.03,3.14,1.39,4.76,.19,.82,.35,1.65,.5,2.49,.12,.66,.09,1.94,.4,2.53-.1-.19-.23-1.98-.06-.35,.04,.43,.1,.85,.14,1.27,.09,.88,.18,1.77,.25,2.65,.14,1.78,.23,3.56,.22,5.35,0,.89-.03,1.77-.09,2.66-.03,.44-.07,.88-.11,1.32-.13,1.66,.23-1.03,0,.02-.32,1.46-.6,2.9-1.04,4.33-.21,.67-.43,1.34-.68,2-.12,.33-.25,.65-.37,.97-.54,1.42,.61-1.32,.16-.38-1.15,2.4-2.39,4.73-3.83,6.97-2.81,4.36-6.09,8.4-9.02,12.68-3.8,5.54-6.87,11.68-8.41,18.25-1.01,4.32,1.34,9.4,5.93,10.45,4.34,.99,9.37-1.3,10.45-5.93,.34-1.48,.76-2.94,1.26-4.37,.1-.28,1.02-2.52,.41-1.15-.54,1.22-.06,.15,.08-.15,.21-.46,.43-.91,.65-1.36,1.24-2.5,2.72-4.87,4.29-7.17,3.16-4.62,6.73-8.95,9.68-13.71,3.89-6.29,6.44-13.13,7.31-20.47,.46-3.87,.33-7.76-.03-11.64-.39-4.15-.88-8.34-1.86-12.4-2.06-8.55-7.43-18.49-16.83-20.43-4.34-.89-9.39,1.26-10.45,5.93-.97,4.24,1.28,9.49,5.93,10.45h0Z"/><g><path class="f" d="M230.5,119.04c-10.5-3.33-23.84-5.92-30.96,2.49-2.52,2.98-3.69,6.86-4.67,10.64-2.53,9.75-4.25,19.71-5.16,29.75-.47,5.15-.29,11.27,3.95,14.25,2.45,1.72,5.64,1.87,8.64,2,54.72,2.38,107.52,19.93,159.2,38.06,21.47,7.53,43.21,15.36,61.67,28.65,8.48,6.11,19.14,13.67,28.27,8.58,2.18-1.22,3.94-3.05,5.85-4.66,11.22-9.44,26.94-10.58,41.12-14.34,2.75-.73,5.59-1.65,7.54-3.71,1.67-1.77,2.48-4.16,3.22-6.47,11.86-37.2,18.16-76.18,18.62-115.23,.05-4.12,.02-8.34-1.39-12.22-2.72-7.47-9.89-12.17-15.7-17.6-21.44-20.06-27.2-54.3-51.83-70.28-22.9-14.86-53.01-8.27-79.37-1.17l-57.58,15.51c-12.1,3.26-24.3,6.56-35.48,12.22-23.71,12.01-40.89,33.57-57.3,54.48l-27.39,34.9"/><g class="i"><path class="g" d="M489.73,225.46c.52-7.17-7.56-12.87-14.06-12.5-7.18,.42-11.15,5.7-12.24,12.03-.06,.12-.13,.25-.21,.42-.65,.14-1.92,1.11-2.66,1.25-2.28,.45-7.09-.91-9.95-1.94-8.86-3.2-17.51-7.03-26.35-10.31-18.65-6.93-37.52-13.28-56.61-18.87-37.99-11.13-76.78-19.37-116-24.76-7.11-.98-14.2,2.83-15.78,10.23-.58,2.72-.15,5.7,1.03,8.34,11.38-.28,22.47,2.46,33.73,4.04,13.01,1.82,25.75,3.69,38.44,7.21,12.76,3.53,25.03,8.25,37.35,13.03,11.85,4.6,24.16,7.83,35.72,13.19,.89,.41,1.55,.96,2.03,1.58,18.13,5.99,35.87,12.85,53.7,19.74,10.45,4.04,21.48,7.15,32.54,3.3,11.79-4.1,18.41-13.87,19.3-25.97Zm-26.53,.02c-.07,.14-.13,.27-.21,.45-.02-.21,.07-.35,.21-.45Z"/></g><g class="i"><path class="g" d="M322.04,155.64c5.47,3.66,11.98,3.67,18.24,4.97,6.42,1.33,12.63,3.89,18.98,5.56,13.43,3.54,26.93,6.76,40.34,10.4,14.18,3.85,28.28,8.01,42.21,12.71,5.18,1.75,10.73,4.39,16.27,4.74,4.55,.28,6.29-2.21,7.83-6.19,1.12-2.91,3.63-3.55,5.89-2.81,.32-2.92,.13-5.96-.57-8.93-3.8-16.14-11.05-32.18-17.75-47.29-7.98-18.01-17-35.55-27.08-52.47-8.78-14.73-31.07-.23-22.31,14.46,9.27,15.55,17.68,31.58,24.94,48.16,3.72,8.5,7.18,17.12,10.38,25.83,.5,1.36,.98,2.72,1.46,4.08-.51-.24-.99-.47-1.43-.68-4.64-2.26-9.51-4.02-14.4-5.66-9.06-3.04-18.44-5.07-27.72-7.29l-60.68-14.52c-10.17-2.44-16.19,6.32-15.54,14.41,.31,.14,.63,.3,.95,.52Z"/></g><g class="i"><path class="g" d="M327.06,36.59c-19.55,3.78-34.66,14.54-45.73,30.85-5.84,8.6-11.59,17.26-17.39,25.9-3.1,4.62-6.39,9.17-9.33,13.9-.62,1-.58,1.01-.05,.5,.37-.35-1.08,.64-1.38,.81-2.19,1.18-4.47,2.23-6.71,3.33-5.8,2.88-7.42,11.1-4.31,16.42,3.46,5.91,10.59,7.2,16.42,4.31,4.01-1.99,8.45-3.71,11.75-6.84,3.57-3.39,6.11-8.07,8.84-12.14l17.57-26.16c4.46-6.65,8.55-13.92,15.02-18.86s13.92-7.37,21.68-8.87c6.37-1.23,10-8.86,8.38-14.76-1.83-6.66-8.38-9.61-14.76-8.38h0Z"/></g><path class="e" d="M239.9,124.64c18.14-26.05,34.62-53.11,61.48-71.13,25.41-17.04,54.82-26.42,84.74-31.78,16.29-2.92,32.76-4.63,49.25-5.94,6.75-.53,15.02-2.44,20.33,2.85,5.73,5.72,10.06,13.48,14.76,20.03l30.24,42.21c5.04,7.04,10.09,14.06,15.12,21.11,2.13,2.99,4.5,5.9,4.85,9.67,.38,4.19-.51,8.75-.91,12.92-3.62,37.85-10.43,75.35-20.09,112.12-1.96,7.48,9.61,10.67,11.57,3.19,9.27-35.33,15.87-71.32,19.74-107.64,.86-8.03,3.14-17.66,.99-25.61s-8.7-14.75-13.35-21.25l-33.15-46.27c-5.38-7.51-10.71-15.05-16.14-22.52-4.4-6.05-9.3-11.49-17.01-12.93-7.94-1.49-16.57,.06-24.52,.76-8.83,.78-17.64,1.72-26.42,2.89-33.23,4.44-66.34,12.61-95.64,29.39-15.02,8.59-29,19.41-40.42,32.45-13.35,15.24-24.22,32.83-35.78,49.44-4.42,6.35,5.97,12.36,10.36,6.06h0Z"/><path class="e" d="M427.8,42.69c-2.19,15.94-1.57,31.75,2.16,47.43,3.72,15.65,9.81,30.66,15.44,45.69,11.92,31.84,23.85,63.68,35.77,95.52,2.68,7.17,14.29,4.06,11.57-3.19-11.46-30.6-22.92-61.21-34.38-91.81s-23.38-58.51-18.99-90.45c.44-3.23-.78-6.4-4.19-7.38-2.8-.8-6.94,.98-7.38,4.19h0Z"/><path class="e" d="M401.12,51.58c9.6,8.44,13.79,21.61,19.25,32.81,6.3,12.93,13.13,25.59,20.4,38,3.9,6.66,14.28,.63,10.36-6.06-7.58-12.95-14.68-26.18-21.22-39.69-5.68-11.74-10.25-24.72-20.31-33.55-5.78-5.08-14.3,3.38-8.49,8.49h0Z"/><path class="e" d="M244.66,135.08l107.49,30.59,53.27,15.16c16.68,4.75,33.96,8.74,49.27,17.14,6.77,3.72,12.84-6.64,6.06-10.36-15.4-8.45-32.5-12.76-49.28-17.54l-54.22-15.43-109.39-31.13c-7.44-2.12-10.62,9.46-3.19,11.57h0Z"/><path class="e" d="M211.45,118.84c-3.22,10.22-5.86,20.61-7.79,31.15-1.58,8.63-3.52,18.1-.08,26.53,6.98,17.1,27.38,14.13,42.26,14.34,42.27,.6,83.43,18.5,121.99,34.17,22.78,9.26,45.27,19.22,67.49,29.77,6.94,3.3,13.04-7.05,6.06-10.36-36.71-17.44-74.22-33.35-112.43-47.22-18.42-6.68-37.21-12.7-56.6-15.86-9.68-1.58-19.48-2.56-29.29-2.51-7.24,.04-15.5,1.37-22.43-1.32-9.27-3.59-7.08-14.71-5.72-22.49,1.96-11.18,4.71-22.19,8.12-33.01,2.33-7.38-9.25-10.54-11.57-3.19h0Z"/><path class="e" d="M425.28,270.64c.75-3.54,9.57-4.36,10.94-7.56,1.42-3.3,1.45-6.48,3.44-9.37s-.5-9.77,2.03-12.22c2.55-2.47,4.85-6.63,7.82-8.55,2.97-1.93,8.74,.29,12.04-1.03s6-6.6,9.51-7.25c3.45-.64,7.81,8.37,11.39,8.42,3.48,.05,6.75-2.55,10.29-1.8,3.54,.75,8.81-3.33,12.01-1.95s6.05,5.03,8.93,7.02c2.94,2.03,5.04,5.5,7.49,8.03,2.47,2.55,2.32,7.06,4.24,10.03,1.93,2.97,6.01,4.71,7.33,8.01s-2.61,7.74-1.97,11.25c.64,3.45,9.38,6.27,9.33,9.86s-2.6,7.38-3.36,10.92-8.04,4.69-9.42,7.89-1.6,6.38-3.59,9.27c-2.03,2.94-4.63,4.44-7.16,6.89-2.55,2.47-3.08,6.66-6.05,8.59s-6.59,1.75-9.89,3.06c-3.28,1.31-5.62,4.77-9.13,5.42-3.45,.64-6.97,4.72-10.55,4.67-3.48-.05-7-3.66-10.53-4.41-3.54-.75-6.47-2.96-9.67-4.34-3.3-1.42-5.46-4.15-8.35-6.14s-6.35-2.99-8.81-5.52c-2.47-2.55-1.79-7-3.72-9.97s-8.63-3.22-9.94-6.52-4.5-6.61-5.15-10.12,6.37-7.62,6.43-11.21-6.69-7.82-5.94-11.36Z"/></g><path class="e" d="M201.78,300.01c15.15,6.14,32.07,6.6,47.58,1.5,7.3-2.4,4.18-13.99-3.19-11.57-13.72,4.51-27.83,3.92-41.2-1.5-7.15-2.9-10.27,8.7-3.19,11.57h0Z"/><path class="e" d="M350.15,300.01c15.15,6.14,32.07,6.6,47.58,1.5,7.3-2.4,4.18-13.99-3.19-11.57-13.72,4.51-27.83,3.92-41.2-1.5-7.15-2.9-10.27,8.7-3.19,11.57h0Z"/></g></g></svg>