<?xml version="1.0" encoding="UTF-8"?><svg xmlns="http://www.w3.org/2000/svg" viewBox="0 0 760.74 731.32"><defs><style>.d{fill:none;}.e{fill:#efefef;}.f{fill:#98c1d9;}.g,.h{fill:#3d5a80;}.i{opacity:.36;}.h{opacity:.25;}</style></defs><g id="a"/><g id="b"><g id="c"><g><path class="d" d="M521.28,181.37l12.55,4.81c13.49,5.17,28.04,11.23,35.09,23.84,7.3,13.06,4.1,30.12-4.66,42.25-8.76,12.13-22.14,20.1-35.8,26.21-10.99,4.92-22.52,8.92-32.46,15.72-9.94,6.8-18.34,17.12-19.29,29.12"/><path class="f" d="M709.17,650.07c-2.78-.76-13.42-11.55-22.23-20.54,.45-.7,.85-1.44,1.16-2.25,1.21-3.19,1.26-5.92,.42-8.39-6.63-1.82-13.28-3.6-19.89-5.53-12.47-3.63-24.58-8.25-37.14-11.59-21.16-5.63-42.82-9.54-62.63-19.25-20.92-10.25-39.19-26.98-50.39-47.48-10.51-19.22-15.37-40.91-24.5-60.75-2.9-6.31,2.55-12.07,7.67-12.16-1-9.66-1.19-19.48-1.2-29.13-.06-50.07,4.09-102.93,27.47-146.54-8.6-47.42-9.95-96.36-11.97-144.47-6.21-10.41-12.64-21.26-19.61-33.66-20.34-36.21-52.4-69.46-93.93-77.03-38.26-6.98-76.72,8.87-111.48,25.99-20.12,9.91-40.3,20.63-55.97,36.46-33.08,33.4-40.59,83.45-41.53,129.94-1.25,62.25-7.28,144.43,45.64,177.8,22.6,14.25,65.7,44.55,71.77,73.37,5.4,25.64-28.79,52.25-46.28,72.07-17.49,19.82-49.05,25.32-71.82,39.1-14.55,8.8-39.22,19.02-55.87,22.85-15.15,3.48-12.79,9.84-28.18,12.09-.6,.09-1.18,.22-1.77,.31-.14,2.36-1.29,4.66-3.74,6.11-11.3,6.66-23.72,11.79-36.08,16.96-13.82,5.78-27.17,21.28-37.07,32.09-2.31,2.53-7.94,6.96-8.93,10.21-2.13,6.96,.86,3.13,2.46,9.08,1.63,6.1,1.92,11.58,2.4,18.84,.42,6.31,3.16,13.16,9.01,15.57,3.43,1.41,7.29,1.05,10.98,.68,35.91-3.55,72.34-5.32,108.42-3.89,30.49,1.21,59.7,5.93,90.96,3.89,65.25-4.25,129.49-18.38,195.01-19.54,30.14-.54,74.24,5.83,104.33,4.17,22.08-1.22,83.43-14.01,105.38-16.69,38.4-4.69,54.96,1.07,90.77-13.56,3.5-1.43,16.69-21.91-31.65-35.13Z"/><path class="e" d="M320.66,352.79c9-2.01,15.74-2.95,24.89-3.38s17.55-.07,26.27,.99c3.74,.45,7.33-3.62,7.17-7.17-.19-4.27-3.17-6.69-7.17-7.17-18.34-2.22-36.96-1.13-54.97,2.91-3.67,.82-6.16,5.26-5.01,8.82,1.24,3.85,4.9,5.89,8.82,5.01h0Z"/><path class="e" d="M393.26,179.54l47.09,5.61c2.57,.31,4.78-2.42,4.78-4.78,0-2.84-2.21-4.47-4.78-4.78l-47.09-5.61c-2.57-.31-4.78,2.42-4.78,4.78,0,2.84,2.21,4.47,4.78,4.78h0Z"/><path class="e" d="M272.82,171.25c-12.62-.67-25.12,1.94-36.55,7.25-2.34,1.09-2.93,4.46-1.72,6.54,1.41,2.4,4.19,2.81,6.54,1.72,9.96-4.62,20.82-6.52,31.73-5.94,2.58,.14,4.78-2.3,4.78-4.78,0-2.7-2.19-4.65-4.78-4.78h0Z"/><path class="e" d="M326.76,199.93c.43,7.73,.84,15.47,.68,23.21-.08,3.98-.33,7.94-.78,11.89,0,0-.15,1.22-.06,.52,.1-.79-.11,.73-.13,.88-.13,.86-.28,1.71-.43,2.56-.38,2.07-.84,4.13-1.38,6.17-1.97,7.36-5.11,14.49-5.06,22.25,.04,7.84,3.16,15.24,9.68,19.81,7.14,4.99,16.51,3.85,24.57,2.61,3.72-.57,6.11-5.43,5.01-8.82-1.31-4.05-4.84-5.62-8.82-5.01-.4,.06-.8,.12-1.2,.18-.13,.02-1.14,.16-.27,.04s-.15,.02-.27,.03c-.41,.04-.82,.09-1.24,.13-1.44,.14-2.88,.22-4.32,.2-.71-.01-1.41-.09-2.12-.11-1.07-.04,1.16,.28,.13,.01-.28-.07-.58-.11-.87-.18-.67-.15-1.31-.39-1.96-.58-.77-.23,.29,.1,.37,.16-.41-.26-.87-.46-1.28-.72-.25-.16-.5-.32-.74-.5,1.14,.85,.32,.22,.12,0-.18-.2-.38-.44-.59-.62-.74-.64,.56,.98,.08,.12-.28-.49-.61-.95-.87-1.45-.11-.21-.58-1.32-.23-.43s-.09-.32-.14-.48c-.21-.64-.38-1.29-.51-1.95-.08-.38-.14-.76-.2-1.15,.02,.1,.08,1.27,.09,.46,.02-1.46-.06-2.89,.05-4.35-.08,1.16,.16-.93,.23-1.28,.14-.7,.3-1.4,.47-2.1,.43-1.74,.96-3.46,1.5-5.18,1.03-3.25,2.08-6.48,2.85-9.8,1.68-7.26,2.44-14.75,2.65-22.19,.23-8.12-.21-16.23-.66-24.33-.21-3.74-3.15-7.35-7.17-7.17-3.71,.17-7.39,3.16-7.17,7.17h0Z"/><path class="h" d="M623.17,598.13c-33.25-7.61-63.91-21.3-85.57-47.17-18.11-21.63-27.79-47.88-33.62-74.63-6.29-28.87-11.01-59.14-12.38-88.6-.75-16.05-.03-32.26,3.31-48.04,3.29-15.57,10.56-29.14,17.73-43.34,15.39-30.51,25.44-60.68,19.12-94.7-5.65-30.44-16.69-61.03-34.28-87.21-8.46-12.59-18.23-24.63-27.78-36.49-10.22-12.69-21.21-25.28-34.23-35.5-36.2-28.41-97.74-29.72-139.75-7.74,.65,6.12,2.56,12.08,6.14,17.34,6.45,9.46,16.56,18.75,28.71,20.88,8.6,1.5,16.96,3.83,25.11,6.75,12.33,5.42,24.06,11.97,35.48,18.93,11.35,6.92,22.71,14.01,33.6,21.6,4.37,3.45,8.52,7.12,12.32,11.13,2.29,3.32,4.32,6.78,6.15,10.35,5.85,14.71,9.75,30.23,12.34,45.74,4.3,36.88,.33,73.98-3.96,110.72-4.5,38.51-9.37,77.42-5.01,116.16,2.17,19.28,5.41,38.38,11.51,56.92,5.86,17.79,13.63,35.24,22.76,51.74,7.33,13.24,15.93,25.82,25.56,37.68,12.1,14.89,24.58,29.14,39.26,41.84,14.39,12.45,30.07,23.89,46.54,33.77,16.77,10.06,34.71,17.8,53.15,24.72,3.67,1.38,7.38,2.66,11.12,3.88,6.39,1.89,12.77,2.16,19.16,.81,6.39-.27,12.35-2.07,17.86-5.39,5.6-2.85,10.09-6.76,13.48-11.7,3.84-3.97,6.55-8.57,8.13-13.79-24.78-24.17-58.8-29.04-91.97-36.63Z"/><path class="e" d="M17.91,718.48c14.39-24.37,34.5-46.12,56.68-62.68,23.06-17.22,48.65-30.68,74.73-42.67,26.83-12.34,52.8-22.57,79.64-34.39,25.55-11.25,52.83-24.85,68.87-48.71,18.45-27.44,9.24-63.1-8.09-88.66-17.08-25.19-40.48-44.91-60.22-67.84-9.01-10.47-17.4-22.04-23.1-35.27-6.48-15.04-8.75-32.08-9.85-48.49-1.16-17.24-1.51-34.52-2.83-51.75-1.28-16.65-2.79-33.29-3.09-49.99-.55-30.31,3.27-62.64,22.56-86.47,19.01-23.48,45.95-38.03,72.38-52.11,26.94-14.36,58.94-36.76,90.26-28.81,15.09,3.83,28.41,12.64,41.2,21.64,12.65,8.9,24.84,17.18,36.08,27.42,42.66,38.86,65.75,94.73,64.2,151.97-.43,15.99-2.93,29.6-6.23,45.34-3.94,18.85-7.82,37.72-11.46,56.64-3.64,18.92-7.06,37.88-10.09,56.9-2.47,15.48-4.39,30.92-4.33,46.62,.1,29.86,5.92,59.6,18.12,86.89,11.98,26.81,31.65,52.14,57.07,67.4,14.6,8.77,30.54,12.26,46.95,15.83,6.5,1.42,12.95,3.12,19.19,5.43,1.17,.43,2.32,.89,3.48,1.35,1.5,.6-2.06-.91,.35,.14,.5,.22,1,.44,1.5,.66,2.75,1.22,5.47,2.52,8.19,3.81,14.4,6.86,28.94,13.3,42.77,21.28,11.4,6.58,22.24,14.01,33.07,21.48,9.88,6.82,19.88,13.42,30.48,19.08,4.56,2.43,10.41,1.15,13.09-3.43,2.54-4.34,1.14-10.65-3.43-13.09-22.72-12.12-42.67-28.66-65.03-41.41-14.02-7.99-28.75-14.5-43.32-21.4-11.78-5.58-23.69-9.92-36.46-12.62-15.91-3.37-30.66-6.65-44.26-15.59-10.6-6.96-22.03-18.33-29.44-28.27-17.33-23.26-26.88-49.63-31.16-78.4-.32-2.19-.74-5.66-1.05-8.88-.36-3.83-.62-7.66-.78-11.5-.31-7.31-.26-14.64,.13-21.95,.92-16.91,3.89-32.54,6.89-49.8,3.29-18.94,6.91-37.82,10.69-56.67,3.63-18.09,8.03-36.12,11.05-54.32,10.07-60.59-5.19-122.97-43.02-171.47-19.38-24.85-44.66-43.48-70.68-60.85-13.4-8.94-28.27-17.25-44.37-19.89-17.68-2.9-35.07,.77-51.45,7.57-16.21,6.73-31.39,15.59-46.86,23.82-13.77,7.33-27.5,14.79-40.46,23.5-12.9,8.66-25.32,18.5-35.37,30.42-10.78,12.79-18.6,27.45-23.26,43.52-9.33,32.23-6.52,66.55-3.92,99.52,1.35,17.05,2.16,34.08,2.99,51.16,.86,17.81,2.32,35.95,7.56,53.08,9.37,30.62,31.22,54.11,53.04,76.56,20.72,21.31,43.47,42.99,49.99,72.93,.77,3.55,1.19,6.34,1.37,10.05,.09,1.76,.1,3.53,.04,5.29-.04,1.15-.13,2.3-.23,3.45-.18,2.07,.21-.45-.23,1.49-1.59,6.98-2.82,10.37-6.62,16.22-6.43,9.9-17.3,18.46-28.08,25.14-11.91,7.39-24.66,13.23-37.48,18.83-13.84,6.05-27.08,11.56-40.48,17.24-53.48,22.67-108.31,47.68-147.81,91.74-10.03,11.18-18.97,23.37-26.61,36.3-6.27,10.62,10.26,20.26,16.52,9.65h0Z"/><g class="i"><path class="g" d="M454.91,217.9c.2,3.76,.43,7.62,.08,11.37,.18-1.92-.16,.61-.27,1.15-.06,.28-.77,2.75-.34,1.53,.42-1.2-.4,.9-.5,1.12-.31,.69-1.38,1.98-.28,.63-.39,.48-.72,1.07-1.11,1.57-.54,.7-1,1.18-.13,.3-.96,.97-1.98,1.82-3.04,2.55-.68,.47-1.22,.71-.2,.19-.61,.31-1.21,.61-1.84,.87-1.41,.59-2.85,.97-4.31,1.32-.56,.12-.53,.11,.1-.02l-.8,.11c-.81,.08-1.61,.18-2.41,.24-1.35,.1-2.69,.14-4.04,.16-2.74,.05-5.49,.08-8.23-.05-1.21-.06-2.42-.15-3.63-.31-.5-.06-2.18-.46-.77-.11-.71-.18-1.41-.34-2.11-.55-1.16-.36-2.28-.82-3.4-1.35-2.01-.95,1.15,.97-.71-.46-.62-.48-1.24-.95-1.85-1.47-3.49-2.99-8.81-1.17-10.75,3.86-2.04,5.28-.91,11.53,2.82,14.72,6.12,5.23,13.31,6.84,20.41,7.18,7.01,.34,14.25,.33,21.14-1.6,6.98-1.96,13.31-6.99,17.61-14.8,4.49-8.15,4.79-18.38,4.28-28.16-.29-5.6-3.4-11.03-7.86-10.76-4.01,.25-8.18,4.75-7.86,10.76h0Z"/></g><path class="e" d="M435.56,187.37c-4.65-.43-9.35-.5-14.02-.23-5.35,.31-10.92,.93-15.98,2.8-5.2,1.92-9.28,4.85-11.39,10.1-2.49,6.19-2.55,13.49-.45,19.79,4.92,14.81,20.11,21.65,34.79,22.55,7.69,.47,15.37-1.44,21.38-6.36,4.95-4.05,8.43-10.21,9.48-16.5,2.68-16.03-9.56-30.55-25.53-31.84-2.58-.21-4.78,2.35-4.78,4.78,0,2.76,2.2,4.57,4.78,4.78,9.11,.73,16.85,9.34,16.4,18.52-.21,4.25-2.26,8.82-5.47,12.01-3.58,3.56-8.86,5.13-14.19,5.11-5.73-.03-11.85-1.38-16.97-3.97-4.67-2.36-8.48-5.97-10.29-10.54-1.86-4.7-2.07-9.46-.54-14.17,.3-.93,.57-1.31,.93-2.15,.27-.63-.54,.47,.17-.24,.33-.33,.67-.65,1.01-.97,.38-.36-.22,.16-.26,.19,.2-.14,.4-.29,.61-.42,.33-.2,.65-.4,.99-.59,.41-.23,.83-.42,1.25-.63,.48-.24-.12,.04-.19,.07,.33-.14,.66-.26,1-.38,2.24-.81,4.58-1.34,6.93-1.73,1.49-.25,1.25-.21,2.86-.38,1.31-.13,2.62-.23,3.94-.3,4.5-.23,9.04-.16,13.53,.25,2.58,.24,4.78-2.37,4.78-4.78,0-2.78-2.2-4.54-4.78-4.78h0Z"/><path class="g" d="M422.54,219.54c3.75,0,7.35-3.3,7.17-7.17-.17-3.89-3.15-7.17-7.17-7.17-3.75,0-7.35,3.3-7.17,7.17,.17,3.89,3.15,7.17,7.17,7.17h0Z"/><path class="e" d="M404.5,206.73c6.49,.04,12.97,.28,19.44,.76,6.14,.45,13.2,1.23,18.2,1.96v-13.83c-1.25,.23-2.51,.45-3.76,.64,.02,0-2.29,.33-1.12,.17-.5,.07-1.01,.13-1.52,.19-2.66,.31-5.32,.53-7.99,.66-5.22,.26-10.44,.16-15.65-.25-3.75-.29-7.34,3.51-7.17,7.17,.19,4.14,3.16,6.86,7.17,7.17,11.34,.88,22.67,.14,33.85-1.92,2.95-.54,5.4-3.99,5.27-6.92s-2.1-6.46-5.27-6.92c-13.74-2-27.56-3.16-41.45-3.23-3.75-.02-7.35,3.31-7.17,7.17s3.15,7.15,7.17,7.17h0Z"/><g class="i"><path class="g" d="M212.15,218.14c-.77,9.69,3.69,18.49,7.74,25.83,2.29,4.14,4.67,7.8,7.88,10.67,3.24,2.9,7.02,4.11,10.79,4.81,12.78,2.36,26.89,3.75,38.43-5.63,3.37-2.74,4.89-9.38,2.69-14.07-2.19-4.66-6.64-6.62-10.25-3.69-.59,.48-1.18,.94-1.79,1.36-.3,.21-2.12,1.19-.68,.46-1.05,.53-2.11,1.01-3.2,1.4-.65,.23-1.31,.43-1.97,.61-.17,.05-2.37,.52-.69,.22-1.13,.2-2.28,.32-3.42,.4-5.22,.35-10.44-.31-15.62-1.05-.6-.09-1.2-.17-1.79-.27,1.53,.27-.76-.21-.86-.24-.59-.16-1.17-.35-1.74-.58-.34-.13-.69-.27-1.02-.44,.57,.38,.62,.41,.14,.09-.49-.38-.98-.74-1.46-1.14-1.61-1.34,.78,1.2-.56-.62-.88-1.19-1.68-2.41-2.49-3.68-.55-.85,.53,1.05-.26-.48-.39-.75-.78-1.5-1.16-2.25-.75-1.48-1.5-2.96-2.18-4.5-.32-.71-.61-1.45-.91-2.17-.99-2.38,.19,1.42-.39-1.15-.08-.34-.43-3.12-.31-1.01-.05-.97-.01-1.92,.07-2.88,.42-5.36-3.75-10.51-7.49-10.28-4.42,.27-7.04,4.53-7.49,10.28h0Z"/></g><path class="e" d="M239.35,191.91c-10.74,3.09-17.02,14.62-15.59,25.41,1.55,11.65,11.3,20.48,22.12,23.9,6.05,1.92,13.11,2.35,19.13,.08,5.26-1.98,9.5-5.48,12.77-10.02,6.2-8.64,7.08-20.8,1.28-29.86-6.65-10.38-19.62-15.77-31.64-12.97-2.52,.59-17.82,7.18-17.16,9.59,.71,2.58,20.38,1.71,22.9,1.12,6.75-1.57,11.18-.45,16.14,5.1,4.71,5.27,5.31,12.84,2.14,19.04-1.65,3.22-3.81,5.76-6.62,7.52-1.75,1.1-2.57,1.47-4.6,1.97-2.32,.57-4.82,.6-7.19,.29-7.91-1.03-16.04-6.14-18.88-13.4-2.83-7.25,.48-16.46,7.74-18.55,5.9-1.7,3.39-10.93-2.54-9.22h0Z"/><path class="g" d="M254.55,220.49c3.75,0,7.35-3.3,7.17-7.17-.17-3.89-3.15-7.17-7.17-7.17-3.75,0-7.35,3.3-7.17,7.17,.17,3.89,3.15,7.17,7.17,7.17h0Z"/><path class="e" d="M236.58,209.45c9.49,1.99,19.22,2.96,28.92,2.73l-1.91-14.09c-.34,.05-.69,.11-1.03,.16,1.05-.14,1.16-.15,.36-.05-.69,.07-1.38,.16-2.08,.22-1.3,.12-2.6,.2-3.9,.24-2.7,.09-5.39,.02-8.08-.19-3.75-.29-7.34,3.51-7.17,7.17,.19,4.14,3.16,6.86,7.17,7.17,6.23,.49,12.38,.07,18.55-.89,1.59-.25,3.56-1.91,4.29-3.3,.77-1.45,1.07-2.94,.85-4.57-.46-3.43-3.46-6.31-7.04-6.22-4.45,.11-8.89-.02-13.32-.42-1.13-.1-2.26-.22-3.38-.35-.45-.05-2.11-.19-.17,0-.52-.05-1.04-.15-1.55-.22-2.24-.34-4.47-.75-6.69-1.21-3.66-.77-7.93,1.07-8.82,5.01-.82,3.6,1.08,8,5.01,8.82h0Z"/><path class="e" d="M528.59,194.38c.33,.07,.67,.18,1,.24,1.43,.27-.69-.15-.83-.38,.07,.11,.89,.5,.94,.53,1.01,.56-.29,.39-.59-.52,.15,.44,1.31,1.24,1.67,1.61,.21,.21,.8,1.04,.02-.04-.91-1.26,.16,.26,.34,.53,.46,.71,.89,1.45,1.27,2.21,.07,.14,.56,.93,.56,1.17,0-.12-.78-2.14-.19-.39s1.16,3.53,1.57,5.36c.21,.93,.4,1.86,.56,2.8,.13,.75,.1,2.19,.45,2.85-.11-.21-.26-2.23-.07-.39,.05,.48,.11,.96,.16,1.44,.11,.99,.2,1.99,.28,2.99,.16,2,.26,4.01,.25,6.02,0,1-.04,2-.1,2.99-.03,.5-.08,.99-.12,1.48-.15,1.87,.26-1.15,0,.02-.36,1.64-.67,3.26-1.17,4.87-.23,.76-.49,1.51-.76,2.25-.13,.37-.28,.73-.42,1.09-.61,1.6,.69-1.49,.18-.42-1.3,2.71-2.69,5.32-4.32,7.85-3.16,4.91-6.86,9.45-10.16,14.27-4.27,6.24-7.74,13.15-9.46,20.55-1.13,4.86,1.51,10.59,6.68,11.76,4.89,1.11,10.55-1.47,11.76-6.68,.39-1.66,.85-3.31,1.42-4.92,.11-.32,1.14-2.83,.46-1.29-.6,1.37-.07,.17,.09-.17,.23-.51,.48-1.02,.73-1.53,1.4-2.81,3.06-5.48,4.83-8.07,3.56-5.2,7.58-10.07,10.89-15.44,4.38-7.08,7.25-14.78,8.23-23.04,.52-4.36,.38-8.74-.03-13.1-.44-4.67-1-9.39-2.1-13.95-2.32-9.62-8.36-20.82-18.95-23-4.89-1.01-10.57,1.42-11.76,6.68-1.09,4.78,1.44,10.69,6.68,11.76h0Z"/></g></g></g></svg>