<?xml version="1.0" encoding="UTF-8"?><svg xmlns="http://www.w3.org/2000/svg" viewBox="0 0 1920 3564.72"><defs><style>.f,.g{fill:none;}.h,.i{fill:#efefef;}.j{fill:#98c1d9;}.k{fill:#0a0a3f;}.l,.m{fill:#3d5a80;}.i{opacity:.21;}.g{stroke:#efefef;stroke-miterlimit:10;}.n{opacity:.18;}.o,.m{opacity:.25;}.p{opacity:.36;}</style></defs><g id="a"/><g id="b"><g id="c"><rect class="k" x="0" y="0" width="1920" height="3564.72"/></g><g id="d"><g><path class="h" d="M582.81,3239.16v-29.4h4.49l12.85,21.46h-2.35l12.64-21.46h4.49l.04,29.4h-5.17l-.04-21.29h1.09l-10.75,17.93h-2.44l-10.92-17.93h1.26v21.29h-5.21Z"/><path class="h" d="M629.17,3239.45c-1.68,0-3.15-.29-4.41-.86-1.26-.57-2.23-1.37-2.92-2.39-.69-1.02-1.03-2.18-1.03-3.46s.3-2.39,.9-3.4c.6-1.01,1.59-1.81,2.96-2.39,1.37-.59,3.19-.88,5.46-.88h6.51v3.49h-6.13c-1.79,0-3,.29-3.61,.86-.62,.57-.92,1.28-.92,2.12,0,.95,.38,1.71,1.13,2.27,.76,.56,1.81,.84,3.15,.84s2.44-.29,3.47-.88c1.02-.59,1.76-1.46,2.2-2.6l.88,3.15c-.5,1.32-1.41,2.34-2.71,3.07-1.3,.73-2.95,1.09-4.94,1.09Zm7.06-.29v-4.54l-.29-.97v-7.94c0-1.54-.46-2.74-1.39-3.59-.92-.85-2.32-1.28-4.2-1.28-1.26,0-2.5,.2-3.72,.59-1.22,.39-2.25,.94-3.09,1.64l-2.06-3.82c1.2-.92,2.64-1.62,4.31-2.08,1.67-.46,3.39-.69,5.19-.69,3.25,0,5.76,.78,7.54,2.33,1.78,1.55,2.67,3.96,2.67,7.2v13.15h-4.96Z"/><path class="h" d="M657.44,3239.45c-2.16,0-4.1-.48-5.82-1.45-1.72-.97-3.07-2.3-4.05-4.01-.98-1.71-1.47-3.72-1.47-6.05s.49-4.34,1.47-6.05c.98-1.71,2.33-3.04,4.05-3.99,1.72-.95,3.66-1.43,5.82-1.43,1.88,0,3.56,.41,5.04,1.24,1.48,.83,2.66,2.08,3.53,3.76,.87,1.68,1.3,3.84,1.3,6.47s-.42,4.75-1.26,6.45c-.84,1.69-2,2.96-3.49,3.8-1.48,.84-3.19,1.26-5.12,1.26Zm.63-4.49c1.26,0,2.39-.28,3.38-.84,.99-.56,1.79-1.37,2.39-2.44s.9-2.31,.9-3.74-.3-2.71-.9-3.76c-.6-1.05-1.4-1.85-2.39-2.42-.99-.56-2.12-.84-3.38-.84s-2.39,.28-3.38,.84c-.99,.56-1.79,1.36-2.39,2.42-.6,1.05-.9,2.3-.9,3.76s.3,2.67,.9,3.74c.6,1.06,1.4,1.88,2.39,2.44,.99,.56,2.12,.84,3.38,.84Zm6.8,4.2v-5.29l.21-5.96-.42-5.96v-13.94h5.21v31.16h-5Z"/><path class="h" d="M687.34,3239.45c-2.49,0-4.67-.5-6.53-1.49-1.86-.99-3.3-2.36-4.33-4.09-1.02-1.74-1.53-3.71-1.53-5.92s.5-4.22,1.49-5.94c.99-1.72,2.37-3.07,4.12-4.05,1.75-.98,3.74-1.47,5.98-1.47s4.13,.48,5.84,1.43c1.71,.95,3.05,2.3,4.03,4.03,.98,1.74,1.47,3.78,1.47,6.13,0,.22,0,.48-.02,.76-.01,.28-.04,.55-.06,.8h-18.69v-3.49h15.92l-2.06,1.09c.03-1.29-.24-2.42-.8-3.4-.56-.98-1.32-1.75-2.29-2.31-.97-.56-2.08-.84-3.34-.84s-2.42,.28-3.38,.84c-.97,.56-1.72,1.34-2.27,2.33s-.82,2.16-.82,3.51v.84c0,1.34,.31,2.53,.92,3.57,.62,1.04,1.48,1.83,2.6,2.39,1.12,.56,2.41,.84,3.86,.84,1.26,0,2.39-.2,3.4-.59,1.01-.39,1.9-1.01,2.69-1.85l2.81,3.23c-1.01,1.18-2.28,2.08-3.8,2.71-1.53,.63-3.27,.95-5.23,.95Z"/><path class="h" d="M717.16,3213.03c-.98,0-1.78-.31-2.42-.92-.63-.62-.94-1.36-.94-2.23s.31-1.64,.94-2.25c.63-.6,1.43-.9,2.42-.9s1.79,.29,2.42,.86,.95,1.3,.95,2.16c0,.92-.31,1.7-.92,2.33-.62,.63-1.43,.95-2.44,.95Zm-2.65,26.12v-22.43h5.25v22.43h-5.25Z"/><path class="h" d="M723.67,3221.1v-4.2h14.95v4.2h-14.95Zm11.42,18.35c-2.46,0-4.37-.64-5.71-1.91-1.34-1.27-2.02-3.16-2.02-5.65v-20.12h5.25v19.99c0,1.06,.27,1.89,.82,2.48s1.31,.88,2.29,.88c1.18,0,2.16-.31,2.94-.92l1.47,3.74c-.62,.5-1.37,.88-2.27,1.13-.9,.25-1.82,.38-2.77,.38Z"/><path class="h" d="M784.36,3216.48c1.79,0,3.38,.35,4.77,1.05,1.39,.7,2.47,1.77,3.25,3.21,.78,1.44,1.18,3.3,1.18,5.57v12.85h-5.25v-12.18c0-1.99-.43-3.47-1.3-4.45-.87-.98-2.11-1.47-3.74-1.47-1.15,0-2.16,.25-3.04,.76-.88,.5-1.57,1.25-2.06,2.23-.49,.98-.74,2.23-.74,3.74v11.38h-5.25v-12.18c0-1.99-.43-3.47-1.3-4.45-.87-.98-2.11-1.47-3.74-1.47-1.15,0-2.16,.25-3.05,.76-.88,.5-1.57,1.25-2.06,2.23-.49,.98-.74,2.23-.74,3.74v11.38h-5.25v-22.43h5v5.96l-.88-1.76c.76-1.46,1.85-2.56,3.3-3.32,1.44-.76,3.09-1.13,4.94-1.13,2.1,0,3.93,.52,5.48,1.55,1.55,1.04,2.58,2.6,3.09,4.7l-2.06-.71c.73-1.68,1.93-3.02,3.61-4.03s3.63-1.51,5.84-1.51Z"/><path class="h" d="M810.4,3239.45c-2.3,0-4.34-.5-6.13-1.49-1.79-.99-3.21-2.36-4.24-4.09-1.04-1.74-1.55-3.71-1.55-5.92s.52-4.22,1.55-5.94c1.04-1.72,2.45-3.07,4.24-4.05,1.79-.98,3.84-1.47,6.13-1.47s4.39,.49,6.2,1.47c1.81,.98,3.22,2.32,4.24,4.03,1.02,1.71,1.53,3.7,1.53,5.96s-.51,4.19-1.53,5.92c-1.02,1.74-2.44,3.1-4.24,4.09-1.81,.99-3.87,1.49-6.2,1.49Zm0-4.49c1.29,0,2.44-.28,3.44-.84,1.01-.56,1.8-1.37,2.37-2.44,.57-1.06,.86-2.31,.86-3.74s-.29-2.71-.86-3.76c-.57-1.05-1.36-1.85-2.37-2.42-1.01-.56-2.14-.84-3.4-.84s-2.43,.28-3.42,.84c-.99,.56-1.79,1.36-2.37,2.42-.59,1.05-.88,2.3-.88,3.76s.29,2.67,.88,3.74,1.38,1.88,2.37,2.44c.99,.56,2.12,.84,3.38,.84Z"/><path class="h" d="M827.41,3239.16v-22.43h5v6.17l-.59-1.81c.67-1.51,1.73-2.66,3.17-3.44,1.44-.78,3.24-1.18,5.4-1.18v5c-.22-.06-.43-.09-.63-.11-.2-.01-.39-.02-.59-.02-1.99,0-3.57,.58-4.75,1.74-1.18,1.16-1.76,2.89-1.76,5.19v10.88h-5.25Z"/><path class="h" d="M855.17,3239.45c-2.49,0-4.67-.5-6.53-1.49-1.86-.99-3.3-2.36-4.33-4.09-1.02-1.74-1.53-3.71-1.53-5.92s.5-4.22,1.49-5.94c.99-1.72,2.37-3.07,4.12-4.05,1.75-.98,3.74-1.47,5.98-1.47s4.13,.48,5.84,1.43c1.71,.95,3.05,2.3,4.03,4.03,.98,1.74,1.47,3.78,1.47,6.13,0,.22,0,.48-.02,.76-.01,.28-.04,.55-.06,.8h-18.69v-3.49h15.92l-2.06,1.09c.03-1.29-.24-2.42-.8-3.4-.56-.98-1.32-1.75-2.29-2.31-.97-.56-2.08-.84-3.34-.84s-2.42,.28-3.38,.84c-.97,.56-1.72,1.34-2.27,2.33s-.82,2.16-.82,3.51v.84c0,1.34,.31,2.53,.92,3.57,.62,1.04,1.48,1.83,2.6,2.39,1.12,.56,2.41,.84,3.86,.84,1.26,0,2.39-.2,3.4-.59,1.01-.39,1.9-1.01,2.69-1.85l2.81,3.23c-1.01,1.18-2.28,2.08-3.8,2.71-1.53,.63-3.27,.95-5.23,.95Z"/><path class="h" d="M891.83,3239.45c-2.16,0-4.09-.48-5.82-1.45-1.72-.97-3.07-2.3-4.05-4.01-.98-1.71-1.47-3.72-1.47-6.05s.49-4.34,1.47-6.05c.98-1.71,2.33-3.04,4.05-3.99,1.72-.95,3.66-1.43,5.82-1.43,1.88,0,3.56,.41,5.04,1.24,1.48,.83,2.66,2.08,3.53,3.76,.87,1.68,1.3,3.84,1.3,6.47s-.42,4.75-1.26,6.45-2,2.96-3.49,3.8-3.19,1.26-5.12,1.26Zm.63-4.49c1.26,0,2.39-.28,3.38-.84,.99-.56,1.79-1.37,2.39-2.44,.6-1.06,.9-2.31,.9-3.74s-.3-2.71-.9-3.76c-.6-1.05-1.4-1.85-2.39-2.42-.99-.56-2.12-.84-3.38-.84s-2.39,.28-3.38,.84-1.79,1.36-2.39,2.42c-.6,1.05-.9,2.3-.9,3.76s.3,2.67,.9,3.74c.6,1.06,1.4,1.88,2.39,2.44,.99,.56,2.12,.84,3.38,.84Zm6.8,4.2v-5.29l.21-5.96-.42-5.96v-13.94h5.21v31.16h-5Z"/><path class="h" d="M913.84,3213.03c-.98,0-1.79-.31-2.42-.92-.63-.62-.94-1.36-.94-2.23s.31-1.64,.94-2.25c.63-.6,1.43-.9,2.42-.9s1.79,.29,2.42,.86,.95,1.3,.95,2.16c0,.92-.31,1.7-.92,2.33-.62,.63-1.43,.95-2.44,.95Zm-2.65,26.12v-22.43h5.25v22.43h-5.25Z"/><path class="h" d="M920.35,3221.1v-4.2h14.95v4.2h-14.95Zm3.7,18.06v-23.69c0-2.35,.69-4.23,2.08-5.65,1.39-1.41,3.37-2.12,5.94-2.12,.92,0,1.8,.1,2.62,.29,.83,.2,1.52,.5,2.08,.92l-1.43,3.95c-.39-.31-.84-.54-1.34-.69-.5-.15-1.02-.23-1.55-.23-1.09,0-1.92,.3-2.48,.9-.56,.6-.84,1.51-.84,2.71v2.52l.17,2.35v18.73h-5.25Z"/><path class="h" d="M935.85,3221.1v-4.2h14.95v4.2h-14.95Zm3.7,18.06v-23.69c0-2.35,.69-4.23,2.08-5.65,1.39-1.41,3.37-2.12,5.94-2.12,.92,0,1.8,.1,2.62,.29,.83,.2,1.52,.5,2.08,.92l-1.43,3.95c-.39-.31-.84-.54-1.34-.69-.5-.15-1.02-.23-1.55-.23-1.09,0-1.92,.3-2.48,.9-.56,.6-.84,1.51-.84,2.71v2.52l.17,2.35v18.73h-5.25Zm17.6-26.12c-.98,0-1.79-.31-2.42-.92-.63-.62-.94-1.36-.94-2.23s.31-1.64,.94-2.25c.63-.6,1.43-.9,2.42-.9s1.79,.29,2.42,.86,.95,1.3,.95,2.16c0,.92-.31,1.7-.92,2.33-.62,.63-1.43,.95-2.44,.95Zm-2.65,26.12v-22.43h5.25v22.43h-5.25Z"/><path class="h" d="M976.93,3239.45c-2.35,0-4.45-.5-6.28-1.49-1.83-.99-3.27-2.36-4.3-4.09-1.04-1.74-1.55-3.71-1.55-5.92s.52-4.22,1.55-5.94c1.04-1.72,2.47-3.07,4.3-4.05,1.83-.98,3.93-1.47,6.28-1.47,2.18,0,4.11,.44,5.77,1.32,1.67,.88,2.93,2.18,3.8,3.89l-4.03,2.35c-.67-1.06-1.49-1.85-2.46-2.35s-2.01-.76-3.13-.76c-1.29,0-2.45,.28-3.49,.84-1.04,.56-1.85,1.36-2.44,2.42-.59,1.05-.88,2.3-.88,3.76s.29,2.71,.88,3.76c.59,1.05,1.4,1.86,2.44,2.42,1.04,.56,2.2,.84,3.49,.84,1.12,0,2.16-.25,3.13-.76s1.79-1.29,2.46-2.35l4.03,2.35c-.87,1.68-2.13,2.98-3.8,3.88-1.67,.91-3.59,1.37-5.77,1.37Z"/><path class="h" d="M1000.53,3239.45c-1.9,0-3.58-.36-5.04-1.07-1.46-.71-2.59-1.81-3.4-3.28-.81-1.47-1.22-3.33-1.22-5.57v-12.81h5.25v12.1c0,2.02,.45,3.52,1.36,4.51,.91,.99,2.21,1.49,3.89,1.49,1.23,0,2.3-.25,3.21-.76,.91-.5,1.62-1.26,2.14-2.27,.52-1.01,.78-2.25,.78-3.74v-11.34h5.25v22.43h-5v-6.05l.88,1.85c-.76,1.46-1.86,2.57-3.32,3.34-1.46,.77-3.05,1.16-4.79,1.16Z"/><path class="h" d="M1019.64,3239.16v-31.16h5.25v31.16h-5.25Z"/><path class="h" d="M1029.89,3221.1v-4.2h14.95v4.2h-14.95Zm11.42,18.35c-2.46,0-4.37-.64-5.71-1.91-1.34-1.27-2.02-3.16-2.02-5.65v-20.12h5.25v19.99c0,1.06,.27,1.89,.82,2.48,.55,.59,1.31,.88,2.29,.88,1.18,0,2.16-.31,2.94-.92l1.47,3.74c-.62,.5-1.37,.88-2.27,1.13-.9,.25-1.82,.38-2.77,.38Z"/><path class="h" d="M1059.28,3221.1v-4.2h14.95v4.2h-14.95Zm11.42,18.35c-2.46,0-4.37-.64-5.71-1.91-1.34-1.27-2.02-3.16-2.02-5.65v-20.12h5.25v19.99c0,1.06,.27,1.89,.82,2.48,.55,.59,1.31,.88,2.29,.88,1.18,0,2.16-.31,2.94-.92l1.47,3.74c-.62,.5-1.37,.88-2.27,1.13-.9,.25-1.82,.38-2.77,.38Z"/><path class="h" d="M1089.4,3239.45c-2.3,0-4.34-.5-6.13-1.49-1.79-.99-3.21-2.36-4.24-4.09-1.04-1.74-1.55-3.71-1.55-5.92s.52-4.22,1.55-5.94c1.04-1.72,2.45-3.07,4.24-4.05,1.79-.98,3.84-1.47,6.13-1.47s4.39,.49,6.19,1.47c1.81,.98,3.22,2.32,4.24,4.03,1.02,1.71,1.53,3.7,1.53,5.96s-.51,4.19-1.53,5.92c-1.02,1.74-2.44,3.1-4.24,4.09-1.81,.99-3.87,1.49-6.19,1.49Zm0-4.49c1.29,0,2.44-.28,3.44-.84,1.01-.56,1.8-1.37,2.37-2.44s.86-2.31,.86-3.74-.29-2.71-.86-3.76c-.57-1.05-1.37-1.85-2.37-2.42s-2.14-.84-3.4-.84-2.43,.28-3.42,.84-1.78,1.36-2.37,2.42c-.59,1.05-.88,2.3-.88,3.76s.29,2.67,.88,3.74c.59,1.06,1.38,1.88,2.37,2.44,.99,.56,2.12,.84,3.38,.84Z"/><path class="h" d="M1115.02,3221.1v-4.2h14.95v4.2h-14.95Zm3.7,18.06v-23.69c0-2.35,.69-4.23,2.08-5.65,1.39-1.41,3.37-2.12,5.94-2.12,.92,0,1.8,.1,2.62,.29,.83,.2,1.52,.5,2.08,.92l-1.43,3.95c-.39-.31-.84-.54-1.34-.69-.5-.15-1.02-.23-1.55-.23-1.09,0-1.92,.3-2.48,.9-.56,.6-.84,1.51-.84,2.71v2.52l.17,2.35v18.73h-5.25Z"/><path class="h" d="M1139.84,3239.45c-1.68,0-3.15-.29-4.41-.86-1.26-.57-2.23-1.37-2.92-2.39-.69-1.02-1.03-2.18-1.03-3.46s.3-2.39,.9-3.4c.6-1.01,1.59-1.81,2.96-2.39s3.19-.88,5.46-.88h6.51v3.49h-6.13c-1.79,0-3,.29-3.61,.86-.62,.57-.92,1.28-.92,2.12,0,.95,.38,1.71,1.13,2.27,.76,.56,1.81,.84,3.15,.84s2.44-.29,3.46-.88,1.76-1.46,2.21-2.6l.88,3.15c-.5,1.32-1.41,2.34-2.71,3.07-1.3,.73-2.95,1.09-4.93,1.09Zm7.06-.29v-4.54l-.29-.97v-7.94c0-1.54-.46-2.74-1.39-3.59-.92-.85-2.32-1.28-4.2-1.28-1.26,0-2.5,.2-3.72,.59-1.22,.39-2.25,.94-3.09,1.64l-2.06-3.82c1.2-.92,2.64-1.62,4.31-2.08,1.67-.46,3.39-.69,5.19-.69,3.25,0,5.76,.78,7.54,2.33,1.78,1.55,2.67,3.96,2.67,7.2v13.15h-4.96Z"/><path class="h" d="M1158.57,3239.16v-31.16h5.25v31.16h-5.25Z"/><path class="h" d="M1170.71,3239.16v-31.16h5.25v31.16h-5.25Z"/><path class="h" d="M1201.2,3239.45c-1.68,0-3.15-.29-4.41-.86-1.26-.57-2.23-1.37-2.92-2.39-.69-1.02-1.03-2.18-1.03-3.46s.3-2.39,.9-3.4c.6-1.01,1.59-1.81,2.96-2.39s3.19-.88,5.46-.88h6.51v3.49h-6.13c-1.79,0-3,.29-3.61,.86-.62,.57-.92,1.28-.92,2.12,0,.95,.38,1.71,1.13,2.27,.76,.56,1.81,.84,3.15,.84s2.44-.29,3.46-.88,1.76-1.46,2.21-2.6l.88,3.15c-.5,1.32-1.41,2.34-2.71,3.07-1.3,.73-2.95,1.09-4.93,1.09Zm7.06-.29v-4.54l-.29-.97v-7.94c0-1.54-.46-2.74-1.39-3.59-.92-.85-2.32-1.28-4.2-1.28-1.26,0-2.5,.2-3.72,.59-1.22,.39-2.25,.94-3.09,1.64l-2.06-3.82c1.2-.92,2.64-1.62,4.31-2.08,1.67-.46,3.39-.69,5.19-.69,3.25,0,5.76,.78,7.54,2.33,1.78,1.55,2.67,3.96,2.67,7.2v13.15h-4.96Z"/><path class="h" d="M1226.86,3239.45c-1.88,0-3.67-.25-5.4-.74-1.72-.49-3.09-1.08-4.09-1.78l2.02-3.99c1.01,.64,2.21,1.18,3.61,1.6s2.8,.63,4.2,.63c1.65,0,2.85-.22,3.59-.67,.74-.45,1.11-1.05,1.11-1.81,0-.62-.25-1.08-.76-1.41-.5-.32-1.16-.57-1.97-.74s-1.71-.32-2.71-.46c-.99-.14-1.99-.33-2.98-.57-.99-.24-1.9-.59-2.71-1.05-.81-.46-1.47-1.08-1.97-1.87-.5-.78-.76-1.82-.76-3.11,0-1.43,.41-2.67,1.22-3.72,.81-1.05,1.95-1.86,3.42-2.44,1.47-.57,3.21-.86,5.23-.86,1.51,0,3.04,.17,4.58,.5s2.81,.81,3.82,1.43l-2.02,3.99c-1.06-.64-2.13-1.08-3.21-1.32-1.08-.24-2.15-.36-3.21-.36-1.6,0-2.78,.24-3.55,.71-.77,.48-1.16,1.08-1.16,1.81,0,.67,.25,1.18,.76,1.51,.5,.34,1.16,.6,1.97,.8,.81,.2,1.71,.36,2.71,.48,.99,.13,1.98,.32,2.96,.57,.98,.25,1.88,.59,2.71,1.03,.83,.43,1.49,1.04,2,1.83,.5,.78,.76,1.81,.76,3.07,0,1.4-.41,2.62-1.24,3.65-.83,1.04-2,1.84-3.51,2.42-1.51,.57-3.32,.86-5.42,.86Z"/><path class="h" d="M1241.56,3239.16v-31.16h5.25v31.16h-5.25Z"/><path class="h" d="M1264.24,3239.45c-2.49,0-4.67-.5-6.53-1.49-1.86-.99-3.3-2.36-4.33-4.09-1.02-1.74-1.53-3.71-1.53-5.92s.5-4.22,1.49-5.94c.99-1.72,2.37-3.07,4.12-4.05,1.75-.98,3.74-1.47,5.99-1.47s4.13,.48,5.84,1.43c1.71,.95,3.05,2.3,4.03,4.03s1.47,3.78,1.47,6.13c0,.22,0,.48-.02,.76-.01,.28-.04,.55-.06,.8h-18.69v-3.49h15.92l-2.06,1.09c.03-1.29-.24-2.42-.8-3.4-.56-.98-1.32-1.75-2.29-2.31-.97-.56-2.08-.84-3.34-.84s-2.42,.28-3.38,.84c-.97,.56-1.72,1.34-2.27,2.33s-.82,2.16-.82,3.51v.84c0,1.34,.31,2.53,.92,3.57s1.48,1.83,2.6,2.39c1.12,.56,2.41,.84,3.86,.84,1.26,0,2.39-.2,3.4-.59,1.01-.39,1.9-1.01,2.69-1.85l2.81,3.23c-1.01,1.18-2.27,2.08-3.8,2.71s-3.27,.95-5.23,.95Z"/><path class="h" d="M1290.37,3239.45c-2.49,0-4.67-.5-6.53-1.49-1.86-.99-3.3-2.36-4.33-4.09-1.02-1.74-1.53-3.71-1.53-5.92s.5-4.22,1.49-5.94c.99-1.72,2.37-3.07,4.12-4.05,1.75-.98,3.74-1.47,5.99-1.47s4.13,.48,5.84,1.43c1.71,.95,3.05,2.3,4.03,4.03s1.47,3.78,1.47,6.13c0,.22,0,.48-.02,.76-.01,.28-.04,.55-.06,.8h-18.69v-3.49h15.92l-2.06,1.09c.03-1.29-.24-2.42-.8-3.4-.56-.98-1.32-1.75-2.29-2.31-.97-.56-2.08-.84-3.34-.84s-2.42,.28-3.38,.84c-.97,.56-1.72,1.34-2.27,2.33s-.82,2.16-.82,3.51v.84c0,1.34,.31,2.53,.92,3.57s1.48,1.83,2.6,2.39c1.12,.56,2.41,.84,3.86,.84,1.26,0,2.39-.2,3.4-.59,1.01-.39,1.9-1.01,2.69-1.85l2.81,3.23c-1.01,1.18-2.27,2.08-3.8,2.71s-3.27,.95-5.23,.95Z"/><path class="h" d="M1305.95,3247.31v-30.58h5v5.29l-.17,5.96,.42,5.96v13.36h-5.25Zm12.43-7.85c-1.82,0-3.48-.42-4.98-1.26-1.5-.84-2.69-2.11-3.57-3.8s-1.32-3.84-1.32-6.45,.43-4.79,1.28-6.47c.85-1.68,2.02-2.93,3.51-3.76,1.48-.83,3.18-1.24,5.08-1.24,2.21,0,4.17,.48,5.86,1.43,1.69,.95,3.04,2.28,4.03,3.99s1.49,3.72,1.49,6.05-.5,4.35-1.49,6.07c-.99,1.72-2.34,3.06-4.03,4.01-1.69,.95-3.65,1.43-5.86,1.43Zm-.59-4.49c1.26,0,2.39-.28,3.38-.84,.99-.56,1.79-1.37,2.37-2.44s.88-2.31,.88-3.74-.29-2.71-.88-3.76c-.59-1.05-1.38-1.85-2.37-2.42-.99-.56-2.12-.84-3.38-.84s-2.39,.28-3.4,.84-1.81,1.36-2.39,2.42c-.59,1.05-.88,2.3-.88,3.76s.29,2.67,.88,3.74,1.39,1.88,2.39,2.44c1.01,.56,2.14,.84,3.4,.84Z"/><path class="h" d="M1336.02,3239.45c-.95,0-1.76-.33-2.44-.99-.67-.66-1.01-1.49-1.01-2.5,0-1.06,.34-1.91,1.01-2.54,.67-.63,1.48-.94,2.44-.94s1.76,.31,2.44,.94c.67,.63,1.01,1.48,1.01,2.54,0,1.01-.34,1.84-1.01,2.5-.67,.66-1.48,.99-2.44,.99Z"/></g><g><path class="f" d="M1309.67,1180.1l6.3,2.42c6.78,2.6,14.08,5.64,17.62,11.97,3.67,6.56,2.06,15.13-2.34,21.22-4.4,6.09-11.12,10.09-17.98,13.16-5.52,2.47-11.31,4.48-16.3,7.89-4.99,3.42-9.21,8.6-9.69,14.63"/><path class="j" d="M1403.72,1413.88c-1.39-.38-6.74-5.8-11.17-10.32,.23-.35,.43-.72,.58-1.13,.61-1.6,.63-2.98,.21-4.22-3.33-.92-6.67-1.81-9.99-2.78-6.26-1.82-12.35-4.14-18.65-5.82-10.63-2.83-21.51-4.79-31.46-9.67-10.51-5.15-19.68-13.55-25.31-23.85-5.28-9.66-7.72-20.55-12.31-30.51-1.46-3.17,1.28-6.06,3.85-6.11-.5-4.85-.6-9.79-.6-14.63-.03-25.15,2.06-51.7,13.8-73.6-4.32-23.82-5-48.4-6.01-72.56-3.12-5.23-6.35-10.68-9.85-16.91-10.22-18.19-26.32-34.89-47.18-38.69-19.22-3.5-38.54,4.45-55.99,13.05-10.11,4.98-20.24,10.36-28.11,18.31-16.61,16.78-20.39,41.92-20.86,65.27-.63,31.27-3.66,72.54,22.93,89.31,11.35,7.16,28.11,24.56,31.16,39.04,2.71,12.88-9.58,24.06-18.36,34.02-8.78,9.96-24.64,12.72-36.07,19.64-7.31,4.42-19.7,9.56-28.06,11.48-7.61,1.75-6.42,4.94-14.15,6.07-.3,.04-.59,.11-.89,.16-.07,1.19-.65,2.34-1.88,3.07-5.67,3.34-11.91,5.92-18.12,8.52-6.94,2.9-13.65,10.69-18.62,16.12-1.16,1.27-3.99,3.5-4.49,5.13-1.07,3.5,.43,1.57,1.23,4.56,.82,3.07,.97,5.82,1.21,9.46,.21,3.17,1.59,6.61,4.52,7.82,1.72,.71,3.66,.53,5.52,.34,18.03-1.78,36.34-2.67,54.46-1.96,15.32,.61,29.99,2.98,45.69,1.96,32.77-2.14,65.04-9.23,97.95-9.82,15.14-.27,37.29,2.93,52.41,2.1,11.09-.61,41.9-7.04,52.93-8.39,19.29-2.36,27.61,.54,45.59-6.81,1.76-.72,8.38-11.01-15.9-17.64Z"/><path class="h" d="M1208.9,1266.21c4.52-1.01,7.91-1.48,12.5-1.7s8.82-.03,13.19,.5c1.88,.23,3.68-1.82,3.6-3.6-.1-2.15-1.59-3.36-3.6-3.6-9.21-1.11-18.56-.57-27.61,1.46-1.84,.41-3.1,2.64-2.52,4.43,.63,1.93,2.46,2.96,4.43,2.52h0Z"/><path class="h" d="M1245.36,1179.18l23.65,2.82c1.29,.15,2.4-1.21,2.4-2.4,0-1.43-1.11-2.25-2.4-2.4l-23.65-2.82c-1.29-.15-2.4,1.21-2.4,2.4,0,1.43,1.11,2.25,2.4,2.4h0Z"/><path class="h" d="M1184.87,1175.02c-6.34-.33-12.62,.98-18.36,3.64-1.18,.55-1.47,2.24-.86,3.29,.71,1.21,2.11,1.41,3.29,.86,5-2.32,10.46-3.27,15.94-2.98,1.3,.07,2.4-1.15,2.4-2.4,0-1.36-1.1-2.33-2.4-2.4h0Z"/><path class="h" d="M1211.96,1189.43c.21,3.88,.42,7.77,.34,11.66-.04,2-.17,3.99-.39,5.97,0,0-.08,.61-.03,.26,.05-.39-.06,.37-.07,.44-.07,.43-.14,.86-.22,1.29-.19,1.04-.42,2.07-.7,3.1-.99,3.7-2.57,7.28-2.54,11.17,.02,3.94,1.58,7.66,4.86,9.95,3.59,2.51,8.29,1.93,12.34,1.31,1.87-.29,3.07-2.73,2.52-4.43-.66-2.03-2.43-2.83-4.43-2.52-.2,.03-.4,.06-.6,.09-.06,0-.58,.08-.13,.02s-.07,0-.14,.01c-.21,.02-.41,.05-.62,.07-.72,.07-1.45,.11-2.17,.1-.36,0-.71-.05-1.07-.06-.54-.02,.58,.14,.07,0-.14-.04-.29-.06-.44-.09-.34-.08-.66-.2-.99-.29-.39-.12,.14,.05,.19,.08-.21-.13-.43-.23-.64-.36-.13-.08-.25-.16-.37-.25,.57,.43,.16,.11,.06,0-.09-.1-.19-.22-.29-.31-.37-.32,.28,.49,.04,.06-.14-.25-.31-.48-.44-.73-.06-.11-.29-.66-.12-.22s-.04-.16-.07-.24c-.1-.32-.19-.65-.26-.98-.04-.19-.07-.38-.1-.58,0,.05,.04,.64,.05,.23,0-.74-.03-1.45,.02-2.19-.04,.58,.08-.47,.12-.64,.07-.35,.15-.7,.24-1.05,.22-.88,.48-1.74,.75-2.6,.51-1.63,1.04-3.25,1.43-4.92,.84-3.64,1.23-7.41,1.33-11.15,.11-4.08-.11-8.15-.33-12.22-.1-1.88-1.58-3.69-3.6-3.6-1.86,.08-3.71,1.59-3.6,3.6h0Z"/><g class="p"><path class="l" d="M1274.07,1201.64c.09,1.26,.2,2.55,.04,3.81,.08-.64-.07,.2-.12,.38-.03,.09-.35,.92-.16,.51s-.19,.3-.23,.37c-.14,.23-.63,.66-.13,.21-.18,.16-.33,.36-.51,.53-.25,.23-.46,.39-.06,.1-.44,.32-.91,.61-1.39,.86-.31,.16-.56,.24-.09,.06-.28,.1-.56,.2-.84,.29-.65,.2-1.31,.32-1.97,.44-.26,.04-.24,.04,.05,0l-.37,.04c-.37,.03-.74,.06-1.11,.08-.62,.03-1.23,.05-1.85,.05-1.26,.02-2.52,.03-3.77-.02-.56-.02-1.11-.05-1.66-.1-.23-.02-1-.15-.36-.04-.32-.06-.65-.11-.97-.19-.53-.12-1.05-.28-1.56-.45-.92-.32,.53,.33-.33-.15-.29-.16-.57-.32-.85-.49-1.6-1-4.04-.39-4.93,1.29-.94,1.77-.42,3.86,1.29,4.93,2.8,1.75,6.1,2.29,9.36,2.4s6.53,.11,9.69-.54c3.2-.66,6.1-2.34,8.07-4.95,2.06-2.73,2.2-6.16,1.96-9.43-.13-1.88-1.56-3.69-3.6-3.6-1.84,.08-3.75,1.59-3.6,3.6h0Z"/></g><path class="h" d="M1266.61,1183.12c-2.34-.22-4.7-.25-7.04-.11-2.69,.16-5.49,.47-8.03,1.4s-4.66,2.43-5.72,5.07c-1.25,3.11-1.28,6.77-.23,9.94,2.47,7.44,10.1,10.88,17.48,11.33,3.86,.24,7.72-.72,10.74-3.19,2.48-2.03,4.24-5.13,4.76-8.29,1.34-8.05-4.8-15.34-12.83-15.99-1.29-.1-2.4,1.18-2.4,2.4,0,1.39,1.1,2.3,2.4,2.4,4.58,.37,8.46,4.69,8.24,9.3-.1,2.13-1.13,4.43-2.75,6.03-1.8,1.79-4.45,2.58-7.13,2.57-2.88-.01-5.95-.69-8.52-1.99-2.35-1.19-4.26-3-5.17-5.3-.94-2.36-1.04-4.75-.27-7.12,.15-.47,.29-.66,.47-1.08,.14-.32-.27,.24,.08-.12,.17-.17,.33-.33,.51-.49,.19-.18-.11,.08-.13,.09,.1-.07,.2-.15,.31-.21,.16-.1,.33-.2,.5-.3,.21-.11,.42-.21,.63-.32,.24-.12-.06,.02-.1,.04,.17-.07,.33-.13,.5-.19,1.13-.41,2.3-.67,3.48-.87,.75-.12,.63-.11,1.44-.19,.66-.07,1.32-.12,1.98-.15,2.26-.12,4.54-.08,6.8,.13,1.29,.12,2.4-1.19,2.4-2.4,0-1.4-1.1-2.28-2.4-2.4h0Z"/><path class="l" d="M1256.86,1201.99c1.88,0,3.69-1.66,3.6-3.6-.09-1.95-1.58-3.6-3.6-3.6-1.88,0-3.69,1.66-3.6,3.6,.09,1.95,1.58,3.6,3.6,3.6h0Z"/><g class="p"><path class="l" d="M1155.86,1200.64c-.37,3.4,1.78,6.48,3.72,9.05,1.1,1.45,2.25,2.73,3.79,3.74,1.56,1.02,3.37,1.44,5.19,1.68,6.15,.83,12.93,1.31,18.48-1.97,1.62-.96,2.35-3.29,1.29-4.93-1.05-1.63-3.19-2.32-4.93-1.29-.28,.17-.57,.33-.86,.48-.15,.07-1.02,.42-.33,.16-.51,.19-1.02,.36-1.54,.49-.31,.08-.63,.15-.95,.21-.08,.02-1.14,.18-.33,.08-.54,.07-1.09,.11-1.64,.14-2.51,.12-5.02-.11-7.51-.37-.29-.03-.58-.06-.86-.09,.74,.09-.36-.07-.41-.08-.28-.06-.56-.12-.84-.2-.17-.04-.33-.1-.49-.15,.28,.13,.3,.14,.07,.03-.24-.13-.47-.26-.7-.4-.77-.47,.38,.42-.27-.22-.42-.42-.81-.84-1.2-1.29-.26-.3,.25,.37-.12-.17-.19-.26-.38-.53-.56-.79-.36-.52-.72-1.04-1.05-1.58-.15-.25-.29-.51-.44-.76-.48-.83,.09,.5-.19-.4-.04-.12-.21-1.09-.15-.35-.03-.34,0-.67,.03-1.01,.2-1.88-1.8-3.68-3.6-3.6-2.13,.1-3.38,1.59-3.6,3.6h0Z"/></g><path class="h" d="M1168.06,1185.4c-5.39,1.55-8.55,7.34-7.83,12.76,.78,5.85,5.68,10.29,11.11,12.01,3.04,.96,6.59,1.18,9.61,.04,2.64-1,4.77-2.75,6.41-5.03,3.12-4.34,3.56-10.45,.64-15-3.34-5.21-9.88-8-15.89-6.51-5.38,1.33-9.19,4.44-9,5.69,1.62,10.49-.47,1.42,10.27-1.06,3.39-.78,7.22,.52,9.71,3.31s2.67,6.45,1.07,9.56c-.83,1.62-1.91,2.89-3.33,3.78-.88,.55-1.29,.74-2.31,.99-1.17,.29-2.42,.3-3.61,.15-3.97-.52-8.06-3.09-9.48-6.73-1.42-3.64,.48-8.64,4.13-9.69,2.97-.85,1.46-5.12-1.52-4.26h0Z"/><path class="l" d="M1172.48,1202.47c1.88,0,3.69-1.66,3.6-3.6s-1.58-3.6-3.6-3.6c-1.88,0-3.69,1.66-3.6,3.6,.09,1.95,1.58,3.6,3.6,3.6h0Z"/><path class="h" d="M1313.34,1186.64c.17,.03,.34,.09,.5,.12,.72,.14-.34-.07-.41-.19,.03,.06,.45,.25,.47,.26,.51,.28-.15,.2-.3-.26,.07,.22,.66,.63,.84,.81,.1,.11,.4,.52,.01-.02-.45-.63,.08,.13,.17,.27,.23,.36,.45,.73,.64,1.11,.04,.07,.28,.47,.28,.59,0-.06-.39-1.08-.1-.19s.58,1.78,.79,2.69c.11,.47,.2,.94,.28,1.41,.07,.37,.05,1.1,.22,1.43-.06-.11-.13-1.12-.03-.2,.03,.24,.05,.48,.08,.72,.05,.5,.1,1,.14,1.5,.08,1.01,.13,2.01,.12,3.02,0,.5-.02,1-.05,1.5-.02,.25-.04,.5-.06,.75-.07,.94,.13-.58,0,.01-.18,.82-.34,1.64-.59,2.45-.12,.38-.24,.76-.38,1.13-.07,.18-.14,.37-.21,.55-.31,.8,.35-.75,.09-.21-.65,1.36-1.35,2.67-2.17,3.94-1.59,2.47-3.44,4.75-5.1,7.17-2.15,3.13-3.89,6.61-4.75,10.32-.57,2.44,.76,5.32,3.36,5.91,2.46,.56,5.3-.74,5.91-3.36,.2-.84,.43-1.66,.71-2.47,.06-.16,.57-1.42,.23-.65-.3,.69-.03,.09,.04-.08,.12-.26,.24-.51,.37-.77,.7-1.41,1.54-2.75,2.43-4.05,1.79-2.61,3.81-5.06,5.47-7.75,2.2-3.55,3.64-7.42,4.13-11.57,.26-2.19,.19-4.39-.02-6.58-.22-2.35-.5-4.72-1.05-7.01-1.17-4.83-4.2-10.46-9.52-11.55-2.45-.51-5.31,.71-5.91,3.36-.55,2.4,.72,5.37,3.36,5.91h0Z"/><g><path class="j" d="M1019.44,1478.73c-1.01,.16-2.02,.31-3.03,.45-.35,.05-2,.33-.52,.08-.54,.09-1.09,.14-1.63,.21-2.1,.27-4.2,.5-6.31,.72-4.21,.43-8.43,.75-12.66,1-8.46,.49-16.94,.66-25.42,.65-17.16-.02-34.31-.66-51.46-1.14l-25.87-.71c-3.96-.11-7.95-.08-11.9-.48-.23-.02-1.56-.17-.63-.07,.98,.1-.57-.11-.81-.16-.92-.18-1.83-.4-2.72-.69-.34-.11-.78-.37-1.13-.4,.87,.08,.84,.39,.32,.12-.18-.09-.36-.18-.54-.27-.36-.18-.7-.38-1.04-.59-.21-.13-.43-.27-.63-.41-.15-.1-.86-.64-.16-.09,.76,.59-.41-.37-.55-.5-.28-.25-.55-.51-.81-.78-.62-.63-1.14-1.35-1.74-1.99,0,0,.71,.98,.35,.44-.11-.16-.23-.31-.34-.47-.26-.37-.51-.74-.76-1.11-.49-.75-.96-1.52-1.42-2.3-1.99-3.42-3.81-6.94-5.7-10.41-4.09-7.49-8.22-14.95-12.41-22.39-8.4-14.94-16.99-29.77-25.77-44.49-8.7-14.6-17.59-29.08-26.66-43.45-2.25-3.56-4.34-7.34-6.99-10.63-1.48-1.84-3.58-3.22-5.94-3.54-3.33-.45-6.53,1.03-8.32,3.93-1.46,2.36-2.19,5.76-1.41,8.42,.23,.78,.61,1.55,1.01,2.26,.09,.16,.18,.35,.29,.49,.35,.46-.16-.46-.18-.5,.5,1.32,1.1,2.61,1.71,3.88,1.75,3.61,3.91,7,6.2,10.28,4.65,6.65,9.63,13.06,14.28,19.71,4.62,6.61,9.09,13.33,13.4,20.15,8.67,13.71,16.57,27.84,24.06,42.23,1.84,3.54,3.73,7.07,5.88,10.43,2.14,3.35,4.63,6.46,6.94,9.7,2.29,3.21,4.12,6.6,5.94,10.09s3.99,7.13,7.02,9.8c3.4,2.99,7.47,4.99,12.08,5.04,3.11,.03,6.08-2.75,5.94-5.94-.15-3.24-2.61-5.9-5.94-5.94-.36,0-.75-.07-1.11-.05,1.28-.06,.98,.17,.49,.03-.18-.05-.36-.09-.53-.14-.23-.07-1.36-.51-.5-.12s-.59-.32-.79-.43c-.32-.19-.64-.39-.95-.6-.15-.1-.3-.25-.46-.33,.01,0,.91,.78,.46,.34-.64-.62-1.31-1.19-1.91-1.86-.15-.17-.94-1.15-.38-.42,.59,.77-.37-.54-.5-.74-.55-.83-1.07-1.68-1.55-2.55-.91-1.62-1.73-3.28-2.59-4.92-3.62-6.92-8.94-12.69-12.91-19.38-4.02-6.77-7.39-13.92-11.16-20.83-3.79-6.96-7.74-13.83-11.84-20.6-8.2-13.55-17.01-26.72-26.39-39.47-4.7-6.38-9.69-12.65-13.11-19.84-.1-.22-.62-1.01-.56-1.23-.1,.36,.39,.92,.08,.17-.22-.53-.42-1.07-.68-1.59-.16-.33-.33-.7-.55-.99-.36-.48,.21,.52,.22,.57v1.95c.04-.21,.09-.42,.15-.62,.06-.23,.47-1.42,.11-.51-.32,.81-.11,.23,.02,.08-.46,.59-1.13,1.27-1.83,1.55-.47,.19-.93,.23-1.44,.26,.88-.05-.74-.1-.77-.11,.09,.02-1.31-.61-.79-.31s-.86-.89-.5-.4c.16,.22,.44,.47,.64,.66,.52,.49-.75-1.08-.36-.48,.08,.12,.17,.24,.25,.36,.51,.74,.98,1.52,1.46,2.28,1.11,1.74,2.21,3.48,3.32,5.22,8.92,14.09,17.65,28.31,26.2,42.62,8.59,14.37,17.01,28.85,25.24,43.43,4.12,7.29,8.19,14.61,12.22,21.95,1.99,3.63,3.97,7.27,5.94,10.91,1.81,3.34,3.75,6.54,6.18,9.46,2.71,3.25,6.17,5.55,10.11,7.05,3.7,1.41,7.81,1.74,11.73,1.91,8.31,.35,16.64,.47,24.96,.7,16.81,.46,33.62,1.04,50.43,1.3,16.63,.26,33.3,.05,49.85-1.71,4.43-.47,8.84-1.05,13.24-1.73,1.37-.21,2.88-1.58,3.55-2.73,.74-1.27,1.06-3.15,.6-4.58-.46-1.44-1.36-2.82-2.73-3.55-1.5-.79-2.91-.86-4.58-.6h0Z"/><path class="j" d="M868.93,1482.23c19.49,2.04,39.11,2.89,58.71,2.53,9.86-.18,19.69-.72,29.52-1.45,4.87-.36,9.74-.68,14.62-.62,4.87,.06,9.72,.42,14.57,.79,5.48,.41,10.97,.83,16.45,1.24l8.38,.63c2.64,.2,5.32,.3,7.95,.62l-1.58-.21c.67,.09,1.32,.24,1.95,.5l-1.42-.6c.29,.13,.55,.29,.81,.48l-1.2-.93c.14,.12,.27,.24,.39,.38l-.93-1.2c.15,.2,.27,.4,.37,.63l-.6-1.42,.06,.18c.51,1.47,1.35,2.74,2.73,3.55,1.27,.74,3.15,1.06,4.58,.6s2.82-1.36,3.55-2.73,1.12-3.07,.6-4.58c-.73-2.11-1.94-3.76-3.86-4.96-1.05-.66-2.34-1.11-3.57-1.31-2.79-.47-5.65-.56-8.46-.77l-15.54-1.17c-10.31-.78-20.67-1.91-31.02-1.51-5.18,.2-10.35,.68-15.53,1.03-5.17,.34-10.34,.6-15.52,.78-10.35,.35-20.72,.36-31.07,.04-10.35-.32-20.7-.98-31.01-1.98-1.31-.13-2.63-.26-3.94-.4-1.42-.15-3.23,.77-4.2,1.74-1.03,1.03-1.81,2.72-1.74,4.2,.07,1.54,.57,3.13,1.74,4.2l1.2,.93c.93,.54,1.92,.81,3,.81h0Z"/></g><g><path class="f" d="M871.53,1466.39h.86l-71.47-122.67c-.86-1.48-2.25-2.54-3.91-2.98-.55-.14-1.1-.22-1.65-.22-1.12,0-2.23,.3-3.22,.88-1.48,.86-2.54,2.25-2.98,3.91-.44,1.66-.2,3.39,.66,4.87l71.24,122.29c2.09-3.63,5.99-6.08,10.47-6.08Z"/><path class="h" d="M861.05,1472.47l-71.24-122.29c-.86-1.48-1.1-3.21-.66-4.87,.44-1.66,1.5-3.05,2.98-3.91,1-.58,2.1-.88,3.22-.88,.55,0,1.1,.07,1.65,.22,1.66,.44,3.05,1.5,3.91,2.98l71.47,122.67h6.54l-73.12-125.52c-1.62-2.79-4.24-4.78-7.36-5.6-3.12-.83-6.37-.38-9.16,1.24-2.79,1.62-4.78,4.24-5.6,7.36-.82,3.12-.38,6.37,1.24,9.16l74.98,128.71c-.29-1.04-.46-2.14-.46-3.27,0-2.18,.59-4.23,1.61-6Z"/><path class="h" d="M1023.28,1466.39h-144.35l3.27,5.61s.02,.03,.03,.05h141.06c3.54,0,6.43,2.88,6.43,6.43s-2.88,6.43-6.43,6.43h-141.57c-.98,1.44-2.27,2.69-3.87,3.62h0c-1.91,1.11-4,1.64-6.06,1.64-4.16,0-8.22-2.15-10.46-6l-1.41-2.41c1.43,5.07,6.09,8.81,11.62,8.81h151.75c6.66,0,12.08-5.42,12.08-12.08s-5.42-12.08-12.08-12.08Z"/><path class="h" d="M871.78,1490.15c2.06,0,4.15-.53,6.06-1.64h0c1.6-.93,2.89-2.18,3.87-3.62h-10.18c-3.16,0-5.78-2.29-6.32-5.29l-4.15-7.13c-1.02,1.77-1.61,3.81-1.61,6,0,1.14,.17,2.23,.46,3.27l1.41,2.41c2.24,3.85,6.3,6,10.46,6Z"/><path class="h" d="M875.68,1472.04h6.54s-.02-.03-.03-.05l-3.27-5.61h-6.54l3.29,5.65Z"/><path class="h" d="M860.2,1481.35c1.26,2.02,2.89,3.71,4.86,5.05,2.01,1.37,4.38,2.18,6.75,2.68,5.04,1.06,10.35,1.08,15.48,.99,1.33-.02,2.61-1.15,2.54-2.54-.06-1.36-1.12-2.57-2.54-2.54-2.38,.04-4.76,.01-7.13-.09-1.16-.05-2.32-.11-3.47-.22-.26-.02-.53-.05-.79-.08-.18-.02-.35-.04-.53-.06-.29-.04-.35-.04-.19-.02,.16,.02,.1,.01-.19-.03-.17-.03-.35-.05-.52-.08-.26-.04-.52-.09-.78-.14-1.12-.21-2.23-.49-3.3-.86-.24-.08-.49-.17-.72-.27,.39,.16-.22-.1-.3-.14-.47-.22-.92-.48-1.35-.75-.19-.12-.37-.24-.55-.37-.05-.04-.6-.49-.19-.14-.39-.34-.78-.67-1.15-1.04-.31-.32-.6-.65-.89-.99,.34,.4-.07-.1-.14-.19-.17-.24-.33-.49-.49-.74-.7-1.13-2.3-1.67-3.48-.91-1.13,.73-1.67,2.27-.91,3.48h0Z"/><path class="h" d="M783.33,1343.48c-1.37,5.8,1.05,11.3,4.1,16.11,1.44,2.28,2.96,4.52,4.44,6.78,1.47,2.23,2.35,4.84,4.05,6.91,1.42,1.74,2.62,4.11,3.84,6.34l4.18,7.61c2.81,5.13,5.63,10.25,8.44,15.38,1.45,2.64,2.9,5.28,4.35,7.92,1.37,2.5,2.65,5.09,4.29,7.43,1.51,2.15,3.11,4.21,4.54,6.41,1.58,2.42,3.11,4.88,4.58,7.37,5.7,9.67,10.45,19.88,16.28,29.48,2.79,4.59,6.2,8.95,8.32,13.91,.43,1.01,.67,2.09,1.07,3.11,.57,1.45,1.43,2.59,2.39,3.81,1.65,2.1,3.33,4.01,5.54,5.55,4.46,3.11,10.16,3.24,15.4,3.29,5.96,.06,11.92,.11,17.87,.17s11.76,.31,17.6-.06c3-.19,5.98-.49,8.99-.41,2.96,.08,5.94,.18,8.9,.38,2.51,.17,5.01,.45,7.52,.51,2.32,.06,4.63-.02,6.95-.05,5.4-.06,10.78,.47,16.18,.42,11.86-.13,23.72-.38,35.59-.37,5.72,0,11.45,.09,17.17,.11,2.95,0,5.93,.05,8.86-.38,1.31-.2,2.73-.51,3.89-1.2,.66-.39,1.12-.91,1.65-1.42,.28-.27,.52-.37,1.07-.74,2.76-1.83,3.55-4.39,3.96-7.51,.36-2.73,.16-5.32-1.23-7.76-2.82-4.93-8.44-6.86-13.82-7.13-5.67-.28-11.42,.44-17.1,.59-5.79,.16-11.6,.02-17.38-.26-2.65-.13-5.27-.66-7.92-.59-2.82,.07-5.63,.23-8.46,.28-5.95,.1-11.9,.19-17.85,.25-11.9,.12-23.81,.16-35.71,.11-4.91-.02-9.81-.05-14.72-.11-1.62-.02-3.23,.24-4.85,.32-2.82,.15-5.65,.02-8.47-.01-1.41-.02-2.82-.02-4.24,.05-1.19,.06-2.84,.41-3.85,.24,.27,.04-.51-.24-.27-.09,.15,.09,.33,.3-.15-.17-.37-.36-.46-.49-.69-.82-.82-1.17-1.51-2.43-2.22-3.67-2.83-4.94-5.66-9.87-8.49-14.81-1.44-2.52-2.85-5.06-4.3-7.57-.65-1.13-1.29-2.3-2.01-3.39-.81-1.21-1.76-2.18-2.49-3.38-1.44-2.37-2.57-4.94-3.87-7.4-1.32-2.51-2.68-4.98-4.08-7.44-5.79-10.2-11.87-20.25-17.83-30.36-1.53-2.59-3.06-5.19-4.58-7.78-.7-1.19-1.38-2.4-2.11-3.57s-1.6-2.22-2.32-3.39c-2.97-4.82-5.58-9.9-7.99-15.01-1.2-2.55-2.25-5.17-3.9-7.47s-3.33-4.31-4.92-6.53c-1.53-2.13-2.85-4.73-4.78-6.52-1.08-1-2.38-1.76-3.83-2.05-.68-.14-1.41-.22-2.11-.21-.34,0-.68,.03-1.02,.06-.2,.02-1.93,.25-1.37,.18s-.84,.11-.65,.09c-.38,.05-.76,.1-1.15,.16-.48,.07-.96,.16-1.43,.27-1.15,.27-2.33,.7-3.31,1.38-2.25,1.57-3.77,4.07-4.52,6.68-.51,1.76,.62,3.69,2.37,4.17,1.79,.49,3.67-.6,4.17-2.37,.2-.7,.64-1.64,1.03-2.13,.16-.19,.34-.36,.51-.54,.06-.07,.52-.4,.12-.13,.18-.12,.38-.23,.57-.31-.52,.23,.5-.12,.51-.12,.47-.13,.95-.22,1.43-.3,.24-.04,.47-.07,.71-.11-.75,.11,.64-.09,.55-.07l.45-.06c-.26,.03-.26,.04,.01,0,.27-.02,.54-.05,.82-.06,.53-.02,.78-.04,1.22,.16-.25-.11,.49,.44,.12,.11,.18,.16,.35,.35,.51,.53,.02,.02,.38,.49,.15,.19,.15,.2,.28,.41,.42,.61,.78,1.15,1.56,2.3,2.36,3.44,1.58,2.22,3.38,4.45,4.95,6.57s2.63,4.54,3.75,6.95c1.17,2.52,2.4,5,3.69,7.46,1.29,2.45,2.63,4.88,4.03,7.27,1.29,2.2,2.82,4.23,4.12,6.42,5.87,9.94,11.72,19.88,17.59,29.83,2.84,4.81,5.67,9.62,8.34,14.52,1.31,2.4,2.55,4.84,3.79,7.27,.58,1.15,1.16,2.32,1.86,3.4s1.63,2.06,2.27,3.02c3.06,4.6,5.56,9.65,8.31,14.44,2.73,4.76,5.3,9.66,8.25,14.29,1.57,2.46,3.49,4.64,6.53,5.05,1.29,.17,2.53,0,3.82-.08,1.41-.1,2.82-.12,4.23-.11,2.83,.01,5.65,.15,8.48,.06,1.76-.06,3.5-.34,5.25-.36,1.6-.02,3.2,.08,4.8,.11,2.83,.05,5.66-.03,8.49-.01,5.71,.03,11.41,.04,17.12,.03,11.58-.02,23.15-.13,34.73-.31,2.82-.05,5.64-.05,8.45-.16,2.58-.1,5.08-.22,7.55,.08,5.56,.68,11.28,.66,16.88,.65,5.6,0,11.18-.34,16.77-.59,2.47-.11,5.13-.26,7.46,.26,.57,.13,1.13,.3,1.69,.48,.62,.19,.33,.12,.18,.05,.22,.09,.43,.2,.64,.32s.42,.23,.62,.36c-.1-.06,.86,.58,.54,.34,.18,.13,.8,.7,1.1,1.04,.35,.39,.86,1.22,.95,1.63,.05,.23,.12,.44,.17,.67-.11-.54,0,.15,0,.23,0,.74-.05,1.48-.15,2.22,0,.04-.12,.77-.2,1.08,.03-.13-.32,1.01-.18,.69,.11-.26-.3,.44-.13,.23,.07-.09,.51-.36-.15,.1-.2,.14-.42,.26-.62,.39-.65,.41-1.27,.87-1.82,1.41-.19,.18-.71,.59-.2,.34-.49,.25-1.16,.35-1.69,.44-1.12,.19-2.49,.19-3.72,.22-2.73,.05-5.47,.02-8.2,0-11.47-.11-22.94-.1-34.41,.05-5.62,.07-11.26,.34-16.89,.23-5.12-.1-10.21-.48-15.33-.36-4.87,.11-9.64-.38-14.49-.62-2.8-.14-5.63-.29-8.44-.28-2.84,0-5.66,.34-8.49,.48-5.7,.28-11.43,.05-17.13,0-5.79-.05-11.59-.11-17.38-.16-4.39-.04-9.12,.04-12.4-2.69-1.7-1.42-3.32-3.34-4.36-5.1-.39-.66-.63-1.84-1-2.78-.57-1.43-1.21-2.84-1.93-4.2-2.44-4.61-5.58-8.83-8.23-13.31-2.77-4.7-5.32-9.52-7.87-14.34-2.56-4.84-5.14-9.67-7.95-14.37-1.4-2.35-2.86-4.66-4.36-6.95-1.39-2.11-2.97-4.08-4.4-6.17-1.58-2.3-2.82-4.85-4.16-7.29-1.37-2.5-2.74-5-4.11-7.5-2.78-5.06-5.55-10.12-8.33-15.18l-3.97-7.24c-1.21-2.21-2.31-4.59-3.8-6.64-.87-1.2-1.38-1.61-2.03-2.89-.58-1.13-1.09-2.29-1.75-3.37-1.38-2.27-2.92-4.45-4.37-6.67-2.36-3.62-5.22-7.87-4.22-12.13,.42-1.78-.56-3.68-2.37-4.17-1.72-.47-3.75,.58-4.17,2.37Z"/></g><g><g><path class="j" d="M821.48,1118.07c-4.28,.88-8.71,1.26-13.34,1.26-11.38,0-22.52-2.05-31.71-7.53-9.48-5.66-15.9-15.25-21.39-25.03-5.32-9.48-8.56-19.87-8.56-31.62,0-9.03,1.62-17.34,4.88-25.14,2.39-5.74,5.49-10.95,9.26-15.63,.71-.88,.91-2.06,.55-3.12v-.02c-.51-1.48-2.16-2.17-3.51-2.64-.19-.06-.35-.15-.5-.24-7.87,.83-15.3,3.28-22.33,6.29-8.99,3.85-17.96,8.28-24.73,15.27-6.78,6.99-11.74,15.95-15.47,25.22-3.6,8.95-6.82,18.83-6.82,29.11s3.97,19.85,7.56,28.8c3.73,9.27,7.64,18.87,14.41,25.86,6.78,6.99,16.08,11.03,25.07,14.87,8.67,3.71,17.95,7.03,27.92,7.03s19.07-2.25,27.54-5.75c8.78-3.63,17.07-8.8,23.79-15.43,4.11-4.06,7.51-8.77,10.42-13.84,1.69-2.94,.26-6.74-3-7.7l-.07-.02Z"/><path class="j" d="M757.92,1011.16c-.47-.42-1.11-.63-1.73-.61l.97,5.72c.3-.58,.61-1.15,.91-1.73,.28-.52,.56-1.07,.58-1.67,.03-.64-.27-1.28-.74-1.7Z"/><path class="j" d="M758.59,1010.78c.17,.28,.27,.6,.36,.92,.11,.39,.22,.78,.31,1.17,.13-.58,.2-1.17,.22-1.77l-1.25-.75c.14,.12,.26,.26,.36,.42Z"/><path class="j" d="M823.3,1120.34c-.47-.26-1.03-.29-1.56-.18l1.22,4.99,.94-2.49c.12-.33,.25-.66,.24-1.01-.01-.55-.37-1.05-.84-1.31Z"/><path class="j" d="M824.27,1119.98c-.19-.23-.38-.47-.61-.67l1.37,2.35"/></g><g><path class="j" d="M821.48,1118.07c-4.28,.88-8.71,1.26-13.34,1.26-11.38,0-22.52-2.05-31.71-7.53-9.48-5.66-15.9-15.25-21.39-25.03-5.32-9.48-8.56-19.87-8.56-31.62,0-9.03,1.62-17.34,4.88-25.14,2.39-5.74,5.49-10.95,9.26-15.63,.71-.88,.91-2.06,.55-3.12v-.02c-.51-1.48-2.16-2.17-3.51-2.64-.19-.06-.35-.15-.5-.24-7.87,.83-15.3,3.28-22.33,6.29-8.99,3.85-17.96,8.28-24.73,15.27-6.78,6.99-11.74,15.95-15.47,25.22-3.6,8.95-6.82,18.83-6.82,29.11s3.97,19.85,7.56,28.8c3.73,9.27,7.64,18.87,14.41,25.86,6.78,6.99,16.08,11.03,25.07,14.87,8.67,3.71,17.95,7.03,27.92,7.03s19.07-2.25,27.54-5.75c8.78-3.63,17.07-8.8,23.79-15.43,4.11-4.06,7.51-8.77,10.42-13.84,1.69-2.94,.26-6.74-3-7.7l-.07-.02Z"/><path class="j" d="M757.92,1011.16c-.47-.42-1.11-.63-1.73-.61l.97,5.72c.3-.58,.61-1.15,.91-1.73,.28-.52,.56-1.07,.58-1.67,.03-.64-.27-1.28-.74-1.7Z"/><path class="j" d="M758.59,1010.78c.17,.28,.27,.6,.36,.92,.11,.39,.22,.78,.31,1.17,.13-.58,.2-1.17,.22-1.77l-1.25-.75c.14,.12,.26,.26,.36,.42Z"/><path class="j" d="M823.3,1120.34c-.47-.26-1.03-.29-1.56-.18l1.22,4.99,.94-2.49c.12-.33,.25-.66,.24-1.01-.01-.55-.37-1.05-.84-1.31Z"/><path class="j" d="M824.27,1119.98c-.19-.23-.38-.47-.61-.67l1.37,2.35"/></g><g class="o"><path class="l" d="M760.42,1157.4c-3.62-1.64-7.08-3.6-10.44-5.72-3.41-2.15-6.76-4.4-9.99-6.82-4.58-3.67-8.87-7.69-12.95-11.9-4-4.13-7.9-8.4-11.48-12.9-3.33-4.45-6.27-9.17-8.52-14.26-2.15-5.31-3.97-10.8-4.92-16.44-.3-3.1-.28-6.2-.18-9.32,.11-3.15,.34-6.3,.71-9.43,.81-5.32,2.08-10.56,4.06-15.56,3.12-6.87,7.35-13.24,11.89-19.26,3.9-4.95,8.24-9.56,13.14-13.52,4.61-3.39,9.65-6.24,14.88-8.56,3.77-1.49,7.64-2.67,11.61-3.49l-.78-2.16c-.88-.37-.99-.39-1.87-.76-1.96-.53-5,1.35-6.96,1.87l-6.15,.27c-4.41,.91-7.61,2.29-11.77,4.01-5.01,2.08-4.69,1.4-9.3,4.28-8.18,5.11-5.11,4.04-13.67,9.93-8.12,5.58-12.01,12.72-16.05,21.76-2.26,5.05-4.26,9.51-5.41,14.92-1.17,5.52-1.32,10.3-1.66,15.93-.29,4.73,.93,8.49,1.55,13.2,.73,5.59,3.58,10.5,5.47,15.81,1.8,5.06,2.7,6.82,5.29,11.53,2.51,4.55,6.36,10.92,10.17,14.45,7.13,6.6,12.05,8.32,20.03,12.19,11.06,5.35,17.29,7.48,26.87,9.99"/></g><g><g><path class="h" d="M757.23,1157.56c-10.55,0-20.13-3.37-28.92-7.01-8.75-3.63-18.66-7.74-25.91-14.98-7.22-7.22-11.34-17.15-14.97-25.91l-.3-.72c-3.5-8.42-7.46-17.97-7.46-28.19,0-10.9,3.75-21.34,7.02-29.22,4.36-10.51,9.75-19.02,16.03-25.29,7.15-7.15,16.51-11.61,25.57-15.36,10.83-4.49,20.03-6.58,28.94-6.58,.16,0,.32,.01,.49,.03,1.56,.19,2.86,1.24,3.38,2.73,.54,1.53,.17,3.2-.95,4.37-5.01,5.16-9.01,11.17-11.88,17.86-3.13,7.28-4.65,14.91-4.65,23.3,0,10.18,2.68,19.76,8.19,29.28,4.93,8.53,11.22,17.96,20.39,23.27,7.95,4.6,18.16,6.93,30.34,6.93,6.43,0,12.09-.74,17.31-2.27,1.61-.47,3.34,.05,4.42,1.33,1.07,1.27,1.29,3.06,.55,4.55-4.26,8.66-8.98,15.41-14.46,20.64-6.62,6.33-15.13,11.69-24.62,15.5-9.53,3.83-19.12,5.76-28.5,5.76Zm-2.78-147.87c-7.36,.39-15.11,2.36-24.12,6.1-8.55,3.54-17.35,7.72-23.84,14.21-5.78,5.78-10.78,13.71-14.87,23.56-3.27,7.88-6.61,17.27-6.61,27.18,0,9.16,3.59,17.79,7.05,26.15l.3,.72c3.61,8.71,7.34,17.71,13.82,24.18,6.49,6.49,15.89,10.39,24.18,13.83,8.28,3.43,17.26,6.61,26.87,6.61,8.7,0,17.62-1.81,26.51-5.38,8.86-3.56,16.79-8.54,22.92-14.4,4.54-4.34,8.54-9.88,12.21-16.88-5.01,1.23-10.38,1.83-16.34,1.83-13.13,0-24.24-2.57-33.01-7.65-10.26-5.94-17.05-16.08-22.34-25.22-5.99-10.36-8.91-20.81-8.91-31.96,0-9.13,1.66-17.44,5.09-25.41,2.77-6.44,6.49-12.3,11.09-17.46Z"/><path class="h" d="M803.03,1117.34c-10.47,0-22.98-3.42-32.69-9.04-11.77-6.81-19.9-14.28-24.84-22.82-5.79-10.02-8.99-21.71-8.99-32.93,0-9.39,3.66-17.89,6.88-25.39l4.9,2.11c-3.02,7.03-6.45,15-6.45,23.28,0,10.3,2.94,21.04,8.27,30.26,4.46,7.71,11.95,14.54,22.9,20.87,8,4.63,21.18,8.97,32.55,8.24l.34,5.33c-.94,.06-1.9,.09-2.88,.09Z"/></g><path class="h" d="M750.63,1009.97c.87,0,1.82,.54,1.85,1.5,.01,.52-.26,.99-.5,1.43-.3,.56-.61,1.12-.91,1.68-.38,.7,.68,1.32,1.06,.62s.75-1.34,1.09-2.02,.57-1.37,.44-2.13c-.25-1.44-1.64-2.33-3.03-2.32-.79,0-.79,1.24,0,1.23h0Z"/><path class="h" d="M752.15,1009.55c.06,.02,.05,.02-.04-.02,.02,.01,.05,.02,.07,.04,.02,0,.13,.07,.13,.09-.07-.06-.08-.06-.03-.02,.02,.02,.04,.04,.06,.06,.01,.01,.11,.1,.11,.12-.05-.07-.06-.08-.02-.03,.02,.02,.03,.04,.05,.07,.03,.05,.06,.1,.09,.16s.06,.11,.08,.17c-.05-.15,0,.02,.02,.05,.18,.5,.31,1.01,.44,1.53,.06,.25,.33,.46,.59,.45s.53-.18,.59-.45c.16-.75,.25-1.51,.25-2.28h-1.23c0,.32,.05,.64,.13,.95,.06,.25,.33,.46,.59,.45,.28-.01,.51-.18,.59-.45,.05-.15,.07-.31,.05-.47-.02-.17-.05-.31-.18-.44-.11-.11-.28-.19-.44-.18-.3,.01-.66,.27-.62,.62,0,0,0,.13,0,.13v-.08s0,.06-.01,.08h1.19c-.02-.06-.03-.13-.04-.19,0-.02-.03-.21-.02-.12s0-.1,0-.12c0-.07,0-.13,0-.2,0-.32-.28-.63-.62-.62s-.62,.27-.62,.62-.01,.69-.05,1.04c0,.04,0,.08-.01,.13,0,.02-.03,.16,0,.07s0,.07-.01,.07c0,.04-.01,.08-.02,.13-.03,.18-.06,.35-.1,.52h1.19c-.15-.59-.29-1.19-.53-1.76-.25-.6-.66-1.09-1.29-1.32-.3-.11-.69,.12-.76,.43-.08,.35,.11,.64,.43,.76h0Z"/><path class="h" d="M816.27,1116.12c.39-.08,.82-.06,1.17,.16,.27,.17,.46,.47,.44,.77-.01,.22-.11,.45-.19,.65-.1,.26-.2,.53-.31,.79l-.66,1.69c-.12,.31,.13,.68,.43,.76,.35,.1,.64-.12,.76-.43l.78-2.01c.25-.64,.53-1.28,.36-1.98-.14-.57-.57-1.09-1.08-1.37-.63-.34-1.34-.37-2.03-.23-.33,.06-.51,.45-.43,.76,.09,.34,.43,.5,.76,.43h0Z"/><path class="h" d="M817.59,1115.13c.34,.3,.62,.66,.91,1l.21,.25s.08,.09,.11,.13l.05,.05c-.06-.08-.07-.09-.03-.04,.01,.02,.02,.04,.03,.06-.04-.09-.04-.1-.03-.04-.04-.18,0-.02,0,.03,0,.03,0,.06,0,.08,0,.07,0,.06,0-.04,.01,.02-.03,.14-.04,.17-.08,.31,.1,.68,.43,.76s.67-.1,.76-.43c.08-.3,.12-.66,.03-.96s-.33-.54-.54-.78c-.33-.39-.64-.8-1.02-1.14-.24-.22-.64-.25-.87,0-.22,.23-.26,.64,0,.87h0Z"/></g></g><path class="h" d="M942.17,1161.39c-1.72-9.39-3.34-18.25-3.34-36.5s.82-27.8,1.6-36.87c.8-9.23,1.63-18.78,1.63-37.55s.45-27.92,.89-37.02c.44-9.19,.9-18.7,.9-37.4,0-10.86-10.73-16.73-20.82-16.73-23.26,0-35.09-.59-46.52-1.16-11.53-.57-23.46-1.17-46.92-1.17s-35.33,.39-46.85,.76c-11.45,.37-23.3,.76-46.59,.76s-35.1-.51-46.55-1c-11.53-.5-23.44-1.01-46.89-1.01-10.5,0-20.06,9.32-20.06,19.55,0,18.63,.14,28.11,.27,37.27,.13,9.13,.27,18.58,.27,37.15s.74,28.3,1.46,37.52c.71,9.07,1.43,18.45,1.43,36.9s.47,28.21,.93,37.41c.45,9.1,.92,18.51,.92,37.01s-1.36,27.2-2.8,36.61c-1.42,9.29-2.89,18.9-2.89,37.81s.09,28.09,.17,37.24c.08,9.14,.17,18.59,.17,37.17,0,10.07,9.4,18.9,20.12,18.9,23.24,0,35.06,.7,46.49,1.37,11.54,.68,23.48,1.38,46.95,1.38,15.68,0,26.2-.14,34.89-.33,1.16-.64,1.78-2.34,2-3.98-.96-1.52-2.3-2.92-3.83-3.9-8.33,.17-18.45,.29-33.07,.29-23.24,0-35.06-.7-46.49-1.37-11.54-.68-23.48-1.38-46.95-1.38-6.27,0-12.2-5.34-12.2-10.99,0-18.62-.09-28.09-.17-37.25-.08-9.14-.17-18.59-.17-37.17s1.36-27.2,2.8-36.61c1.42-9.29,2.89-18.9,2.89-37.81s-.47-28.21-.93-37.41c-.45-9.1-.92-18.51-.92-37.01s-.74-28.3-1.46-37.52c-.71-9.07-1.43-18.45-1.43-36.9s-.14-28.11-.27-37.27c-.13-9.13-.27-18.58-.27-37.15,0-5.87,6.01-11.64,12.14-11.64,23.27,0,35.1,.51,46.55,1,11.53,.5,23.44,1.01,46.89,1.01s35.33-.39,46.85-.76c11.45-.37,23.3-.76,46.59-.76s35.09,.59,46.52,1.16c11.53,.57,23.46,1.17,46.92,1.17,5.36,0,12.9,2.73,12.9,8.81,0,18.51-.45,27.92-.89,37.02-.44,9.19-.9,18.7-.9,37.4s-.82,27.8-1.6,36.87c-.8,9.23-1.63,18.78-1.63,37.55s1.76,28.6,3.47,37.92c1.72,9.39,3.34,18.25,3.34,36.5s-.01,27.9-.03,37.2c-.01,9.3-.03,18.61-.03,37.22s-1.84,27.04-3.79,36.4c-1.95,9.34-3.96,19-3.96,38.02,0,8.82-3.25,9.56-6.88,9.56-23.48,0-35.42,.75-46.96,1.47-10.87,.68-22.1,1.39-43.18,1.45-1.45,2.01-1.32,5.89-.05,7.92,21.37-.07,32.73-.78,43.73-1.47,11.42-.72,23.23-1.46,46.47-1.46,6.75,0,14.79-3.03,14.79-17.47,0-18.2,1.84-27.04,3.79-36.4,1.95-9.34,3.96-19,3.96-38.02s.01-27.9,.03-37.21c.01-9.3,.03-18.61,.03-37.22s-1.76-28.6-3.47-37.92Z"/><path class="h" d="M1273.64,970.13c0,18.33-.45,27.64-.89,36.65-.44,9.1-.9,18.52-.9,37.04s.81,28.05,1.59,37.19c.5,5.84,1.01,11.84,1.31,20.29,.38,.71,1.01,1.32,2.03,1.9,1.26,.72,3.37,1.69,4.82,1.15,.36-.13,.75-.42,1.14-.78-.28-10.01-.85-16.73-1.41-23.24-.77-8.98-1.56-18.26-1.56-36.51s.45-27.64,.89-36.65c.44-9.1,.9-18.52,.9-37.04,0-9.99-8.34-17.82-18.99-17.82-23.29,0-35.14-.39-46.59-.78-11.52-.38-23.43-.78-46.85-.78s-35.21-.1-46.69-.19c-11.49-.1-23.38-.19-46.75-.19s-35.26,.11-46.75,.21c-11.48,.1-23.34,.21-46.68,.21-9.75,0-17.11,8.31-17.11,19.34,0,18.5,.36,27.91,.72,37,.35,9.02,.71,18.35,.71,36.7s-1.05,27.03-2.17,36.38c-1.09,9.17-2.22,18.66-2.22,37.32s.07,27.81,.13,36.87c.06,9.05,.13,18.41,.13,36.82,0,10.05,9.26,18.87,19.81,18.87,23.27,0,35.1,.54,46.54,1.06,11.53,.52,23.45,1.07,46.9,1.07,21.86,0,33.69-.22,44.53-.44,1.33-.85,2.47-2.01,3.18-3.29,1.33-2.41,.59-4.02-1.41-4.67-11.35,.24-23.21,.48-46.3,.48s-35.1-.54-46.54-1.06c-11.53-.52-23.45-1.07-46.9-1.07-6.22,0-11.89-5.22-11.89-10.95,0-18.44-.07-27.81-.13-36.88-.06-9.05-.13-18.41-.13-36.82s1.05-27.03,2.17-36.38c1.09-9.17,2.22-18.66,2.22-37.32s-.36-27.91-.72-37c-.35-9.02-.71-18.35-.71-36.7,0-5.68,3.16-11.42,9.19-11.42,23.38,0,35.26-.11,46.75-.21,11.48-.1,23.34-.21,46.68-.21s35.21,.1,46.69,.19c11.49,.1,23.38,.19,46.75,.19s35.14,.39,46.59,.78c11.52,.38,23.43,.78,46.85,.78,6.31,0,11.07,4.26,11.07,9.9Z"/><path class="h" d="M1154.9,1363.17c2.58-1.75,4.92-4.98,2.39-7.33-16.82,.06-26.77,.27-36.44,.47-11.46,.24-23.32,.48-46.64,.48s-35.1-.54-46.54-1.06c-11.53-.52-23.45-1.07-46.9-1.07-6.22,0-11.89-5.22-11.89-10.95,0-24.44-.07-36.86-.13-48.88-.06-12-.13-24.42-.13-48.84,0-7.39,10.12-7.76,12.15-7.76,23.42,0,35.32-.36,46.84-.72,11.45-.35,23.3-.71,46.6-.71s34.04-.51,45.01-1.03c.89-.9,1.51-2.03,1.66-3.36,.15-1.36,.37-3.67-.92-4.5-.05-.03-.12-.06-.17-.09-11.15,.53-22.96,1.07-45.58,1.07s-35.32,.36-46.84,.72c-11.45,.35-23.3,.71-46.6,.71-12,0-20.07,6.3-20.07,15.68,0,24.44,.07,36.86,.13,48.88,.06,12,.13,24.42,.13,48.84,0,10.05,9.26,18.87,19.81,18.87,23.27,0,35.1,.54,46.54,1.06,11.53,.52,23.45,1.07,46.9,1.07s35.3-.25,46.8-.48c8.3-.17,16.82-.35,29.74-.43,1.41-.19,2.77-.37,4.15-.62Z"/><path class="i" d="M1195.4,1344.87c9.7-31.96-5.98-51.15-22.56-74.45-3.96-5.56-7.64-11.5-9.75-18.04-2.41-7.47-2.41-15.14-2.67-22.9-.28-8.69-1.63-17.1-3.37-25.6-1.41-6.93-2.55-13.72-2.23-20.82,.81-18.37,10.12-36,24.14-47.84,2.22-3.98,3.56-8.54,4.42-13.18-22.91,12.74-26.98,21.94-33.99,43.47-4.41,13.52-11.17,23.87-8.57,37.75,1.48,7.94,3.32,15.68,3.68,23.78,.38,8.52,.24,17.1,2.18,25.46,3.41,14.69,12.77,26.92,22.11,38.36,9.24,11.31,19.56,22.9,23.18,37.44,1.23,4.93,1.19,9.63,.22,14.09,.07,.09,.14,.2,.21,.29-24.33-25.19-56.4-44.66-84.67-66.84-15.48-12.15-29.97-25.27-45-37.87-38.73-32.48-81.08-61.49-126.2-86.49-7.44-4.12-16.79-1.84-21.45,5.27l-103.72,158.13c-3.69,5.63-9.01,11.59-11.6,17.67-2.96,6.96-1.14,8.24,3.29,14.84,8.02,11.96,16.08,23.9,24.19,35.82,16.04,23.56,25.9,49.74,42.32,73.09,3.58,5.09,4.44,9.47,10.37,12.3,5.83,2.78,22.12,.94,28.72,.82,43.32-.77,89.81,13.98,129.96-2.32,22.59-9.17,19.99-36.56,31.71-39.24,14.14-3.23,19.43-21.51,31.88-28.32,33.57-18.36,59.58-16.69,86.28-42.57,3.11-3.01,6.84-4.03,6.79-8.13"/><path class="l" d="M1276.67,1192.13v.04c-.06-.42-.23-1.86,0-.04Z"/><path class="m" d="M1353.83,1381c-14.32-3.69-27.51-10.34-36.84-22.89-7.79-10.49-11.97-23.23-14.48-36.21-2.71-14.01-4.74-28.7-5.33-42.99-.32-7.79-.01-15.65,1.42-23.31,1.42-7.55,4.55-14.14,7.63-21.03,6.62-14.8,10.95-29.44,8.23-45.95-2.43-14.77-7.19-29.61-14.76-42.31-3.64-6.11-7.85-11.95-11.96-17.71-4.4-6.16-9.13-12.26-14.74-17.22-15.58-13.78-42.08-14.42-60.17-3.75,.28,2.97,1.1,5.86,2.64,8.41,2.78,4.59,7.13,9.1,12.36,10.13,3.7,.73,7.3,1.86,10.81,3.27,5.31,2.63,10.36,5.81,15.28,9.19,4.89,3.36,9.78,6.8,14.47,10.48,1.88,1.67,3.67,3.46,5.3,5.4,.99,1.61,1.86,3.29,2.65,5.02,2.52,7.14,4.2,14.67,5.31,22.19,1.85,17.89,.14,35.9-1.7,53.72-1.94,18.68-4.04,37.57-2.15,56.36,.94,9.36,2.33,18.62,4.96,27.62,2.52,8.63,5.87,17.1,9.8,25.1,3.16,6.43,6.86,12.53,11,18.28,5.21,7.22,10.58,14.14,16.9,20.3,6.2,6.04,12.95,11.59,20.04,16.39,7.22,4.88,14.94,8.64,22.88,11.99,1.58,.67,3.18,1.29,4.79,1.88,2.75,.92,5.5,1.05,8.25,.39,2.75-.13,5.32-1,7.69-2.62,2.41-1.39,4.35-3.28,5.8-5.68,1.65-1.93,2.82-4.16,3.5-6.69-10.67-11.73-25.31-14.09-39.59-17.77Z"/><path class="h" d="M1056.83,1449.89c7.23-12.24,17.33-23.16,28.47-31.48,11.58-8.65,24.44-15.41,37.54-21.43,13.48-6.2,26.52-11.34,40-17.27,12.84-5.65,26.54-12.48,34.59-24.47,9.27-13.78,4.64-31.69-4.06-44.53-8.58-12.65-20.33-22.56-30.25-34.07-4.53-5.26-8.74-11.07-11.6-17.72-3.25-7.55-4.39-16.12-4.95-24.36-.58-8.66-.76-17.34-1.42-25.99-.64-8.36-1.4-16.72-1.55-25.11-.28-15.22,1.64-31.46,11.33-43.43,9.55-11.79,23.08-19.1,36.36-26.18,13.53-7.21,29.61-18.46,45.34-14.47,7.58,1.92,14.27,6.35,20.7,10.87,6.35,4.47,12.47,8.63,18.12,13.77,21.43,19.52,33.03,47.58,32.25,76.33-.22,8.03-1.47,14.87-3.13,22.78-1.98,9.47-3.93,18.95-5.76,28.45s-3.54,19.02-5.07,28.58c-1.24,7.77-2.2,15.53-2.18,23.41,.05,15,2.97,29.94,9.1,43.65,6.02,13.47,15.9,26.19,28.67,33.86,7.33,4.4,15.34,6.16,23.58,7.95,3.27,.71,6.5,1.57,9.64,2.73,.59,.22,1.17,.45,1.75,.68,.76,.3-1.03-.46,.18,.07,.25,.11,.5,.22,.75,.33,1.38,.61,2.75,1.26,4.11,1.91,7.23,3.44,14.54,6.68,21.48,10.69,5.73,3.31,11.17,7.04,16.61,10.79,4.96,3.42,9.98,6.74,15.31,9.58,2.29,1.22,5.23,.58,6.57-1.72,1.27-2.18,.57-5.35-1.72-6.57-11.41-6.09-21.43-14.4-32.66-20.8-7.04-4.01-14.44-7.28-21.76-10.75-5.92-2.8-11.9-4.98-18.31-6.34-7.99-1.69-15.4-3.34-22.23-7.83-5.33-3.5-11.06-9.21-14.79-14.2-8.71-11.68-13.5-24.93-15.65-39.38-.16-1.1-.37-2.84-.53-4.46-.18-1.92-.31-3.85-.39-5.78-.16-3.67-.13-7.36,.07-11.03,.46-8.5,1.95-16.34,3.46-25.02,1.65-9.51,3.47-19,5.37-28.46,1.83-9.09,4.03-18.14,5.55-27.29,5.06-30.43-2.61-61.76-21.61-86.13-9.73-12.48-22.43-21.84-35.5-30.56-6.73-4.49-14.2-8.67-22.29-9.99-8.88-1.45-17.62,.39-25.84,3.8-8.14,3.38-15.77,7.83-23.54,11.96-6.92,3.68-13.81,7.43-20.32,11.8-6.48,4.35-12.72,9.29-17.77,15.28-5.41,6.42-9.34,13.79-11.68,21.86-4.69,16.19-3.28,33.43-1.97,49.99,.68,8.56,1.09,17.12,1.5,25.7,.43,8.94,1.17,18.06,3.8,26.66,4.7,15.38,15.68,27.18,26.64,38.45s21.83,21.59,25.11,36.63c.39,1.78,.6,3.19,.69,5.05,.04,.88,.05,1.77,.02,2.66-.02,.58-.07,1.15-.12,1.73-.09,1.04,.11-.23-.12,.75-.8,3.51-1.41,5.21-3.32,8.15-3.23,4.97-8.69,9.27-14.1,12.63-5.98,3.71-12.38,6.65-18.83,9.46-6.95,3.04-13.6,5.81-20.33,8.66-26.86,11.39-54.4,23.95-74.24,46.08-5.04,5.62-9.53,11.74-13.36,18.23-3.15,5.34,5.15,10.18,8.3,4.85h0Z"/><path class="h" d="M819.65,1048.74c0,.87-.3,1.45-1.11,1.45s-1.87-.59-1.87-1.45,1.06-1.73,1.87-1.73,1.11,.87,1.11,1.73Z"/><path class="h" d="M839.57,1058.18c0,1.17-.82,2.45-1.88,2.45s-2.24-1.29-2.24-2.45,1.18-2.61,2.24-2.61,1.88,1.45,1.88,2.61Z"/><path class="h" d="M1099.24,1023.89c0,.87-.66,1.82-1.48,1.82s-1.78-.95-1.78-1.82,.97-1.32,1.78-1.32,1.48,.45,1.48,1.32Z"/><path class="h" d="M1119.42,1033.34c0,1.17-1.45,1.78-2.51,1.78s-1.46-.61-1.46-1.78,.4-2.2,1.46-2.2,2.51,1.03,2.51,2.2Z"/><path class="h" d="M840.63,1007.85c0,2.83-1.61,4.3-4.86,4.3s-6.37-1.47-6.37-4.3,3.11-6.18,6.37-6.18,4.86,3.35,4.86,6.18Z"/><path class="h" d="M742.74,1235.37c.83,.25,1.69,.9,1.45,1.68s-1.27,.76-2.1,.52-1.09-.61-.86-1.39,.68-1.05,1.51-.8Z"/><path class="h" d="M757.34,1219.27c1.12,.33,2.11,1.22,1.81,2.23-.3,1.02-1.86,2.04-2.98,1.71-1.12-.33-1.79-2.02-1.49-3.03s1.54-1.25,2.66-.92Z"/><path class="h" d="M709.83,1202.42c2.71,.8,2.91,4,1.99,7.12-.92,3.12-2.36,4.13-5.07,3.33s-5.82-3.14-4.9-6.27c.92-3.12,5.26-4.98,7.98-4.18Z"/><path class="h" d="M1099.69,1133c.83,.25,1.28,.67,1.05,1.45-.23,.78-.82,.84-1.65,.6s-1.5-.68-1.27-1.46,1.04-.83,1.88-.58Z"/><path class="h" d="M1114.25,1117.04c1.12,.33,2.47,1.05,2.17,2.07-.3,1.02-2.09,1.76-3.21,1.43s-1.84-1.81-1.54-2.83c.3-1.02,1.45-1,2.57-.67Z"/><path class="h" d="M1066.58,1100.72c2.71,.8,4.4,3.6,3.48,6.72s-3.58,3.61-6.29,2.81-3.36-2.27-2.44-5.39c.92-3.12,2.54-4.95,5.26-4.15Z"/><path class="h" d="M1101.92,991.77c2.71,.8,4.77,4.35,3.85,7.47s-4.12,3.45-6.84,2.65c-2.71-.8-4.26-2.53-3.34-5.65,.92-3.12,3.61-5.27,6.32-4.47Z"/><g><path class="h" d="M693.88,1273.1c-.29,1.89-1.66,2.31-3.13,2.08s-2.71-1.06-2.42-2.94c.29-1.89,1.72-2.27,3.19-2.04,1.47,.23,2.65,1.01,2.36,2.9Z"/><path class="g" d="M693.88,1273.1c-.29,1.89-1.66,2.31-3.13,2.08s-2.71-1.06-2.42-2.94c.29-1.89,1.72-2.27,3.19-2.04,1.47,.23,2.65,1.01,2.36,2.9Z"/></g><g><path class="h" d="M790.24,1289.22c-.46,2.94-5.56,5.5-9.12,4.95-3.57-.55-6.28-4.34-5.83-7.27,.46-2.94,4.13-5.32,7.7-4.77s7.71,4.15,7.25,7.09Z"/><path class="g" d="M790.24,1289.22c-.46,2.94-5.56,5.5-9.12,4.95-3.57-.55-6.28-4.34-5.83-7.27,.46-2.94,4.13-5.32,7.7-4.77s7.71,4.15,7.25,7.09Z"/></g><path class="h" d="M867.19,1032.83l1.5,2.75c.12,.21,.29,.38,.5,.5l2.75,1.5c.3,.16,.3,.6,0,.76l-2.96,1.62c-.07,.04-.13,.1-.17,.17l-1.62,2.96c-.16,.3-.6,.3-.76,0l-1.62-2.96c-.04-.07-.1-.13-.17-.17l-2.96-1.62c-.3-.16-.3-.6,0-.76l2.69-1.47c.25-.14,.45-.34,.59-.59l1.47-2.69c.16-.3,.6-.3,.76,0Z"/><path class="h" d="M1143.73,1068.13l1.5,2.75c.12,.21,.29,.38,.5,.5l2.75,1.5c.3,.16,.3,.6,0,.76l-2.96,1.62c-.07,.04-.13,.1-.17,.17l-1.62,2.96c-.16,.3-.6,.3-.76,0l-1.62-2.96c-.04-.07-.1-.13-.17-.17l-2.96-1.62c-.3-.16-.3-.6,0-.76l2.69-1.47c.25-.14,.45-.34,.59-.59l1.47-2.69c.16-.3,.6-.3,.76,0Z"/><path class="h" d="M1010.99,978.94l1.5,2.75c.12,.21,.29,.38,.5,.5l2.75,1.5c.3,.16,.3,.6,0,.76l-2.96,1.62c-.07,.04-.13,.1-.17,.17l-1.62,2.96c-.16,.3-.6,.3-.76,0l-1.62-2.96c-.04-.07-.1-.13-.17-.17l-2.96-1.62c-.3-.16-.3-.6,0-.76l2.69-1.47c.25-.14,.45-.34,.59-.59l1.47-2.69c.16-.3,.6-.3,.76,0Z"/><path class="h" d="M878.59,1111.72l1.5,2.75c.12,.21,.29,.38,.5,.5l2.75,1.5c.3,.16,.3,.6,0,.76l-2.96,1.62c-.07,.04-.13,.1-.17,.17l-1.62,2.96c-.16,.3-.6,.3-.76,0l-1.62-2.96c-.04-.07-.1-.13-.17-.17l-2.96-1.62c-.3-.16-.3-.6,0-.76l2.69-1.47c.25-.14,.45-.34,.59-.59l1.47-2.69c.16-.3,.6-.3,.76,0Z"/></g><g><path class="h" d="M816.05,829.05l-9.74-29.4h5.67l8.69,26.59h-2.81l9.03-26.59h5.04l8.78,26.59h-2.73l8.9-26.59h5.21l-9.74,29.4h-5.8l-8.02-23.98h1.51l-8.15,23.98h-5.84Z"/><path class="h" d="M864.43,829.35c-2.3,0-4.34-.5-6.13-1.49-1.79-.99-3.21-2.36-4.24-4.09-1.04-1.74-1.55-3.71-1.55-5.92s.52-4.22,1.55-5.94c1.04-1.72,2.45-3.07,4.24-4.05,1.79-.98,3.84-1.47,6.13-1.47s4.39,.49,6.2,1.47c1.81,.98,3.22,2.32,4.24,4.03,1.02,1.71,1.53,3.7,1.53,5.96s-.51,4.19-1.53,5.92c-1.02,1.74-2.44,3.1-4.24,4.09-1.81,.99-3.87,1.49-6.2,1.49Zm0-4.49c1.29,0,2.44-.28,3.44-.84,1.01-.56,1.8-1.37,2.37-2.44,.57-1.06,.86-2.31,.86-3.74s-.29-2.71-.86-3.76c-.57-1.05-1.36-1.85-2.37-2.42-1.01-.56-2.14-.84-3.4-.84s-2.43,.28-3.42,.84c-.99,.56-1.79,1.36-2.37,2.42-.59,1.05-.88,2.3-.88,3.76s.29,2.67,.88,3.74,1.38,1.88,2.37,2.44c.99,.56,2.12,.84,3.38,.84Z"/><path class="h" d="M881.44,829.05v-22.43h5v6.17l-.59-1.81c.67-1.51,1.73-2.66,3.17-3.44,1.44-.78,3.24-1.18,5.4-1.18v5c-.22-.06-.43-.09-.63-.11-.2-.01-.39-.02-.59-.02-1.99,0-3.57,.58-4.75,1.74-1.18,1.16-1.76,2.89-1.76,5.19v10.88h-5.25Z"/><path class="h" d="M898.87,829.05v-31.16h5.25v31.16h-5.25Zm4.28-5l.13-6.59,11.72-10.84h6.3l-9.95,10-2.77,2.31-5.42,5.12Zm12.64,5l-8.19-10.12,3.32-4.2,11.26,14.32h-6.38Z"/><path class="h" d="M928.23,802.93c-.98,0-1.79-.31-2.42-.92-.63-.62-.94-1.36-.94-2.23s.31-1.64,.94-2.25c.63-.6,1.43-.9,2.42-.9s1.79,.29,2.42,.86,.95,1.3,.95,2.16c0,.92-.31,1.7-.92,2.33-.62,.63-1.43,.95-2.44,.95Zm-2.65,26.12v-22.43h5.25v22.43h-5.25Z"/><path class="h" d="M950.45,806.37c1.79,0,3.39,.35,4.81,1.05,1.41,.7,2.53,1.77,3.34,3.21,.81,1.44,1.22,3.3,1.22,5.57v12.85h-5.25v-12.18c0-1.99-.47-3.47-1.41-4.45-.94-.98-2.25-1.47-3.93-1.47-1.23,0-2.32,.25-3.28,.76s-1.69,1.25-2.21,2.25-.78,2.25-.78,3.76v11.34h-5.25v-22.43h5v6.05l-.88-1.85c.78-1.43,1.92-2.53,3.42-3.3,1.5-.77,3.23-1.15,5.19-1.15Z"/><path class="h" d="M976.02,828.05c-2.13,0-4.05-.46-5.77-1.37-1.72-.91-3.08-2.18-4.07-3.8-.99-1.62-1.49-3.53-1.49-5.71s.5-4.05,1.49-5.67c.99-1.62,2.35-2.88,4.07-3.78,1.72-.9,3.65-1.34,5.77-1.34,1.9,0,3.61,.38,5.12,1.13,1.51,.76,2.72,1.93,3.63,3.53,.91,1.6,1.36,3.64,1.36,6.13s-.46,4.54-1.36,6.15c-.91,1.61-2.12,2.8-3.63,3.57-1.51,.77-3.22,1.16-5.12,1.16Zm.67,9.45c-2.07,0-4.1-.27-6.07-.82s-3.59-1.34-4.85-2.37l2.35-3.95c.98,.81,2.22,1.46,3.72,1.95,1.5,.49,3.02,.74,4.56,.74,2.46,0,4.27-.57,5.42-1.7,1.15-1.13,1.72-2.83,1.72-5.1v-3.99l.42-5.08-.17-5.08v-5.46h5v19.03c0,4.06-1.04,7.05-3.11,8.97-2.07,1.92-5.07,2.88-8.99,2.88Zm.13-13.9c1.32,0,2.49-.27,3.53-.82s1.84-1.3,2.42-2.27,.86-2.08,.86-3.34-.29-2.37-.86-3.34c-.57-.97-1.38-1.71-2.42-2.23-1.04-.52-2.21-.78-3.53-.78s-2.5,.26-3.55,.78c-1.05,.52-1.86,1.26-2.44,2.23-.57,.97-.86,2.08-.86,3.34s.29,2.37,.86,3.34c.57,.97,1.39,1.72,2.44,2.27,1.05,.55,2.23,.82,3.55,.82Z"/><path class="h" d="M1007.27,829.05v-31.16h5.25v31.16h-5.25Z"/><path class="h" d="M1026.17,829.35c-1.68,0-3.15-.29-4.41-.86-1.26-.57-2.23-1.37-2.92-2.39-.69-1.02-1.03-2.18-1.03-3.46s.3-2.39,.9-3.4c.6-1.01,1.59-1.81,2.96-2.39s3.19-.88,5.46-.88h6.51v3.49h-6.13c-1.79,0-3,.29-3.61,.86-.62,.57-.92,1.28-.92,2.12,0,.95,.38,1.71,1.13,2.27,.76,.56,1.81,.84,3.15,.84s2.44-.29,3.46-.88,1.76-1.46,2.21-2.6l.88,3.15c-.5,1.32-1.41,2.34-2.71,3.07-1.3,.73-2.95,1.09-4.93,1.09Zm7.06-.29v-4.54l-.29-.97v-7.94c0-1.54-.46-2.74-1.39-3.59-.92-.85-2.32-1.28-4.2-1.28-1.26,0-2.5,.2-3.72,.59-1.22,.39-2.25,.94-3.09,1.64l-2.06-3.82c1.2-.92,2.64-1.62,4.31-2.08,1.67-.46,3.39-.69,5.19-.69,3.25,0,5.76,.78,7.54,2.33,1.78,1.55,2.67,3.96,2.67,7.2v13.15h-4.96Z"/><path class="h" d="M1041.92,810.99v-4.2h14.95v4.2h-14.95Zm11.42,18.35c-2.46,0-4.37-.64-5.71-1.91-1.34-1.27-2.02-3.16-2.02-5.65v-20.12h5.25v19.99c0,1.06,.27,1.89,.82,2.48,.55,.59,1.31,.88,2.29,.88,1.18,0,2.16-.31,2.94-.92l1.47,3.74c-.62,.5-1.37,.88-2.27,1.13-.9,.25-1.82,.38-2.77,.38Z"/><path class="h" d="M1072.5,829.35c-2.49,0-4.67-.5-6.53-1.49-1.86-.99-3.3-2.36-4.33-4.09-1.02-1.74-1.53-3.71-1.53-5.92s.5-4.22,1.49-5.94c.99-1.72,2.37-3.07,4.12-4.05,1.75-.98,3.74-1.47,5.99-1.47s4.13,.48,5.84,1.43c1.71,.95,3.05,2.3,4.03,4.03s1.47,3.78,1.47,6.13c0,.22,0,.48-.02,.76-.01,.28-.04,.55-.06,.8h-18.69v-3.49h15.92l-2.06,1.09c.03-1.29-.24-2.42-.8-3.4-.56-.98-1.32-1.75-2.29-2.31-.97-.56-2.08-.84-3.34-.84s-2.42,.28-3.38,.84c-.97,.56-1.72,1.34-2.27,2.33s-.82,2.16-.82,3.51v.84c0,1.34,.31,2.53,.92,3.57s1.48,1.83,2.6,2.39c1.12,.56,2.41,.84,3.86,.84,1.26,0,2.39-.2,3.4-.59,1.01-.39,1.9-1.01,2.69-1.85l2.81,3.23c-1.01,1.18-2.27,2.08-3.8,2.71s-3.27,.95-5.23,.95Z"/><path class="h" d="M1089.76,829.35c-.95,0-1.76-.33-2.44-.99-.67-.66-1.01-1.49-1.01-2.5,0-1.06,.34-1.91,1.01-2.54,.67-.63,1.48-.94,2.44-.94s1.76,.31,2.44,.94c.67,.63,1.01,1.48,1.01,2.54,0,1.01-.34,1.84-1.01,2.5-.67,.66-1.48,.99-2.44,.99Z"/><path class="h" d="M1100.01,829.35c-.95,0-1.76-.33-2.44-.99-.67-.66-1.01-1.49-1.01-2.5,0-1.06,.34-1.91,1.01-2.54,.67-.63,1.48-.94,2.44-.94s1.76,.31,2.44,.94c.67,.63,1.01,1.48,1.01,2.54,0,1.01-.34,1.84-1.01,2.5-.67,.66-1.48,.99-2.44,.99Z"/><path class="h" d="M1110.25,829.35c-.95,0-1.76-.33-2.44-.99-.67-.66-1.01-1.49-1.01-2.5,0-1.06,.34-1.91,1.01-2.54,.67-.63,1.48-.94,2.44-.94s1.76,.31,2.44,.94c.67,.63,1.01,1.48,1.01,2.54,0,1.01-.34,1.84-1.01,2.5-.67,.66-1.48,.99-2.44,.99Z"/></g><g><path class="j" d="M1153.11,2233.55c-.56-8.37-2.07-17.32-7.97-23.28-5.09-5.15-12.48-7.08-19.3-9.5-11.69-4.16-22.65-10.35-32.25-18.21-2.65-2.17-9.06-7.78-12.39-8.55-7.65-1.77-10.41,8.49-17.12,12.57-7.72,4.69-17.05,5.69-26.04,6.57-51.13,5.04-103.15,10.04-153.55,.02-14.61-2.9-28.96-7.04-43.66-9.51-6.86-1.15-14.28-.81-20.99-2.43-5.34-1.29-10.4-3.96-15,.99-3.77,4.05-4.44,10.01-4.88,15.53-3.18,40.47-3.5,81.73,6.6,121.05,3.03,11.79,7.23,23.75,15.66,32.54,9.61,10.02,23.43,14.62,36.77,18.48,27.65,8,55.77,14.37,84.16,19.07,13.18,2.18,26.64,4,39.85,2.06,15.7-2.3,30.11-9.76,44.18-17.09,7.49-3.9,15.03-7.85,21.53-13.24,6.62-5.5,11.96-12.34,18.1-18.37,13.24-13,29.86-21.89,45.23-32.3,15.37-10.41,30.19-23.22,36.9-40.52,4.39-11.31,4.97-23.76,4.15-35.87Zm-32.14,45.8c-4.61,5.8-10.69,10.29-17.33,13.5-4.79,2.32-10.81,5.13-16.24,3.48-13.24-4.03-6.28-26.21-3.62-35.11,4.19-14.07,10.14-28.51,18.8-40.46,.33-.45,.7-.81,1.11-1.08,.34-1.7,1.62-3.16,3.88-3.11,14.99,.35,21.78,13.25,23.16,26.65,1.31,12.74-1.71,26.01-9.75,36.12Z"/><path class="h" d="M903.82,2270c-6-7.01-13.66-12.31-22.23-15.69-1.75-.69-3.84,.7-4.32,2.38-.56,1.95,.62,3.63,2.38,4.32,7.46,2.94,13.92,7.73,19.11,13.79,1.23,1.43,3.62,1.37,4.94,.12,1.43-1.36,1.35-3.5,.12-4.94h0Z"/><path class="h" d="M1007.75,2266.94c-3.4-.31-6.83-.36-10.23-.17-3.91,.23-7.97,.68-11.67,2.04-3.8,1.4-6.77,3.54-8.32,7.38-1.82,4.52-1.86,9.85-.33,14.45,3.59,10.81,14.68,15.81,25.4,16.47,5.61,.34,11.22-1.05,15.61-4.64,3.61-2.96,6.16-7.45,6.92-12.05,1.95-11.7-6.98-22.3-18.64-23.24-1.88-.15-3.49,1.71-3.49,3.49,0,2.02,1.6,3.34,3.49,3.49,6.65,.54,12.3,6.82,11.97,13.52-.15,3.1-1.65,6.44-3.99,8.77-2.62,2.6-6.47,3.75-10.36,3.73-4.18-.02-8.65-1-12.39-2.9-3.41-1.73-6.19-4.36-7.51-7.7-1.36-3.43-1.51-6.91-.39-10.35,.22-.68,.42-.96,.68-1.57,.2-.46-.4,.34,.12-.17,.24-.24,.49-.47,.73-.71,.28-.26-.16,.12-.19,.14,.15-.1,.29-.21,.45-.31,.24-.15,.48-.3,.72-.43,.3-.17,.61-.31,.91-.46,.35-.18-.09,.03-.14,.05,.24-.1,.48-.19,.73-.28,1.64-.59,3.34-.98,5.06-1.27,1.09-.18,.91-.16,2.09-.27,.96-.1,1.91-.17,2.87-.22,3.29-.17,6.6-.12,9.88,.18,1.88,.17,3.49-1.73,3.49-3.49,0-2.03-1.61-3.32-3.49-3.49h0Z"/><path class="l" d="M998.24,2290.43c2.74,0,5.36-2.41,5.24-5.24-.13-2.84-2.3-5.24-5.24-5.24-2.74,0-5.36,2.41-5.24,5.24s2.3,5.24,5.24,5.24h0Z"/><path class="h" d="M864.5,2270.25c-7.84,2.26-12.42,10.67-11.38,18.55,1.13,8.51,8.25,14.95,16.15,17.45,4.42,1.4,9.57,1.72,13.97,.06,3.84-1.45,6.94-4,9.32-7.32,4.53-6.3,5.17-15.19,.94-21.8-4.85-7.58-14.35-11.63-23.1-9.47-7.81,1.93-13.35,6.46-13.07,8.27,2.36,15.24-.69,2.06,14.93-1.53,4.93-1.14,10.5,.76,14.12,4.81,3.44,3.85,3.88,9.37,1.56,13.9-1.2,2.35-2.78,4.2-4.84,5.49-1.28,.8-1.88,1.07-3.36,1.44-1.69,.42-3.52,.44-5.25,.21-5.77-.75-11.71-4.48-13.78-9.78-2.07-5.29,.7-12.56,6-14.08,4.31-1.24,2.13-7.44-2.21-6.19h0Z"/><path class="l" d="M875.6,2291.12c2.74,0,5.36-2.41,5.24-5.24-.13-2.84-2.3-5.24-5.24-5.24-2.74,0-5.36,2.41-5.24,5.24s2.3,5.24,5.24,5.24h0Z"/><path class="h" d="M965.38,2268.81c6-7.01,13.66-12.31,22.23-15.69,1.75-.69,3.84,.7,4.32,2.38,.56,1.95-.62,3.63-2.38,4.32-7.46,2.94-13.92,7.73-19.11,13.79-1.23,1.43-3.62,1.37-4.94,.12-1.43-1.36-1.35-3.5-.12-4.94h0Z"/><path class="h" d="M919.95,2314.63c6.34,11.81,21.27,14.01,31.11,5.13,2.87-2.59-1.38-6.83-4.24-4.24-7.09,6.4-17.24,4.37-21.69-3.91-1.83-3.4-7.01-.38-5.18,3.03h0Z"/><path class="j" d="M830.27,2154.53c25.99-6.78,52.94-8.85,79.72-10.89,51.72-3.95,104.96-7.73,154.4,7.94,4.24,1.34,8.74,3.06,11.18,6.78,3.2,4.9,1.54,11.78-2.33,16.16-3.87,4.38-9.45,6.81-14.91,8.92-41.43,16.05-86.85,21.66-130.94,16.16-26.71-3.33-53.16-10.66-80.05-9.51-7.05,.3-14.25,1.18-21.07-.63-7.28-1.93-19.97-10.61-18.94-19.59,1.04-9.1,15.72-13.47,22.94-15.35Z"/><g class="o"><path class="l" d="M817.38,2181.63c7.87-3.08,15.92-5.62,24.13-7.62,3.8-.92,7.64-1.74,11.48-2.45,2.08-.39,4.16-.75,6.24-1.08,.93-.15,7.19-1.01,4.19-.64,16.61-2.07,33.34-2.77,50.07-3.11,34.56-.7,69.59-2.4,104.11-.25,4.51,.28,9,.71,13.5,1.17,.5,.05,3.54,.42,.57,.03,1.19,.15,2.37,.34,3.55,.53,2.36,.37,4.72,.79,7.06,1.25,9.4,1.86,18.58,4.53,27.48,8.09s20.15-3.83,22.14-12.57c2.37-10.41-3.19-18.38-12.57-22.14-32.96-13.22-69.39-13.39-104.37-12.95-35.59,.45-71.61-.51-107.03,3.42-20.54,2.28-40.82,6.05-60.13,13.61-8.74,3.42-15.78,12.22-12.57,22.14,2.75,8.49,12.75,16.25,22.14,12.57h0Z"/></g><g><path class="h" d="M1158.58,2218.17c-2.99-7.2-7.21-14.12-13.31-19.12-3.34-2.73-6.83-4.82-10.89-6.31-3.91-1.43-8.17-1.86-12.31-1.92-3.9-.06-7.8,.23-11.7,.07-.73-.03-1.46-.09-2.19-.16-.08-.02-.94-.13-1.08-.16-.35-.07-.7-.14-1.05-.23-.52-.13-1.04-.27-1.55-.44,.01,0-.47-.18-.77-.29-.29-.15-.74-.36-.73-.35-.49-.26-.93-.59-1.41-.86-.05-.03-.09-.05-.13-.07-.02-.02-.04-.04-.07-.07-.22-.2-.45-.39-.66-.6-.42-.39-1.3-1.05-1.49-1.61l.43,.56c-.17-.23-.34-.47-.5-.71s-.32-.49-.47-.73c-.46-.75-.84-1.54-1.23-2.33-.02-.04-.03-.06-.05-.09,0-.03-.02-.05-.03-.08-.1-.28-.21-.56-.32-.85-.26-.72-.49-1.45-.71-2.18-.49-1.66-.89-3.34-1.26-5.02-1.52-6.9-2.67-13.95-6.17-20.2-3.63-6.47-9.49-11.52-15.99-14.97-13.88-7.37-30.25-9.31-45.55-11.74-36.4-5.79-73.34-8.88-110.21-7.28-18.52,.8-37,2.79-55.24,6.11-8.84,1.61-17.62,3.55-26.31,5.84-4.3,1.14-8.58,2.36-12.83,3.67-4.14,1.28-8.3,2.56-11.9,5.05-6.98,4.81-12.22,11.85-14.75,19.94-.18,.59-.38,2.2-.36,2.82-1.68,34.71-2.86,68.59,2.06,103.1,2.37,16.65,6.32,33.11,12.56,48.75,3.2,8.01,6.74,16.1,11.37,23.41,4.9,7.74,11.45,13.6,19.77,17.45,8.37,3.87,17.3,6.64,26.11,9.28,8.96,2.68,18.03,5,27.18,6.94,18.5,3.93,37.35,6.39,56.25,7.32,18.67,.92,38.43,1.33,56.51-4.09,16.29-4.88,30.64-14.23,44.6-23.68,6.89-4.67,13.77-9.38,20.92-13.65,6.39-3.81,12.97-7.28,19.56-10.74,12.93-6.78,26.02-13.49,37.64-22.41,12.88-9.89,23.32-22.24,28.82-37.69,5.57-15.65,5.86-34.25-.56-49.7Zm-348.93-57.71c.43-.8,.89-1.57,1.39-2.33,.25-.38,.51-.76,.77-1.13,.07-.11,.15-.21,.23-.31,.05-.06,.15-.19,.32-.39,1.17-1.29,2.32-2.56,3.65-3.69,.14-.12,.53-.43,.62-.5,.16-.12,.32-.23,.48-.35,.87-.6,1.78-1.15,2.73-1.64,0,0,.26-.13,.52-.26,.23-.09,.87-.36,.88-.36,.98-.35,1.98-.65,2.97-.96,2.07-.65,4.15-1.28,6.24-1.89,4.37-1.28,8.77-2.47,13.19-3.56,8.51-2.11,17.1-3.89,25.74-5.36,2.03-.34,4.06-.67,6.09-.98,1.07-.16,2.14-.32,3.21-.48,.64-.09,1.29-.18,1.93-.27,.25-.04,.38-.05,.45-.06,.08-.01,.23-.03,.49-.06,4.3-.56,8.6-1.06,12.91-1.48,35.36-3.47,71.07-2.25,106.32,1.97,2.17,.26,4.34,.53,6.51,.81,.43,.06,.87,.11,1.3,.17,.21,.03,.35,.05,.47,.06,.12,.02,.27,.04,.49,.07,1.19,.16,2.38,.33,3.57,.5,4.43,.63,8.85,1.31,13.27,2.02,7.91,1.29,15.87,2.55,23.67,4.38,3.36,.79,6.7,1.7,9.96,2.85,.79,.28,1.57,.57,2.35,.87,.31,.12,.62,.25,.93,.37-1.41-.56,.13,.06,.35,.16,1.49,.67,2.95,1.4,4.36,2.21,1.39,.8,2.72,1.67,4.02,2.62l.06,.05c.29,.26,.61,.5,.9,.76,.71,.62,1.39,1.27,2.04,1.95,1.7,1.78,2.9,4.29,1.86,6.73-.47,.39-.72,1.07-1.06,1.57-.43,.62-.86,1.25-1.27,1.89,.88-1.39,.13-.18-.15,.16-.3,.36-.6,.71-.9,1.06-.65,.75-1.33,1.47-2.03,2.18-1.31,1.31-2.69,2.55-4.13,3.72-.1,.08-.17,.14-.23,.18-.35,.26-.71,.53-1.06,.78-.81,.58-1.64,1.15-2.49,1.69-3.2,2.06-6.58,3.78-10.05,5.32l-.08,.04s-.09,.04-.15,.06c-.45,.18-.89,.36-1.34,.54-.96,.38-1.94,.74-2.91,1.08-1.83,.65-3.68,1.23-5.55,1.78-3.8,1.1-7.65,2-11.53,2.75-1.93,.37-3.86,.7-5.8,1-1.15,.18-2.31,.34-3.46,.5-.26,.03-.91,.12-1.14,.15-.72,.09-1.45,.18-2.18,.27-10.25,1.21-20.57,1.8-30.89,2.08-20.93,.55-41.95,.24-62.87-.44-10.43-.34-20.85-.9-31.24-1.87-2.66-.25-5.33-.52-7.98-.83-1.19-.14-2.38-.28-3.57-.43-.64-.08-1.28-.16-1.92-.25l-.14-.02c-.25-.03-.87-.12-.97-.13-4.8-.67-9.58-1.45-14.34-2.35-9.41-1.79-18.72-4.07-27.85-6.97-4.59-1.46-9.14-3.07-13.61-4.86-.55-.22-1.1-.44-1.65-.66-.23-.1-.47-.19-.7-.29-.07-.03-.25-.1-.41-.17-.26-.11-.79-.34-.92-.39-.62-.27-1.24-.54-1.86-.82-1.69-.76-3.35-1.65-5.06-2.36-1.36-.56-2.54-.99-3.39-2.33-1.08-1.69-1.27-4.35-.34-6.09Zm340.82,91.18c.04-.24,.07-.46,0,0h0Zm.16-1.49c-.05,.56-.12,1.11-.19,1.67,0,.06-.02,.13-.03,.21-.19,1.17-.38,2.33-.62,3.49-.79,3.87-1.96,7.61-3.36,11.3-.05,.14-.09,.25-.13,.34-.01,.03-.02,.05-.04,.09-.2,.45-.4,.9-.6,1.35-.41,.89-.84,1.78-1.29,2.65-.92,1.79-1.93,3.53-3.02,5.22-.89,1.38-1.82,2.74-2.8,4.06-.12,.16-1.18,1.5-.29,.39-.21,.27-.43,.54-.64,.8-.65,.8-1.31,1.58-1.99,2.35-2.26,2.56-4.68,4.97-7.23,7.24-1.28,1.14-2.59,2.24-3.92,3.31-.33,.27-.67,.53-1.01,.8l-.04,.03-.14,.11c-.76,.57-1.52,1.14-2.29,1.69-5.75,4.16-11.84,7.82-18.03,11.28-12.78,7.14-26.06,13.37-38.54,21.05-13.7,8.42-26.46,18.32-40.56,26.11-3.52,1.95-7.13,3.69-10.8,5.34-.06,.03-.1,.05-.14,.06-.08,.03-.17,.07-.28,.11-.46,.18-.91,.37-1.36,.55-.82,.32-1.65,.63-2.48,.93-2.04,.73-4.1,1.39-6.18,1.97-9.05,2.5-16.86,3.18-26.4,3.46-8.93,.26-17.88,.1-26.79-.39-4.67-.25-9.34-.6-13.99-1.04-2.11-.2-4.21-.42-6.31-.66-1.11-.13-2.21-.26-3.32-.39-.55-.07-1.11-.14-1.66-.21,.02,0-.86-.11-1.16-.15-17.93-2.44-35.68-6.32-53-11.57-4.37-1.32-8.71-2.73-13.03-4.23-1.92-.67-3.83-1.34-5.72-2.07-.37-.14-.74-.29-1.11-.43-.04-.01-.73-.31-1-.41-.81-.35-1.62-.72-2.42-1.11-1.77-.86-3.49-1.81-5.14-2.88-.41-.27-.82-.54-1.22-.82-.12-.08-.48-.36-.64-.47-.84-.67-1.64-1.39-2.41-2.15-.63-.63-1.23-1.28-1.81-1.95-.25-.29-.5-.6-.75-.9-.11-.15-.4-.53-.49-.64-1.22-1.69-2.33-3.46-3.36-5.26-2.01-3.49-3.8-7.11-5.5-10.76-.43-.92-.84-1.84-1.25-2.76-.25-.55-.49-1.11-.73-1.67-.02-.05-.08-.18-.13-.31-.84-2.01-1.64-4.03-2.4-6.07-2.85-7.63-5.18-15.44-7.06-23.36-.96-4.02-1.8-8.07-2.53-12.13-.36-1.99-.7-3.98-1.01-5.98-.14-.9-.28-1.8-.41-2.7-.07-.5-.15-1-.22-1.51,0-.03-.1-.74-.14-1.04-1.05-8.21-1.78-16.46-2.22-24.73-.79-14.85-.72-29.73-.28-44.6,.08-2.77-.55-6.55,1.77-8.6,1.08-.95,2.51-1.34,3.92-1.38,1.65-.05,2.79,.57,4.27,1.19,3.26,1.37,6.56,2.65,9.89,3.84,6.66,2.39,13.45,4.44,20.3,6.18,2.74,.7,5.5,1.34,8.26,1.94,20.68,4.49,41.85,6.49,62.97,7.41,21.3,.92,42.71,1.16,64.03,.84,10.6-.16,21.2-.6,31.75-1.64,9.44-.93,18.92-2.18,28.14-4.47,6.13-1.52,12.15-3.51,17.9-6.14,2.83-1.29,5.58-2.75,8.23-4.37,1.92-1.18,3.68-2.71,5.64-3.78s4.19-1.38,6.36-1.36c.88,0,1.76,.07,2.6,.35,1.3,.44,1.78,1.1,2.13,2.32,.46,1.61,1.26,3.21,2.04,4.68,1.91,3.63,4.57,6.85,7.96,9.19,6.95,4.81,15.69,4.38,23.74,4.24,1.91-.03,3.81-.04,5.72,.08,.47,.03,.94,.07,1.41,.12,.15,.01,.48,.07,.69,.11,.83,.16,1.64,.32,2.46,.55,.81,.23,1.59,.53,2.38,.79h.02s.07,.04,.11,.06c.3,.15,.6,.29,.89,.44,.74,.38,1.46,.79,2.16,1.23,.42,.27,.84,.54,1.24,.83,.13,.09,.49,.38,.68,.53,1.18,1,2.31,2.03,3.36,3.17,.58,.63,1.12,1.28,1.67,1.94l.02,.03-.04-.06,.05,.07c.1,.13,.27,.37,.29,.4,.19,.26,.38,.52,.57,.79,.99,1.43,1.88,2.91,2.7,4.44,.41,.77,.8,1.55,1.17,2.34,.17,.36,.32,.72,.48,1.07,.11,.27,.22,.54,.32,.82,1.32,3.45,2.26,7.03,2.9,10.66,.09,.48,.17,.97,.24,1.46,.02,.13,.06,.45,.09,.67,.1,.89,.2,1.78,.26,2.67,.15,1.96,.21,3.93,.19,5.9-.02,1.97-.13,3.93-.33,5.89Z"/><path class="h" d="M1141.67,2213.44c-.1-.13-.19-.27-.29-.4h0c.25,.34,.32,.43,.3,.4Z"/></g><g><path class="h" d="M1110.43,2223.33s-.06,.03-.09,.05h0c-.07,.06-.14,.12-.21,.18-.08,.07-.15,.15-.22,.22,.02,0,.18-.12,.52-.46Z"/><path class="h" d="M1093.03,2229.3c-7.54,18.86-5.06,36.25-15.26,53.32-2.81,4.7-3.32,9.51-5.35,14.92-1.39,3.7,2.2,7.95,5.94,7.8,5.74-.23,10.69-2.83,15.47-5.78,3.73-2.3,7.44-4.65,11.02-7.18,7.66-5.43,14.8-11.66,19.83-19.67,5.49-8.74,7.68-19.2,7.67-29.42,0-5.1-.41-10.37-1.56-15.34-1.22-5.27-3.79-10.27-8.12-13.61-4.76-3.68-12.47-4.93-18.08-1.89-4.27,2.32-6.61,6.82-9.5,12.36-1.13,2.18-1.84,3.92-2.07,4.49Zm18.66,40.58c.13-.16,.53-.69,.53-.7-.01,.14-.3,.46-.53,.7Zm.24-46.77c.9-.13,1.12-.19,1.65,.02h.01c.13,.05,.22,.09,.3,.13,.41,.21,.81,.44,1.19,.7,.01,0,.04,.03,.08,.06,.31,.28,.62,.56,.91,.86,.07,.07,.23,.26,.37,.42,.15,.22,.35,.5,.42,.61,.26,.41,.49,.83,.7,1.26l.46,1.07c.69,1.97,1.14,4.01,1.45,6.08,.66,5.48,.76,11.04,.1,16.53-.54,3.52-1.43,6.98-2.72,10.3-1.28,2.88-2.85,5.6-4.72,8.14-.1,.13-.19,.26-.29,.39-.1,.14-.16,.21-.18,.24-.11,.12-.21,.22-.25,.27-.51,.62-1.04,1.22-1.58,1.82-1.12,1.23-2.31,2.41-3.53,3.55-1.19,1.11-2.43,2.17-3.69,3.2-.3,.24-.59,.48-.89,.72-.07,.05-.13,.1-.2,.15,.16-.13,.3-.24,.28-.21-.59,.6-1.42,1.07-2.11,1.57-1.74,1.26-3.46,2.93-5.59,3.5-.99,.26-1.95,.26-2.72-.51-1.28-1.27-.17-2.7,.29-4.12,1.34-4.08,2.63-8.17,3.87-12.27,1.22-4.02,2.87-8.22,3.58-12.36,1.02-5.92,2.44-11.83,4.39-17.54,0-.03,.02-.06,.03-.09,.13-.47,.41-1.38,1.04-3.62,.03-.1,.03-.09,.03-.11,.44-1.56,1.02-2.7,1.78-4.28,0,0,1.77-3.71,2.59-4.77,.1-.13,.21-.26,.21-.26h0c.47-.5,1.06-.87,1.71-1.09l1.04-.34Z"/><path class="h" d="M1115.59,2224.31s-.04-.01-.08-.04c.04,.02,.07,.04,.08,.04Z"/><path class="h" d="M1101.21,2279.87c.11-.08,.21-.17,.32-.25-.29,.23-.65,.51-.32,.25Z"/></g></g><g><path class="h" d="M779.64,2016.08v-29.4h12.85c3.19,0,5.99,.62,8.4,1.85,2.41,1.23,4.28,2.94,5.63,5.12,1.34,2.18,2.02,4.76,2.02,7.73s-.67,5.51-2.02,7.71c-1.34,2.2-3.22,3.91-5.63,5.15-2.41,1.23-5.21,1.85-8.4,1.85h-12.85Zm5.46-4.62h7.14c2.21,0,4.12-.42,5.73-1.26,1.61-.84,2.86-2.02,3.74-3.53s1.32-3.28,1.32-5.29-.44-3.81-1.32-5.31-2.13-2.67-3.74-3.51c-1.61-.84-3.52-1.26-5.73-1.26h-7.14v20.16Z"/><path class="h" d="M813.82,2016.08v-22.43h5v6.17l-.59-1.81c.67-1.51,1.73-2.66,3.17-3.44,1.44-.78,3.24-1.18,5.4-1.18v5c-.22-.06-.43-.09-.63-.11-.2-.01-.39-.02-.59-.02-1.99,0-3.57,.58-4.75,1.74-1.18,1.16-1.76,2.89-1.76,5.19v10.88h-5.25Z"/><path class="h" d="M833.9,1989.95c-.98,0-1.78-.31-2.42-.92-.63-.62-.94-1.36-.94-2.23s.31-1.64,.94-2.25c.63-.6,1.43-.9,2.42-.9s1.79,.29,2.42,.86,.95,1.3,.95,2.16c0,.92-.31,1.7-.92,2.33-.62,.63-1.43,.95-2.44,.95Zm-2.65,26.12v-22.43h5.25v22.43h-5.25Z"/><path class="h" d="M856.12,1993.4c1.79,0,3.4,.35,4.81,1.05,1.41,.7,2.53,1.77,3.34,3.21,.81,1.44,1.22,3.3,1.22,5.57v12.85h-5.25v-12.18c0-1.99-.47-3.47-1.41-4.45-.94-.98-2.25-1.47-3.93-1.47-1.23,0-2.32,.25-3.28,.76-.95,.5-1.69,1.25-2.2,2.25-.52,.99-.78,2.25-.78,3.76v11.34h-5.25v-22.43h5v6.05l-.88-1.85c.78-1.43,1.92-2.53,3.42-3.3,1.5-.77,3.23-1.15,5.19-1.15Z"/><path class="h" d="M872.16,2016.08v-31.16h5.25v31.16h-5.25Zm4.28-5l.13-6.59,11.72-10.84h6.3l-9.95,10-2.77,2.31-5.42,5.12Zm12.64,5l-8.19-10.12,3.32-4.2,11.26,14.32h-6.38Z"/><path class="h" d="M901.52,1989.95c-.98,0-1.79-.31-2.42-.92-.63-.62-.94-1.36-.94-2.23s.31-1.64,.94-2.25c.63-.6,1.43-.9,2.42-.9s1.79,.29,2.42,.86,.95,1.3,.95,2.16c0,.92-.31,1.7-.92,2.33-.62,.63-1.43,.95-2.44,.95Zm-2.65,26.12v-22.43h5.25v22.43h-5.25Z"/><path class="h" d="M923.73,1993.4c1.79,0,3.39,.35,4.81,1.05,1.41,.7,2.53,1.77,3.34,3.21,.81,1.44,1.22,3.3,1.22,5.57v12.85h-5.25v-12.18c0-1.99-.47-3.47-1.41-4.45-.94-.98-2.25-1.47-3.93-1.47-1.23,0-2.32,.25-3.28,.76s-1.69,1.25-2.21,2.25-.78,2.25-.78,3.76v11.34h-5.25v-22.43h5v6.05l-.88-1.85c.78-1.43,1.92-2.53,3.42-3.3,1.5-.77,3.23-1.15,5.19-1.15Z"/><path class="h" d="M949.31,2015.07c-2.13,0-4.05-.46-5.77-1.37-1.72-.91-3.08-2.18-4.07-3.8-.99-1.62-1.49-3.53-1.49-5.71s.5-4.05,1.49-5.67c.99-1.62,2.35-2.88,4.07-3.78,1.72-.9,3.65-1.34,5.77-1.34,1.9,0,3.61,.38,5.12,1.13,1.51,.76,2.72,1.93,3.63,3.53,.91,1.6,1.36,3.64,1.36,6.13s-.46,4.54-1.36,6.15c-.91,1.61-2.12,2.8-3.63,3.57-1.51,.77-3.22,1.16-5.12,1.16Zm.67,9.45c-2.07,0-4.1-.27-6.07-.82s-3.59-1.34-4.85-2.37l2.35-3.95c.98,.81,2.22,1.46,3.72,1.95,1.5,.49,3.02,.74,4.56,.74,2.46,0,4.27-.57,5.42-1.7,1.15-1.13,1.72-2.83,1.72-5.1v-3.99l.42-5.08-.17-5.08v-5.46h5v19.03c0,4.06-1.04,7.05-3.11,8.97-2.07,1.92-5.07,2.88-8.99,2.88Zm.13-13.9c1.32,0,2.49-.27,3.53-.82s1.84-1.3,2.42-2.27,.86-2.08,.86-3.34-.29-2.37-.86-3.34c-.57-.97-1.38-1.71-2.42-2.23-1.04-.52-2.21-.78-3.53-.78s-2.5,.26-3.55,.78c-1.05,.52-1.86,1.26-2.44,2.23-.57,.97-.86,2.08-.86,3.34s.29,2.37,.86,3.34c.57,.97,1.39,1.72,2.44,2.27,1.05,.55,2.23,.82,3.55,.82Z"/><path class="h" d="M990.85,2016.37c-2.35,0-4.45-.5-6.28-1.49-1.83-.99-3.27-2.36-4.3-4.09-1.04-1.74-1.55-3.71-1.55-5.92s.52-4.22,1.55-5.94c1.04-1.72,2.47-3.07,4.3-4.05,1.83-.98,3.93-1.47,6.28-1.47,2.18,0,4.11,.44,5.77,1.32,1.67,.88,2.93,2.18,3.8,3.89l-4.03,2.35c-.67-1.06-1.49-1.85-2.46-2.35s-2.01-.76-3.13-.76c-1.29,0-2.45,.28-3.49,.84-1.04,.56-1.85,1.36-2.44,2.42-.59,1.05-.88,2.3-.88,3.76s.29,2.71,.88,3.76c.59,1.05,1.4,1.86,2.44,2.42,1.04,.56,2.2,.84,3.49,.84,1.12,0,2.16-.25,3.13-.76s1.79-1.29,2.46-2.35l4.03,2.35c-.87,1.68-2.13,2.98-3.8,3.88-1.67,.91-3.59,1.37-5.77,1.37Z"/><path class="h" d="M1014.7,2016.37c-2.3,0-4.34-.5-6.13-1.49-1.79-.99-3.21-2.36-4.24-4.09-1.04-1.74-1.55-3.71-1.55-5.92s.52-4.22,1.55-5.94c1.04-1.72,2.45-3.07,4.24-4.05,1.79-.98,3.84-1.47,6.13-1.47s4.39,.49,6.19,1.47c1.81,.98,3.22,2.32,4.24,4.03,1.02,1.71,1.53,3.7,1.53,5.96s-.51,4.19-1.53,5.92c-1.02,1.74-2.44,3.1-4.24,4.09-1.81,.99-3.87,1.49-6.19,1.49Zm0-4.49c1.29,0,2.44-.28,3.44-.84,1.01-.56,1.8-1.37,2.37-2.44s.86-2.31,.86-3.74-.29-2.71-.86-3.76c-.57-1.05-1.37-1.85-2.37-2.42s-2.14-.84-3.4-.84-2.43,.28-3.42,.84-1.78,1.36-2.37,2.42c-.59,1.05-.88,2.3-.88,3.76s.29,2.67,.88,3.74c.59,1.06,1.38,1.88,2.37,2.44,.99,.56,2.12,.84,3.38,.84Z"/><path class="h" d="M1028.73,1998.02v-4.2h14.95v4.2h-14.95Zm3.7,18.06v-23.69c0-2.35,.69-4.23,2.08-5.65,1.39-1.41,3.37-2.12,5.94-2.12,.92,0,1.8,.1,2.62,.29,.83,.2,1.52,.5,2.08,.92l-1.43,3.95c-.39-.31-.84-.54-1.34-.69-.5-.15-1.02-.23-1.55-.23-1.09,0-1.92,.3-2.48,.9-.56,.6-.84,1.51-.84,2.71v2.52l.17,2.35v18.73h-5.25Z"/><path class="h" d="M1044.36,1998.02v-4.2h14.95v4.2h-14.95Zm3.7,18.06v-23.69c0-2.35,.69-4.23,2.08-5.65,1.39-1.41,3.37-2.12,5.94-2.12,.92,0,1.8,.1,2.62,.29,.83,.2,1.52,.5,2.08,.92l-1.43,3.95c-.39-.31-.84-.54-1.34-.69-.5-.15-1.02-.23-1.55-.23-1.09,0-1.92,.3-2.48,.9-.56,.6-.84,1.51-.84,2.71v2.52l.17,2.35v18.73h-5.25Z"/><path class="h" d="M1073.04,2016.37c-2.49,0-4.67-.5-6.53-1.49-1.86-.99-3.3-2.36-4.33-4.09-1.02-1.74-1.53-3.71-1.53-5.92s.5-4.22,1.49-5.94c.99-1.72,2.37-3.07,4.12-4.05,1.75-.98,3.74-1.47,5.99-1.47s4.13,.48,5.84,1.43c1.71,.95,3.05,2.3,4.03,4.03s1.47,3.78,1.47,6.13c0,.22,0,.48-.02,.76-.01,.28-.04,.55-.06,.8h-18.69v-3.49h15.92l-2.06,1.09c.03-1.29-.24-2.42-.8-3.4-.56-.98-1.32-1.75-2.29-2.31-.97-.56-2.08-.84-3.34-.84s-2.42,.28-3.38,.84c-.97,.56-1.72,1.34-2.27,2.33s-.82,2.16-.82,3.51v.84c0,1.34,.31,2.53,.92,3.57s1.48,1.83,2.6,2.39c1.12,.56,2.41,.84,3.86,.84,1.26,0,2.39-.2,3.4-.59,1.01-.39,1.9-1.01,2.69-1.85l2.81,3.23c-1.01,1.18-2.27,2.08-3.8,2.71s-3.27,.95-5.23,.95Z"/><path class="h" d="M1099.16,2016.37c-2.49,0-4.67-.5-6.53-1.49-1.86-.99-3.3-2.36-4.33-4.09-1.02-1.74-1.53-3.71-1.53-5.92s.5-4.22,1.49-5.94c.99-1.72,2.37-3.07,4.12-4.05,1.75-.98,3.74-1.47,5.99-1.47s4.13,.48,5.84,1.43c1.71,.95,3.05,2.3,4.03,4.03s1.47,3.78,1.47,6.13c0,.22,0,.48-.02,.76-.01,.28-.04,.55-.06,.8h-18.69v-3.49h15.92l-2.06,1.09c.03-1.29-.24-2.42-.8-3.4-.56-.98-1.32-1.75-2.29-2.31-.97-.56-2.08-.84-3.34-.84s-2.42,.28-3.38,.84c-.97,.56-1.72,1.34-2.27,2.33s-.82,2.16-.82,3.51v.84c0,1.34,.31,2.53,.92,3.57s1.48,1.83,2.6,2.39c1.12,.56,2.41,.84,3.86,.84,1.26,0,2.39-.2,3.4-.59,1.01-.39,1.9-1.01,2.69-1.85l2.81,3.23c-1.01,1.18-2.27,2.08-3.8,2.71s-3.27,.95-5.23,.95Z"/><path class="h" d="M1116.43,2016.37c-.95,0-1.76-.33-2.44-.99-.67-.66-1.01-1.49-1.01-2.5,0-1.06,.34-1.91,1.01-2.54,.67-.63,1.48-.94,2.44-.94s1.76,.31,2.44,.94c.67,.63,1.01,1.48,1.01,2.54,0,1.01-.34,1.84-1.01,2.5-.67,.66-1.48,.99-2.44,.99Z"/><path class="h" d="M1126.67,2016.37c-.95,0-1.76-.33-2.44-.99-.67-.66-1.01-1.49-1.01-2.5,0-1.06,.34-1.91,1.01-2.54,.67-.63,1.48-.94,2.44-.94s1.76,.31,2.44,.94c.67,.63,1.01,1.48,1.01,2.54,0,1.01-.34,1.84-1.01,2.5-.67,.66-1.48,.99-2.44,.99Z"/><path class="h" d="M1136.92,2016.37c-.95,0-1.76-.33-2.44-.99-.67-.66-1.01-1.49-1.01-2.5,0-1.06,.34-1.91,1.01-2.54,.67-.63,1.48-.94,2.44-.94s1.76,.31,2.44,.94c.67,.63,1.01,1.48,1.01,2.54,0,1.01-.34,1.84-1.01,2.5-.67,.66-1.48,.99-2.44,.99Z"/></g></g><g id="e"><path class="n" d="M1774.17,.77c-24.78,1.12-49.54,2.86-72.61,10.61-18.56,6.24-34.66,15.79-49.09,26.8-30.27,23.11-55.79,49.14-88.29,70.55-75.37,49.66-154.16,97.2-242.12,132.26-43.97,17.53-90.1,31.84-137.82,41.61-50.9,10.42-103.41,14.98-155.88,16.4-112.27,3.05-224.1-7.99-336.16-11.28-89.73-2.63-178.28,.91-265.46,18.59-77.12,15.64-151.76,39.41-220.91,70.57C127.86,412.02,53.18,458.87,0,516.71v1849.42c27.16,23.08,53.94,46.4,73.16,74.27,70.5,102.2,21.1,229.38,14.77,347.04-2.56,47.58,5.75,101.1,50.33,131.07,37.25,25.04,89.51,26.52,137.35,24.09,77.93-3.96,155.32-15.24,230.23-33.54,127.82-31.24,272-81.56,385.53-23.64,33.41,17.04,60.01,42.16,93.51,59.09,99.41,50.22,226.82,16.82,336.27-16,109.45-32.82,240.18-61.85,334.78-5.58,96.18,57.21,103.39,171.02,109.96,269.11,6.57,98.09,39.03,214.94,150.78,247.2,1.1,.32,2.22,.62,3.33,.92V7.92c-47.7-6.72-96.34-9.38-145.83-7.15Z"/></g></g></svg>